<svg xmlns="http://www.w3.org/2000/svg" id="prefix__Arrow_-_Circle_left" width="24" height="24" data-name="Arrow - Circle left" viewBox="0 0 24 24">
    <defs>
        <clipPath id="prefix__clip-path">
            <path id="prefix__Rectangle_1779" d="M0 0H24V24H0z" data-name="Rectangle 1779" style="stroke:#707070;fill:#ed4d67"/>
        </clipPath>
    </defs>
    <g id="prefix__Right_arrow_icon" data-name="Right arrow icon">
        <path id="prefix__Path_3209" d="M8.531 3.769L3.8-.96a.641.641 0 01-.2-.469.641.641 0 01.2-.471l4.731-4.726A.641.641 0 019-6.824a.641.641 0 01.469.2l1.062 1.062a.641.641 0 01.2.469.641.641 0 01-.2.469l-3.2 3.2 3.2 3.2a.654.654 0 010 .937L9.469 3.769a.654.654 0 01-.937 0zM1.073-5.439A7.8 7.8 0 000-1.429a7.826 7.826 0 001.073 4.016A7.964 7.964 0 003.984 5.5 7.826 7.826 0 008 6.571 7.826 7.826 0 0012.016 5.5a7.964 7.964 0 002.911-2.911A7.826 7.826 0 0016-1.429a7.826 7.826 0 00-1.073-4.016 7.964 7.964 0 00-2.911-2.911A7.826 7.826 0 008-9.429a7.826 7.826 0 00-4.016 1.073 7.952 7.952 0 00-2.911 2.917z" data-name="Path 3209" transform="translate(4 13.429)" style="fill:#ed4d67"/>
    </g>
</svg>
