<svg xmlns="http://www.w3.org/2000/svg" width="24" height="24" viewBox="0 0 24 24">
    <defs>
        <clipPath id="prefix__clip-path">
            <path id="prefix__Rectangle_1779" d="M0 0H24V24H0z" data-name="Rectangle 1779" style="stroke:#707070;fill:#ddd"/>
        </clipPath>
    </defs>
    <g id="prefix__Right_arrow_icon" data-name="Right arrow icon">
        <path id="prefix__Path_3209" d="M7.469 3.769L12.2-.96a.641.641 0 00.2-.469.641.641 0 00-.2-.469L7.469-6.626A.641.641 0 007-6.824a.641.641 0 00-.469.2l-1.062 1.06a.641.641 0 00-.2.469.641.641 0 00.2.469l3.2 3.2-3.2 3.2a.654.654 0 000 .937l1.062 1.058a.654.654 0 00.937 0zm7.458-9.208A7.8 7.8 0 0116-1.429a7.826 7.826 0 01-1.073 4.016A7.964 7.964 0 0112.016 5.5 7.826 7.826 0 018 6.571 7.826 7.826 0 013.984 5.5a7.964 7.964 0 01-2.911-2.913A7.826 7.826 0 010-1.429a7.826 7.826 0 011.073-4.015 7.964 7.964 0 012.911-2.912A7.826 7.826 0 018-9.429a7.826 7.826 0 014.016 1.073 7.952 7.952 0 012.911 2.917z" data-name="Path 3209" transform="translate(4 13.429)" style="fill:#ddd"/>
    </g>
</svg>
