<svg xmlns="http://www.w3.org/2000/svg" width="24" height="24" viewBox="0 0 24 24">
    <g id="prefix__Group_6668" data-name="Group 6668" transform="translate(0 -.001)">
        <path id="prefix__Path_115" d="M1394.491 2906.294l.04-.038 2.15-1.872a1.471 1.471 0 011.15-.381 1.691 1.691 0 011.035.475.81.81 0 01.061.069l2.111 2.666a1.515 1.515 0 01-.038 2.1.8.8 0 01-.123.1l-1.079.719c.086.374.649 1.46 2.62 3.432s3.058 2.535 3.432 2.622l.718-1.08a.787.787 0 01.1-.123 1.514 1.514 0 012.1-.038l2.665 2.111a.834.834 0 01.069.062 1.59 1.59 0 01.093 2.186l-1.871 2.15-.038.041a2.111 2.111 0 01-1.531.5 9.155 9.155 0 01-3.024-.694 19.394 19.394 0 01-10.451-10.453c-.401-1.023-1.226-3.517-.189-4.554zm5.513 9.686c3.7 3.7 7.854 4.71 8.563 4.369l1.813-2.084v-.005l-2.61-2.068-.7 1.055c-.014.021-.029.041-.044.06a1.336 1.336 0 01-.985.487c-.388.021-1.567.083-4.749-3.1-.787-.787-3.181-3.182-3.1-4.748a1.337 1.337 0 01.487-.986c.019-.016.039-.031.06-.044l1.055-.7-2.067-2.609h-.007l-2.082 1.813c-.344.704.662 4.856 4.362 8.56z" data-name="Path 115" transform="translate(-1390.988 -2900.997)" style="fill:#222"/>
        <path id="prefix__Rectangle_936" d="M0 0H24V24H0z" data-name="Rectangle 936" transform="translate(0 .001)" style="fill:none"/>
    </g>
</svg>
