<svg xmlns="http://www.w3.org/2000/svg" width="24" height="24" viewBox="0 0 24 24">
    <g id="prefix__Group_11854" data-name="Group 11854" transform="translate(-.002 -.001)">
        <path id="prefix__Rectangle_936" d="M0 0H24V24H0z" data-name="Rectangle 936" transform="translate(.002 .001)" style="fill:none"/>
        <path id="prefix__Path_3228" d="M17.446 1.865a4.515 4.515 0 001.443-3.22c0-2.623-2.509-4.791-5.778-5.178a7.088 7.088 0 00-6.29-3.217C3.053-9.75 0-7.4 0-4.5a4.527 4.527 0 001.443 3.22A8.584 8.584 0 01.207.517.759.759 0 00.758 1.8 7.538 7.538 0 004.863.524a9.343 9.343 0 00.931.161 7.066 7.066 0 006.273 3.207 8.681 8.681 0 001.961-.223 7.556 7.556 0 004.106 1.272.759.759 0 00.551-1.279 8.357 8.357 0 01-1.239-1.797zM4.565-1.162L4-.8a6.674 6.674 0 01-1.413.7c.089-.154.177-.318.262-.485L3.361-1.6l-.813-.8a3.007 3.007 0 01-.974-2.1c0-1.991 2.4-3.673 5.247-3.673s5.247 1.679 5.247 3.673S9.664-.83 6.821-.83a7.147 7.147 0 01-1.607-.184zM16.341.744l-.81.8.508 1.02c.085.167.174.331.262.485a6.672 6.672 0 01-1.413-.7l-.561-.364-.653.151a7.147 7.147 0 01-1.607.184A6.1 6.1 0 017.762.688c3.322-.354 5.88-2.538 5.88-5.191 0-.112-.013-.22-.023-.328 2.112.475 3.7 1.863 3.7 3.476a3.007 3.007 0 01-.978 2.099z" data-name="Path 3228" transform="translate(2.795 14.273)" style="fill:#222"/>
    </g>
</svg>
