<svg xmlns="http://www.w3.org/2000/svg" width="159.859" height="160" viewBox="0 0 159.859 160">
    <defs>
        <style>
            .prefix__cls-3{opacity:.429;isolation:isolate}.prefix__cls-4{fill:#f7657d}.prefix__cls-7{fill:#bf2640}.prefix__cls-9{fill:#fff}.prefix__cls-10{fill:#f1647d}.prefix__cls-11{opacity:.33}.prefix__cls-12{opacity:.1}
        </style>
    </defs>
    <g id="prefix__Group_12123" data-name="Group 12123" transform="translate(-1334.01 -1125.6)">
        <g id="prefix__Group_6942" data-name="Group 6942" transform="translate(1334.01 1125.6)">
            <g id="prefix__Rectangle_1795" data-name="Rectangle 1795" transform="translate(9.754 19.204)" style="opacity:.15">
                <path id="prefix__Path_11413" d="M1428.815 1148.418l37.524 39.371a26.64 26.64 0 01-1.272 38.121L1425 1262.782a27.793 27.793 0 01-38.8-1.25l-37.524-39.371a26.643 26.643 0 011.272-38.122l40.069-36.87a27.79 27.79 0 0138.798 1.249z" data-name="Path 11413" transform="translate(-1341.264 -1139.883)" style="fill:#ed4e67"/>
            </g>
            <g id="prefix__Ellipse_80" class="prefix__cls-3" data-name="Ellipse 80" transform="translate(130.919 148.08)">
                <path id="prefix__Path_11414" d="M1434.942 1242.764a3.553 3.553 0 01-3.535-3.084 3.461 3.461 0 01.714-2.576 3.58 3.58 0 016.361 1.716 3.456 3.456 0 01-.714 2.576 3.556 3.556 0 01-2.391 1.343 3.652 3.652 0 01-.435.025zm.005-5.571a2.144 2.144 0 00-.261.016 2.1 2.1 0 00-1.416.792 2.012 2.012 0 00-.415 1.5 2.121 2.121 0 003.763 1 2.011 2.011 0 00.417-1.5 2.091 2.091 0 00-2.088-1.808z" class="prefix__cls-4" data-name="Path 11414" transform="translate(-1431.38 -1235.733)"/>
            </g>
            <g id="prefix__Path_823" data-name="Path 823" transform="translate(15.921 142.997)" style="opacity:.418;isolation:isolate">
                <path id="prefix__Path_11415" d="M1350.689 1248.956l.143-6.006-4.98-3.536 5.884-1.733 1.869-5.728 3.48 4.933 6.137-.011-3.72 4.8 1.908 5.722-5.779-1.985zm-1.542-8.991l3.161 2.244-.09 3.855 3.172-2.278 3.7 1.271-1.221-3.663 2.369-3.055-3.91.007-2.239-3.176-1.2 3.692z" class="prefix__cls-4" data-name="Path 11415" transform="translate(-1345.851 -1231.953)"/>
            </g>
            <g id="prefix__Path_828" data-name="Path 828" transform="translate(124.457 10.061)" style="opacity:.369;isolation:isolate">
                <path id="prefix__Path_11416" d="M1431.8 1145.539l-1.051-4.23-4.172-1.569 3.8-2.3.221-4.355 3.379 2.82 4.295-1.151-1.685 4.052 2.434 3.671-4.437-.325zm-1.9-6.107l2.08.782.535 2.151 1.414-1.726 2.227.163-1.219-1.841.846-2.033-2.163.581-1.716-1.433-.112 2.208z" class="prefix__cls-4" data-name="Path 11416" transform="translate(-1426.573 -1133.083)"/>
            </g>
            <g id="prefix__Ellipse_81" class="prefix__cls-3" data-name="Ellipse 81" transform="translate(11.899 18.85)">
                <path id="prefix__Path_11417" d="M1348.435 1150.606a5.558 5.558 0 01-5.533-4.823 5.4 5.4 0 011.115-4.02 5.6 5.6 0 019.956 2.678 5.4 5.4 0 01-1.115 4.02 5.642 5.642 0 01-4.424 2.145zm.007-9.528a4.041 4.041 0 00-.507.031 4.112 4.112 0 00-2.769 1.552 3.955 3.955 0 00-.816 2.941 4.145 4.145 0 007.359 1.962 3.952 3.952 0 00.816-2.941 4.094 4.094 0 00-4.084-3.544z" class="prefix__cls-4" data-name="Path 11417" transform="translate(-1342.859 -1139.62)"/>
            </g>
            <g id="prefix__Ellipse_80-2" class="prefix__cls-3" data-name="Ellipse 80-2" transform="translate(0 31.437)">
                <path id="prefix__Path_11418" d="M1337.572 1156.012a3.554 3.554 0 01-3.535-3.084 3.461 3.461 0 01.714-2.576 3.58 3.58 0 016.361 1.716 3.457 3.457 0 01-.714 2.575 3.546 3.546 0 01-2.391 1.343 3.394 3.394 0 01-.435.026zm.005-5.572a2.145 2.145 0 00-1.677.809 2.01 2.01 0 00-.415 1.5 2.121 2.121 0 003.763 1 2.008 2.008 0 00.417-1.495 2.092 2.092 0 00-2.088-1.814z" class="prefix__cls-4" data-name="Path 11418" transform="translate(-1334.01 -1148.981)"/>
            </g>
            <g id="prefix__Ellipse_81-2" class="prefix__cls-3" data-name="Ellipse 81" transform="translate(129.078 29.894)">
                <path id="prefix__Path_11419" d="M1434.762 1157.188a5.026 5.026 0 01-.581-.035 4.73 4.73 0 01-3.185-1.791 4.6 4.6 0 01-.949-3.422 4.77 4.77 0 018.476-2.28 4.6 4.6 0 01.949 3.422 4.732 4.732 0 01-4.71 4.106zm-.007-8.112a3.487 3.487 0 00-3.477 3.017 3.37 3.37 0 00.7 2.505 3.529 3.529 0 006.264-1.67 3.369 3.369 0 00-.7-2.5 3.5 3.5 0 00-2.357-1.322 3.6 3.6 0 00-.43-.029z" class="prefix__cls-4" data-name="Path 11419" transform="translate(-1430.01 -1147.834)"/>
            </g>
            <g id="prefix__Ellipse_80-2-2" class="prefix__cls-3" data-name="Ellipse 80-2" transform="translate(145.003 38.159)">
                <path id="prefix__Path_11420" d="M1445.421 1161.012a3.4 3.4 0 01-.436-.027 3.542 3.542 0 01-2.389-1.343 3.457 3.457 0 01-.715-2.575 3.58 3.58 0 016.361-1.716 3.455 3.455 0 01.714 2.576 3.552 3.552 0 01-3.535 3.085zm0-5.572a2.092 2.092 0 00-2.088 1.808 2.008 2.008 0 00.415 1.495 2.122 2.122 0 003.765-1 2.006 2.006 0 00-.417-1.5 2.145 2.145 0 00-1.675-.809z" class="prefix__cls-4" data-name="Path 11420" transform="translate(-1441.854 -1153.981)"/>
            </g>
            <g id="prefix__Group_12123-2" data-name="Group 12123" transform="translate(10.848 20.266)">
                <path id="prefix__Path_11421" d="M1417.692 1268.727a.659.659 0 01-.012-1.318c.852-.016 1.716-.074 2.567-.169a.65.65 0 01.729.58.658.658 0 01-.581.729c-.891.1-1.8.161-2.69.179zm-2.633-.077h-.051c-.894-.07-1.795-.183-2.677-.336a.659.659 0 11.226-1.3c.842.148 1.7.255 2.552.32a.659.659 0 01-.05 1.316zm7.862-.519a.659.659 0 01-.136-1.3c.839-.177 1.677-.4 2.489-.651a.659.659 0 01.393 1.259c-.851.265-1.729.495-2.61.68a.6.6 0 01-.136.012zm-13.048-.385a.712.712 0 01-.175-.023c-.863-.238-1.726-.522-2.564-.84a.659.659 0 01.469-1.232c.8.305 1.622.574 2.444.8a.659.659 0 01-.175 1.295zm18.072-1.185a.659.659 0 01-.257-1.267c.789-.332 1.57-.7 2.321-1.109a.659.659 0 11.625 1.16c-.788.425-1.607.816-2.435 1.163a.63.63 0 01-.254.054zm-22.99-.69a.653.653 0 01-.292-.07q-.712-.351-1.412-.749l-.935-.53a.659.659 0 11.651-1.147l.934.531c.445.253.893.489 1.346.714a.66.66 0 01-.293 1.25zm27.625-1.806a.659.659 0 01-.367-1.206c.713-.477 1.406-.992 2.064-1.533a.659.659 0 11.836 1.018c-.69.567-1.418 1.109-2.166 1.609a.66.66 0 01-.367.114zm-32.231-.758a.642.642 0 01-.324-.086l-2.294-1.3a.659.659 0 01.651-1.145l2.292 1.3a.658.658 0 01-.325 1.232zm36.3-2.584a.658.658 0 01-.467-1.124c.6-.6 1.183-1.244 1.725-1.906a.659.659 0 011.021.835c-.57.7-1.181 1.37-1.812 2a.658.658 0 01-.469.196zm-40.884-.016a.667.667 0 01-.325-.086l-2.292-1.3a.659.659 0 01.651-1.147l2.293 1.3a.659.659 0 01-.325 1.233zm-4.585-2.6a.65.65 0 01-.325-.086l-2.292-1.3a.659.659 0 01.651-1.147l2.292 1.3a.659.659 0 01-.325 1.231zm48.806-1.455a.659.659 0 01-.547-1.025c.277-.418.546-.846.8-1.284l.55-.934a.659.659 0 111.136.668l-.55.935q-.4.69-.843 1.346a.658.658 0 01-.548.293zm-53.392-1.147a.645.645 0 01-.324-.086l-2.292-1.3a.659.659 0 11.651-1.147l2.292 1.3a.659.659 0 01-.327 1.232zm-4.585-2.6a.656.656 0 01-.324-.086l-2.293-1.3a.659.659 0 11.651-1.146l2.292 1.3a.66.66 0 01-.327 1.233zm60.685-.776a.668.668 0 01-.333-.09.66.66 0 01-.234-.9l1.335-2.272a.659.659 0 111.136.668l-1.335 2.272a.659.659 0 01-.571.321zm-65.27-1.826a.667.667 0 01-.325-.086l-2.292-1.3a.659.659 0 01.651-1.147l2.293 1.3a.659.659 0 01-.325 1.233zm-4.585-2.6a.65.65 0 01-.325-.086l-2.292-1.3a.659.659 0 01.651-1.146l2.293 1.3a.659.659 0 01-.325 1.232zm72.525-.117a.659.659 0 01-.568-.992l1.335-2.274a.659.659 0 011.137.667l-1.336 2.274a.656.656 0 01-.569.323zm-77.112-2.485a.648.648 0 01-.324-.086l-2.292-1.3a.658.658 0 11.65-1.146l2.294 1.3a.659.659 0 01-.327 1.232zm79.783-2.06a.651.651 0 01-.333-.091.66.66 0 01-.235-.9l1.336-2.272a.659.659 0 011.136.667l-1.335 2.272a.66.66 0 01-.57.322zm-84.368-.541a.658.658 0 01-.324-.086l-2.292-1.3a.659.659 0 01.649-1.147l2.292 1.3a.659.659 0 01-.325 1.233zm-4.585-2.6a.652.652 0 01-.325-.086l-2.292-1.3a.659.659 0 01.651-1.147l2.292 1.3a.658.658 0 01-.325 1.232zm91.623-1.4a.659.659 0 01-.567-.992l1.335-2.272a.659.659 0 111.136.667l-1.335 2.272a.657.657 0 01-.574.318zm-96.165-1.269a.652.652 0 01-.368-.113c-.746-.5-1.472-1.046-2.161-1.615a.659.659 0 01.839-1.016c.656.542 1.349 1.06 2.059 1.54a.658.658 0 01-.368 1.2zm98.835-3.277a.671.671 0 01-.333-.09.66.66 0 01-.234-.9l1.335-2.272a.66.66 0 011.137.668l-1.336 2.272a.658.658 0 01-.569.315zm-102.893-.077a.657.657 0 01-.468-.195c-.632-.636-1.241-1.311-1.807-2.006a.659.659 0 011.022-.832c.539.661 1.119 1.3 1.721 1.909a.662.662 0 010 .933.653.653 0 01-.469.185zm-3.325-4.082a.656.656 0 01-.55-.3c-.5-.749-.96-1.532-1.378-2.323a.659.659 0 011.167-.615c.4.753.838 1.5 1.31 2.21a.658.658 0 01-.549 1.023zm108.89-.386a.661.661 0 01-.569-.994l1.336-2.272a.659.659 0 011.136.668l-1.335 2.272a.658.658 0 01-.569.317zm-111.348-4.269a.657.657 0 01-.61-.41c-.337-.83-.639-1.686-.894-2.548a.659.659 0 011.264-.374c.243.82.528 1.636.85 2.424a.658.658 0 01-.362.859.645.645 0 01-.247.043zm114.018-.276a.66.66 0 01-.567-.994l1.335-2.272a.659.659 0 011.136.668l-1.335 2.272a.66.66 0 01-.569.32zm2.67-4.546a.659.659 0 01-.567-.992l1.335-2.272a.659.659 0 111.136.667l-1.335 2.272a.657.657 0 01-.569.319zm-118.184-.224a.66.66 0 01-.647-.537c-.168-.881-.293-1.78-.374-2.673a.659.659 0 011.314-.117c.075.849.195 1.7.355 2.544a.659.659 0 01-.524.77.64.64 0 01-.127.007zm120.854-4.32a.66.66 0 01-.567-.992l1.335-2.274a.659.659 0 011.137.667l-1.336 2.274a.657.657 0 01-.569.319zm-121.321-.921h-.007a.66.66 0 01-.652-.667 26.909 26.909 0 01.166-2.7.659.659 0 011.31.146c-.094.847-.148 1.71-.157 2.564a.659.659 0 01-.659.651zm123.992-3.624a.66.66 0 01-.567-.994l1.335-2.272c.183-.312.358-.625.527-.94a.659.659 0 111.162.621q-.264.5-.553.986l-1.335 2.272a.659.659 0 01-.568.321zm-123.4-1.607a.707.707 0 01-.14-.015.659.659 0 01-.506-.784 26.612 26.612 0 01.7-2.607.658.658 0 111.253.4 25.634 25.634 0 00-.667 2.481.658.658 0 01-.644.519zm126.406-4.011a.659.659 0 01-.609-.91c.325-.789.616-1.6.861-2.421a.659.659 0 011.263.38c-.258.858-.562 1.714-.905 2.544a.659.659 0 01-.614.401zm-124.788-1a.661.661 0 01-.6-.924c.358-.819.762-1.631 1.2-2.416a.659.659 0 011.15.644c-.418.748-.8 1.522-1.146 2.3a.658.658 0 01-.608.394zm126.3-4.046a.682.682 0 01-.126-.012.66.66 0 01-.522-.772c.163-.838.284-1.693.362-2.543a.659.659 0 111.312.12c-.082.893-.21 1.792-.379 2.673a.659.659 0 01-.649.532zm-123.8-.587a.66.66 0 01-.567-.994l1.335-2.272a.659.659 0 011.136.668l-1.335 2.272a.66.66 0 01-.568.324zm2.67-4.546a.659.659 0 01-.568-.992l1.335-2.272a.66.66 0 011.137.668l-1.336 2.272a.658.658 0 01-.567.322zm121.6-.1a.658.658 0 01-.659-.653c-.01-.851-.061-1.714-.155-2.564a.659.659 0 111.31-.144 26.983 26.983 0 01.163 2.7.66.66 0 01-.654.666zm-118.931-4.44a.651.651 0 01-.333-.091.658.658 0 01-.234-.9l1.335-2.274a.659.659 0 011.136.667l-1.335 2.274a.658.658 0 01-.565.317zm118.353-.792a.66.66 0 01-.644-.522c-.177-.836-.4-1.671-.657-2.484a.659.659 0 011.256-.4c.271.854.5 1.732.691 2.61a.659.659 0 01-.507.781.616.616 0 01-.135.008zm-115.683-3.753a.66.66 0 01-.567-.994l1.335-2.272a.659.659 0 011.136.667l-1.335 2.274a.659.659 0 01-.565.319zm114.085-1.262a.659.659 0 01-.6-.4c-.339-.782-.719-1.558-1.135-2.306a.659.659 0 111.152-.639c.436.784.836 1.6 1.193 2.423a.659.659 0 01-.6.92zm-111.415-3.283a.659.659 0 01-.567-.992l1.335-2.272a.659.659 0 111.136.667l-1.335 2.272a.657.657 0 01-.565.318zm108.862-1.32a.657.657 0 01-.543-.284c-.487-.7-1.014-1.389-1.565-2.038a.658.658 0 111-.852c.581.68 1.133 1.4 1.646 2.141a.659.659 0 01-.541 1.034zm-106.192-3.226a.659.659 0 01-.567-.992l1.335-2.272a.66.66 0 011.137.668l-1.335 2.272a.662.662 0 01-.565.317zm102.782-.785a.658.658 0 01-.458-.185c-.613-.592-1.264-1.16-1.936-1.693a.66.66 0 01.819-1.034c.706.559 1.389 1.158 2.033 1.779a.659.659 0 01-.457 1.133zm-4.126-3.27a.661.661 0 01-.358-.106q-.651-.422-1.334-.808l-.9-.512a.659.659 0 11.649-1.147l.9.512c.479.27.944.554 1.4.848a.659.659 0 01-.358 1.213zm-95.984-.49a.659.659 0 01-.567-.992l1.335-2.272a.659.659 0 011.136.667l-1.335 2.272a.657.657 0 01-.565.314zm91.422-2.151a.667.667 0 01-.325-.086l-2.292-1.3a.659.659 0 11.651-1.146l2.292 1.3a.659.659 0 01-.325 1.233zm-88.751-2.393a.66.66 0 01-.567-.994l1.335-2.272a.659.659 0 011.136.667l-1.335 2.274a.66.66 0 01-.566.318zm84.167-.208a.658.658 0 01-.325-.086l-2.293-1.3a.659.659 0 01.651-1.147l2.292 1.3a.66.66 0 01-.325 1.233zm-4.586-2.6a.643.643 0 01-.324-.086l-2.293-1.3a.659.659 0 11.651-1.146l2.292 1.3a.659.659 0 01-.327 1.232zm-76.91-1.736a.659.659 0 01-.567-.992l1.335-2.272a.659.659 0 111.136.667l-1.335 2.272a.657.657 0 01-.566.316zm72.325-.865a.656.656 0 01-.324-.086l-2.294-1.3a.659.659 0 11.651-1.146l2.294 1.3a.66.66 0 01-.327 1.233zm-4.585-2.6a.666.666 0 01-.325-.086l-2.292-1.3a.659.659 0 01.651-1.146l2.292 1.3a.659.659 0 01-.325 1.233zm-65.068-1.078a.66.66 0 01-.569-.992l1.336-2.274a.659.659 0 011.136.667l-1.335 2.274a.658.658 0 01-.566.314zm60.483-1.523a.652.652 0 01-.325-.086l-2.292-1.3a.659.659 0 01.651-1.147l2.292 1.3a.659.659 0 01-.325 1.232zm-4.586-2.6a.657.657 0 01-.324-.086l-2.293-1.3a.659.659 0 11.651-1.145l2.292 1.3a.66.66 0 01-.327 1.233zm-53.212-.411a.659.659 0 01-.554-1.014c.483-.757 1.008-1.5 1.561-2.2a.659.659 0 011.037.814c-.527.669-1.027 1.375-1.487 2.1a.659.659 0 01-.555.288zm48.627-2.19a.643.643 0 01-.324-.086l-2.292-1.3a.659.659 0 01.649-1.147l2.294 1.3a.659.659 0 01-.327 1.232zm-45.373-1.95a.659.659 0 01-.476-1.115c.621-.648 1.281-1.273 1.962-1.855a.659.659 0 11.858 1c-.648.555-1.277 1.15-1.868 1.765a.657.657 0 01-.474.193zm40.788-.652a.657.657 0 01-.324-.086l-2.294-1.3a.659.659 0 01.651-1.147l2.292 1.3a.659.659 0 01-.325 1.233zm-4.585-2.6a.648.648 0 01-.325-.086l-2.292-1.3a.659.659 0 01.651-1.146l2.292 1.3a.659.659 0 01-.325 1.232zm-32.2-.172a.66.66 0 01-.379-1.2c.737-.515 1.506-1 2.284-1.437a.658.658 0 11.647 1.147c-.741.42-1.474.88-2.176 1.372a.66.66 0 01-.378.104zm27.582-2.357a.648.648 0 01-.281-.063c-.774-.364-1.573-.7-2.376-.983a.659.659 0 01.444-1.241c.843.3 1.682.649 2.494 1.031a.66.66 0 01-.281 1.256zm-23-.231a.659.659 0 01-.269-1.261c.82-.364 1.666-.692 2.516-.976a.658.658 0 11.417 1.249c-.808.27-1.615.584-2.4.932a.644.644 0 01-.269.042zm18.044-1.546a.664.664 0 01-.161-.02c-.831-.21-1.678-.382-2.521-.511a.659.659 0 11.2-1.3c.884.136 1.772.316 2.643.536a.659.659 0 01-.161 1.3zm-13.054-.124a.659.659 0 01-.148-1.3c.874-.2 1.767-.366 2.653-.485a.659.659 0 01.175 1.307c-.844.113-1.7.269-2.531.463a.711.711 0 01-.15.001zm7.852-.675h-.038c-.858-.048-1.718-.057-2.572-.023a.659.659 0 11-.051-1.318c.9-.032 1.8-.026 2.7.026a.659.659 0 01-.036 1.316z" class="prefix__cls-7" data-name="Path 11421" transform="translate(-1342.078 -1140.673)"/>
            </g>
            <g id="prefix__Ellipse_80-2-3" class="prefix__cls-3" data-name="Ellipse 80" transform="translate(155.591 75.145)">
                <path id="prefix__Path_11422" d="M1451.862 1185.607a2.112 2.112 0 01-2.116-1.806 2 2 0 01.413-1.492 2.159 2.159 0 013.823.986 2 2 0 01-.413 1.492 2.138 2.138 0 01-1.447.805 2.42 2.42 0 01-.26.015zm0-3.255a1.323 1.323 0 00-.159.009 1.271 1.271 0 00-.866.479 1.138 1.138 0 00-.238.851 1.3 1.3 0 002.284.563 1.135 1.135 0 00.238-.85 1.247 1.247 0 00-1.257-1.052z" class="prefix__cls-4" data-name="Path 11422" transform="translate(-1449.729 -1181.489)"/>
            </g>
            <g id="prefix__Ellipse_81-3" data-name="Ellipse 81" transform="translate(128.367 133.765)" style="opacity:.25;isolation:isolate">
                <path id="prefix__Path_11423" d="M1435.055 1236.074a5.558 5.558 0 01-5.531-4.823 5.4 5.4 0 011.116-4.02 5.6 5.6 0 019.955 2.678 5.4 5.4 0 01-1.116 4.021 5.643 5.643 0 01-4.424 2.143zm.007-9.528a4.261 4.261 0 00-.505.03 4.1 4.1 0 00-2.767 1.553 3.951 3.951 0 00-.818 2.942 4.146 4.146 0 007.359 1.962 3.96 3.96 0 00.816-2.942 4.1 4.1 0 00-4.085-3.545z" class="prefix__cls-4" data-name="Path 11423" transform="translate(-1429.481 -1225.087)"/>
            </g>
            <g id="prefix__Ellipse_80-3" class="prefix__cls-3" data-name="Ellipse 80" transform="translate(48.219)">
                <path id="prefix__Path_11424" d="M1372 1129.718a2.112 2.112 0 01-2.116-1.806 2 2 0 01.413-1.492 2.159 2.159 0 013.823.986 2 2 0 01-.413 1.494 2.142 2.142 0 01-1.448.8 2.364 2.364 0 01-.259.018zm0-3.255a1.347 1.347 0 00-1.026.488 1.144 1.144 0 00-.237.851 1.252 1.252 0 001.417 1.042 1.269 1.269 0 00.867-.477 1.138 1.138 0 00.238-.851 1.248 1.248 0 00-1.252-1.053z" class="prefix__cls-4" data-name="Path 11424" transform="translate(-1369.872 -1125.6)"/>
            </g>
            <g id="prefix__Ellipse_80-4" class="prefix__cls-3" data-name="Ellipse 80" transform="translate(104.421 20.549)">
                <path id="prefix__Path_11425" d="M1413.8 1145a2.112 2.112 0 01-2.116-1.806 2 2 0 01.413-1.494 2.16 2.16 0 013.823.987 2 2 0 01-.413 1.492 2.138 2.138 0 01-1.447.805 2.388 2.388 0 01-.26.016zm0-3.255a1.251 1.251 0 00-.159.009 1.276 1.276 0 00-.866.479 1.139 1.139 0 00-.238.851 1.3 1.3 0 002.284.563 1.135 1.135 0 00.238-.85 1.247 1.247 0 00-1.252-1.051z" class="prefix__cls-4" data-name="Path 11425" transform="translate(-1411.672 -1140.884)"/>
            </g>
            <g id="prefix__Ellipse_80-5" class="prefix__cls-3" data-name="Ellipse 80" transform="translate(12.928 42.381)">
                <path id="prefix__Path_11426" d="M1345.759 1161.239a2.113 2.113 0 01-2.118-1.806 2 2 0 01.413-1.492 2.16 2.16 0 013.824.986 2 2 0 01-.414 1.494 2.129 2.129 0 01-1.447.8 2.082 2.082 0 01-.258.018zm0-3.255a1.285 1.285 0 00-.159.011 1.271 1.271 0 00-.867.477 1.139 1.139 0 00-.238.851 1.254 1.254 0 001.418 1.043 1.281 1.281 0 00.867-.479 1.143 1.143 0 00.237-.851 1.248 1.248 0 00-1.255-1.052z" class="prefix__cls-4" data-name="Path 11426" transform="translate(-1343.625 -1157.121)"/>
            </g>
            <g id="prefix__Ellipse_80-6" class="prefix__cls-3" data-name="Ellipse 80" transform="translate(18.156 128.43)">
                <path id="prefix__Path_11427" d="M1349.647 1225.238a2.116 2.116 0 01-2.118-1.807 2 2 0 01.414-1.492 2.159 2.159 0 013.823.986 2 2 0 01-.413 1.492 2.2 2.2 0 01-1.706.822zm0-3.255a1.235 1.235 0 00-.159.01 1.275 1.275 0 00-.867.477 1.144 1.144 0 00-.237.851 1.256 1.256 0 001.417 1.043 1.277 1.277 0 00.867-.479 1.137 1.137 0 00.238-.851 1.247 1.247 0 00-1.256-1.052z" class="prefix__cls-4" data-name="Path 11427" transform="translate(-1347.513 -1221.119)"/>
            </g>
        </g>
        <g id="prefix__Group_12158" data-name="Group 12158" transform="translate(1352.109 1155.728)">
            <g id="prefix__Group_12132" data-name="Group 12132">
                <g id="prefix__Group_12126" data-name="Group 12126" transform="translate(32.731 79.172)">
                    <g id="prefix__Group_12124" data-name="Group 12124" transform="translate(1.127 .718)">
                        <path id="prefix__Path_11428" d="M1372.652 1228.3h30.975l-6.9-20.875h-14.309z" class="prefix__cls-9" data-name="Path 11428" transform="translate(-1372.652 -1207.425)"/>
                    </g>
                    <g id="prefix__Group_12125" data-name="Group 12125">
                        <path id="prefix__Path_11429" d="M1404.909 1229.2h-33.095l10.435-22.31h15.284zm-30.84-1.435h28.856l-6.428-19.441h-13.334z" class="prefix__cls-7" data-name="Path 11429" transform="translate(-1371.814 -1206.891)"/>
                    </g>
                </g>
                <g id="prefix__Group_12127" data-name="Group 12127" transform="translate(53.384 79.891)">
                    <path id="prefix__Path_11430" d="M1387.175 1207.426l6.9 20.873h4.545l-6.9-20.873z" class="prefix__cls-10" data-name="Path 11430" transform="translate(-1387.175 -1207.426)"/>
                </g>
                <g id="prefix__Group_12128" data-name="Group 12128" transform="translate(.718 .723)">
                    <path id="prefix__Path_11431" d="M1348.021 1230.485l8.714-70.417a2.224 2.224 0 012.06-1.923l97.456-7.6-1.14-.21c-.031-1.915 2.384-1.788 2.384-1.788 3.145-.021 4.974.82 6.026 1.692a2.191 2.191 0 011.349 1.857l.009.03h-.007a2.115 2.115 0 01-.008.356l-8.725 77.535a2.232 2.232 0 01-2.21 1.951l-103.633.964a2.216 2.216 0 01-2.275-2.447z" class="prefix__cls-10" data-name="Path 11431" transform="translate(-1348.005 -1148.546)"/>
                </g>
                <g id="prefix__Group_12131" data-name="Group 12131">
                    <g id="prefix__Group_12129" data-name="Group 12129" transform="translate(.718 .718)">
                        <path id="prefix__Path_11432" d="M1350.2 1230.876l99.154-1.451a2.162 2.162 0 002.116-1.927l8.348-76.563a2.16 2.16 0 00-2.321-2.387l-99.165 7.981a2.16 2.16 0 00-1.972 1.9l-8.338 70.032a2.161 2.161 0 002.178 2.415z" class="prefix__cls-9" data-name="Path 11432" transform="translate(-1348.005 -1148.542)"/>
                    </g>
                    <g id="prefix__Group_12130" data-name="Group 12130">
                        <path id="prefix__Path_11433" d="M1350.348 1231.777a2.876 2.876 0 01-2.857-3.218l8.338-70.032a2.887 2.887 0 012.627-2.528l99.165-7.981a2.877 2.877 0 013.091 3.18l-8.348 76.563a2.88 2.88 0 01-2.818 2.565l-99.154 1.451zm107.5-82.334h-.117l-99.165 7.983a1.445 1.445 0 00-1.316 1.267l-8.337 70.032a1.443 1.443 0 001.432 1.614h.021l99.154-1.451a1.444 1.444 0 001.413-1.285l8.348-76.564a1.444 1.444 0 00-1.433-1.6z" class="prefix__cls-7" data-name="Path 11433" transform="translate(-1347.471 -1148.008)"/>
                    </g>
                </g>
            </g>
            <g id="prefix__Group_12135" data-name="Group 12135" transform="translate(.141 69.989)">
                <g id="prefix__Group_12133" data-name="Group 12133" transform="translate(.357 .372)">
                    <path id="prefix__Path_11434" d="M1350.034 1212.49l99.154-1.452a2.161 2.161 0 002.116-1.925l.957-8.775-103.644 3.347-.761 6.389a2.162 2.162 0 002.178 2.416z" class="prefix__cls-9" data-name="Path 11434" transform="translate(-1347.842 -1200.338)"/>
                </g>
                <g id="prefix__Group_12134" data-name="Group 12134">
                    <path id="prefix__Path_11435" d="M1350.093 1212.943a2.516 2.516 0 01-2.5-2.817l.8-6.695.308-.011 104.056-3.36-1 9.186a2.521 2.521 0 01-2.467 2.245l-99.154 1.451h-.038zm-1.063-8.813l-.725 6.081a1.809 1.809 0 00.45 1.42 1.753 1.753 0 001.365.6l99.156-1.452a1.8 1.8 0 001.764-1.605l.912-8.364z" class="prefix__cls-7" data-name="Path 11435" transform="translate(-1347.576 -1200.061)"/>
                </g>
            </g>
            <g id="prefix__Group_12136" data-name="Group 12136" transform="translate(32.325 29.379)">
                <path id="prefix__Path_11436" d="M1415.126 1169.858v2.917l-41.188 3.688-2.426 17.919 46.347-3.043 1.382-18.933z" class="prefix__cls-10" data-name="Path 11436" transform="translate(-1371.512 -1169.858)"/>
            </g>
            <g id="prefix__Group_12139" data-name="Group 12139" transform="translate(28.13 29.333)">
                <g id="prefix__Group_12137" data-name="Group 12137" transform="translate(.718 .718)">
                    <path id="prefix__Path_11437" d="M1415.273 1189.291l-46.347 3.043 2.426-17.919 45.3-4.057z" class="prefix__cls-9" data-name="Path 11437" transform="translate(-1368.926 -1170.358)"/>
                </g>
                <g id="prefix__Group_12138" data-name="Group 12138">
                    <path id="prefix__Path_11438" d="M1369.11 1193.235a.717.717 0 01-.711-.813l2.426-17.919a.719.719 0 01.648-.618l45.3-4.056a.716.716 0 01.779.766l-1.382 18.934a.716.716 0 01-.668.663l-46.347 3.042zm3.06-17.973l-2.232 16.481 44.849-2.943 1.276-17.469z" class="prefix__cls-7" data-name="Path 11438" transform="translate(-1368.392 -1169.824)"/>
                </g>
            </g>
            <g id="prefix__Group_12140" data-name="Group 12140" transform="translate(33.858 33.732)">
                <path id="prefix__Path_11439" d="M1409.136 1185.345l-36.483 2.824 1.553-12.115 36.014-2.958z" class="prefix__cls-7" data-name="Path 11439" transform="translate(-1372.652 -1173.096)"/>
            </g>
            <g id="prefix__Group_12141" data-name="Group 12141" transform="translate(4.494 45.982)">
                <path id="prefix__Path_11440" d="M1416.661 1182.206s-15.973 1.51-16.957 26.959 2.058 45.059-15.523 46.411l-33.368 1.265c17.58-1.353 14.537-20.962 15.522-46.411s16.957-26.96 16.957-26.96z" class="prefix__cls-10" data-name="Path 11440" transform="translate(-1350.813 -1182.206)"/>
            </g>
            <g id="prefix__Group_12144" data-name="Group 12144" transform="translate(2.409 43.236)">
                <g id="prefix__Group_12142" data-name="Group 12142" transform="translate(.055 .717)">
                    <path id="prefix__Path_11441" d="M1415.152 1180.7s-15.972 1.51-16.957 26.96 2.058 45.06-15.522 46.411l-33.369 1.265c17.58-1.353 14.537-20.962 15.523-46.411s16.956-26.96 16.956-26.96z" class="prefix__cls-9" data-name="Path 11441" transform="translate(-1349.304 -1180.697)"/>
                </g>
                <g id="prefix__Group_12143" data-name="Group 12143">
                    <path id="prefix__Path_11442" d="M1349.345 1256.234l-.082-1.432c14.133-1.087 14.317-14.205 14.6-34.064.052-3.739.107-7.606.265-11.66 1-25.778 17.44-27.629 17.606-27.645l33.41-1.268.1 1.431c-.628.062-15.364 1.806-16.309 26.274-.157 4.035-.211 7.894-.263 11.624-.28 19.906-.481 34.288-15.921 35.475zm61-74.452l-28.522 1.081c-.585.059-15.321 1.8-16.268 26.271-.156 4.035-.211 7.894-.263 11.624-.233 16.554-.413 29.29-9.347 33.79l26.712-1.012c14.106-1.085 14.29-14.2 14.57-34.063.052-3.739.108-7.606.264-11.66.652-16.808 7.867-23.445 12.856-26.032z" class="prefix__cls-7" data-name="Path 11442" transform="translate(-1349.263 -1180.164)"/>
                </g>
            </g>
            <g id="prefix__Group_12145" class="prefix__cls-11" data-name="Group 12145" transform="translate(24.789 55.905)">
                <rect id="prefix__Rectangle_2783" width="23.441" height="3.832" class="prefix__cls-10" data-name="Rectangle 2783" rx="1.425"/>
            </g>
            <g id="prefix__Group_12146" class="prefix__cls-11" data-name="Group 12146" transform="translate(22.138 60.976)">
                <rect id="prefix__Rectangle_2784" width="26.092" height="3.832" class="prefix__cls-10" data-name="Rectangle 2784" rx="1.425"/>
            </g>
            <g id="prefix__Group_12147" class="prefix__cls-11" data-name="Group 12147" transform="translate(20.812 72.605)">
                <rect id="prefix__Rectangle_2785" width="26.092" height="3.832" class="prefix__cls-10" data-name="Rectangle 2785" rx="1.425"/>
            </g>
            <g id="prefix__Group_12148" class="prefix__cls-11" data-name="Group 12148" transform="translate(20.812 78.681)">
                <rect id="prefix__Rectangle_2786" width="26.092" height="3.832" class="prefix__cls-10" data-name="Rectangle 2786" rx="1.425"/>
            </g>
            <g id="prefix__Group_12149" class="prefix__cls-11" data-name="Group 12149" transform="translate(20.136 88.412)">
                <rect id="prefix__Rectangle_2787" width="26.092" height="3.832" class="prefix__cls-10" data-name="Rectangle 2787" rx="1.425"/>
            </g>
            <g id="prefix__Group_12150" class="prefix__cls-11" data-name="Group 12150" transform="translate(20.136 94.666)">
                <rect id="prefix__Rectangle_2788" width="14.579" height="3.832" class="prefix__cls-10" data-name="Rectangle 2788" rx="1.425"/>
            </g>
            <g id="prefix__Group_12151" class="prefix__cls-11" data-name="Group 12151" transform="translate(19.279 100.764)">
                <rect id="prefix__Rectangle_2789" width="14.579" height="3.832" class="prefix__cls-10" data-name="Rectangle 2789" rx="1.425"/>
            </g>
            <g id="prefix__Group_12154" class="prefix__cls-12" data-name="Group 12154" transform="translate(12.204 13.397)">
                <g id="prefix__Group_12152" data-name="Group 12152" transform="translate(.384 .606)">
                    <path id="prefix__Line_1434" d="M0 19.676L30.914 0" class="prefix__cls-9" data-name="Line 1434"/>
                </g>
                <g id="prefix__Group_12153" data-name="Group 12153">
                    <path id="prefix__Rectangle_2790" d="M0 0H36.644V1.435H0z" class="prefix__cls-7" data-name="Rectangle 2790" transform="rotate(-32.47 33.78 9.836)"/>
                </g>
            </g>
            <g id="prefix__Group_12157" class="prefix__cls-12" data-name="Group 12157" transform="translate(26.183 11.227)">
                <g id="prefix__Group_12155" data-name="Group 12155" transform="translate(.385 .606)">
                    <path id="prefix__Line_1435" d="M0 19.676L30.914 0" class="prefix__cls-9" data-name="Line 1435"/>
                </g>
                <g id="prefix__Group_12156" data-name="Group 12156">
                    <path id="prefix__Rectangle_2791" d="M0 0H36.644V1.435H0z" class="prefix__cls-7" data-name="Rectangle 2791" transform="rotate(-32.47 33.78 9.836)"/>
                </g>
            </g>
        </g>
    </g>
</svg>
