<svg xmlns="http://www.w3.org/2000/svg" width="165.192" height="399.561" viewBox="0 0 165.192 399.561">
    <defs>
        <style>
            .prefix__cls-1{fill:#fff}.prefix__cls-1,.prefix__cls-2,.prefix__cls-3{stroke:#bf263f}.prefix__cls-2{fill:#f7657d}.prefix__cls-3{fill:#ed4d67}
        </style>
    </defs>
    <g id="prefix__Group_676" data-name="Group 676" transform="translate(-513.316 -11.674)">
        <g id="prefix__Group_664" data-name="Group 664" transform="translate(513.819 112.791)">
            <path id="prefix__Path_363" d="M516.241 222a29.494 29.494 0 00-2.422 9.126s.245 1.9 4.942 3.484c5.361.72 15.4.114 15.4.114v-2.311s-9.05-.055-11.235-1.644a6.455 6.455 0 01.879-4.5z" class="prefix__cls-1" data-name="Path 363" transform="translate(-513.819 -205.806)"/>
            <path id="prefix__Path_364" d="M524.233 207.7s4.324-13.312 4.593-14.744a10.024 10.024 0 017.407 2.3s-6.343 12.722-7.71 14.511a15.5 15.5 0 00-4.29-2.067z" class="prefix__cls-1" data-name="Path 364" transform="translate(-518.436 -192.912)"/>
            <path id="prefix__Path_365" d="M516.4 220.411s.818-3.028 2.76-3.943c.567-.267 7.036 3.4 7.914 4.729 0 0-1.553 3.967-2.191 4.124.002.001-8.072-3.855-8.483-4.91z" class="prefix__cls-1" data-name="Path 365" transform="translate(-514.964 -203.349)"/>
        </g>
        <g id="prefix__Group_665" data-name="Group 665" transform="translate(556.264 79.804)">
            <path id="prefix__Path_366" d="M595.2 249.217s-4.752 9.25-5.114 9.83 5.659 0 5.659 0-2.273 9.286-2.555 11.027a42.942 42.942 0 016.137-3.483s5.16 18.9 7.481 22.675c0 0 13.218-23.384 12.623-25.125 0 0 2.793 1 3.954 1.289s-3.773-9.576-3.773-9.576a49.294 49.294 0 006.674 0l-4.861-8.379s-21.331.908-26.225 1.742z" class="prefix__cls-1" data-name="Path 366" transform="translate(-590.067 -184.114)"/>
            <path id="prefix__Path_367" d="M624.961 139.223c-2.752-4.607-6.706-6.187-12.635-5.358-4.128.577-6.947 3.753-8.838 8.342a32.831 32.831 0 0021.473-2.984z" class="prefix__cls-1" data-name="Path 367" transform="translate(-596.017 -133.654)"/>
            <path id="prefix__Path_368" d="M622.169 143.658a32.831 32.831 0 01-21.473 2.984c-6.647 16.132-1.8 49.772-1.8 49.772 21.309 3.1 30.479-3.1 30.479-3.1-1.424-26.483-2.705-42.121-7.206-49.656z" class="prefix__cls-1" data-name="Path 368" transform="translate(-593.225 -138.089)"/>
            <path id="prefix__Path_369" d="M599.327 232.894l-1.162 1.572s.452 6.952.517 7.6c0 0 22.73 4.908 33.449-3.1 0 0-.425-6.882-1.421-7.62l-.995-.738s-12.178 4.998-30.388 2.286z" class="prefix__cls-1" data-name="Path 369" transform="translate(-593.657 -176.636)"/>
            <path id="prefix__Path_370" d="M597.89 215.81s13.3 2.609 31.8-2.213l-.01-5.535s-10.81 3.469-31.794 2.091z" class="prefix__cls-1" data-name="Path 370" transform="translate(-593.535 -166.641)"/>
        </g>
        <path id="prefix__Path_371" d="M623.222 371.494c-10.224-2.1-17.044-14.053-8.624-19.777 0 0-17.151-2.776-9.291-19.54 0 0-11.264-5.889-2.3-14.663 0 0-12.325-15.7.441-24.286 0 0 4.845-7.412 14.12 10.58 0 0 31.328-13.911 14.59 23.716 9-3.68 10.223 7.36 4.907 10.632 14.312 2.044 16.136 20.445 3.161 27.192 4.2 2.658 5.1 15.741-3.775 15.332 0 0 20.241 3.682 12.512 20.242 15.7-7.974 21.223 6.747 17.542 14.721 0 0 27.6 12.88-2.453 32.508 21.468 11.04 17.174 46.615-12.88 44.775 17.787 9.2 4.906 30.668-10.427 20.241 4.294 7.973-6.83 22.08-20.282 21.467s-18.617-15.947-19.715-22.08c-7.232 8.587-15.173-3.68-10.9-9.2-11.67 4.294-19.456-15.947-6.669-22.694-20.334 1.84-31.173-31.895 1.234-38.028-11.141-10.427-4.575-32.1 16.983-27.4-4.816-6.949 7.173-9.918 11.6-8.691 0 0-9.507-13.116 6.505-18.64-.001-.001-7.188-13.838 3.721-16.407z" class="prefix__cls-1" data-name="Path 371" transform="translate(-22.185 -123.923)"/>
        <g id="prefix__Group_666" data-name="Group 666" transform="translate(573.267 81.128)">
            <path id="prefix__Path_372" d="M627.84 267.595s-6.7 13.034-7.207 13.852 7.974 0 7.974 0-3.2 13.085-3.6 15.538a60.516 60.516 0 018.648-4.906s12.228 27.805 15.5 33.121c0 0 13.668-34.12 12.829-36.573 0 0 3.936 1.408 5.572 1.817s-5.316-13.494-5.316-13.494 6.952.409 9.405 0l-6.849-11.808s-30.055 1.277-36.956 2.453z" class="prefix__cls-2" data-name="Path 372" transform="translate(-620.611 -193.27)"/>
            <path id="prefix__Path_373" d="M640.605 267.486s-4.482 8.724-4.824 9.272 5.337 0 5.337 0-2.144 8.759-2.41 10.4a40.489 40.489 0 015.789-3.284s8.185 18.612 10.375 22.17c0 0 9.149-22.839 8.587-24.481 0 0 2.635.942 3.73 1.216s-3.558-9.033-3.558-9.033a46.442 46.442 0 006.3 0l-4.585-7.9s-20.122.854-24.741 1.64z" class="prefix__cls-2" data-name="Path 373" transform="translate(-627.33 -193.582)"/>
            <path id="prefix__Path_374" d="M658.727 141.879a38.979 38.979 0 01-25.5 3.544c-7.892 19.153-2.139 59.093-2.139 59.093 25.3 3.68 36.188-3.68 36.188-3.68-1.685-31.444-3.206-50.011-8.549-58.957z" class="prefix__cls-2" data-name="Path 374" transform="translate(-624.361 -138.625)"/>
            <path id="prefix__Path_375" d="M631.606 247.828l-1.38 1.867s.537 8.254.613 9.021c0 0 26.987 5.827 39.715-3.68 0 0-.505-8.171-1.687-9.047l-1.181-.876s-14.459 5.935-36.08 2.715z" class="prefix__cls-2" data-name="Path 375" transform="translate(-624.874 -184.391)"/>
            <path id="prefix__Path_376" d="M629.9 227.545s15.795 3.1 37.761-2.628l-.012-6.572s-12.835 4.118-37.75 2.483z" class="prefix__cls-2" data-name="Path 376" transform="translate(-624.729 -172.524)"/>
            <path id="prefix__Path_377" d="M663.817 136.034s8.036-.354 11.279 10.9c3.233 11.22 4.765 38.589 5.275 48.217l-3.35.947s-.564-59.213-13.204-60.064z" class="prefix__cls-2" data-name="Path 377" transform="translate(-639.766 -136.033)"/>
        </g>
        <path id="prefix__Path_378" d="M662.042 136.616c-3.267-5.47-11.194-7.337-15-6.361-4.794 1.229-8.248 4.456-10.493 9.9a38.979 38.979 0 0025.493-3.539z" class="prefix__cls-2" data-name="Path 378" transform="translate(-54.409 -52.234)"/>
        <g id="prefix__Group_668" data-name="Group 668" transform="translate(518.822 91.9)">
            <path id="prefix__Path_379" d="M560.421 155.441c3.233-.752 11.667 5.914 5.992 30.572-4.617 20.06-34.326 5.037-34.326 5.037s5.258-5.618 3.5-8.893c0 0 14.617 15.1 24.077 4.037 1.628-1.9 3.214-11.945 1.152-18.694-2.275-7.458-4.198-11.175-.395-12.059z" class="prefix__cls-1" data-name="Path 379" transform="translate(-526.92 -155.385)"/>
            <g id="prefix__Group_667" data-name="Group 667" transform="translate(0 23.56)">
                <path id="prefix__Path_380" d="M531.89 214.964s.06.039.169.094c.762.382 3.931 1.526 5.871-4.659-.001.001-7.757-.388-6.04 4.565z" class="prefix__cls-1" data-name="Path 380" transform="translate(-526.723 -203.331)"/>
                <path id="prefix__Path_381" d="M542.927 201.286c-1.222-.411-2.51-.438-4.044 3.2s-.434 3.888 1.4 2.886 4.261-5.542 2.644-6.086z" class="prefix__cls-1" data-name="Path 381" transform="translate(-529.611 -199.212)"/>
                <path id="prefix__Path_382" d="M531.344 198.009c-3.537-1.061-7.747.752-1.039 4.211s9.136-1.781 1.039-4.211z" class="prefix__cls-1" data-name="Path 382" transform="translate(-524.555 -197.707)"/>
                <path id="prefix__Path_383" d="M527.971 203.879c-2.08-.624-4.107-.951-4.75.751-.482 1.273.6 2.067 3.663 3.65 3.268 1.686 5.348 1.73 6.228.348.762-1.199-.622-3.393-5.141-4.749z" class="prefix__cls-1" data-name="Path 383" transform="translate(-522.941 -200.22)"/>
                <path id="prefix__Path_384" d="M526.559 210.978c-2.891-.867-6.331.613-.849 3.441 2.7 1.393 4.713.99 5.161.081.822-1.666-.955-2.515-4.312-3.522z" class="prefix__cls-1" data-name="Path 384" transform="translate(-522.806 -203.481)"/>
            </g>
        </g>
        <g id="prefix__Group_671" data-name="Group 671" transform="translate(543.369 12.185)">
            <path id="prefix__Path_385" d="M649.955 110.175s1.188 3.833 0 4.753-4.255-1.643-4.869-2.661c0 0 .767 2.9-.613 2.857s-3.68-4.949-3.68-4.949 2.99-5.213 9.162 0z" class="prefix__cls-1" data-name="Path 385" transform="translate(-599.661 -54.599)"/>
            <path id="prefix__Path_386" d="M579.208 37.039s-7.973 21.161-10.427 27.294-3.987 17.481 5.214 20.241 25.664 3.68 31.281-2.453 6.747-11.347 6.747-11.347 9.2-21.774 3.067-30.361-31.282-12.574-35.882-3.374z" class="prefix__cls-1" data-name="Path 386" transform="translate(-566.903 -20.871)"/>
            <path id="prefix__Path_387" d="M589.491 61.428s-1.431 2.862-2.454 2.862-5.111 1.022-2.044 3.271a6.285 6.285 0 005.929 1.023s-5.389-1-5.52-2.454 2.045-.075 3.067-.957 1.022-3.745 1.022-3.745z" class="prefix__cls-1" data-name="Path 387" transform="translate(-574.426 -34.016)"/>
            <ellipse id="prefix__Ellipse_8" cx="2.351" cy="1.297" class="prefix__cls-1" data-name="Ellipse 8" rx="2.351" ry="1.297" transform="rotate(-73.258 32.03 -1.798)"/>
            <ellipse id="prefix__Ellipse_9" cx="2.351" cy="1.297" class="prefix__cls-1" data-name="Ellipse 9" rx="2.351" ry="1.297" transform="rotate(-73.258 24.213 7.28)"/>
            <path id="prefix__Path_388" d="M596.536 39.51s3.936 5.366 5.623 5.213 0-3.22 0-3.22 4.753 4.141 8.127 4.754 0-3.373 0-3.373 2.913 1.137 4.14.032-11.399-6.934-17.89-3.406z" class="prefix__cls-1" data-name="Path 388" transform="translate(-580.04 -23.802)"/>
            <g id="prefix__Group_669" data-name="Group 669" transform="translate(5.516 39.334)">
                <path id="prefix__Path_389" d="M576.853 84.519s-1.052 15.64 7.36 18.094c.1.03.206.046.31.073 2.471-10.554 14.5-12.528 19.756-12.883.906-1.508 1.4-2.524 1.4-2.524-11.958-7.979-28.826-2.76-28.826-2.76z" class="prefix__cls-3" data-name="Path 389" transform="translate(-576.811 -82.844)"/>
                <path id="prefix__Path_390" d="M590.665 108.227c9.3 2.436 16.775-7.918 19.756-12.883-5.255.356-17.285 2.329-19.756 12.883z" data-name="Path 390" transform="translate(-582.953 -88.386)" style="fill:#f9f9f9;stroke:#bf263f"/>
            </g>
            <g id="prefix__Group_670" data-name="Group 670" transform="translate(5.939)">
                <path id="prefix__Path_391" d="M577.571 63.109s2.206-5.411 3.659-9.337q-.976-.544-1.846-1.068a49.112 49.112 0 00-1.813 10.405z" class="prefix__cls-3" data-name="Path 391" transform="translate(-577.571 -30.148)"/>
                <path id="prefix__Path_392" d="M638.468 29.2a22.628 22.628 0 00-3.405-5.755C622.069 7.41 589.2 6.275 580.828 34.741q.868.521 1.846 1.068c.557-1.5 1-2.79 1.174-3.469 0 0 12.574-8.281 31.281 2.147 0 0 1.933 2.348 2.412 7.526 6.965-1.707 14.126-5.583 20.927-12.813z" class="prefix__cls-3" data-name="Path 392" transform="translate(-579.015 -12.185)"/>
                <path id="prefix__Path_393" d="M642.416 55.563c.454 4.915-.4 12.38-5.479 22.835 0 0 10.734 5.827 14.107 4.907 3.027-.826 19.381-23.13 12.3-40.553-6.803 7.229-13.963 11.105-20.928 12.811z" class="prefix__cls-3" data-name="Path 393" transform="translate(-603.889 -25.736)"/>
            </g>
            <path id="prefix__Path_394" d="M661.135 76.2a3.12 3.12 0 00-.465-.087c1.824.871 2.5 4.323 1.506 8.033s-3.318 6.355-5.333 6.192a3.123 3.123 0 00.446.158c2.554.687 5.484-1.956 6.547-5.9s-.147-7.714-2.701-8.396z" class="prefix__cls-1" data-name="Path 394" transform="translate(-606.776 -40.524)"/>
            <path id="prefix__Path_395" d="M660.074 84.125c1-3.71.318-7.162-1.506-8.033-2.435-.275-5.083 2.282-6.081 5.991s.01 7.25 2.255 8.234c2.013.163 4.334-2.483 5.332-6.192z" class="prefix__cls-1" data-name="Path 395" transform="translate(-604.674 -40.508)"/>
            <path id="prefix__Path_396" d="M610.28 50.049a11.914 11.914 0 017.888 4.771s-3.713-7.837-7.888-4.771z" class="prefix__cls-1" data-name="Path 396" transform="translate(-586.133 -28.656)"/>
            <path id="prefix__Path_397" d="M592.354 49.7s-1.945-1.029-6.1 2.742c-.001-.004 3.016-5.91 6.1-2.742z" class="prefix__cls-1" data-name="Path 397" transform="translate(-575.481 -28.401)"/>
        </g>
        <g id="prefix__Group_672" data-name="Group 672" transform="translate(532.98 153.477)">
            <path id="prefix__Path_398" d="M592.476 433.108s-3.067 9.2-5.52 13.187-.92 10.427 2.76 10.734 15.952-17.382 17.174-19.627-5.812-6.141-5.812-6.141-6.455.62-8.602 1.847z" class="prefix__cls-1" data-name="Path 398" transform="translate(-564.875 -339.264)"/>
            <path id="prefix__Path_399" d="M620.134 429.312s1.174 7.059 1.481 12.886-.745 14.416 3.7 15.949 6.225-.92 6.225-.92 5.489-20.622 4.938-23.5-6.225-6.863-6.225-6.863z" class="prefix__cls-1" data-name="Path 399" transform="translate(-580.113 -337.316)"/>
            <path id="prefix__Path_400" d="M548.24 266s4.906 61.642 25.454 95.07c0 0 8.893 5.213 14.567-4.907 0 0-6.8-14.107-13.136-37.721a412.112 412.112 0 01-9.865-49.068z" class="prefix__cls-1" data-name="Path 400" transform="translate(-548.24 -266)"/>
            <path id="prefix__Path_401" d="M552.56 270.536s6.212 11.364 9.877 17.191 18.826 66.549 25.967 75.136c0 0 8.243 2.76 18.119-4.294 0 0-17.963-39.114-21.831-83.5-.001.001-22.981-8.843-32.132-4.533z" class="prefix__cls-1" data-name="Path 401" transform="translate(-550.155 -267.486)"/>
            <path id="prefix__Path_402" d="M557.926 281.15a53.274 53.274 0 017.548 13.14c2.382 6.7 16.533 55.313 21.6 65.749 0 0-11.273-27.973-16.264-44.049s-4.535-19.097-12.884-34.84z" class="prefix__cls-1" data-name="Path 402" transform="translate(-552.534 -272.716)"/>
        </g>
        <path id="prefix__Path_403" d="M770.461 497.933s-5.9-4.678 0-7.4c0 0-7.26-8.057 0-11.516s9.983 6.071 9.983 6.071 1.815-4.084 6.353-1.362 2.723 8.818 0 10.762c0 0 5.528 3.462 2.764 8.148s-8.209 0-8.209 0c-1.815 5.593-14.067 2.698-10.891-4.703z" class="prefix__cls-1" data-name="Path 403" transform="translate(-112.346 -206.624)"/>
        <g id="prefix__Group_673" data-name="Group 673" transform="translate(526.476 75.427)">
            <path id="prefix__Path_404" d="M592.857 150.308s6.142 1.312 8.749 2.956c0 0-14.567 42.228-15.64 69.88 0 0-13.872-3.013-25.782-4.626-.084-.6-.217-.946-.884-1.028a53.23 53.23 0 00-13.817.259s10.634-51.085 21.371-64.485a45.183 45.183 0 005.849-1.3c2.989-.889 20.154-1.656 20.154-1.656z" class="prefix__cls-1" data-name="Path 404" transform="translate(-540.513 -136.661)"/>
            <path id="prefix__Path_405" d="M585.5 152.139s-6.559 5.631-11.577 5.373a22.887 22.887 0 005.877 8.788s-8.4 3.833-9.492 4.6v34.47s5.042-16.784 5.454-20.5 8.579-28.992 9.738-32.731z" class="prefix__cls-1" data-name="Path 405" transform="translate(-551.517 -137.473)"/>
            <path id="prefix__Path_406" d="M615.861 125.793s-2.913 14.567-3.373 15.794c-9.106 9.2-10.325 4.3-9.835 0-.745-.92 2.474-11.5 2.474-15.027a80.594 80.594 0 0110.734-.767z" class="prefix__cls-1" data-name="Path 406" transform="translate(-565.809 -125.793)"/>
            <path id="prefix__Path_407" d="M569.137 249.641c.149-.262-1.325 6.941-1.44 9.643.003 0 .214-7.484 1.44-9.643z" class="prefix__cls-1" data-name="Path 407" transform="translate(-550.362 -180.695)"/>
            <ellipse id="prefix__Ellipse_10" cx=".841" cy=".624" class="prefix__cls-1" data-name="Ellipse 10" rx=".841" ry=".624" transform="rotate(-80.857 49.25 26.02)"/>
            <ellipse id="prefix__Ellipse_11" cx=".841" cy=".624" class="prefix__cls-1" data-name="Ellipse 11" rx=".841" ry=".624" transform="rotate(-80.857 51.932 28.943)"/>
            <path id="prefix__Path_408" d="M605.214 152.139s-.578 8.795 2.949 13.242c0 0-12.155 4.212-17.3 5.06a109.082 109.082 0 0010.71 7.82s-28.2 15-31.266 27.11c0 0 3.176-14.874 5.115-19.781s26.306-30.649 29.792-33.451z" class="prefix__cls-1" data-name="Path 408" transform="translate(-551.517 -137.473)"/>
            <path id="prefix__Path_409" d="M598.029 154.249c-.466.343-1.064.851-1.683 1.414l-.489-1.511-1.505 3.118c-.332.343-.49.852-.747 1.148l-.441-3.883-.672.726a5.87 5.87 0 00-.169-.686c-2.331.2-3.343.386-3.343.386-2.862 6.329-9.488 31.514-9.488 31.514 4.808-9.2 28.443-32.323 28.443-32.323-4.001-.045-7.274.004-9.906.097z" class="prefix__cls-1" data-name="Path 409" transform="translate(-555.591 -138.358)"/>
            <path id="prefix__Path_410" d="M617.909 144.248s-7.79 4.9-9.02 5.521c0 0 1.194 5.06 1.657 6.287 0 0 11.35-6.287 12.423-7.974z" class="prefix__cls-1" data-name="Path 410" transform="translate(-568.623 -133.975)"/>
            <path id="prefix__Path_411" d="M600.121 146.917a9.942 9.942 0 00.313 4.418s-1.934 4.37-3.008 5.137a52.873 52.873 0 01-1.534-6.26z" class="prefix__cls-1" data-name="Path 411" transform="translate(-562.861 -135.158)"/>
            <path id="prefix__Path_412" d="M606.092 163.065s-5.966-.811-6.136-.547a56.573 56.573 0 00.825 5.856s2.084 1.333 2.351.849 2.96-6.158 2.96-6.158z" class="prefix__cls-1" data-name="Path 412" transform="translate(-564.654 -142.051)"/>
            <path id="prefix__Path_413" d="M572.68 172.921s-3.649 9.384-17.3 15.013c-7.9 3.258-21.21 17.02-18.449 29.288 0 0 6.287 7.36 8.127 7.513 0 0 5.52-5.674 6.747-7.513 0 0-5.453-16.366 7.588-24.381 15.291-9.4 15.563-18.877 15.563-18.877z" class="prefix__cls-1" data-name="Path 413" transform="translate(-536.556 -146.686)"/>
            <path id="prefix__Path_414" d="M606.744 154.165s-1.922 3.576-2.257 4.217c0 0-.284-3.055-.436-3.834 0 0 .153 3.728.327 4.467a48.936 48.936 0 002.366-4.85z" class="prefix__cls-1" data-name="Path 414" transform="translate(-566.479 -138.371)"/>
            <path id="prefix__Path_415" d="M555.055 269.608c-.287.037 6.476-.312 7.583-.143l.574.681s11.04 1.878 15.837 3.51c0 0-9.129-2.567-15.992-2.765l-.681-.878a51.709 51.709 0 00-7.321-.405z" class="prefix__cls-1" data-name="Path 415" transform="translate(-544.753 -189.466)"/>
        </g>
        <g id="prefix__Group_675" data-name="Group 675" transform="translate(552.72 89.553)">
            <path id="prefix__Path_416" d="M622.956 151.167s32.459 3.823 34.013 26.859c2.086 30.932-48.079 24.634-48.079 24.634s5.341-9.358 2.494-12.629c0 0 34.637 10.061 36.631-9.641 1.227-12.118-15.832-17.491-20.457-18.354s-5.27-8.457-4.602-10.869z" class="prefix__cls-1" data-name="Path 416" transform="translate(-594.867 -151.167)"/>
            <g id="prefix__Group_674" data-name="Group 674" transform="translate(0 30.047)">
                <path id="prefix__Path_417" d="M594.718 246.2c-.954 4.269 0 5.941 0 5.941 1.3.876 20.67-2.979 32.942-7.6 2.058-.774 4.431-3.765 5.869-4.555 0 0 2.888.389 3.233 2.576.123.778.006 1.593-1.784 3.235 0 0-30.933 9.543-44.63 10.694-2.173.182-4.156-1.017-5.37-1.485-.8-1.475.07-10.35.07-10.35s7.184.357 9.67 1.544z" class="prefix__cls-1" data-name="Path 417" transform="translate(-584.119 -220.59)"/>
                <path id="prefix__Path_418" d="M594.41 205.168s-3.676 20.41-4.241 22.225 4.437 2.632 6.026 2.121 7.173-20.145 7.448-21.822c-.001 0-4.429-2.847-9.233-2.524z" class="prefix__cls-1" data-name="Path 418" transform="translate(-586.549 -205.142)"/>
                <path id="prefix__Path_419" d="M585.342 241.393s9.593 2.044 10.82 3.271c0 0-.656 3.865-1.862 5s-9.639-2.546-10.329-3.16.003-3.028 1.371-5.111z" class="prefix__cls-1" data-name="Path 419" transform="translate(-583.701 -221.213)"/>
            </g>
            <path id="prefix__Path_420" d="M604.47 218.316s-.852-2.245-2.467-5.41a28.154 28.154 0 01-1.567 4s-8.389-4.518-9.457-2.911-.419 4.5-.419 4.5-2.537.232-2.522 2.246a15.944 15.944 0 00.235 3s-2.008 1.578.078 2.933 9.074 4.178 11.012 3.35 5.337-7.149 5.107-11.708z" class="prefix__cls-1" data-name="Path 420" transform="translate(-585.343 -178.538)"/>
        </g>
    </g>
</svg>
