<svg xmlns="http://www.w3.org/2000/svg" width="159.86" height="160" viewBox="0 0 159.86 160">
    <defs>
        <style>
            .prefix__cls-1{fill:#ed4e67;opacity:.15}.prefix__cls-2{fill:#f7657d;isolation:isolate;opacity:.429}.prefix__cls-5{fill:#bf2640}.prefix__cls-7{fill:#fff}
        </style>
    </defs>
    <g id="prefix__Group_12118" data-name="Group 12118" transform="translate(-333.3 -960.811)">
        <g id="prefix__Group_6942" data-name="Group 6942" transform="translate(333.3 960.811)">
            <path id="prefix__Rectangle_1795" d="M428.1 983.628L465.628 1023a26.64 26.64 0 0 1-1.272 38.121l-40.068 36.872a27.793 27.793 0 0 1-38.8-1.25l-37.524-39.371a26.64 26.64 0 0 1 1.273-38.121l40.068-36.872a27.79 27.79 0 0 1 38.795 1.249z" class="prefix__cls-1" data-name="Rectangle 1795" transform="translate(-330.8 -955.89)"/>
            <path id="prefix__Path_11383" d="M434.233 1077.975a3.554 3.554 0 0 1-3.536-3.086 3.459 3.459 0 0 1 .714-2.575 3.58 3.58 0 0 1 6.361 1.714 3.457 3.457 0 0 1-.713 2.575 3.552 3.552 0 0 1-2.392 1.344 3.359 3.359 0 0 1-.434.028zm0-5.572a2.141 2.141 0 0 0-.261.016 2.1 2.1 0 0 0-1.416.793 2.009 2.009 0 0 0-.415 1.5 2.12 2.12 0 0 0 3.763 1 2 2 0 0 0 .417-1.495 2.091 2.091 0 0 0-2.084-1.817z" class="prefix__cls-2" data-name="Path 11383" transform="translate(-299.751 -922.865)"/>
            <path id="prefix__Path_11384" fill="#f7657d" d="M349.98 1084.168l.141-6.008-4.979-3.536 5.884-1.733 1.869-5.728 3.478 4.933 6.137-.011-3.72 4.8 1.908 5.722-5.779-1.984zm-1.544-8.992l3.161 2.244-.091 3.855 3.173-2.278 3.7 1.271-1.221-3.663 2.369-3.055-3.91.007-2.239-3.176-1.2 3.693z" data-name="Path 11384" transform="translate(-329.219 -924.167)" style="isolation:isolate" opacity="0.418"/>
            <path id="prefix__Path_11385" fill="#f7657d" d="M431.088 980.75l-1.053-4.23-4.172-1.569 3.8-2.3.221-4.354 3.379 2.819 4.3-1.152-1.686 4.052 2.434 3.671-4.437-.325zm-1.9-6.108l2.079.781.536 2.153 1.416-1.726 2.225.163-1.219-1.839.846-2.034-2.162.579-1.717-1.431-.112 2.206z" data-name="Path 11385" transform="translate(-301.407 -958.233)" style="isolation:isolate" opacity="0.369"/>
            <path id="prefix__Path_11386" d="M347.725 985.816a5.555 5.555 0 0 1-5.531-4.822 5.4 5.4 0 0 1 1.115-4.021 5.6 5.6 0 0 1 9.955 2.678 5.4 5.4 0 0 1-1.115 4.022 5.641 5.641 0 0 1-4.424 2.143zm.005-9.527a4.011 4.011 0 0 0-.506.031 4.106 4.106 0 0 0-2.767 1.552 3.952 3.952 0 0 0-.818 2.942 4.146 4.146 0 0 0 7.361 1.961 3.953 3.953 0 0 0 .818-2.942 4.1 4.1 0 0 0-4.088-3.544z" class="prefix__cls-2" data-name="Path 11386" transform="translate(-330.25 -955.981)"/>
            <path id="prefix__Path_11387" d="M336.865 991.221a3.554 3.554 0 0 1-3.538-3.084 3.459 3.459 0 0 1 .715-2.576 3.579 3.579 0 0 1 6.36 1.716 3.463 3.463 0 0 1-.713 2.575 3.556 3.556 0 0 1-2.389 1.348 3.634 3.634 0 0 1-.435.021zm0-5.572a2.146 2.146 0 0 0-.261.016 2.1 2.1 0 0 0-1.414.793 2.01 2.01 0 0 0-.417 1.5 2.12 2.12 0 0 0 3.763 1 2 2 0 0 0 .417-1.5 2.09 2.09 0 0 0-2.086-1.808z" class="prefix__cls-2" data-name="Path 11387" transform="translate(-333.3 -952.755)"/>
            <path id="prefix__Path_11388" d="M434.052 992.4a4.983 4.983 0 0 1-.579-.034 4.732 4.732 0 0 1-3.187-1.79 4.6 4.6 0 0 1-.949-3.423 4.77 4.77 0 0 1 8.476-2.28 4.6 4.6 0 0 1 .949 3.422 4.73 4.73 0 0 1-4.71 4.105zm0-8.11a3.486 3.486 0 0 0-3.478 3.017 3.36 3.36 0 0 0 .7 2.5 3.529 3.529 0 0 0 6.264-1.67 3.369 3.369 0 0 0-.7-2.5 3.5 3.5 0 0 0-2.356-1.322 3.924 3.924 0 0 0-.434-.028z" class="prefix__cls-2" data-name="Path 11388" transform="translate(-300.223 -953.151)"/>
            <path id="prefix__Path_11389" d="M444.711 996.222a3.64 3.64 0 0 1-.434-.026 3.553 3.553 0 0 1-2.392-1.345 3.459 3.459 0 0 1-.713-2.575 3.58 3.58 0 0 1 6.361-1.714 3.458 3.458 0 0 1 .713 2.575 3.553 3.553 0 0 1-3.535 3.085zm-.005-5.572a2.091 2.091 0 0 0-2.087 1.808 2.009 2.009 0 0 0 .415 1.5 2.121 2.121 0 0 0 3.765-1 2.008 2.008 0 0 0-.415-1.5 2.1 2.1 0 0 0-1.417-.795 2.142 2.142 0 0 0-.262-.013z" class="prefix__cls-2" data-name="Path 11389" transform="translate(-296.141 -951.033)"/>
            <path id="prefix__Path_11390" d="M416.982 1103.938a.66.66 0 0 1-.011-1.319c.85-.015 1.713-.071 2.565-.168a.658.658 0 0 1 .149 1.308c-.894.1-1.8.161-2.692.179zm-2.633-.077h-.051c-.894-.068-1.8-.182-2.677-.335a.659.659 0 1 1 .227-1.3c.84.147 1.7.255 2.551.32a.659.659 0 0 1-.05 1.316zm7.863-.518a.659.659 0 0 1-.136-1.3c.839-.178 1.677-.4 2.489-.649a.658.658 0 0 1 .393 1.257c-.852.266-1.729.495-2.608.682a.7.7 0 0 1-.138.011zm-13.048-.386a.657.657 0 0 1-.175-.024c-.865-.238-1.728-.52-2.565-.839a.659.659 0 0 1 .471-1.232c.8.305 1.62.574 2.443.8a.659.659 0 0 1-.173 1.295zm18.071-1.186a.659.659 0 0 1-.255-1.267c.789-.332 1.571-.7 2.321-1.108a.659.659 0 1 1 .624 1.161c-.787.423-1.605.815-2.434 1.163a.662.662 0 0 1-.256.052zm-22.991-.69a.661.661 0 0 1-.29-.068q-.714-.353-1.413-.75l-.933-.53a.658.658 0 1 1 .649-1.145l.934.53q.666.379 1.346.714a.659.659 0 0 1-.293 1.25zm27.625-1.8a.659.659 0 0 1-.368-1.206c.717-.481 1.41-1 2.065-1.534a.658.658 0 0 1 .836 1.016c-.687.566-1.416 1.108-2.166 1.611a.65.65 0 0 1-.366.11zm-32.23-.758a.658.658 0 0 1-.324-.086l-2.293-1.3a.659.659 0 0 1 .649-1.147l2.292 1.3a.659.659 0 0 1-.325 1.233zm36.3-2.585a.659.659 0 0 1-.467-1.125 25.471 25.471 0 0 0 1.725-1.905.659.659 0 0 1 1.021.835c-.569.7-1.179 1.369-1.814 2a.651.651 0 0 1-.467.191zm-40.883-.016a.644.644 0 0 1-.324-.086l-2.292-1.3a.659.659 0 1 1 .649-1.147l2.292 1.3a.658.658 0 0 1-.325 1.232zm-4.585-2.6a.658.658 0 0 1-.324-.086l-2.294-1.3a.658.658 0 1 1 .649-1.146l2.294 1.3a.66.66 0 0 1-.325 1.233zm48.8-1.456a.66.66 0 0 1-.547-1.026q.417-.625.8-1.281l.55-.936a.659.659 0 0 1 1.136.668l-.55.935q-.4.69-.843 1.346a.657.657 0 0 1-.543.289zm-53.391-1.146a.657.657 0 0 1-.324-.086l-2.292-1.3a.658.658 0 1 1 .649-1.146l2.292 1.3a.659.659 0 0 1-.325 1.233zm-4.585-2.6a.658.658 0 0 1-.324-.086l-2.292-1.3a.659.659 0 0 1 .649-1.147l2.292 1.3a.659.659 0 0 1-.325 1.232zm60.684-.776a.659.659 0 0 1-.567-.992l1.336-2.272a.658.658 0 1 1 1.135.668l-1.335 2.272a.658.658 0 0 1-.566.318zm-65.269-1.826a.643.643 0 0 1-.324-.086l-2.294-1.3a.659.659 0 1 1 .651-1.145l2.293 1.3a.658.658 0 0 1-.325 1.231zm-4.585-2.6a.665.665 0 0 1-.325-.086l-2.292-1.3a.659.659 0 0 1 .651-1.147l2.292 1.3a.66.66 0 0 1-.325 1.233zm72.525-.118a.659.659 0 0 1-.567-.992l1.335-2.274a.659.659 0 0 1 1.136.667l-1.336 2.274a.654.654 0 0 1-.564.319zm-77.111-2.483a.657.657 0 0 1-.324-.086l-2.292-1.3a.659.659 0 0 1 .649-1.147l2.294 1.3a.66.66 0 0 1-.327 1.233zm79.782-2.061a.652.652 0 0 1-.333-.091.66.66 0 0 1-.234-.9l1.335-2.272a.659.659 0 0 1 1.136.667l-1.335 2.272a.66.66 0 0 1-.566.317zm-84.367-.541a.644.644 0 0 1-.324-.086l-2.292-1.3a.659.659 0 0 1 .649-1.147l2.292 1.3a.658.658 0 0 1-.325 1.232zm-4.585-2.6a.663.663 0 0 1-.325-.086l-2.293-1.3a.659.659 0 1 1 .651-1.146l2.292 1.3a.66.66 0 0 1-.325 1.233zm91.622-1.405a.649.649 0 0 1-.332-.091.657.657 0 0 1-.235-.9l1.335-2.272a.659.659 0 1 1 1.136.667l-1.335 2.272a.657.657 0 0 1-.566.314zm-96.164-1.268a.652.652 0 0 1-.368-.113c-.746-.5-1.472-1.047-2.161-1.615a.659.659 0 0 1 .839-1.016c.655.541 1.349 1.058 2.06 1.538a.66.66 0 0 1-.37 1.206zm98.834-3.278a.668.668 0 0 1-.333-.09.66.66 0 0 1-.234-.9l1.335-2.272a.659.659 0 1 1 1.136.668l-1.335 2.272a.659.659 0 0 1-.565.315zm-102.892-.075a.655.655 0 0 1-.468-.2c-.632-.634-1.24-1.311-1.807-2.006a.659.659 0 0 1 1.022-.832c.539.662 1.119 1.3 1.72 1.909a.66.66 0 0 1 0 .933.653.653 0 0 1-.463.189zm-3.321-4.089a.66.66 0 0 1-.551-.3c-.495-.748-.959-1.529-1.378-2.322a.66.66 0 0 1 1.167-.615 25.579 25.579 0 0 0 1.311 2.21.658.658 0 0 1-.549 1.023zm108.887-.387a.66.66 0 0 1-.567-.994l1.336-2.272a.658.658 0 1 1 1.135.668l-1.335 2.272a.657.657 0 0 1-.569.326zm-111.348-4.267a.657.657 0 0 1-.609-.41 26.936 26.936 0 0 1-.894-2.548.658.658 0 1 1 1.262-.374c.243.82.53 1.636.851 2.424a.658.658 0 0 1-.362.859.674.674 0 0 1-.248.048zm114.019-.277a.653.653 0 0 1-.333-.091.66.66 0 0 1-.234-.9l1.335-2.272a.659.659 0 1 1 1.136.668l-1.335 2.272a.662.662 0 0 1-.568.322zm2.67-4.546a.659.659 0 0 1-.567-.992l1.335-2.272a.659.659 0 1 1 1.136.667l-1.335 2.272a.657.657 0 0 1-.568.324zm-118.184-.223a.66.66 0 0 1-.647-.535c-.168-.882-.294-1.783-.374-2.674a.66.66 0 0 1 .6-.715.667.667 0 0 1 .714.6c.077.847.195 1.7.356 2.544a.658.658 0 0 1-.524.77.635.635 0 0 1-.124.01zm120.854-4.321a.648.648 0 0 1-.332-.091.658.658 0 0 1-.235-.9l1.337-2.273a.658.658 0 1 1 1.135.667l-1.335 2.273a.659.659 0 0 1-.569.323zm-121.32-.92h-.007a.659.659 0 0 1-.652-.666c.009-.893.066-1.8.164-2.7a.659.659 0 0 1 1.311.145c-.094.852-.148 1.715-.157 2.564a.659.659 0 0 1-.658.656zm123.992-3.625a.652.652 0 0 1-.333-.091.659.659 0 0 1-.234-.9l1.335-2.272q.274-.468.527-.941a.659.659 0 1 1 1.163.62q-.266.5-.554.988l-1.335 2.272a.66.66 0 0 1-.568.323zm-123.406-1.605a.615.615 0 0 1-.138-.015.658.658 0 0 1-.506-.782 26.752 26.752 0 0 1 .7-2.609.659.659 0 0 1 1.254.406 25.3 25.3 0 0 0-.667 2.479.658.658 0 0 1-.642.52zm126.408-4.015a.66.66 0 0 1-.61-.91c.327-.789.616-1.6.862-2.42a.659.659 0 0 1 1.263.379c-.258.858-.562 1.714-.9 2.544a.659.659 0 0 1-.614.406zm-124.789-.992a.658.658 0 0 1-.6-.924 26.929 26.929 0 0 1 1.2-2.416.659.659 0 0 1 1.148.645c-.418.746-.8 1.521-1.146 2.3a.659.659 0 0 1-.601.393zm126.3-4.048a.672.672 0 0 1-.126-.012.658.658 0 0 1-.522-.772 25.582 25.582 0 0 0 .36-2.543.668.668 0 0 1 .715-.6.659.659 0 0 1 .6.715 26.553 26.553 0 0 1-.379 2.674.657.657 0 0 1-.644.536zm-123.8-.585a.659.659 0 0 1-.567-.992l1.335-2.272a.659.659 0 1 1 1.136.667l-1.335 2.272a.658.658 0 0 1-.563.323zm2.67-4.546a.669.669 0 0 1-.333-.09.66.66 0 0 1-.234-.9l1.335-2.272a.659.659 0 1 1 1.136.668l-1.335 2.272a.658.658 0 0 1-.563.32zm121.6-.11a.659.659 0 0 1-.659-.652 25.611 25.611 0 0 0-.155-2.564.659.659 0 1 1 1.311-.144c.1.893.152 1.8.161 2.695a.659.659 0 0 1-.652.665zm-118.924-4.433a.659.659 0 0 1-.566-.994l1.335-2.272a.659.659 0 1 1 1.136.668l-1.336 2.272a.657.657 0 0 1-.569.326zm118.354-.795a.661.661 0 0 1-.644-.522 25.376 25.376 0 0 0-.657-2.484.659.659 0 1 1 1.256-.4c.272.854.506 1.732.691 2.61a.657.657 0 0 1-.507.781.609.609 0 0 1-.138.01zm-115.684-3.75a.647.647 0 0 1-.332-.091.659.659 0 0 1-.235-.9l1.336-2.272a.658.658 0 1 1 1.135.667l-1.335 2.272a.658.658 0 0 1-.568.321zm114.087-1.265a.659.659 0 0 1-.605-.4c-.339-.784-.721-1.56-1.135-2.306a.659.659 0 1 1 1.152-.639 26.97 26.97 0 0 1 1.193 2.423.659.659 0 0 1-.605.92zm-111.415-3.281a.659.659 0 0 1-.567-.992l1.335-2.272a.659.659 0 1 1 1.136.667l-1.335 2.272a.658.658 0 0 1-.569.322zm108.862-1.322a.658.658 0 0 1-.543-.285c-.485-.7-1.012-1.386-1.566-2.037a.659.659 0 0 1 1-.854c.581.683 1.135 1.4 1.646 2.142a.658.658 0 0 1-.167.915.644.644 0 0 1-.37.116zm-106.191-3.223a.659.659 0 0 1-.567-.992l1.335-2.274a.659.659 0 0 1 1.136.667l-1.335 2.274a.66.66 0 0 1-.569.322zm102.78-.789a.653.653 0 0 1-.457-.184c-.614-.593-1.265-1.162-1.936-1.694a.659.659 0 0 1 .817-1.034c.7.559 1.389 1.158 2.033 1.78a.658.658 0 0 1-.457 1.132zm-4.126-3.27a.66.66 0 0 1-.358-.106q-.649-.419-1.332-.807l-.9-.514a.658.658 0 1 1 .649-1.146l.9.512c.477.272.943.553 1.4.847a.659.659 0 0 1-.358 1.213zm-95.984-.487a.66.66 0 0 1-.567-.994l1.337-2.272a.658.658 0 1 1 1.135.668l-1.335 2.272a.657.657 0 0 1-.57.323zm91.422-2.154a.659.659 0 0 1-.324-.086l-2.292-1.3a.659.659 0 1 1 .649-1.147l2.293 1.3a.659.659 0 0 1-.325 1.233zm-88.75-2.391a.653.653 0 0 1-.333-.091.66.66 0 0 1-.234-.9l1.335-2.272a.659.659 0 0 1 1.136.668l-1.336 2.268a.657.657 0 0 1-.568.325zm84.165-.211a.644.644 0 0 1-.324-.086l-2.292-1.3a.658.658 0 1 1 .649-1.146l2.293 1.3a.658.658 0 0 1-.325 1.232zm-4.586-2.6a.657.657 0 0 1-.324-.086l-2.292-1.3a.659.659 0 0 1 .649-1.147l2.292 1.3a.659.659 0 0 1-.325 1.233zm-76.911-1.737a.659.659 0 0 1-.567-.992l1.335-2.272a.659.659 0 1 1 1.136.667l-1.335 2.272a.657.657 0 0 1-.569.325zm72.324-.867a.643.643 0 0 1-.324-.086l-2.292-1.3a.659.659 0 1 1 .649-1.147l2.292 1.3a.659.659 0 0 1-.325 1.232zm-4.585-2.6a.657.657 0 0 1-.324-.086l-2.292-1.3a.658.658 0 1 1 .649-1.146l2.292 1.3a.659.659 0 0 1-.325 1.233zm-65.068-1.077a.648.648 0 0 1-.332-.091.657.657 0 0 1-.235-.9l1.336-2.274a.658.658 0 0 1 1.135.667l-1.335 2.274a.659.659 0 0 1-.568.323zm60.483-1.525a.665.665 0 0 1-.325-.086l-2.292-1.3a.659.659 0 0 1 .651-1.146l2.293 1.3a.66.66 0 0 1-.325 1.233zm-4.586-2.6a.643.643 0 0 1-.324-.086l-2.292-1.3a.659.659 0 1 1 .649-1.147l2.292 1.3a.658.658 0 0 1-.325 1.232zm-53.211-.41a.66.66 0 0 1-.555-1.014c.481-.754 1.007-1.494 1.561-2.2a.659.659 0 0 1 1.037.813c-.528.674-1.029 1.378-1.487 2.1a.659.659 0 0 1-.555.299zm48.626-2.19a.657.657 0 0 1-.324-.086l-2.292-1.3a.658.658 0 1 1 .649-1.145l2.292 1.3a.659.659 0 0 1-.325 1.233zm-45.373-1.948a.659.659 0 0 1-.476-1.115c.621-.648 1.28-1.273 1.962-1.857a.659.659 0 1 1 .858 1c-.648.555-1.277 1.15-1.868 1.765a.655.655 0 0 1-.475.204zm40.788-.653a.658.658 0 0 1-.324-.086l-2.294-1.3a.659.659 0 0 1 .651-1.147l2.292 1.3a.659.659 0 0 1-.325 1.233zm-4.585-2.6a.652.652 0 0 1-.325-.086l-2.292-1.3a.659.659 0 1 1 .651-1.146l2.292 1.3a.659.659 0 0 1-.325 1.232zm-32.2-.171a.659.659 0 0 1-.379-1.2c.734-.514 1.5-1 2.284-1.439a.659.659 0 0 1 .647 1.148c-.744.42-1.476.881-2.174 1.37a.659.659 0 0 1-.381.116zm27.582-2.358a.667.667 0 0 1-.28-.063c-.777-.366-1.577-.7-2.377-.983a.659.659 0 1 1 .445-1.241c.84.3 1.678.648 2.493 1.031a.66.66 0 0 1-.281 1.256zm-23-.23a.659.659 0 0 1-.269-1.261c.82-.364 1.666-.693 2.516-.978a.659.659 0 0 1 .418 1.25c-.811.27-1.618.584-2.4.93a.652.652 0 0 1-.267.054zm18.045-1.547a.663.663 0 0 1-.163-.02c-.83-.21-1.678-.382-2.521-.511a.659.659 0 0 1 .2-1.3c.885.136 1.775.316 2.643.536a.659.659 0 0 1-.16 1.3zm-13.056-.124a.658.658 0 0 1-.148-1.3c.874-.2 1.767-.366 2.653-.485a.659.659 0 1 1 .175 1.307c-.846.113-1.7.269-2.53.463a.706.706 0 0 1-.151.01zm7.852-.675h-.036c-.859-.048-1.718-.056-2.572-.023a.667.667 0 0 1-.684-.633.66.66 0 0 1 .633-.684c.9-.032 1.8-.026 2.7.025a.659.659 0 0 1-.036 1.316z" class="prefix__cls-5" data-name="Path 11390" transform="translate(-330.52 -955.618)"/>
            <path id="prefix__Path_11391" d="M451.152 1020.818a2.112 2.112 0 0 1-2.116-1.806 2 2 0 0 1 .413-1.492 2.159 2.159 0 0 1 3.824.986 2 2 0 0 1-.413 1.492 2.143 2.143 0 0 1-1.448.805 2.4 2.4 0 0 1-.26.015zm0-3.255a1.317 1.317 0 0 0-1.025.488 1.139 1.139 0 0 0-.238.851 1.259 1.259 0 0 0 1.418 1.042 1.273 1.273 0 0 0 .867-.479 1.139 1.139 0 0 0 .237-.85 1.247 1.247 0 0 0-1.257-1.053z" class="prefix__cls-2" data-name="Path 11391" transform="translate(-293.428 -941.555)"/>
            <path id="prefix__Path_11392" fill="#f7657d" d="M434.345 1071.284a5.558 5.558 0 0 1-5.531-4.823 5.4 5.4 0 0 1 1.115-4.019 5.6 5.6 0 0 1 9.956 2.677 5.406 5.406 0 0 1-1.115 4.021 5.645 5.645 0 0 1-4.425 2.143zm.007-9.527a4.263 4.263 0 0 0-.506.03 4.111 4.111 0 0 0-2.768 1.554 3.959 3.959 0 0 0-.817 2.94 4.147 4.147 0 0 0 7.36 1.962 3.956 3.956 0 0 0 .816-2.942 4.094 4.094 0 0 0-4.085-3.545z" data-name="Path 11392" transform="translate(-300.405 -926.533)" style="isolation:isolate" opacity="0.25"/>
            <path id="prefix__Path_11393" d="M371.295 964.929a2.116 2.116 0 0 1-2.118-1.807 2.007 2.007 0 0 1 .414-1.494 2.16 2.16 0 0 1 3.824.987 2.008 2.008 0 0 1-.414 1.494 2.2 2.2 0 0 1-1.706.82zm0-3.257c-.052 0-.1 0-.159.009a1.277 1.277 0 0 0-.866.479 1.139 1.139 0 0 0-.238.851 1.25 1.25 0 0 0 1.419 1.043 1.279 1.279 0 0 0 .866-.479 1.138 1.138 0 0 0 .238-.851 1.248 1.248 0 0 0-1.255-1.051z" class="prefix__cls-2" data-name="Path 11393" transform="translate(-320.944 -960.811)"/>
            <path id="prefix__Path_11394" d="M413.095 980.211a2.112 2.112 0 0 1-2.116-1.806 2 2 0 0 1 .413-1.494 2.16 2.16 0 0 1 3.824.987 2 2 0 0 1-.414 1.493 2.138 2.138 0 0 1-1.447.805 2.458 2.458 0 0 1-.26.015zm0-3.255a1.343 1.343 0 0 0-1.025.488 1.138 1.138 0 0 0-.238.851 1.253 1.253 0 0 0 1.418 1.042 1.272 1.272 0 0 0 .867-.479 1.139 1.139 0 0 0 .237-.85 1.248 1.248 0 0 0-1.254-1.052z" class="prefix__cls-2" data-name="Path 11394" transform="translate(-306.541 -955.545)"/>
            <path id="prefix__Path_11395" d="M345.048 996.451a2.114 2.114 0 0 1-2.116-1.807 2 2 0 0 1 .414-1.494 2.16 2.16 0 0 1 3.823.987 1.991 1.991 0 0 1-.414 1.492 2.194 2.194 0 0 1-1.706.822zm0-3.256a1.551 1.551 0 0 0-.157.009 1.279 1.279 0 0 0-.867.479 1.145 1.145 0 0 0-.238.851 1.257 1.257 0 0 0 1.418 1.043 1.282 1.282 0 0 0 .867-.479 1.138 1.138 0 0 0 .237-.851 1.248 1.248 0 0 0-1.258-1.053z" class="prefix__cls-2" data-name="Path 11395" transform="translate(-329.987 -949.951)"/>
            <path id="prefix__Path_11396" d="M348.937 1060.447a2.116 2.116 0 0 1-2.118-1.807 2.006 2.006 0 0 1 .414-1.492 2.159 2.159 0 0 1 3.823.986 2 2 0 0 1-.413 1.494 2.138 2.138 0 0 1-1.447.805 2.44 2.44 0 0 1-.259.014zm0-3.255a1.258 1.258 0 0 0-.159.01 1.278 1.278 0 0 0-.867.479 1.14 1.14 0 0 0-.237.85 1.25 1.25 0 0 0 1.417 1.043 1.272 1.272 0 0 0 .867-.479 1.137 1.137 0 0 0 .238-.851 1.246 1.246 0 0 0-1.257-1.052z" class="prefix__cls-2" data-name="Path 11396" transform="translate(-328.647 -927.9)"/>
        </g>
        <g id="prefix__Group_12320" data-name="Group 12320" transform="translate(56.145 -69.115)">
            <g id="prefix__Group_12307" data-name="Group 12307" transform="translate(336.559 1039.896)">
                <g id="prefix__Group_12306" data-name="Group 12306">
                    <path id="prefix__Path_11712" d="M355.755 1061.881a.865.865 0 0 1-.343.509 11.3 11.3 0 0 1-2.426 1.137c-.469.194-.97.407-1.48.654l-.112.057a13.39 13.39 0 0 0-4.409 4.156 23.519 23.519 0 0 1-2.53 2.375c-.066.058-.133.113-.2.171l-.01.007-.372.319-.01.01c-.063.057-.127.112-.189.164-.174.15-.343.3-.5.441-.055.048-.11.1-.162.145-.215.191-.41.373-.578.536a1.432 1.432 0 0 0-.116.113c-.045.045-.088.086-.127.13s-.058.058-.082.087c-.055.061-.1.116-.142.167-.495.617-.769 13.462-.919 29.583-.018 1.862-.034 3.772-.048 5.709-.161 22.153-.124 48.227-.1 57.561v.811h-10.636v-.811c-.006-7.427-.024-25.442-.037-43.616v-3.512-2.659c0-5.411 0-10.734-.01-15.68v-3.272-13.269c0-6.069 0-10 .012-10.382a9.868 9.868 0 0 0-1.179-4.871 20.4 20.4 0 0 1-1.745-6.512c-.034-.535-.083-.986-.145-1.377-.007-.057-.016-.112-.027-.164-.037-.214-.076-.41-.119-.589-.021-.092-.042-.177-.066-.261s-.045-.164-.072-.243a11.46 11.46 0 0 0-.6-1.471c-.462-1.026-1.488-3.126-2.359-4.82s-1.745-3.539-.668-4.255 2.053 1.076 2.667 2.308a33.968 33.968 0 0 0 2.153 3.382c.77 1.18 2 2.309 2.718 1.8s.462-2.975.256-4.461-.554-3.729-.821-5.538c-.305-2.1-.565-3.589.924-3.744s1.745 2.1 1.9 2.923.668 5.385.924 7.024.307 2.308.924 2.205.821-.9.821-2.075.076-3 .2-4.282c.1-1 .308-3.528.308-4.768s.1-3.333 1.745-3.333 1.332 1.947 1.28 3.333-.256 4.564-.356 6.819-.206 4 .562 4.051 1.95-3.127 2.412-4.154 1.229-2.461 1.843-4.206 1.694-3.153 2.615-2.716.77 1.335.462 2.716a26.265 26.265 0 0 1-1.435 4.154c-.513 1.232-1.485 4.515-1.745 5.231a12.4 12.4 0 0 0-.152 4.308c.206 1.59.614 2.82 1.384 3.026s1.229.1 3.025-1.077a10.779 10.779 0 0 1 5.9-1.694c1.428.153 2.146.817 1.992 1.69z" class="prefix__cls-7" data-name="Path 11712" transform="translate(-321.999 -1039.651)"/>
                    <path id="prefix__Path_11713" d="M341.889 1167.712h-12.123l-.058-83.565c0-6.94 0-10.051.012-10.4a9.165 9.165 0 0 0-1.119-4.555 20.89 20.89 0 0 1-1.8-6.758c-.033-.511-.079-.94-.137-1.311l.709-.279-.733.13c-.034-.2-.071-.38-.11-.548l-.119-.438a9.375 9.375 0 0 0-.5-1.249l-.067-.149c-.456-1.013-1.484-3.115-2.342-4.789-.842-1.627-2.111-4.087-.42-5.216a1.594 1.594 0 0 1 1.325-.234c1.076.285 1.815 1.611 2.424 2.829a18.852 18.852 0 0 0 1.414 2.281c.229.331.463.67.7 1.028.7 1.079 1.451 1.584 1.693 1.585-.013-.019.356-.575-.08-3.741-.13-.925-.313-2.146-.5-3.37l-.347-2.332c-.235-1.612-.422-2.886.227-3.72a1.924 1.924 0 0 1 1.383-.7c2.049-.23 2.5 2.351 2.669 3.315l.036.212c.082.432.243 1.734.431 3.242.179 1.442.37 2.987.5 3.8l.055.358c.046.294.091.592.137.837a5.03 5.03 0 0 0 .072-.949c0-1.13.071-2.987.206-4.355.107-1.065.307-3.533.307-4.7 0-2.7.836-4.077 2.488-4.077a1.916 1.916 0 0 1 1.454.574c.723.761.654 1.992.593 3.075l-.022.456c-.027.7-.091 1.854-.161 3.117-.07 1.241-.146 2.589-.2 3.71l-.009.2a22.928 22.928 0 0 0-.025 2.747 22.685 22.685 0 0 0 1.3-2.709c.113-.27.21-.5.289-.677.127-.28.274-.59.437-.93a31.833 31.833 0 0 0 1.384-3.217c.273-.775 1.046-2.631 2.312-3.159a1.6 1.6 0 0 1 1.323.014c1.5.714 1.168 2.223.872 3.553a26.733 26.733 0 0 1-1.475 4.278c-.326.784-.864 2.488-1.258 3.734-.212.666-.386 1.217-.474 1.466a12.02 12.02 0 0 0-.116 3.956c.232 1.785.65 2.353.839 2.4.438.118.663.173 2.423-.979a11.521 11.521 0 0 1 6.384-1.812 3.215 3.215 0 0 1 2.311 1.082 1.862 1.862 0 0 1 .344 1.481 1.578 1.578 0 0 1-.6.958 8.68 8.68 0 0 1-2.128 1.053l-.486.2c-.456.186-.943.393-1.436.635a12.353 12.353 0 0 0-4.106 3.8l-.147.2a23.238 23.238 0 0 1-2.636 2.487l-1.441 1.253c-.2.182-.39.358-.553.513l-.633-.422.477.578-.629-.422.516.538-.718-.311.583.465c-.139.48-.53 5.082-.755 29.125-.018 1.861-.033 3.771-.046 5.707-.168 22.923-.121 49.848-.1 57.555zm-10.635-1.49l9.142-.058c-.016-7.713-.064-34.646.1-57.574.013-1.935.028-3.847.046-5.711.273-29.03.76-29.638 1.082-30.042.051-.064.109-.133.177-.206l.177-.183c.092-.1.15-.154.212-.206.143-.141.347-.332.569-.53l.137-.121c.182-.164.355-.314.535-.469l.2-.174.295-.253.162-.249h.128a24.041 24.041 0 0 0 2.42-2.259l.146-.191a13.512 13.512 0 0 1 4.522-4.178c.641-.314 1.158-.536 1.642-.735l.5-.2a8.616 8.616 0 0 0 1.74-.827l.08-.058a.4.4 0 0 0-.07-.331 1.941 1.941 0 0 0-1.277-.495 10.154 10.154 0 0 0-5.409 1.576c-1.769 1.161-2.5 1.472-3.624 1.174-1.354-.36-1.752-2.257-1.934-3.65a12.975 12.975 0 0 1 .189-4.65c.089-.243.255-.772.457-1.412.4-1.271.952-3.013 1.3-3.856a25.313 25.313 0 0 0 1.4-4.03c.343-1.535.258-1.736-.054-1.882a3.783 3.783 0 0 0-1.593 2.293 33.4 33.4 0 0 1-1.445 3.364c-.156.326-.3.627-.422.9-.075.167-.167.387-.276.644-1.171 2.786-1.874 4.011-2.865 3.947-1.475-.094-1.387-2-1.266-4.632l.01-.194c.049-1.125.125-2.479.2-3.728s.134-2.394.159-3.087l.025-.483c.036-.667.092-1.675-.188-1.97-.025-.025-.1-.107-.372-.107s-1 0-1 2.587c0 1.287-.216 3.865-.314 4.842-.13 1.32-.2 3.117-.2 4.209 0 .635 0 2.572-1.444 2.81a1.153 1.153 0 0 1-.918-.194c-.518-.375-.621-1.052-.809-2.28l-.055-.352c-.13-.826-.323-2.391-.505-3.85-.167-1.359-.341-2.765-.414-3.15l-.042-.235c-.174-1.006-.466-2.135-1.047-2.086a.519.519 0 0 0-.358.137c-.259.331-.083 1.53.072 2.588l.346 2.327c.185 1.231.37 2.455.5 3.387.426 3.08.264 4.579-.559 5.17a1.471 1.471 0 0 1-1.147.237c-1.237-.233-2.324-1.767-2.628-2.232-.226-.349-.454-.676-.676-1a20.078 20.078 0 0 1-1.518-2.457c-.794-1.588-1.24-2-1.475-2.058-.7.424.353 2.46.8 3.328.885 1.722 1.906 3.81 2.376 4.857l.066.141a10.784 10.784 0 0 1 .565 1.417c.025.073.049.164.078.261s.051.194.073.3c.043.179.085.387.125.617l.033.2c.061.39.113.864.15 1.426a19.368 19.368 0 0 0 1.682 6.265 10.556 10.556 0 0 1 1.241 5.185c-.01.426-.012 5.762-.012 10.363z" class="prefix__cls-5" data-name="Path 11713" transform="translate(-322.245 -1039.896)"/>
                </g>
                <path id="prefix__Path_11714" d="M350.023 1057.888a17.805 17.805 0 0 0-1.81.015c.2.016-1.319.32-1.554.4l-.326.118c-.255.127-.513.25-.76.392-.094.055-.471.311-.818.544-.451.328-.909.642-1.377.937a17.629 17.629 0 0 1-4.5 2.585c-3.968 1.483-9.521-.06-11.3-4.221a23.647 23.647 0 0 1-1.372-4.123c-.051-.219-.192-.59-.282-.84-.146-.153-.282-.313-.413-.475a11.17 11.17 0 0 1 .429 2.633 20.34 20.34 0 0 0 1.743 6.511 9.906 9.906 0 0 1 1.18 4.872c-.01.381-.015 4.313-.015 10.382l.1-.085a33.452 33.452 0 0 0 2.984-4.146 11.464 11.464 0 0 1 6.325-6.211 12.5 12.5 0 0 1 2.5-.568c.979-1.07 4.1-3.479 4.88-4.5a13.4 13.4 0 0 1 4.41-4.154l.119-.055z" class="prefix__cls-1" data-name="Path 11714" transform="translate(-320.643 -1033.368)"/>
            </g>
            <g id="prefix__Group_12309" data-name="Group 12309" transform="translate(385.637 1082.261)">
                <g id="prefix__Group_12308" data-name="Group 12308">
                    <path id="prefix__Path_11715" d="M388.692 1090.314c-.151.855-2.135 1.269-4.249 2.3l-.049.027-.061.03a13.357 13.357 0 0 0-4.409 4.152 33.744 33.744 0 0 1-3.293 3.032c-.061.049-.119.1-.18.155-.234.2-.456.4-.659.586l-.15.137c-.122.115-.235.222-.338.323-.042.039-.082.08-.121.121-.019.018-.037.04-.057.058s-.057.058-.08.086c-.054.061-.1.116-.143.167-.7.884-.963 26.639-1.05 51.3h-10.689c-.013-15.108-.021-30.6-.021-40.456 0-6.068 0-10 .013-10.382a9.885 9.885 0 0 0-1.18-4.871 20.316 20.316 0 0 1-1.74-6.513c-.016-.229-.034-.443-.054-.641l-.039-.335a9.962 9.962 0 0 0-.2-1.153c-.01-.048-.021-.092-.031-.134s-.024-.085-.034-.127-.021-.085-.034-.124l-.037-.119a12.186 12.186 0 0 0-.6-1.469c-.462-1.025-1.488-3.127-2.359-4.818s-1.745-3.539-.667-4.258 2.052 1.079 2.667 2.308a34.2 34.2 0 0 0 2.153 3.385c.77 1.18 2 2.306 2.718 1.794s.462-2.972.256-4.461-.554-3.726-.821-5.538c-.305-2.1-.562-3.589.924-3.741s1.743 2.1 1.9 2.92.667 5.385.924 7.027.305 2.306.924 2.2.819-.9.819-2.077.077-3 .2-4.282c.1-1 .308-3.528.308-4.768s.1-3.333 1.743-3.333 1.333 1.95 1.283 3.333-.258 4.564-.359 6.821-.206 4 .562 4.05 1.95-3.128 2.412-4.154 1.229-2.461 1.845-4.2 1.694-3.156 2.615-2.719.77 1.335.462 2.719a26.2 26.2 0 0 1-1.436 4.154c-.511 1.229-1.486 4.511-1.743 5.23a12.452 12.452 0 0 0-.153 4.306c.206 1.591.615 2.82 1.386 3.026s1.229.1 3.023-1.077a10.773 10.773 0 0 1 5.9-1.693c1.435.158 2.154.823 1.999 1.696z" class="prefix__cls-7" data-name="Path 11715" transform="translate(-354.939 -1068.085)"/>
                    <path id="prefix__Path_11716" d="M374.838 1153.781h-12.174v-.745c-.013-15.108-.021-30.6-.021-40.456 0-6.939 0-10.05.013-10.4a9.182 9.182 0 0 0-1.119-4.555 20.863 20.863 0 0 1-1.8-6.757c-.015-.222-.033-.429-.052-.62l-.037-.316a8.973 8.973 0 0 0-.185-1.067l.681-.353-.715.2.657-.413-.706.235a9.691 9.691 0 0 0-.5-1.287l-.106-.232c-.468-1.041-1.5-3.142-2.341-4.781s-2.1-4.093-.42-5.219a1.608 1.608 0 0 1 1.325-.237c1.071.286 1.813 1.612 2.426 2.832a18.524 18.524 0 0 0 1.406 2.268c.231.338.466.681.7 1.043.69 1.056 1.445 1.584 1.678 1.584h.012c-.009-.021.359-.578-.077-3.741-.128-.922-.31-2.131-.493-3.348l-.352-2.344c-.235-1.618-.422-2.895.229-3.729a1.908 1.908 0 0 1 1.38-.7c2.032-.2 2.5 2.347 2.667 3.309l.039.216c.076.414.246 1.761.426 3.218s.372 3.008.5 3.831l.054.353c.045.3.091.595.137.839a5.146 5.146 0 0 0 .073-.95c0-1.13.07-2.987.2-4.355.1-.957.307-3.467.307-4.695 0-2.706.837-4.077 2.488-4.077a1.91 1.91 0 0 1 1.454.572c.721.76.654 1.988.6 3.071l-.021.459c-.028.682-.089 1.788-.159 3.007-.072 1.272-.149 2.667-.2 3.822l-.007.183a22.779 22.779 0 0 0-.025 2.758 22.1 22.1 0 0 0 1.292-2.7c.115-.271.215-.507.292-.682.127-.283.279-.6.441-.939a31.445 31.445 0 0 0 1.38-3.206c.274-.775 1.046-2.633 2.314-3.162a1.586 1.586 0 0 1 1.322.015c1.5.714 1.17 2.223.872 3.557a26.894 26.894 0 0 1-1.477 4.277c-.325.782-.864 2.49-1.258 3.737-.21.663-.383 1.211-.472 1.459a12.078 12.078 0 0 0-.115 3.959c.231 1.785.65 2.353.839 2.4.44.116.666.174 2.421-.98a11.547 11.547 0 0 1 6.386-1.812 3.218 3.218 0 0 1 2.312 1.083 1.861 1.861 0 0 1 .343 1.478c-.171.988-1.249 1.42-2.74 2.017-.587.236-1.244.5-1.915.828a12.268 12.268 0 0 0-4.1 3.792l-.152.2a24.11 24.11 0 0 1-2.78 2.61l-.615.533-.617-.453.495.556c-.289.253-.507.447-.706.627l-.754.739c-.3 1.111-.8 9.39-.942 50.9zm-10.684-1.49h9.2c.182-49.728.849-50.569 1.207-51.02l.246-.279.62.431-.477-.575.591-.56c.2-.183.428-.386.669-.593l.8-.691a25.09 25.09 0 0 0 2.569-2.385l.149-.2a13.519 13.519 0 0 1 4.519-4.172l.136-.067c.687-.335 1.378-.615 2-.863a6.6 6.6 0 0 0 1.83-.912.378.378 0 0 0-.068-.307 1.961 1.961 0 0 0-1.281-.5 10.016 10.016 0 0 0-5.409 1.575c-1.763 1.162-2.493 1.477-3.624 1.176-1.354-.365-1.751-2.259-1.932-3.652a13.042 13.042 0 0 1 .189-4.652c.086-.241.253-.767.454-1.407.4-1.274.953-3.016 1.3-3.86a25.417 25.417 0 0 0 1.4-4.027c.343-1.538.258-1.739-.054-1.886a3.792 3.792 0 0 0-1.594 2.294 32.745 32.745 0 0 1-1.439 3.354c-.159.331-.3.635-.428.909-.075.165-.168.389-.277.647-1.168 2.785-1.859 4-2.865 3.944-1.472-.1-1.386-2-1.263-4.646l.009-.182c.051-1.159.13-2.56.2-3.84.068-1.207.13-2.3.156-2.977l.022-.484c.037-.664.091-1.67-.189-1.965-.024-.027-.1-.107-.372-.107s-1 0-1 2.587c0 1.283-.215 3.863-.314 4.842-.13 1.32-.2 3.117-.2 4.208 0 .636 0 2.569-1.442 2.811a1.173 1.173 0 0 1-.919-.194c-.518-.375-.621-1.052-.811-2.278l-.054-.352c-.13-.831-.326-2.411-.508-3.877-.176-1.416-.337-2.725-.411-3.127l-.042-.236c-.173-1-.42-2.154-1.046-2.083a.513.513 0 0 0-.358.135c-.259.332-.085 1.538.07 2.6l.349 2.338c.185 1.223.368 2.439.5 3.367.425 3.084.264 4.583-.562 5.169a1.441 1.441 0 0 1-1.149.235c-1.237-.232-2.321-1.764-2.625-2.229-.229-.352-.457-.686-.682-1.01a19.664 19.664 0 0 1-1.512-2.449c-.794-1.585-1.241-1.994-1.474-2.056-.694.422.355 2.463.8 3.335.854 1.658 1.9 3.789 2.376 4.851l.1.229a10.754 10.754 0 0 1 .524 1.326c.052.162.068.226.085.289l.069.276a10.15 10.15 0 0 1 .215 1.226l.039.338c.021.216.039.437.057.672a19.359 19.359 0 0 0 1.681 6.268 10.592 10.592 0 0 1 1.241 5.188c-.012.426-.013 5.762-.013 10.361.001 9.702.008 24.85.021 39.719z" class="prefix__cls-5" data-name="Path 11716" transform="translate(-355.184 -1068.33)"/>
                </g>
                <path id="prefix__Path_11717" d="M382.96 1086.321a17.91 17.91 0 0 0-1.81.016c.2.016-1.319.32-1.554.4-.139.051-.241.089-.326.118-.256.127-.513.252-.76.392-.1.057-.472.313-.818.545-.451.328-.909.641-1.377.937a17.655 17.655 0 0 1-4.5 2.583c-3.968 1.483-9.519-.058-11.3-4.221a23.625 23.625 0 0 1-1.372-4.121c-.052-.219-.192-.59-.283-.84-.145-.155-.28-.314-.411-.477a11.279 11.279 0 0 1 .429 2.633 20.3 20.3 0 0 0 1.743 6.512 9.884 9.884 0 0 1 1.179 4.871c-.01.383-.013 4.313-.013 10.384.031-.03.064-.057.1-.085a33.451 33.451 0 0 0 2.984-4.147 11.467 11.467 0 0 1 6.326-6.211 12.5 12.5 0 0 1 2.5-.568c.977-1.071 4.1-3.479 4.88-4.5a13.365 13.365 0 0 1 4.41-4.154c.04-.02.079-.036.118-.055z" class="prefix__cls-1" data-name="Path 11717" transform="translate(-353.584 -1061.802)"/>
            </g>
            <g id="prefix__Group_12311" data-name="Group 12311" transform="translate(357.905 1058.431)">
                <g id="prefix__Group_12310" data-name="Group 12310">
                    <path id="prefix__Path_11718" d="M368.935 1065.657c-.873 1.691-1.9 3.795-2.359 4.819a11.966 11.966 0 0 0-.6 1.469l-.037.119c-.013.04-.024.082-.034.124s-.024.085-.034.13l-.031.131c-.048.2-.092.417-.133.66l-.024.158c-.016.106-.031.219-.045.335l-.04.335c-.018.2-.036.411-.052.64a20.312 20.312 0 0 1-1.745 6.513 9.879 9.879 0 0 0-1.176 4.871c0 .158 0 .918.007 2.18v22.401c-.006 15.488-.024 35.279-.037 50.086h-10.623c0-12.1-.027-27.536-.131-41.266q-.02-2.141-.037-4.225c-.069-7.329-.161-13.983-.291-19.124-.156-6.185-.359-10.176-.629-10.514-.039-.051-.089-.106-.142-.166a1.08 1.08 0 0 0-.082-.088c-.209-.219-.493-.486-.821-.778-.052-.048-.107-.1-.162-.146-.222-.2-.46-.4-.7-.614-.106-.093-.212-.183-.32-.274-.15-.129-.3-.262-.456-.4-.066-.058-.133-.113-.2-.171-.393-.338-.776-.676-1.113-.985-.112-.1-.219-.2-.32-.3-.161-.151-.305-.295-.426-.425-.072-.076-.136-.147-.194-.216-.031-.037-.058-.071-.083-.106a13.358 13.358 0 0 0-4.412-4.153l-.058-.03c-.019-.007-.037-.018-.055-.025-2.111-1.037-4.093-1.45-4.246-2.3-.152-.875.565-1.539 2-1.694a10.751 10.751 0 0 1 5.9 1.694c1.8 1.178 2.256 1.281 3.026 1.076s1.179-1.435 1.384-3.026a12.339 12.339 0 0 0-.155-4.306c-.256-.718-1.229-4-1.742-5.23a26.472 26.472 0 0 1-1.438-4.152c-.034-.154-.066-.3-.1-.441-.232-1.137-.261-1.889.557-2.28.615-.291 1.3.24 1.868 1.143a7.9 7.9 0 0 1 .746 1.578c.615 1.74 1.386 3.177 1.848 4.2s1.64 4.2 2.408 4.152.667-1.794.565-4.05-.305-5.435-.359-6.821-.358-3.333 1.283-3.333 1.745 2.1 1.745 3.333.206 3.768.305 4.768c.13 1.283.206 3.1.206 4.282s.206 1.974.821 2.077.667-.562.924-2.2.767-6.206.924-7.027.408-3.077 1.9-2.92 1.229 1.64.924 3.741c-.267 1.813-.618 4.052-.821 5.538s-.462 3.95.256 4.462 1.947-.615 2.718-1.8a34.186 34.186 0 0 0 2.153-3.385c.614-1.229 1.588-3.023 2.664-2.308s.201 2.57-.669 4.264z" class="prefix__cls-7" data-name="Path 11718" transform="translate(-336.326 -1052.091)"/>
                    <path id="prefix__Path_11719" d="M363.59 1161.617h-12.118v-.745c0-16.023-.045-29.9-.133-41.26l-.036-4.224c-.075-7.977-.173-14.406-.292-19.112-.209-8.414-.447-9.932-.539-10.194-.307-.289-.577-.539-.887-.815l-1.634-1.426.292-.732-.486.565c-.4-.343-.787-.685-1.129-1l-.338-.317c-.162-.153-.319-.31-.45-.451l-.475-.572a12.2 12.2 0 0 0-4-3.744c-.781-.383-1.439-.648-2.026-.884-1.486-.6-2.555-1.03-2.731-2.011a1.864 1.864 0 0 1 .343-1.482 3.215 3.215 0 0 1 2.309-1.082 11.6 11.6 0 0 1 6.386 1.81c1.758 1.158 1.983 1.1 2.424.982.191-.052.609-.618.839-2.4a11.869 11.869 0 0 0-.118-3.957c-.085-.243-.252-.767-.451-1.406-.4-1.263-.945-2.995-1.277-3.789a26.95 26.95 0 0 1-1.477-4.279l-.1-.441c-.186-.912-.495-2.417.964-3.113.447-.213 1.611-.493 2.817 1.416a8.767 8.767 0 0 1 .82 1.728 31.647 31.647 0 0 0 1.389 3.217c.161.338.31.648.437.927.077.176.174.407.286.672a22.871 22.871 0 0 0 1.3 2.716 22.635 22.635 0 0 0-.024-2.75l-.009-.194c-.051-1.12-.127-2.468-.2-3.71-.072-1.264-.136-2.417-.162-3.117l-.022-.457c-.06-1.083-.127-2.312.594-3.074a1.918 1.918 0 0 1 1.454-.573c1.651 0 2.49 1.372 2.49 4.078 0 1.193.2 3.646.3 4.693.139 1.357.21 3.218.21 4.356a4.9 4.9 0 0 0 .073.949c.045-.247.091-.548.136-.845l.055-.346c.125-.811.314-2.339.493-3.771.189-1.526.352-2.844.435-3.279l.036-.21c.167-.966.586-3.521 2.67-3.312a1.915 1.915 0 0 1 1.38.7c.65.834.462 2.116.225 3.735l-.347 2.322c-.185 1.223-.368 2.439-.495 3.363-.437 3.166-.069 3.722-.025 3.776a4.13 4.13 0 0 0 1.637-1.617c.235-.36.469-.7.7-1.038a18.8 18.8 0 0 0 1.411-2.272c.608-1.22 1.347-2.543 2.42-2.829a1.579 1.579 0 0 1 1.322.232c1.693 1.128.426 3.591-.414 5.219-.919 1.783-1.913 3.832-2.341 4.781l-.1.21a9.141 9.141 0 0 0-.468 1.174l-.775-.013.72.2-.045.168c-.069.294-.112.49-.147.714l-.758.039.736.113-.079.641c-.018.18-.036.386-.051.61a20.816 20.816 0 0 1-1.8 6.757 9.161 9.161 0 0 0-1.116 4.553c0 .167.006.93.009 2.2v22.405c0 13.5-.019 30.286-.031 44.178zm-10.628-1.49h9.138l.006-5.161c.012-13.894.027-30.674.031-44.18v-22.4c0-1.256-.006-2.011-.009-2.169a10.565 10.565 0 0 1 1.238-5.179 19.3 19.3 0 0 0 1.685-6.267q.027-.358.054-.662l.116-.877c.042-.262.089-.5.142-.714l.039-.156.752.069-.711-.228.745.1-.7-.271a10.734 10.734 0 0 1 .556-1.418l.094-.206c.5-1.105 1.542-3.238 2.375-4.854.448-.87 1.5-2.908.915-3.3-.349.028-.794.435-1.585 2.022a19.867 19.867 0 0 1-1.514 2.449c-.225.326-.453.658-.681 1.009-.305.466-1.389 2-2.627 2.23a1.471 1.471 0 0 1-1.15-.235c-.822-.589-.985-2.086-.56-5.171.127-.928.311-2.15.5-3.381l.347-2.315c.155-1.065.332-2.271.073-2.6a.519.519 0 0 0-.358-.135c-.572-.045-.875 1.08-1.047 2.083l-.042.234c-.075.392-.25 1.813-.42 3.187-.179 1.45-.371 3-.5 3.817l-.052.343c-.191 1.234-.295 1.912-.813 2.287a1.2 1.2 0 0 1-.918.194c-1.442-.239-1.442-2.176-1.442-2.812 0-1.1-.07-2.9-.2-4.208-.109-1.074-.31-3.6-.31-4.842 0-2.588-.726-2.588-1-2.588s-.347.082-.372.109c-.28.295-.225 1.3-.189 1.967l.025.484c.025.693.089 1.837.159 3.089s.148 2.6.2 3.726l.01.192c.121 2.636.207 4.54-1.271 4.635-1.027.074-1.691-1.165-2.864-3.956-.106-.253-.2-.472-.271-.635-.121-.27-.265-.569-.422-.9a33.058 33.058 0 0 1-1.45-3.366 7.1 7.1 0 0 0-.673-1.427c-.447-.709-.828-.919-.919-.867-.225.106-.4.192-.145 1.457l.089.423a25.562 25.562 0 0 0 1.4 4.033c.356.855.913 2.624 1.32 3.916.194.614.352 1.119.435 1.35a12.865 12.865 0 0 1 .194 4.65c-.182 1.395-.577 3.29-1.932 3.652-1.131.3-1.858-.012-3.628-1.174a10.054 10.054 0 0 0-5.41-1.575 1.942 1.942 0 0 0-1.275.495.383.383 0 0 0-.069.328 7.039 7.039 0 0 0 1.821.89c.618.249 1.311.529 2.019.875a13.574 13.574 0 0 1 4.644 4.236l.377.457c.107.118.241.25.389.387l.243.229c.4.371.779.7 1.167 1.036l-.288.736.49-.56 1.654 1.442c.338.3.639.583.858.815l.122.133a2.209 2.209 0 0 1 .153.177c.243.3.526.659.782 10.95.119 4.714.218 11.152.292 19.135l.036 4.225c.086 11.194.13 24.824.132 40.536z" class="prefix__cls-5" data-name="Path 11719" transform="translate(-336.571 -1052.336)"/>
                </g>
                <path id="prefix__Path_11720" d="M340.068 1070.329a17.555 17.555 0 0 1 1.812.015c-.2.016 1.319.32 1.552.4.139.052.241.089.326.119.256.125.513.25.76.392.1.055.472.311.819.544.45.328.909.642 1.375.937a17.71 17.71 0 0 0 4.5 2.585c3.968 1.482 9.519-.06 11.3-4.223a23.587 23.587 0 0 0 1.372-4.121c.052-.219.192-.59.283-.84.145-.153.28-.313.411-.477a11.283 11.283 0 0 0-.429 2.634 20.3 20.3 0 0 1-1.743 6.511 9.9 9.9 0 0 0-1.179 4.871c.01.383.013 4.313.013 10.383-.031-.03-.064-.057-.1-.085a33.459 33.459 0 0 1-2.984-4.146 11.465 11.465 0 0 0-6.325-6.212 12.566 12.566 0 0 0-2.5-.568c-.977-1.071-4.1-3.479-4.88-4.5a13.367 13.367 0 0 0-4.41-4.154l-.118-.055z" class="prefix__cls-1" data-name="Path 11720" transform="translate(-334.925 -1045.808)"/>
            </g>
            <g id="prefix__Group_12313" data-name="Group 12313" transform="translate(303.551 1061.73)">
                <g id="prefix__Group_12312" data-name="Group 12312">
                    <path id="prefix__Path_11721" d="M332.455 1067.868c-.873 1.694-1.9 3.793-2.359 4.82a11.912 11.912 0 0 0-.6 1.47l-.037.118c-.013.039-.024.082-.034.125s-.024.083-.034.128c-.034.13-.067.27-.1.417-.01.048-.018.1-.03.15s-.021.1-.028.156-.018.107-.027.162c-.025.17-.049.346-.072.54-.028.253-.052.532-.073.836a20.319 20.319 0 0 1-1.745 6.512 9.916 9.916 0 0 0-1.179 4.871c0 .137.007.726.007 1.7.006 1.76.007 4.778.007 8.68v16.713c0 4.409-.006 9.111-.007 13.907l-.027 30.366h-10.628c0-6.472-.01-13.7-.037-21.008 0-.791-.007-1.588-.01-2.383q0-1.417-.013-2.834c-.1-22.78-.374-44.791-1.024-45.606-.039-.051-.089-.106-.142-.167-.024-.028-.051-.055-.082-.086-.209-.219-.493-.486-.821-.779-.052-.048-.107-.1-.162-.145-.222-.2-.46-.4-.7-.615-.1-.092-.21-.182-.319-.274l-.456-.395-.2-.173c-.393-.337-.776-.675-1.113-.983-.112-.1-.219-.2-.32-.3-.161-.151-.305-.3-.426-.425-.072-.077-.136-.147-.194-.216-.031-.037-.058-.072-.083-.106a13.391 13.391 0 0 0-4.412-4.155l-.112-.057c-2.113-1.034-4.094-1.445-4.248-2.3-.153-.873.565-1.538 2-1.694a10.771 10.771 0 0 1 5.9 1.694c1.8 1.18 2.257 1.28 3.028 1.077s1.178-1.436 1.384-3.026a12.419 12.419 0 0 0-.155-4.307c-.256-.717-1.229-4-1.742-5.231a26.315 26.315 0 0 1-1.438-4.153c-.305-1.383-.459-2.281.462-2.719s2 .978 2.615 2.719 1.386 3.178 1.846 4.2 1.642 4.2 2.409 4.154.668-1.8.565-4.051-.305-5.436-.359-6.82-.359-3.333 1.283-3.333 1.745 2.1 1.745 3.333.206 3.766.305 4.768c.13 1.281.206 3.1.206 4.282s.206 1.973.821 2.076.667-.565.924-2.2.767-6.206.922-7.027.41-3.077 1.9-2.923 1.229 1.64.921 3.744c-.264 1.809-.615 4.05-.818 5.538s-.462 3.947.256 4.461 1.946-.617 2.718-1.8a34.5 34.5 0 0 0 2.153-3.382c.614-1.232 1.588-3.026 2.664-2.309s.195 2.574-.675 4.265z" class="prefix__cls-7" data-name="Path 11721" transform="translate(-299.846 -1054.305)"/>
                    <path id="prefix__Path_11722" d="M327.113 1160.533h-12.122v-.745c0-6.471-.012-13.7-.039-21.005l-.022-5.216c-.171-37.561-.662-44.487-.937-45.271-.305-.286-.577-.538-.887-.813l-1.757-1.531c-.471-.4-.86-.747-1.2-1.062l-.335-.314c-.164-.155-.323-.31-.453-.452l-.472-.575a12.281 12.281 0 0 0-4-3.744c-.775-.38-1.432-.644-2.017-.879-1.49-.6-2.566-1.03-2.742-2.013a1.877 1.877 0 0 1 .344-1.484 3.221 3.221 0 0 1 2.308-1.082 11.6 11.6 0 0 1 6.386 1.812c1.76 1.156 1.983 1.1 2.427.979 0 0 .55-.171.837-2.4a11.947 11.947 0 0 0-.118-3.959c-.086-.241-.252-.767-.454-1.406-.4-1.265-.943-2.995-1.272-3.79a26.836 26.836 0 0 1-1.48-4.278c-.294-1.332-.626-2.84.87-3.551a1.592 1.592 0 0 1 1.325-.018c1.266.527 2.04 2.384 2.314 3.157a31.453 31.453 0 0 0 1.378 3.2c.165.344.316.66.444.945.077.174.176.405.288.672a22.607 22.607 0 0 0 1.3 2.712 22.441 22.441 0 0 0-.024-2.739l-.009-.2c-.051-1.1-.127-2.431-.194-3.659-.073-1.281-.139-2.458-.167-3.167l-.021-.465c-.058-1.082-.125-2.306.595-3.066a1.908 1.908 0 0 1 1.454-.574c1.651 0 2.49 1.372 2.49 4.078 0 1.189.2 3.645.3 4.693.137 1.366.21 3.226.21 4.357a5.015 5.015 0 0 0 .073.948c.045-.247.092-.551.139-.848l.052-.341c.125-.8.313-2.32.489-3.744.191-1.538.355-2.868.438-3.306l.036-.21c.168-.966.58-3.524 2.67-3.315a1.913 1.913 0 0 1 1.381.7c.65.836.462 2.116.223 3.737l-.364 2.433c-.179 1.183-.355 2.351-.477 3.248-.44 3.163-.069 3.722-.024 3.774a4.121 4.121 0 0 0 1.634-1.616c.237-.362.474-.706.706-1.044a18.632 18.632 0 0 0 1.405-2.263c.609-1.22 1.35-2.546 2.421-2.833a1.6 1.6 0 0 1 1.325.235c1.691 1.125.423 3.588-.416 5.216-.922 1.783-1.915 3.834-2.342 4.784l-.1.222a9.284 9.284 0 0 0-.463 1.159l-.784.027.718.2c-.063.235-.091.362-.118.491l-.03.158-.758.006.732.143c-.046.292-.07.457-.088.636-.03.25-.051.52-.072.812a20.764 20.764 0 0 1-1.8 6.752 9.192 9.192 0 0 0-1.117 4.558c0 .142.007.736.007 1.721.006 1.758.009 4.777.009 8.68zm-10.632-1.49h9.142l.04-60.241c0-3.9 0-6.919-.009-8.677 0-.97 0-1.554-.007-1.69a10.585 10.585 0 0 1 1.24-5.182 19.285 19.285 0 0 0 1.685-6.265c.022-.32.048-.609.077-.872.021-.2.048-.389.075-.569l.031-.191.761-.013-.733-.14.031-.155c.031-.162.067-.316.1-.459.048-.18.064-.244.083-.3a10.747 10.747 0 0 1 .565-1.442l.1-.216c.5-1.105 1.541-3.239 2.376-4.856.447-.87 1.5-2.908.913-3.3-.347.028-.793.435-1.585 2.023a20.027 20.027 0 0 1-1.511 2.442c-.225.328-.456.661-.685 1.013-.3.466-1.389 2-2.627 2.232a1.494 1.494 0 0 1-1.147-.235c-.815-.584-.983-2.131-.56-5.172.122-.9.3-2.075.478-3.266l.362-2.429c.156-1.065.335-2.271.074-2.606a.52.52 0 0 0-.358-.137c-.654-.055-.875 1.085-1.046 2.086l-.042.234c-.074.393-.252 1.827-.425 3.214-.179 1.442-.368 2.974-.495 3.789l-.052.34c-.191 1.235-.3 1.916-.815 2.292a1.185 1.185 0 0 1-.916.194c-1.442-.243-1.442-2.175-1.442-2.812 0-1.094-.07-2.89-.2-4.208-.11-1.076-.31-3.6-.31-4.842 0-2.588-.727-2.588-1-2.588s-.349.082-.372.109c-.28.293-.225 1.3-.189 1.96l.024.492c.027.7.092 1.867.164 3.138.07 1.234.145 2.566.194 3.676l.01.2c.119 2.63.206 4.529-1.269 4.625-1.049.063-1.7-1.168-2.865-3.954-.106-.253-.2-.472-.273-.638-.124-.274-.268-.58-.429-.912a32.794 32.794 0 0 1-1.441-3.353 4.2 4.2 0 0 0-1.48-2.276c-.422.134-.507.332-.167 1.868a25.526 25.526 0 0 0 1.4 4.027c.358.858.915 2.626 1.32 3.917.194.615.353 1.122.435 1.353a12.889 12.889 0 0 1 .194 4.65c-.18 1.395-.577 3.29-1.932 3.652-1.129.295-1.859-.013-3.626-1.174a10.041 10.041 0 0 0-5.41-1.575 1.927 1.927 0 0 0-1.275.494.4.4 0 0 0-.07.329 7.1 7.1 0 0 0 1.83.889c.617.247 1.308.525 2.014.87a13.64 13.64 0 0 1 4.64 4.236l.378.46c.109.116.241.249.389.387l.314.295c.331.3.708.636 1.1.97l1.848 1.609c.346.31.647.59.866.821l.11.118c.052.058.112.125.161.186.343.431.982 1.235 1.186 46.068l.022 5.216c.017 7.036.029 13.991.031 20.271z" class="prefix__cls-5" data-name="Path 11722" transform="translate(-300.091 -1054.55)"/>
                </g>
                <path id="prefix__Path_11723" d="M303.588 1072.542a17.947 17.947 0 0 1 1.81.015c-.2.016 1.319.32 1.554.4l.326.118c.256.127.513.252.76.392.1.055.471.313.818.544.451.328.909.642 1.377.939a17.732 17.732 0 0 0 4.5 2.584c3.969 1.482 9.521-.06 11.3-4.221a23.645 23.645 0 0 0 1.372-4.123c.052-.219.192-.59.282-.84.146-.154.282-.313.413-.475a11.255 11.255 0 0 0-.429 2.633 20.3 20.3 0 0 1-1.743 6.511 9.889 9.889 0 0 0-1.179 4.872c.01.381.013 4.313.013 10.382l-.1-.085a33.639 33.639 0 0 1-2.986-4.146 11.47 11.47 0 0 0-6.325-6.212 12.512 12.512 0 0 0-2.5-.568c-.977-1.07-4.1-3.479-4.88-4.5a13.382 13.382 0 0 0-4.41-4.154c-.04-.02-.079-.036-.118-.055z" class="prefix__cls-1" data-name="Path 11723" transform="translate(-298.444 -1048.022)"/>
            </g>
            <g id="prefix__Group_12315" data-name="Group 12315" transform="translate(321.663 1094.184)">
                <g id="prefix__Group_12314" data-name="Group 12314">
                    <path id="prefix__Path_11724" d="M345.756 1098.317c-.151.855-2.135 1.267-4.245 2.3l-.054.027a.372.372 0 0 0-.06.028 13.38 13.38 0 0 0-4.41 4.154c-.025.034-.052.068-.083.1-.058.07-.122.14-.194.218-.031.031-.063.066-.1.1-.1.1-.209.209-.329.322-.1.1-.209.2-.32.3-.337.308-.72.647-1.113.983-.066.058-.133.113-.2.171l-.456.4c-.109.092-.215.182-.319.274-.684.591-1.31 1.14-1.69 1.537-.031.033-.058.058-.082.088-.054.061-.1.116-.143.166-.589.742-.866 18.968-.989 39.378h-10.753c-.006-10.966-.01-21.276-.01-28.532v-5.853-3.4c0-.639.006-1.026.007-1.135a9.9 9.9 0 0 0-1.179-4.871 20.379 20.379 0 0 1-1.745-6.511c-.021-.3-.045-.583-.073-.836l-.024-.188c-.007-.064-.016-.122-.024-.18l-.024-.171c-.03-.192-.064-.369-.1-.532-.007-.046-.018-.091-.028-.136s-.018-.086-.03-.13l-.031-.124-.031-.121a11.142 11.142 0 0 0-.66-1.687c-.462-1.024-1.488-3.126-2.359-4.817s-1.745-3.539-.667-4.26 2.05 1.08 2.667 2.309a33.851 33.851 0 0 0 2.153 3.385c.769 1.179 2 2.306 2.718 1.794s.462-2.974.256-4.461c-.063-.465-.142-1-.229-1.576-.188-1.268-.408-2.716-.591-3.962-.305-2.1-.565-3.588.924-3.741a1.167 1.167 0 0 1 .544.064c1.01.374 1.219 2.147 1.354 2.858.152.819.667 5.385.922 7.026s.307 2.3.924 2.2.818-.9.818-2.076.076-3 .206-4.284c.1-1 .308-3.527.308-4.768s.1-3.332 1.742-3.332 1.335 1.949 1.283 3.332-.256 4.565-.359 6.821-.206 4 .565 4.05 1.947-3.126 2.409-4.152 1.232-2.461 1.846-4.2 1.693-3.156 2.615-2.721a1.454 1.454 0 0 1 .277.171c.609.481.459 1.324.185 2.549q-.078.355-.185.723a31.648 31.648 0 0 1-1.25 3.43c-.513 1.231-1.488 4.513-1.745 5.23a12.427 12.427 0 0 0-.152 4.306c.206 1.591.614 2.821 1.384 3.027a2.062 2.062 0 0 0 1.773-.311c.332-.18.736-.428 1.252-.766a10.768 10.768 0 0 1 5.9-1.694c1.44.169 2.158.834 2.004 1.707z" class="prefix__cls-7" data-name="Path 11724" transform="translate(-312.002 -1076.087)"/>
                    <path id="prefix__Path_11725" d="M331.959 1149.861h-12.244v-38.528c0-.648 0-1.041.006-1.153a9.164 9.164 0 0 0-1.119-4.553 20.9 20.9 0 0 1-1.8-6.757c-.019-.289-.042-.559-.07-.8l.717-.271-.738.1-.046-.334c-.028-.183-.058-.346-.091-.5l.69-.337-.727.16.676-.365-.724.174a8.848 8.848 0 0 0-.542-1.444l-.106-.234c-.477-1.061-1.506-3.162-2.339-4.78s-2.107-4.091-.422-5.219a1.6 1.6 0 0 1 1.323-.237c1.068.281 1.812 1.608 2.426 2.829a19.1 19.1 0 0 0 1.418 2.289c.229.332.46.669.693 1.024.7 1.08 1.462 1.59 1.691 1.584-.01-.021.358-.577-.079-3.741-.064-.462-.143-1-.228-1.566l-.617-4.138c-.235-1.612-.422-2.885.228-3.717a1.906 1.906 0 0 1 1.383-.7 1.967 1.967 0 0 1 .888.11c1.3.483 1.609 2.241 1.776 3.185l.04.227c.077.416.244 1.76.425 3.215s.374 3.013.5 3.835l.054.353c.046.293.092.59.137.834a5.177 5.177 0 0 0 .07-.946c0-1.129.073-2.989.212-4.356.094-.964.3-3.485.3-4.692 0-2.707.836-4.078 2.487-4.078a1.918 1.918 0 0 1 1.454.572c.723.764.654 2 .594 3.083l-.022.45c-.027.718-.094 1.916-.167 3.218-.07 1.213-.143 2.52-.194 3.607l-.007.183a22.57 22.57 0 0 0-.025 2.762 22.513 22.513 0 0 0 1.3-2.713c.112-.268.21-.5.288-.673.128-.284.279-.6.444-.943a31.787 31.787 0 0 0 1.38-3.2c.273-.775 1.046-2.633 2.311-3.161a1.588 1.588 0 0 1 1.323.015 2.106 2.106 0 0 1 .426.264c1.006.791.72 2.064.447 3.294-.058.253-.121.508-.2.767a32.832 32.832 0 0 1-1.278 3.509c-.332.8-.881 2.53-1.28 3.8-.2.635-.367 1.156-.451 1.4a12.012 12.012 0 0 0-.116 3.96c.232 1.785.65 2.353.839 2.4.323.088.517.137 1.228-.247.317-.171.7-.408 1.2-.731a11.506 11.506 0 0 1 6.383-1.812 3.216 3.216 0 0 1 2.309 1.079 1.865 1.865 0 0 1 .346 1.484c-.171.985-1.244 1.415-2.728 2.011-.587.237-1.249.5-1.922.834l-.145.064a12.36 12.36 0 0 0-3.971 3.735l-.25.326c-.067.079-.139.16-.219.245l-.113.119c-.1.107-.221.219-.347.338l-.305.288c-.367.335-.754.676-1.152 1.019l-.968.837c-.6.518-1.265 1.1-1.639 1.491l-.183.2c-.179.593-.632 6.618-.828 38.919zm-10.754-1.49h9.273c.237-37.952.806-38.667 1.147-39.095l.283-.317c.367-.384.934-.889 1.727-1.575l.27-.231.626.444-.486-.565.557-.484c.395-.341.773-.673 1.107-.977l1.074-1.135a13.54 13.54 0 0 1 4.526-4.181l.158-.07c.669-.335 1.363-.617 1.983-.865a6.569 6.569 0 0 0 1.821-.906.389.389 0 0 0-.073-.31 1.942 1.942 0 0 0-1.277-.495 10.1 10.1 0 0 0-5.407 1.576c-.539.353-.961.611-1.307.8a2.792 2.792 0 0 1-2.321.374c-1.351-.361-1.749-2.254-1.931-3.649a12.952 12.952 0 0 1 .191-4.652c.082-.232.24-.735.434-1.347.41-1.292.968-3.063 1.325-3.92a31.071 31.071 0 0 0 1.222-3.346c.069-.235.125-.462.176-.684.235-1.05.311-1.618.08-1.8a.736.736 0 0 0-.139-.085 3.807 3.807 0 0 0-1.59 2.3 32.727 32.727 0 0 1-1.442 3.351c-.158.332-.3.636-.428.91-.075.164-.165.385-.273.638-1.17 2.791-1.888 4.032-2.867 3.954-1.477-.1-1.389-2.006-1.266-4.646l.009-.182c.049-1.1.124-2.408.192-3.627.073-1.29.139-2.476.165-3.188l.025-.477c.036-.667.091-1.679-.189-1.976-.025-.027-.1-.107-.372-.107s-1 0-1 2.588c0 1.274-.212 3.81-.311 4.839-.134 1.322-.2 3.119-.2 4.209 0 .636 0 2.57-1.439 2.813a1.2 1.2 0 0 1-.921-.2c-.517-.376-.62-1.052-.809-2.278l-.054-.352c-.13-.831-.326-2.412-.508-3.881-.174-1.414-.335-2.722-.41-3.123l-.046-.244c-.088-.51-.325-1.861-.836-2.05a.5.5 0 0 0-.21-.022.512.512 0 0 0-.356.135c-.259.332-.083 1.53.072 2.588l.614 4.129c.089.578.167 1.117.231 1.585.426 3.084.264 4.582-.56 5.17a1.465 1.465 0 0 1-1.15.235c-1.241-.235-2.324-1.765-2.625-2.23-.225-.344-.451-.672-.672-.994a19.99 19.99 0 0 1-1.523-2.466c-.641-1.272-1.137-1.965-1.475-2.055-.7.423.356 2.463.8 3.333.845 1.637 1.889 3.77 2.376 4.853l.1.231a10.04 10.04 0 0 1 .6 1.56l.107.441c.063.292.1.483.13.691l.076.565q.042.393.077.867a19.381 19.381 0 0 0 1.682 6.27 10.57 10.57 0 0 1 1.241 5.185c0 .107-.006.489-.006 1.118l-.009 9.246z" class="prefix__cls-5" data-name="Path 11725" transform="translate(-312.247 -1076.332)"/>
                </g>
                <path id="prefix__Path_11726" d="M340.024 1094.323a17.423 17.423 0 0 0-1.81.017c.2.016-1.319.319-1.554.4l-.326.118c-.256.127-.513.252-.76.392-.1.055-.472.313-.818.544-.451.328-.909.642-1.377.939a17.713 17.713 0 0 1-4.5 2.583c-3.968 1.482-9.519-.06-11.3-4.221a23.651 23.651 0 0 1-1.372-4.123c-.052-.219-.192-.59-.283-.84-.145-.153-.28-.313-.411-.475a11.253 11.253 0 0 1 .429 2.633 20.3 20.3 0 0 0 1.743 6.511 9.889 9.889 0 0 1 1.179 4.872c-.01.381-.013 4.313-.013 10.382.031-.029.064-.055.1-.085a33.454 33.454 0 0 0 2.984-4.146 11.477 11.477 0 0 1 6.326-6.212 12.415 12.415 0 0 1 2.5-.566c.977-1.071 4.1-3.48 4.88-4.5a13.394 13.394 0 0 1 4.41-4.154l.118-.055z" class="prefix__cls-1" data-name="Path 11726" transform="translate(-310.646 -1069.804)"/>
            </g>
            <g id="prefix__Group_12317" data-name="Group 12317" transform="translate(352.39 1093.342)">
                <g id="prefix__Group_12316" data-name="Group 12316">
                    <path id="prefix__Path_11727" d="M366.38 1097.752c-.092.523-.863.876-1.931 1.31-.687.276-1.491.587-2.317.991l-.11.057a13.374 13.374 0 0 0-4.409 4.155 14.357 14.357 0 0 1-1.628 1.588l-.182.158c-.235.209-.478.417-.723.629l-.2.171c-.377.323-.749.644-1.085.942-.051.042-.1.083-.144.129s-.116.1-.174.155c-.1.092-.2.182-.288.267-.143.134-.27.258-.378.372-.031.031-.058.058-.082.086-.054.061-.1.116-.143.167-.6.75-.873 19.472-1 40.218H340.84c0-11.277-.01-21.933-.01-29.374v-6.818-2.481c0-.605.006-.979.009-1.085a9.926 9.926 0 0 0-1.18-4.871 20.263 20.263 0 0 1-1.743-6.511c-.022-.305-.046-.583-.075-.839-.021-.192-.045-.37-.071-.538-.008-.057-.015-.112-.027-.164-.034-.214-.076-.413-.118-.591s-.089-.346-.137-.5a12.061 12.061 0 0 0-.6-1.471c-.244-.544-.648-1.39-1.106-2.318-.4-.821-.843-1.7-1.253-2.5-.873-1.691-1.743-3.539-.667-4.257.732-.484 1.412.183 1.968 1.047a13.685 13.685 0 0 1 .7 1.262 33.716 33.716 0 0 0 2.153 3.382c.767 1.18 2 2.309 2.718 1.8s.462-2.975.255-4.461-.556-3.729-.819-5.538c-.31-2.1-.565-3.589.922-3.744s1.742 2.1 1.9 2.923.664 5.385.924 7.024.305 2.308.921 2.205.819-.9.819-2.075.078-3 .206-4.284c.1-1 .307-3.527.307-4.766s.1-3.333 1.743-3.333 1.335 1.947 1.283 3.333-.256 4.564-.359 6.82-.206 4 .565 4.051 1.947-3.127 2.409-4.154c.225-.5.523-1.1.842-1.783.335-.718.691-1.53 1.006-2.423.614-1.74 1.691-3.153 2.615-2.718s.767 1.335.46 2.718a26.472 26.472 0 0 1-1.435 4.154c-.511 1.232-1.488 4.514-1.743 5.231a12.381 12.381 0 0 0-.153 4.306c.206 1.591.614 2.822 1.383 3.028s1.232.1 3.026-1.077a10.78 10.78 0 0 1 5.9-1.694c.024 0 .048.006.072.01 1.389.162 2.081.827 1.93 1.679z" class="prefix__cls-7" data-name="Path 11727" transform="translate(-332.624 -1075.522)"/>
                    <path id="prefix__Path_11728" d="M352.578 1150.138h-12.237v-39.619-.9a9.174 9.174 0 0 0-1.117-4.556 20.805 20.805 0 0 1-1.8-6.757c-.019-.291-.042-.559-.07-.8-.019-.185-.043-.35-.067-.51l-.027-.161c-.03-.194-.069-.372-.106-.536s-.082-.311-.125-.451a9.351 9.351 0 0 0-.463-1.158l-.1-.228c-.24-.535-.642-1.375-1.092-2.3-.4-.816-.842-1.7-1.249-2.488-.84-1.627-2.108-4.086-.42-5.216a1.65 1.65 0 0 1 1.243-.255 3 3 0 0 1 1.769 1.52 14.631 14.631 0 0 1 .739 1.33 18.863 18.863 0 0 0 1.414 2.281c.229.331.463.67.7 1.028.7 1.08 1.484 1.6 1.693 1.585-.012-.02.359-.577-.08-3.74-.124-.9-.3-2.07-.478-3.254l-.364-2.432c-.238-1.619-.426-2.9.222-3.735a1.92 1.92 0 0 1 1.384-.7c2-.216 2.5 2.341 2.667 3.3l.039.222c.077.411.241 1.739.42 3.18.182 1.459.375 3.04.507 3.866l.055.359c.046.29.091.585.136.83a5.139 5.139 0 0 0 .07-.943c0-1.131.073-2.99.212-4.357.1-1.016.3-3.516.3-4.695 0-2.7.837-4.077 2.49-4.077a1.916 1.916 0 0 1 1.454.574c.723.763.654 1.994.594 3.078l-.022.453c-.027.724-.094 1.938-.17 3.257-.067 1.2-.142 2.491-.191 3.57l-.009.2a23.048 23.048 0 0 0-.024 2.739 22.878 22.878 0 0 0 1.3-2.713c.112-.265.209-.5.286-.67.131-.292.288-.62.459-.977l.386-.815a25.055 25.055 0 0 0 .979-2.354c.273-.778 1.047-2.634 2.312-3.16a1.6 1.6 0 0 1 1.323.016c1.5.711 1.165 2.22.872 3.551a26.881 26.881 0 0 1-1.475 4.279c-.331.8-.878 2.53-1.278 3.795-.2.638-.367 1.161-.451 1.4a11.956 11.956 0 0 0-.116 3.959c.288 2.232.83 2.4.836 2.4.444.118.664.176 2.426-.979a11.556 11.556 0 0 1 6.384-1.812 3.233 3.233 0 0 1 2.317 1.091 1.862 1.862 0 0 1 .337 1.474c-.17.971-1.3 1.429-2.382 1.87l-.274.11c-.608.243-1.295.517-2 .86a12.357 12.357 0 0 0-4.109 3.8l-.146.192a13.674 13.674 0 0 1-1.73 1.7l-.188.165c-.228.2-.474.414-.724.629l-.361.311c-.316.271-.627.539-.909.791l-.538.486c-.188.176-.3.29-.4.395l-.177.2c-.188.606-.645 6.75-.84 39.767zm-10.747-1.49h9.269c.235-38.791.811-39.507 1.155-39.939.036-.046.089-.107.148-.174l.146-.151c.091-.1.228-.234.383-.377l.633-.577c.276-.246.593-.52.918-.8l.352-.306c.252-.218.492-.423.723-.629l.167-.144a15.158 15.158 0 0 0 1.547-1.5l.143-.188a13.53 13.53 0 0 1 4.525-4.181c.855-.42 1.575-.709 2.216-.966l.268-.107a5.448 5.448 0 0 0 1.478-.769.382.382 0 0 0-.07-.306 1.872 1.872 0 0 0-1.216-.489 10.035 10.035 0 0 0-5.471 1.568c-1.763 1.159-2.49 1.474-3.627 1.174-1.356-.362-1.751-2.257-1.931-3.652a12.874 12.874 0 0 1 .191-4.65c.082-.231.24-.735.435-1.349.408-1.293.967-3.062 1.322-3.919a25.4 25.4 0 0 0 1.4-4.03c.34-1.536.255-1.736-.054-1.882a3.778 3.778 0 0 0-1.593 2.292c-.273.772-.6 1.566-1.033 2.49l-.393.828c-.165.344-.316.66-.443.943-.076.167-.167.386-.274.639-1.173 2.791-1.84 4.02-2.865 3.953-1.475-.094-1.389-1.995-1.269-4.623l.01-.2c.049-1.083.122-2.379.191-3.588.074-1.305.142-2.509.167-3.226l.025-.481c.036-.667.091-1.675-.188-1.973-.027-.025-.1-.107-.374-.107s-1 0-1 2.587c0 1.245-.2 3.769-.31 4.842-.133 1.318-.2 3.115-.2 4.209 0 .635 0 2.569-1.444 2.81a1.184 1.184 0 0 1-.915-.194c-.517-.374-.621-1.05-.809-2.278l-.055-.353c-.131-.837-.331-2.436-.513-3.914-.173-1.4-.331-2.691-.405-3.087l-.045-.241c-.176-1-.451-2.138-1.046-2.078a.522.522 0 0 0-.359.137c-.259.334-.082 1.542.075 2.606l.362 2.426c.18 1.192.358 2.369.481 3.27.425 3.04.256 4.586-.56 5.17a1.444 1.444 0 0 1-1.149.235c-1.24-.234-2.324-1.767-2.627-2.23-.225-.347-.453-.677-.675-1a20.1 20.1 0 0 1-1.518-2.457 12.468 12.468 0 0 0-.66-1.19c-.49-.766-.77-.857-.822-.869-.69.426.362 2.461.809 3.33.413.8.86 1.691 1.262 2.516.46.937.867 1.792 1.114 2.341l.1.224a11.017 11.017 0 0 1 .529 1.332c.052.17.106.355.152.551s.092.411.128.647l.03.18c.025.165.051.352.073.557.028.259.054.548.077.866a19.276 19.276 0 0 0 1.684 6.268 10.556 10.556 0 0 1 1.24 5.185v.872l-.01 9.493z" class="prefix__cls-5" data-name="Path 11728" transform="translate(-332.87 -1075.767)"/>
                </g>
                <path id="prefix__Path_11729" d="M360.648 1093.759a17.983 17.983 0 0 0-1.81.015c.2.016-1.319.32-1.554.4l-.326.118c-.256.125-.513.25-.76.392-.1.055-.471.312-.818.544-.451.328-.909.642-1.377.937a17.721 17.721 0 0 1-4.5 2.585c-3.969 1.483-9.521-.059-11.3-4.221a23.64 23.64 0 0 1-1.372-4.123c-.052-.219-.192-.59-.282-.84-.146-.154-.282-.313-.413-.477a11.278 11.278 0 0 1 .429 2.634 20.3 20.3 0 0 0 1.743 6.511 9.887 9.887 0 0 1 1.179 4.871c-.01.383-.013 4.315-.013 10.384l.1-.085a33.623 33.623 0 0 0 2.986-4.147 11.465 11.465 0 0 1 6.325-6.211 12.5 12.5 0 0 1 2.5-.568c.977-1.071 4.1-3.479 4.88-4.5a13.365 13.365 0 0 1 4.41-4.154c.04-.02.079-.036.118-.055z" class="prefix__cls-1" data-name="Path 11729" transform="translate(-331.269 -1069.239)"/>
            </g>
            <g id="prefix__Group_12319" data-name="Group 12319" transform="translate(293.027 1118.668)">
                <g id="prefix__Group_12318" data-name="Group 12318">
                    <path id="prefix__Path_11730" d="M326.537 1114.751c-.151.856-2.134 1.266-4.245 2.3l-.054.025a.559.559 0 0 0-.06.03 10.744 10.744 0 0 0-3.267 2.7c-.463.547-.843 1.061-1.141 1.451-.027.034-.054.069-.085.106-.058.068-.122.14-.192.216-.125.133-.267.276-.428.426-.1.1-.209.2-.319.3l-.352.317c-.182.161-.372.329-.568.5a.482.482 0 0 1-.049.045l-.56.486c-.127.1-.25.213-.374.322-.338.292-.666.575-.961.836-.086.076-.168.154-.247.224-.2.185-.386.357-.539.51-.039.037-.076.075-.11.112s-.069.07-.1.1c-.054.061-.1.116-.143.167-.328.411-.559 6.26-.723 14.889h-11.034c0-6.39 0-11.2.008-13.295 0-.639.006-1.027.009-1.135a9.886 9.886 0 0 0-1.18-4.871 20.33 20.33 0 0 1-1.743-6.511c-.024-.38-.058-.721-.1-1.024l-.034-.256c-.034-.229-.071-.438-.113-.629-.009-.045-.019-.089-.03-.134s-.018-.086-.028-.13l-.033-.124-.031-.119a10.819 10.819 0 0 0-.66-1.685c-.462-1.027-1.487-3.13-2.359-4.822s-1.743-3.537-.668-4.255 2.05 1.076 2.669 2.306a33.538 33.538 0 0 0 2.153 3.385c.767 1.179 2 2.3 2.718 1.794s.462-2.974.255-4.462-.556-3.725-.819-5.535c-.307-2.1-.565-3.591.922-3.744s1.745 2.1 1.9 2.923.667 5.383.924 7.023.305 2.31.922 2.207.818-.9.818-2.077.078-3 .206-4.282c.1-1 .31-3.528.31-4.771s.1-3.331 1.74-3.331 1.336 1.949 1.283 3.331-.256 4.565-.359 6.821-.2 4 .565 4.053 1.95-3.129 2.412-4.156 1.229-2.46 1.845-4.2 1.691-3.153 2.615-2.718.77 1.332.46 2.718a26.317 26.317 0 0 1-1.435 4.153c-.511 1.229-1.485 4.511-1.743 5.23a12.394 12.394 0 0 0-.153 4.309c.206 1.588.614 2.82 1.386 3.023s1.229.1 3.023-1.075c.082-.054.164-.106.247-.156a10.733 10.733 0 0 1 5.65-1.535c1.435.155 2.153.822 1.999 1.694z" class="prefix__cls-7" data-name="Path 11730" transform="translate(-292.782 -1092.52)"/>
                    <path id="prefix__Path_11731" d="M313 1141.809h-12.51v-.745c0-6.392 0-11.2.009-13.3 0-.647 0-1.043.007-1.152a9.187 9.187 0 0 0-1.119-4.556 20.816 20.816 0 0 1-1.8-6.757c-.024-.365-.055-.691-.092-.982l-.028-.222c-.034-.225-.067-.417-.107-.591l-.086-.376a8.825 8.825 0 0 0-.548-1.456l-.1-.219c-.463-1.033-1.493-3.133-2.341-4.784-.842-1.629-2.11-4.09-.419-5.216a1.592 1.592 0 0 1 1.32-.236c1.068.28 1.813 1.606 2.426 2.827a19.016 19.016 0 0 0 1.423 2.293c.226.329.457.666.688 1.019a3.618 3.618 0 0 0 1.691 1.584c-.01-.021.358-.577-.079-3.741-.118-.851-.283-1.95-.453-3.075l-.392-2.624c-.234-1.614-.42-2.889.228-3.722a1.912 1.912 0 0 1 1.383-.7c2.007-.209 2.5 2.347 2.667 3.311l.037.214c.078.414.246 1.763.428 3.217s.372 3.01.5 3.832l.057.354c.043.292.089.589.134.833a5.167 5.167 0 0 0 .07-.945c0-1.125.072-2.981.21-4.356.094-.958.305-3.47.305-4.7 0-2.706.837-4.078 2.485-4.078a1.917 1.917 0 0 1 1.456.575c.723.763.654 1.995.594 3.081l-.022.45c-.025.717-.094 1.915-.167 3.217-.07 1.214-.143 2.521-.194 3.609l-.007.161a22.57 22.57 0 0 0-.022 2.785 22.685 22.685 0 0 0 1.292-2.7c.115-.271.213-.508.292-.684.128-.285.282-.6.448-.953a31.442 31.442 0 0 0 1.372-3.19c.273-.775 1.044-2.631 2.311-3.159a1.588 1.588 0 0 1 1.323.015c1.506.708 1.17 2.22.873 3.552a27.026 27.026 0 0 1-1.475 4.276c-.326.785-.866 2.491-1.26 3.738-.209.665-.383 1.213-.471 1.46a12.006 12.006 0 0 0-.115 3.959c.289 2.23.83 2.4.836 2.4.443.118.664.176 2.424-.979l.282-.176a11.433 11.433 0 0 1 6.1-1.635 3.21 3.21 0 0 1 2.309 1.08 1.865 1.865 0 0 1 .347 1.481c-.174.984-1.244 1.414-2.728 2.01-.589.237-1.249.5-1.924.833l-.144.064a10.015 10.015 0 0 0-3 2.508c-.37.435-.684.851-.946 1.195l-.277.361c-.067.078-.139.158-.219.244-.136.143-.289.3-.46.458l-3.445 3.041c-.186.171-.361.335-.507.481l-.638-.417.5.56-.1.113c-.125.495-.4 2.94-.617 14.5zm-11.02-1.49h9.56c.273-13.854.6-14.271.869-14.607l.432-.465c.14-.142.329-.32.541-.514l3.41-3.01c.162-.152.294-.285.41-.407l.392-.481c.277-.364.611-.8 1-1.262a11.34 11.34 0 0 1 3.5-2.885l.158-.07c.67-.337 1.365-.617 1.985-.866a6.443 6.443 0 0 0 1.819-.907.372.372 0 0 0-.073-.307 1.942 1.942 0 0 0-1.277-.495 9.965 9.965 0 0 0-5.182 1.433l-.165.1c-1.827 1.2-2.555 1.515-3.686 1.213-1.353-.358-1.749-2.254-1.932-3.649a13 13 0 0 1 .189-4.653c.088-.241.253-.769.456-1.408.4-1.272.954-3.016 1.3-3.859a25.768 25.768 0 0 0 1.4-4.027c.341-1.538.256-1.737-.054-1.883a3.776 3.776 0 0 0-1.594 2.292 33.178 33.178 0 0 1-1.433 3.339c-.161.337-.308.645-.434.921-.076.17-.168.393-.277.651-1.17 2.78-1.882 3.981-2.862 3.944-1.478-.1-1.39-2.019-1.269-4.669l.009-.161c.049-1.1.124-2.406.192-3.625.073-1.292.14-2.478.165-3.189l.025-.475c.036-.671.091-1.679-.189-1.979-.027-.026-.1-.107-.374-.107s-1 0-1 2.588c0 1.281-.216 3.864-.314 4.844-.131 1.326-.2 3.12-.2 4.209 0 .635 0 2.569-1.439 2.812a1.211 1.211 0 0 1-.919-.2c-.517-.374-.621-1.052-.811-2.278l-.054-.352c-.13-.833-.326-2.411-.508-3.878-.174-1.414-.335-2.724-.41-3.124l-.042-.237c-.176-1-.477-2.139-1.047-2.083a.52.52 0 0 0-.359.135c-.259.331-.082 1.532.072 2.591l.39 2.619c.17 1.129.335 2.235.456 3.09.425 3.084.262 4.583-.56 5.172a1.471 1.471 0 0 1-1.152.236c-1.241-.236-2.323-1.767-2.625-2.231-.224-.343-.447-.667-.667-.988a19.977 19.977 0 0 1-1.526-2.469c-.641-1.275-1.137-1.967-1.475-2.055-.7.423.355 2.46.8 3.328.86 1.67 1.9 3.8 2.375 4.857l.1.213a10.021 10.021 0 0 1 .6 1.581l.136.563c.04.183.08.407.118.656l.034.261c.042.334.076.688.1 1.085a19.378 19.378 0 0 0 1.684 6.264 10.591 10.591 0 0 1 1.241 5.186c0 .107-.006.487-.007 1.115-.002 2.028-.005 6.538-.005 12.558z" class="prefix__cls-5" data-name="Path 11731" transform="translate(-293.027 -1092.765)"/>
                </g>
                <path id="prefix__Path_11732" d="M320.8 1110.758a17.875 17.875 0 0 0-1.81.016c.2.016-1.319.319-1.554.4l-.326.118c-.256.127-.513.252-.76.392-.094.057-.471.313-.818.544-.451.329-.909.642-1.377.939a17.651 17.651 0 0 1-4.5 2.584c-3.968 1.482-9.521-.058-11.3-4.221a23.6 23.6 0 0 1-1.372-4.123c-.051-.218-.192-.59-.282-.839-.146-.155-.282-.314-.413-.477a11.19 11.19 0 0 1 .429 2.633 20.348 20.348 0 0 0 1.743 6.512 9.9 9.9 0 0 1 1.18 4.871c-.01.383-.015 4.313-.015 10.383.031-.03.064-.057.1-.086a33.34 33.34 0 0 0 2.984-4.145 11.46 11.46 0 0 1 6.325-6.212 12.412 12.412 0 0 1 2.5-.568c.979-1.071 4.1-3.479 4.88-4.5a13.379 13.379 0 0 1 4.41-4.154c.04-.021.079-.036.119-.055z" class="prefix__cls-1" data-name="Path 11732" transform="translate(-291.426 -1086.236)"/>
            </g>
        </g>
    </g>
</svg>
