<svg xmlns="http://www.w3.org/2000/svg" width="24" height="24" viewBox="0 0 24 24">
    <g id="prefix__Group_11850" data-name="Group 11850" transform="translate(-.187 -.001)">
        <path id="prefix__Rectangle_936" d="M0 0H24V24H0z" data-name="Rectangle 936" transform="translate(.187 .001)" style="fill:none"/>
        <path id="prefix__Path_674" d="M2525 1590.947a1.06 1.06 0 00-.01-.108c0-.028-.006-.056-.012-.083a.944.944 0 00-.028-.091.851.851 0 00-.031-.09c-.011-.025-.026-.049-.039-.073a.871.871 0 00-.055-.093c0-.006-.006-.013-.011-.018l-.043-.048c-.014-.017-.044-.053-.069-.076s-.047-.04-.072-.06-.048-.038-.074-.054a.828.828 0 00-.083-.046c-.027-.014-.054-.028-.082-.039s-.061-.02-.092-.029-.057-.016-.086-.022a1.016 1.016 0 00-.106-.011c-.021 0-.04-.006-.061-.006h-20.087c-.021 0-.041 0-.062.006s-.07 0-.1.011-.058.014-.087.022-.061.017-.091.028a1.662 1.662 0 00-.166.085c-.026.017-.05.036-.074.054s-.049.038-.072.06a1 1 0 00-.069.076c-.014.017-.03.03-.043.048s-.007.013-.011.018a.977.977 0 00-.055.093c-.014.024-.029.048-.04.073s-.021.06-.031.09-.021.06-.028.091-.008.055-.011.083-.01.072-.011.108v11.143a.962.962 0 00.957.967h20.087a.962.962 0 00.957-.967v-11.122a.182.182 0 00-.009-.02zm-3.847.988L2514 1597.3l-7.151-5.369zm-16.238 9.188v-8.232l8.516 6.394a.947.947 0 001.14 0l8.517-6.394v8.232z" data-name="Path 674" transform="translate(-2502 -1585)" style="fill:#222"/>
    </g>
</svg>
