<svg xmlns="http://www.w3.org/2000/svg" id="prefix__Group_11229" width="37.079" height="62.165" data-name="Group 11229" viewBox="0 0 37.079 62.165">
    <defs>
        <style>
            .prefix__cls-1{fill:#831844}.prefix__cls-3{fill:#eb5d79}
        </style>
    </defs>
    <g id="prefix__Group_11226" data-name="Group 11226">
        <g id="prefix__Group_11224" data-name="Group 11224" transform="translate(.975 .967)">
            <g id="prefix__Group_11222" data-name="Group 11222">
                <path id="prefix__Path_10111" d="M462.368 437.214c-8 3.686-15.174 14.851-15.855 25.167-.271 4.129.544 7.468 2.163 9.743l11.524 21.854 5.526 2.7c.5-1.126 8.559-39.509 8.929-40.665.864-2.7 6.761-4.393 6.8-7.02.169-9.614-11.285-15.374-19.087-11.779zm-1.012 24.626c-3.151 1.573-5.565-.356-5.368-4.278.2-3.869 2.866-8.17 5.94-9.637 3.044-1.454 5.393.4 5.274 4.162-.122 3.813-2.727 8.195-5.846 9.752z" class="prefix__cls-1" data-name="Path 10111" transform="translate(-446.462 -436.135)"/>
            </g>
            <g id="prefix__Group_11223" data-name="Group 11223" transform="translate(.999 1.931)">
                <path id="prefix__Path_10112" d="M463.194 438.851c-8 3.686-15.174 14.851-15.855 25.167a19.482 19.482 0 00.335 5.3c9.128 5.49 15.967 5.169 23.1 10.033 2.22-10.315 4.518-21.1 4.711-21.708.865-2.7 5.285-4.72 5.33-7.348.158-9.606-9.815-15.039-17.621-11.444zm-1.012 24.626c-3.15 1.573-5.565-.357-5.367-4.278.194-3.87 2.865-8.169 5.939-9.639 3.044-1.452 5.393.4 5.274 4.163-.122 3.816-2.728 8.196-5.846 9.753z" data-name="Path 10112" transform="translate(-447.291 -437.735)" style="fill:#fef3f5"/>
            </g>
        </g>
        <g id="prefix__Group_11225" data-name="Group 11225">
            <path id="prefix__Path_10113" d="M465.189 495.964l-.743.844-11.622-22.038c-1.719-2.407-2.506-5.911-2.233-10.067.684-10.357 7.953-21.878 16.207-25.681 3.7-1.7 7.209-1.673 9.893.077 3.1 2.019 4.754 6 4.665 11.215a28.688 28.688 0 01-1.436 8.244 35.36 35.36 0 01-1.328 3.487zm6.853-56.979a11.4 11.4 0 00-4.735 1.142c-7.892 3.635-14.845 14.7-15.5 24.656-.255 3.872.455 7.105 2.052 9.351l10.941 20.733 12.671-33.282a34.861 34.861 0 001.3-3.4 27.541 27.541 0 001.379-7.893c.078-4.711-1.421-8.419-4.115-10.175a7.184 7.184 0 00-3.993-1.133z" class="prefix__cls-3" data-name="Path 10113" transform="translate(-444.647 -434.831)"/>
            <path id="prefix__Path_10114" d="M482.523 447.553l-.011-.089c-.053-.361-.121-.708-.193-1.052-.051-.242-.1-.484-.162-.721a11.036 11.036 0 00-3.222-5.593 15.1 15.1 0 00-2.613-2.156c-4.363-2.847-9.936-3.417-14.195-1.449-8.361 3.854-15.728 15.513-16.418 25.99-.281 4.24.515 7.8 2.274 10.26L459 493.628a4.319 4.319 0 001.928 1.87l3.735 1.823a1.748 1.748 0 002.4-.947l12.876-33.679a36 36 0 001.343-3.522 29.044 29.044 0 001.454-8.351 20.691 20.691 0 00-.213-3.269zm-14.87-8.362c-8.361 3.853-15.728 15.513-16.418 25.989-.28 4.243.516 7.8 2.274 10.261l10.134 19.219-2.563-1.252-11.441-21.684c-1.549-2.175-2.235-5.327-1.986-9.112.648-9.841 7.507-20.763 15.29-24.347a12.429 12.429 0 018.909-.294 13.811 13.811 0 00-4.2 1.22z" class="prefix__cls-3" data-name="Path 10114" transform="translate(-445.654 -435.333)"/>
        </g>
    </g>
    <g id="prefix__Group_11228" data-name="Group 11228" transform="translate(14.254 16.282)">
        <g id="prefix__Group_11227" data-name="Group 11227">
            <path id="prefix__Path_10115" d="M463.914 469.428l-5.864-3.989c-.823-.561-.764-2.2.133-3.67.9-1.467 2.288-2.2 3.111-1.643l2.957 2.012 5.457-11.087c.77-1.532 2.156-2.495 3.1-2.151.941.345 1.082 1.866.313 3.4l-8.176 16.5c-.264.522-.751.82-1.031.628z" class="prefix__cls-1" data-name="Path 10115" transform="translate(-457.47 -448.83)"/>
        </g>
    </g>
</svg>
