<svg xmlns="http://www.w3.org/2000/svg" width="159.86" height="160" viewBox="0 0 159.86 160">
    <defs>
        <style>
            .prefix__cls-7{fill:#ed4e67}.prefix__cls-2{fill:#f7657d;opacity:.429}.prefix__cls-11,.prefix__cls-2{isolation:isolate}.prefix__cls-5{fill:#bf2640}.prefix__cls-8{fill:#fff}.prefix__cls-9{fill:#f1647d;opacity:.2}.prefix__cls-10,.prefix__cls-11{opacity:.1}.prefix__cls-12{fill:#ed4d67}
        </style>
    </defs>
    <g id="prefix__Group_12118" data-name="Group 12118" transform="translate(-333.3 -960.811)">
        <g id="prefix__Group_6942" data-name="Group 6942" transform="translate(333.3 960.811)">
            <path id="prefix__Rectangle_1795" d="M428.1 983.628L465.628 1023a26.64 26.64 0 01-1.272 38.121l-40.068 36.872a27.793 27.793 0 01-38.8-1.25l-37.524-39.371a26.64 26.64 0 011.273-38.121l40.068-36.872a27.79 27.79 0 0138.795 1.249z" data-name="Rectangle 1795" transform="translate(-330.8 -955.89)" style="opacity:.15;fill:#ed4e67"/>
            <path id="prefix__Path_11383" d="M434.233 1077.975a3.554 3.554 0 01-3.536-3.086 3.459 3.459 0 01.714-2.575 3.58 3.58 0 016.361 1.714 3.457 3.457 0 01-.713 2.575 3.552 3.552 0 01-2.392 1.344 3.359 3.359 0 01-.434.028zm0-5.572a2.141 2.141 0 00-.261.016 2.1 2.1 0 00-1.416.793 2.009 2.009 0 00-.415 1.5 2.12 2.12 0 003.763 1 2 2 0 00.417-1.495 2.091 2.091 0 00-2.084-1.817z" class="prefix__cls-2" data-name="Path 11383" transform="translate(-299.751 -922.865)"/>
            <path id="prefix__Path_11384" d="M349.98 1084.168l.141-6.008-4.979-3.536 5.884-1.733 1.869-5.728 3.478 4.933 6.137-.011-3.72 4.8 1.908 5.722-5.779-1.984zm-1.544-8.992l3.161 2.244-.091 3.855 3.173-2.278 3.7 1.271-1.221-3.663 2.369-3.055-3.91.007-2.239-3.176-1.2 3.693z" data-name="Path 11384" transform="translate(-329.219 -924.167)" style="opacity:.418;isolation:isolate;fill:#f7657d"/>
            <path id="prefix__Path_11385" d="M431.088 980.75l-1.053-4.23-4.172-1.569 3.8-2.3.221-4.354 3.379 2.819 4.3-1.152-1.686 4.052 2.434 3.671-4.437-.325zm-1.9-6.108l2.079.781.536 2.153 1.416-1.726 2.225.163-1.219-1.839.846-2.034-2.162.579-1.717-1.431-.112 2.206z" data-name="Path 11385" transform="translate(-301.407 -958.233)" style="opacity:.369;isolation:isolate;fill:#f7657d"/>
            <path id="prefix__Path_11386" d="M347.725 985.816a5.555 5.555 0 01-5.531-4.822 5.4 5.4 0 011.115-4.021 5.6 5.6 0 019.955 2.678 5.4 5.4 0 01-1.115 4.022 5.641 5.641 0 01-4.424 2.143zm.005-9.527a4.011 4.011 0 00-.506.031 4.106 4.106 0 00-2.767 1.552 3.952 3.952 0 00-.818 2.942 4.146 4.146 0 007.361 1.961 3.953 3.953 0 00.818-2.942 4.1 4.1 0 00-4.088-3.544z" class="prefix__cls-2" data-name="Path 11386" transform="translate(-330.25 -955.981)"/>
            <path id="prefix__Path_11387" d="M336.865 991.221a3.554 3.554 0 01-3.538-3.084 3.459 3.459 0 01.715-2.576 3.579 3.579 0 016.36 1.716 3.463 3.463 0 01-.713 2.575 3.556 3.556 0 01-2.389 1.348 3.634 3.634 0 01-.435.021zm0-5.572a2.146 2.146 0 00-.261.016 2.1 2.1 0 00-1.414.793 2.01 2.01 0 00-.417 1.5 2.12 2.12 0 003.763 1 2 2 0 00.417-1.5 2.09 2.09 0 00-2.086-1.808z" class="prefix__cls-2" data-name="Path 11387" transform="translate(-333.3 -952.755)"/>
            <path id="prefix__Path_11388" d="M434.052 992.4a4.983 4.983 0 01-.579-.034 4.732 4.732 0 01-3.187-1.79 4.6 4.6 0 01-.949-3.423 4.77 4.77 0 018.476-2.28 4.6 4.6 0 01.949 3.422 4.73 4.73 0 01-4.71 4.105zm0-8.11a3.486 3.486 0 00-3.478 3.017 3.36 3.36 0 00.7 2.5 3.529 3.529 0 006.264-1.67 3.369 3.369 0 00-.7-2.5 3.5 3.5 0 00-2.356-1.322 3.924 3.924 0 00-.434-.028z" class="prefix__cls-2" data-name="Path 11388" transform="translate(-300.223 -953.151)"/>
            <path id="prefix__Path_11389" d="M444.711 996.222a3.64 3.64 0 01-.434-.026 3.553 3.553 0 01-2.392-1.345 3.459 3.459 0 01-.713-2.575 3.58 3.58 0 016.361-1.714 3.458 3.458 0 01.713 2.575 3.553 3.553 0 01-3.535 3.085zm-.005-5.572a2.091 2.091 0 00-2.087 1.808 2.009 2.009 0 00.415 1.5 2.121 2.121 0 003.765-1 2.008 2.008 0 00-.415-1.5 2.1 2.1 0 00-1.417-.795 2.142 2.142 0 00-.262-.013z" class="prefix__cls-2" data-name="Path 11389" transform="translate(-296.141 -951.033)"/>
            <path id="prefix__Path_11390" d="M416.982 1103.938a.66.66 0 01-.011-1.319c.85-.015 1.713-.071 2.565-.168a.658.658 0 01.149 1.308c-.894.1-1.8.161-2.692.179zm-2.633-.077h-.051c-.894-.068-1.8-.182-2.677-.335a.659.659 0 11.227-1.3c.84.147 1.7.255 2.551.32a.659.659 0 01-.05 1.316zm7.863-.518a.659.659 0 01-.136-1.3c.839-.178 1.677-.4 2.489-.649a.658.658 0 01.393 1.257c-.852.266-1.729.495-2.608.682a.7.7 0 01-.138.011zm-13.048-.386a.657.657 0 01-.175-.024c-.865-.238-1.728-.52-2.565-.839a.659.659 0 01.471-1.232c.8.305 1.62.574 2.443.8a.659.659 0 01-.173 1.295zm18.071-1.186a.659.659 0 01-.255-1.267c.789-.332 1.571-.7 2.321-1.108a.659.659 0 11.624 1.161c-.787.423-1.605.815-2.434 1.163a.662.662 0 01-.256.052zm-22.991-.69a.661.661 0 01-.29-.068q-.714-.353-1.413-.75l-.933-.53a.658.658 0 11.649-1.145l.934.53q.666.379 1.346.714a.659.659 0 01-.293 1.25zm27.625-1.8a.659.659 0 01-.368-1.206c.717-.481 1.41-1 2.065-1.534a.658.658 0 01.836 1.016c-.687.566-1.416 1.108-2.166 1.611a.65.65 0 01-.366.11zm-32.23-.758a.658.658 0 01-.324-.086l-2.293-1.3a.659.659 0 01.649-1.147l2.292 1.3a.659.659 0 01-.325 1.233zm36.3-2.585a.659.659 0 01-.467-1.125 25.471 25.471 0 001.725-1.905.659.659 0 011.021.835c-.569.7-1.179 1.369-1.814 2a.651.651 0 01-.467.191zm-40.883-.016a.644.644 0 01-.324-.086l-2.292-1.3a.659.659 0 11.649-1.147l2.292 1.3a.658.658 0 01-.325 1.232zm-4.585-2.6a.658.658 0 01-.324-.086l-2.294-1.3a.658.658 0 11.649-1.146l2.294 1.3a.66.66 0 01-.325 1.233zm48.8-1.456a.66.66 0 01-.547-1.026q.417-.625.8-1.281l.55-.936a.659.659 0 011.136.668l-.55.935q-.4.69-.843 1.346a.657.657 0 01-.543.289zm-53.391-1.146a.657.657 0 01-.324-.086l-2.292-1.3a.658.658 0 11.649-1.146l2.292 1.3a.659.659 0 01-.325 1.233zm-4.585-2.6a.658.658 0 01-.324-.086l-2.292-1.3a.659.659 0 01.649-1.147l2.292 1.3a.659.659 0 01-.325 1.232zm60.684-.776a.659.659 0 01-.567-.992l1.336-2.272a.658.658 0 111.135.668l-1.335 2.272a.658.658 0 01-.566.318zm-65.269-1.826a.643.643 0 01-.324-.086l-2.294-1.3a.659.659 0 11.651-1.145l2.293 1.3a.658.658 0 01-.325 1.231zm-4.585-2.6a.665.665 0 01-.325-.086l-2.292-1.3a.659.659 0 01.651-1.147l2.292 1.3a.66.66 0 01-.325 1.233zm72.525-.118a.659.659 0 01-.567-.992l1.335-2.274a.659.659 0 011.136.667l-1.336 2.274a.654.654 0 01-.564.319zm-77.111-2.483a.657.657 0 01-.324-.086l-2.292-1.3a.659.659 0 01.649-1.147l2.294 1.3a.66.66 0 01-.327 1.233zm79.782-2.061a.652.652 0 01-.333-.091.66.66 0 01-.234-.9l1.335-2.272a.659.659 0 011.136.667l-1.335 2.272a.66.66 0 01-.566.317zm-84.367-.541a.644.644 0 01-.324-.086l-2.292-1.3a.659.659 0 01.649-1.147l2.292 1.3a.658.658 0 01-.325 1.232zm-4.585-2.6a.663.663 0 01-.325-.086l-2.293-1.3a.659.659 0 11.651-1.146l2.292 1.3a.66.66 0 01-.325 1.233zm91.622-1.405a.649.649 0 01-.332-.091.657.657 0 01-.235-.9l1.335-2.272a.659.659 0 111.136.667l-1.335 2.272a.657.657 0 01-.566.314zm-96.164-1.268a.652.652 0 01-.368-.113c-.746-.5-1.472-1.047-2.161-1.615a.659.659 0 01.839-1.016c.655.541 1.349 1.058 2.06 1.538a.66.66 0 01-.37 1.206zm98.834-3.278a.668.668 0 01-.333-.09.66.66 0 01-.234-.9l1.335-2.272a.659.659 0 111.136.668l-1.335 2.272a.659.659 0 01-.565.315zm-102.892-.075a.655.655 0 01-.468-.2c-.632-.634-1.24-1.311-1.807-2.006a.659.659 0 011.022-.832c.539.662 1.119 1.3 1.72 1.909a.66.66 0 010 .933.653.653 0 01-.463.189zm-3.321-4.089a.66.66 0 01-.551-.3c-.495-.748-.959-1.529-1.378-2.322a.66.66 0 011.167-.615 25.579 25.579 0 001.311 2.21.658.658 0 01-.549 1.023zm108.887-.387a.66.66 0 01-.567-.994l1.336-2.272a.658.658 0 111.135.668l-1.335 2.272a.657.657 0 01-.569.326zm-111.348-4.267a.657.657 0 01-.609-.41 26.936 26.936 0 01-.894-2.548.658.658 0 111.262-.374c.243.82.53 1.636.851 2.424a.658.658 0 01-.362.859.674.674 0 01-.248.048zm114.019-.277a.653.653 0 01-.333-.091.66.66 0 01-.234-.9l1.335-2.272a.659.659 0 111.136.668l-1.335 2.272a.662.662 0 01-.568.322zm2.67-4.546a.659.659 0 01-.567-.992l1.335-2.272a.659.659 0 111.136.667l-1.335 2.272a.657.657 0 01-.568.324zm-118.184-.223a.66.66 0 01-.647-.535c-.168-.882-.294-1.783-.374-2.674a.66.66 0 01.6-.715.667.667 0 01.714.6c.077.847.195 1.7.356 2.544a.658.658 0 01-.524.77.635.635 0 01-.124.01zm120.854-4.321a.648.648 0 01-.332-.091.658.658 0 01-.235-.9l1.337-2.273a.658.658 0 111.135.667l-1.335 2.273a.659.659 0 01-.569.323zm-121.32-.92h-.007a.659.659 0 01-.652-.666c.009-.893.066-1.8.164-2.7a.659.659 0 011.311.145c-.094.852-.148 1.715-.157 2.564a.659.659 0 01-.658.656zm123.992-3.625a.652.652 0 01-.333-.091.659.659 0 01-.234-.9l1.335-2.272q.274-.468.527-.941a.659.659 0 111.163.62q-.266.5-.554.988l-1.335 2.272a.66.66 0 01-.568.323zm-123.406-1.605a.615.615 0 01-.138-.015.658.658 0 01-.506-.782 26.752 26.752 0 01.7-2.609.659.659 0 011.254.406 25.3 25.3 0 00-.667 2.479.658.658 0 01-.642.52zm126.408-4.015a.66.66 0 01-.61-.91c.327-.789.616-1.6.862-2.42a.659.659 0 011.263.379c-.258.858-.562 1.714-.9 2.544a.659.659 0 01-.614.406zm-124.789-.992a.658.658 0 01-.6-.924 26.929 26.929 0 011.2-2.416.659.659 0 011.148.645c-.418.746-.8 1.521-1.146 2.3a.659.659 0 01-.601.393zm126.3-4.048a.672.672 0 01-.126-.012.658.658 0 01-.522-.772 25.582 25.582 0 00.36-2.543.668.668 0 01.715-.6.659.659 0 01.6.715 26.553 26.553 0 01-.379 2.674.657.657 0 01-.644.536zm-123.8-.585a.659.659 0 01-.567-.992l1.335-2.272a.659.659 0 111.136.667l-1.335 2.272a.658.658 0 01-.563.323zm2.67-4.546a.669.669 0 01-.333-.09.66.66 0 01-.234-.9l1.335-2.272a.659.659 0 111.136.668l-1.335 2.272a.658.658 0 01-.563.32zm121.6-.11a.659.659 0 01-.659-.652 25.611 25.611 0 00-.155-2.564.659.659 0 111.311-.144c.1.893.152 1.8.161 2.695a.659.659 0 01-.652.665zm-118.924-4.433a.659.659 0 01-.566-.994l1.335-2.272a.659.659 0 111.136.668l-1.336 2.272a.657.657 0 01-.569.326zm118.354-.795a.661.661 0 01-.644-.522 25.376 25.376 0 00-.657-2.484.659.659 0 111.256-.4c.272.854.506 1.732.691 2.61a.657.657 0 01-.507.781.609.609 0 01-.138.01zm-115.684-3.75a.647.647 0 01-.332-.091.659.659 0 01-.235-.9l1.336-2.272a.658.658 0 111.135.667l-1.335 2.272a.658.658 0 01-.568.321zm114.087-1.265a.659.659 0 01-.605-.4c-.339-.784-.721-1.56-1.135-2.306a.659.659 0 111.152-.639 26.97 26.97 0 011.193 2.423.659.659 0 01-.605.92zm-111.415-3.281a.659.659 0 01-.567-.992l1.335-2.272a.659.659 0 111.136.667l-1.335 2.272a.658.658 0 01-.569.322zm108.862-1.322a.658.658 0 01-.543-.285c-.485-.7-1.012-1.386-1.566-2.037a.659.659 0 011-.854c.581.683 1.135 1.4 1.646 2.142a.658.658 0 01-.167.915.644.644 0 01-.37.116zm-106.191-3.223a.659.659 0 01-.567-.992l1.335-2.274a.659.659 0 011.136.667l-1.335 2.274a.66.66 0 01-.569.322zm102.78-.789a.653.653 0 01-.457-.184c-.614-.593-1.265-1.162-1.936-1.694a.659.659 0 01.817-1.034c.7.559 1.389 1.158 2.033 1.78a.658.658 0 01-.457 1.132zm-4.126-3.27a.66.66 0 01-.358-.106q-.649-.419-1.332-.807l-.9-.514a.658.658 0 11.649-1.146l.9.512c.477.272.943.553 1.4.847a.659.659 0 01-.358 1.213zm-95.984-.487a.66.66 0 01-.567-.994l1.337-2.272a.658.658 0 111.135.668l-1.335 2.272a.657.657 0 01-.57.323zm91.422-2.154a.659.659 0 01-.324-.086l-2.292-1.3a.659.659 0 11.649-1.147l2.293 1.3a.659.659 0 01-.325 1.233zm-88.75-2.391a.653.653 0 01-.333-.091.66.66 0 01-.234-.9l1.335-2.272a.659.659 0 011.136.668l-1.336 2.268a.657.657 0 01-.568.325zm84.165-.211a.644.644 0 01-.324-.086l-2.292-1.3a.658.658 0 11.649-1.146l2.293 1.3a.658.658 0 01-.325 1.232zm-4.586-2.6a.657.657 0 01-.324-.086l-2.292-1.3a.659.659 0 01.649-1.147l2.292 1.3a.659.659 0 01-.325 1.233zm-76.911-1.737a.659.659 0 01-.567-.992l1.335-2.272a.659.659 0 111.136.667l-1.335 2.272a.657.657 0 01-.569.325zm72.324-.867a.643.643 0 01-.324-.086l-2.292-1.3a.659.659 0 11.649-1.147l2.292 1.3a.659.659 0 01-.325 1.232zm-4.585-2.6a.657.657 0 01-.324-.086l-2.292-1.3a.658.658 0 11.649-1.146l2.292 1.3a.659.659 0 01-.325 1.233zm-65.068-1.077a.648.648 0 01-.332-.091.657.657 0 01-.235-.9l1.336-2.274a.658.658 0 011.135.667l-1.335 2.274a.659.659 0 01-.568.323zm60.483-1.525a.665.665 0 01-.325-.086l-2.292-1.3a.659.659 0 01.651-1.146l2.293 1.3a.66.66 0 01-.325 1.233zm-4.586-2.6a.643.643 0 01-.324-.086l-2.292-1.3a.659.659 0 11.649-1.147l2.292 1.3a.658.658 0 01-.325 1.232zm-53.211-.41a.66.66 0 01-.555-1.014c.481-.754 1.007-1.494 1.561-2.2a.659.659 0 011.037.813c-.528.674-1.029 1.378-1.487 2.1a.659.659 0 01-.555.299zm48.626-2.19a.657.657 0 01-.324-.086l-2.292-1.3a.658.658 0 11.649-1.145l2.292 1.3a.659.659 0 01-.325 1.233zm-45.373-1.948a.659.659 0 01-.476-1.115c.621-.648 1.28-1.273 1.962-1.857a.659.659 0 11.858 1c-.648.555-1.277 1.15-1.868 1.765a.655.655 0 01-.475.204zm40.788-.653a.658.658 0 01-.324-.086l-2.294-1.3a.659.659 0 01.651-1.147l2.292 1.3a.659.659 0 01-.325 1.233zm-4.585-2.6a.652.652 0 01-.325-.086l-2.292-1.3a.659.659 0 11.651-1.146l2.292 1.3a.659.659 0 01-.325 1.232zm-32.2-.171a.659.659 0 01-.379-1.2c.734-.514 1.5-1 2.284-1.439a.659.659 0 01.647 1.148c-.744.42-1.476.881-2.174 1.37a.659.659 0 01-.381.116zm27.582-2.358a.667.667 0 01-.28-.063c-.777-.366-1.577-.7-2.377-.983a.659.659 0 11.445-1.241c.84.3 1.678.648 2.493 1.031a.66.66 0 01-.281 1.256zm-23-.23a.659.659 0 01-.269-1.261c.82-.364 1.666-.693 2.516-.978a.659.659 0 01.418 1.25c-.811.27-1.618.584-2.4.93a.652.652 0 01-.267.054zm18.045-1.547a.663.663 0 01-.163-.02c-.83-.21-1.678-.382-2.521-.511a.659.659 0 01.2-1.3c.885.136 1.775.316 2.643.536a.659.659 0 01-.16 1.3zm-13.056-.124a.658.658 0 01-.148-1.3c.874-.2 1.767-.366 2.653-.485a.659.659 0 11.175 1.307c-.846.113-1.7.269-2.53.463a.706.706 0 01-.151.01zm7.852-.675h-.036c-.859-.048-1.718-.056-2.572-.023a.667.667 0 01-.684-.633.66.66 0 01.633-.684c.9-.032 1.8-.026 2.7.025a.659.659 0 01-.036 1.316z" class="prefix__cls-5" data-name="Path 11390" transform="translate(-330.52 -955.618)"/>
            <path id="prefix__Path_11391" d="M451.152 1020.818a2.112 2.112 0 01-2.116-1.806 2 2 0 01.413-1.492 2.159 2.159 0 013.824.986 2 2 0 01-.413 1.492 2.143 2.143 0 01-1.448.805 2.4 2.4 0 01-.26.015zm0-3.255a1.317 1.317 0 00-1.025.488 1.139 1.139 0 00-.238.851 1.259 1.259 0 001.418 1.042 1.273 1.273 0 00.867-.479 1.139 1.139 0 00.237-.85 1.247 1.247 0 00-1.257-1.053z" class="prefix__cls-2" data-name="Path 11391" transform="translate(-293.428 -941.555)"/>
            <path id="prefix__Path_11392" d="M434.345 1071.284a5.558 5.558 0 01-5.531-4.823 5.4 5.4 0 011.115-4.019 5.6 5.6 0 019.956 2.677 5.406 5.406 0 01-1.115 4.021 5.645 5.645 0 01-4.425 2.143zm.007-9.527a4.263 4.263 0 00-.506.03 4.111 4.111 0 00-2.768 1.554 3.959 3.959 0 00-.817 2.94 4.147 4.147 0 007.36 1.962 3.956 3.956 0 00.816-2.942 4.094 4.094 0 00-4.085-3.545z" data-name="Path 11392" transform="translate(-300.405 -926.533)" style="opacity:.25;isolation:isolate;fill:#f7657d"/>
            <path id="prefix__Path_11393" d="M371.295 964.929a2.116 2.116 0 01-2.118-1.807 2.007 2.007 0 01.414-1.494 2.16 2.16 0 013.824.987 2.008 2.008 0 01-.414 1.494 2.2 2.2 0 01-1.706.82zm0-3.257c-.052 0-.1 0-.159.009a1.277 1.277 0 00-.866.479 1.139 1.139 0 00-.238.851 1.25 1.25 0 001.419 1.043 1.279 1.279 0 00.866-.479 1.138 1.138 0 00.238-.851 1.248 1.248 0 00-1.255-1.051z" class="prefix__cls-2" data-name="Path 11393" transform="translate(-320.944 -960.811)"/>
            <path id="prefix__Path_11394" d="M413.095 980.211a2.112 2.112 0 01-2.116-1.806 2 2 0 01.413-1.494 2.16 2.16 0 013.824.987 2 2 0 01-.414 1.493 2.138 2.138 0 01-1.447.805 2.458 2.458 0 01-.26.015zm0-3.255a1.343 1.343 0 00-1.025.488 1.138 1.138 0 00-.238.851 1.253 1.253 0 001.418 1.042 1.272 1.272 0 00.867-.479 1.139 1.139 0 00.237-.85 1.248 1.248 0 00-1.254-1.052z" class="prefix__cls-2" data-name="Path 11394" transform="translate(-306.541 -955.545)"/>
            <path id="prefix__Path_11395" d="M345.048 996.451a2.114 2.114 0 01-2.116-1.807 2 2 0 01.414-1.494 2.16 2.16 0 013.823.987 1.991 1.991 0 01-.414 1.492 2.194 2.194 0 01-1.706.822zm0-3.256a1.551 1.551 0 00-.157.009 1.279 1.279 0 00-.867.479 1.145 1.145 0 00-.238.851 1.257 1.257 0 001.418 1.043 1.282 1.282 0 00.867-.479 1.138 1.138 0 00.237-.851 1.248 1.248 0 00-1.258-1.053z" class="prefix__cls-2" data-name="Path 11395" transform="translate(-329.987 -949.951)"/>
            <path id="prefix__Path_11396" d="M348.937 1060.447a2.116 2.116 0 01-2.118-1.807 2.006 2.006 0 01.414-1.492 2.159 2.159 0 013.823.986 2 2 0 01-.413 1.494 2.138 2.138 0 01-1.447.805 2.44 2.44 0 01-.259.014zm0-3.255a1.258 1.258 0 00-.159.01 1.278 1.278 0 00-.867.479 1.14 1.14 0 00-.237.85 1.25 1.25 0 001.417 1.043 1.272 1.272 0 00.867-.479 1.137 1.137 0 00.238-.851 1.246 1.246 0 00-1.257-1.052z" class="prefix__cls-2" data-name="Path 11396" transform="translate(-328.647 -927.9)"/>
        </g>
        <g id="prefix__Group_12121" data-name="Group 12121" transform="translate(353.895 985.463)">
            <g id="prefix__Group_12120" data-name="Group 12120">
                <path id="prefix__Path_11397" d="M349.026 988.943H364.4v-9.316s-14.442-2.795-15.374 9.316z" class="prefix__cls-7" data-name="Path 11397" transform="translate(-348.476 -979.077)"/>
                <path id="prefix__Path_11398" d="M357.6 1023.473h22.894l18.728-11.18-14.922-20.96s-28.712 4.192-26.7 32.14z" class="prefix__cls-7" data-name="Path 11398" transform="translate(-345.556 -974.947)"/>
                <g id="prefix__Group_12118-2" data-name="Group 12118">
                    <path id="prefix__Path_11399" d="M349.026 988.871s.467-9.316 7.453-9.316 2.794 17.234 2.794 17.234-9.15 30.742 1.248 30.742 11.794-3.26 12.261-17.234 13.041-9.317 11.644 6.055c-1.328 14.61-3.076 56.151-3.247 60.229a2.838 2.838 0 01-.091.61c-.518 1.994-3.082 13.686 8 13.686 8.651 0 11.122-6.416 11.828-10.083a2.96 2.96 0 013.056-2.365l44.628 2.071a2.939 2.939 0 003.068-2.76l3.554-59.521s1.4-15.836-13.507-15.836H429.75a2.939 2.939 0 01-2.938-2.939V990.1a2.779 2.779 0 01.044-.507c.268-1.455 1.093-10.04-16.814-10.04h-53.211a2.905 2.905 0 00-.783.1 9.253 9.253 0 00-7.022 9.218z" class="prefix__cls-8" data-name="Path 11399" transform="translate(-348.476 -979.005)"/>
                    <path id="prefix__Path_11400" d="M389.224 1091.568c-3.313 0-5.778-1.015-7.325-3.015-2.885-3.73-1.651-9.638-1.2-11.36a2.264 2.264 0 00.075-.495c.192-4.636 1.925-45.707 3.248-60.256.652-7.173-1.779-11.521-4.061-13.066a3.318 3.318 0 00-3.457-.406c-1.8.914-2.9 3.644-3.028 7.486-.473 14.195-2.03 17.766-12.811 17.766a4.427 4.427 0 01-3.728-1.849c-4.846-6.5 1.674-28.66 1.954-29.6.021-.091 2.82-11.788-.091-15.491a2.567 2.567 0 00-1.985-1.03 2.228 2.228 0 00-.473.079 9.267 9.267 0 00-5.474 4.073 14.728 14.728 0 00-1.146 4.635l-1.1-.028a10.075 10.075 0 011.37-5.314c1.105-2.331 3.088-4.551 6.633-4.551h53.564c7.8 0 13.092 1.6 15.721 4.761a7.321 7.321 0 011.634 5.928 2.28 2.28 0 00-.035.406v9.339a2.39 2.39 0 002.388 2.388h11.966c4.391 0 7.847 1.342 10.271 3.988 4.4 4.811 3.812 12.139 3.785 12.448l-3.552 59.5a3.5 3.5 0 01-3.645 3.278l-44.634-2.067a2.418 2.418 0 00-2.489 1.919c-.764 3.938-3.377 10.534-12.375 10.534zm-11.409-90.014a4.938 4.938 0 012.759.91c2.53 1.713 5.236 6.427 4.541 14.077-1.32 14.523-3.052 55.57-3.246 60.2a3.379 3.379 0 01-.109.726c-.3 1.139-1.635 6.99 1.01 10.408 1.328 1.717 3.5 2.588 6.454 2.588 8.206 0 10.594-6.037 11.288-9.636a3.517 3.517 0 013.622-2.81l44.635 2.067a2.4 2.4 0 002.493-2.244l3.555-59.519c.007-.087.571-7.181-3.505-11.628-2.206-2.405-5.386-3.626-9.454-3.626h-11.967a3.493 3.493 0 01-3.489-3.489v-9.339a3.25 3.25 0 01.054-.6 6.209 6.209 0 00-1.4-5.026c-2.377-2.856-7.52-4.364-14.875-4.364h-50.83a4.465 4.465 0 01.312.355c3.239 4.121.409 15.956.286 16.457-.074.253-6.65 22.6-2.134 28.655a3.335 3.335 0 002.846 1.406c10.124 0 11.259-3.165 11.711-16.7.144-4.317 1.432-7.312 3.629-8.43a3.953 3.953 0 011.814-.438z" class="prefix__cls-5" data-name="Path 11400" transform="translate(-348.617 -979.146)"/>
                </g>
                <path id="prefix__Path_11401" d="M349.28 985.053c-.052.223-.091.433-.118.616a.239.239 0 00-.091.066l.079-.59a.771.771 0 01.13-.092z" class="prefix__cls-9" data-name="Path 11401" transform="translate(-348.461 -977.111)"/>
                <path id="prefix__Path_11402" d="M356.165 979.556a.734.734 0 01.171.013 1.913 1.913 0 00-.6.091 9.9 9.9 0 00-5.806 4.324c1.006-2.252 2.855-4.428 6.235-4.428z" class="prefix__cls-9" data-name="Path 11402" transform="translate(-348.165 -979.005)"/>
                <path id="prefix__Path_11403" d="M368.031 1001.164c-.064.524-.1 1.088-.13 1.69-.315 9.448-1.049 14-4.718 15.949a64.7 64.7 0 00.787-9.4c.17-5.081 1.938-7.703 4.061-8.239z" class="prefix__cls-9" data-name="Path 11403" transform="translate(-343.598 -971.56)"/>
                <path id="prefix__Path_11404" d="M387.235 1058a10.869 10.869 0 01-2.727 3.394c.1-.38.184-.734.25-1.074a2.906 2.906 0 012.477-2.32z" class="prefix__cls-9" data-name="Path 11404" transform="translate(-336.251 -951.978)"/>
                <path id="prefix__Path_11405" d="M453.267 1018.215l-3.551 59.522a2.944 2.944 0 01-3.067 2.765l-.643-.026 3.329-55.709s1.4-15.83-13.5-15.83l-51.292-3.931a2.951 2.951 0 01-2.935-2.949l39.315.524v-5.924a2.2 2.2 0 01.052-.511c.262-1.455 1.088-10.038-16.814-10.038h-45.615c-.13-3.446-1.061-6.434-3.852-6.539a.846.846 0 01.183-.013H408.1c17.9 0 17.074 8.584 16.814 10.038a2.194 2.194 0 00-.052.511v9.33a2.949 2.949 0 002.935 2.949h11.977c14.896 0 13.493 15.831 13.493 15.831z" class="prefix__cls-9" data-name="Path 11405" transform="translate(-346.523 -979.005)"/>
                <path id="prefix__Path_11406" d="M352.7 984.442a1.914 1.914 0 00-.6.091 10.976 10.976 0 00-2.936 1.35.236.236 0 00-.091.066l.079-.59a.771.771 0 01.13-.091 6.257 6.257 0 013.25-.839.736.736 0 01.168.013z" class="prefix__cls-9" data-name="Path 11406" transform="translate(-348.461 -977.326)"/>
                <path id="prefix__Path_11407" d="M435.035 1055.139l-.222 3.813a2.944 2.944 0 01-3.067 2.765l-44.634-2.071a2.106 2.106 0 00-.577.04 15.555 15.555 0 001.455-4.233 2.953 2.953 0 013.052-2.36z" class="prefix__cls-9" data-name="Path 11407" transform="translate(-335.552 -953.668)"/>
                <g id="prefix__Group_2339" data-name="Group 2339" transform="translate(47.87 35.598)">
                    <g id="prefix__Group_2337" class="prefix__cls-10" data-name="Group 2337">
                        <path id="prefix__Path_793" d="M390.562 1014.936h-3.749a2.563 2.563 0 01-2.587-2.783l.261-3.749a3.034 3.034 0 012.977-2.782h3.749a2.564 2.564 0 012.588 2.782l-.262 3.749a3.035 3.035 0 01-2.977 2.783zm-3.234-7.375a.919.919 0 00-.9.844l-.262 3.749a.778.778 0 00.787.844h3.747a.919.919 0 00.9-.844l.262-3.749a.778.778 0 00-.787-.844z" data-name="Path 793" transform="translate(-384.22 -1005.622)"/>
                    </g>
                    <g id="prefix__Group_2338" data-name="Group 2338" transform="translate(11.34 .467)">
                        <path id="prefix__Path_794" d="M426.674 1007.667H393.8a.781.781 0 01-.789-.85.924.924 0 01.909-.848h32.873a.781.781 0 01.791.848.925.925 0 01-.91.85z" class="prefix__cls-11" data-name="Path 794" transform="translate(-392.533 -1005.969)"/>
                        <path id="prefix__Rectangle_962" d="M393.686 1008.5h32.874a.782.782 0 01.791.85.925.925 0 01-.909.85h-32.874a.782.782 0 01-.791-.85.925.925 0 01.909-.85z" class="prefix__cls-11" data-name="Rectangle 962" transform="translate(-392.613 -1005.098)"/>
                        <path id="prefix__Path_795" d="M409.384 1012.724h-15.938a.781.781 0 01-.789-.85.925.925 0 01.908-.85H409.5a.783.783 0 01.791.85.928.928 0 01-.907.85z" class="prefix__cls-11" data-name="Path 795" transform="translate(-392.654 -1004.227)"/>
                    </g>
                </g>
                <g id="prefix__Group_2342" data-name="Group 2342" transform="translate(46.909 49.36)">
                    <g id="prefix__Group_2340" class="prefix__cls-10" data-name="Group 2340">
                        <path id="prefix__Path_796" d="M389.849 1025.171H386.1a2.564 2.564 0 01-2.588-2.783l.261-3.749a3.034 3.034 0 012.977-2.782h3.75a2.563 2.563 0 012.588 2.782l-.262 3.749a3.034 3.034 0 01-2.977 2.783zm-3.234-7.376a.922.922 0 00-.9.844l-.261 3.749a.778.778 0 00.785.846h3.749a.92.92 0 00.9-.846l.262-3.749a.777.777 0 00-.785-.844z" data-name="Path 796" transform="translate(-383.505 -1015.857)"/>
                    </g>
                    <g id="prefix__Group_2341" data-name="Group 2341" transform="translate(11.342 .469)">
                        <path id="prefix__Path_797" d="M425.959 1017.906h-32.875a.781.781 0 01-.789-.85.925.925 0 01.909-.85h32.873a.783.783 0 01.791.85.925.925 0 01-.909.85z" class="prefix__cls-11" data-name="Path 797" transform="translate(-391.819 -1016.206)"/>
                        <path id="prefix__Path_798" d="M425.727 1020.432h-32.874a.782.782 0 01-.791-.848.926.926 0 01.909-.85h32.874a.783.783 0 01.791.85.926.926 0 01-.909.848z" class="prefix__cls-11" data-name="Path 798" transform="translate(-391.899 -1015.335)"/>
                        <path id="prefix__Rectangle_963" d="M392.851 1021.261h15.937a.783.783 0 01.791.85.926.926 0 01-.909.848h-15.937a.782.782 0 01-.791-.848.925.925 0 01.909-.85z" class="prefix__cls-11" data-name="Rectangle 963" transform="translate(-391.94 -1014.464)"/>
                    </g>
                </g>
                <g id="prefix__Group_2345" data-name="Group 2345" transform="translate(45.947 63.124)">
                    <g id="prefix__Group_2343" class="prefix__cls-10" data-name="Group 2343">
                        <path id="prefix__Path_799" d="M389.134 1035.408h-3.749a2.562 2.562 0 01-2.588-2.782l.262-3.749a3.034 3.034 0 012.976-2.783h3.749a2.564 2.564 0 012.588 2.783l-.262 3.749a3.033 3.033 0 01-2.976 2.782zm-3.234-7.375a.922.922 0 00-.9.844l-.261 3.749a.779.779 0 00.785.846h3.749a.924.924 0 00.9-.846l.261-3.749a.777.777 0 00-.785-.844z" data-name="Path 799" transform="translate(-382.79 -1026.094)"/>
                    </g>
                    <g id="prefix__Group_2344" data-name="Group 2344" transform="translate(11.34 .471)">
                        <path id="prefix__Path_800" d="M425.245 1028.144h-32.876a.782.782 0 01-.789-.85.925.925 0 01.909-.85h32.874a.782.782 0 01.789.85.926.926 0 01-.907.85z" class="prefix__cls-11" data-name="Path 800" transform="translate(-391.103 -1026.444)"/>
                        <path id="prefix__Path_801" d="M425.012 1030.67h-32.874a.783.783 0 01-.791-.85.925.925 0 01.909-.849h32.874a.782.782 0 01.791.849.926.926 0 01-.909.85z" class="prefix__cls-11" data-name="Path 801" transform="translate(-391.183 -1025.573)"/>
                        <path id="prefix__Path_802" d="M407.954 1033.2h-15.938a.781.781 0 01-.789-.85.925.925 0 01.909-.85h15.936a.783.783 0 01.791.85.926.926 0 01-.909.85z" class="prefix__cls-11" data-name="Path 802" transform="translate(-391.224 -1024.702)"/>
                    </g>
                </g>
                <path id="prefix__Path_11408" d="M387.095 1035.028l-.282-.236a23.306 23.306 0 01-4.112-4.455l-.316-.449 3.468-.851.117.258a14.931 14.931 0 001.213 2.174c1.972-1.983 4.2-4.048 6.479-5.993l.514.494c-1.135 1.4-2.291 2.909-3.41 4.368s-2.28 2.974-3.422 4.383zm-3.453-4.7a22.734 22.734 0 003.387 3.641c1.053-1.312 2.123-2.707 3.16-4.058l.977-1.273c-1.334 1.222-2.615 2.455-3.794 3.655l-.317.323-.246-.344a15.581 15.581 0 01-1.4-2.377z" class="prefix__cls-12" data-name="Path 11408" transform="translate(-336.982 -963.183)"/>
                <g id="prefix__Group_2345-2" data-name="Group 2345" transform="translate(45.947 79.646)">
                    <g id="prefix__Group_2343-2" class="prefix__cls-10" data-name="Group 2343">
                        <path id="prefix__Path_799-2" d="M389.134 1047.694h-3.749a2.562 2.562 0 01-2.588-2.782l.262-3.748a3.032 3.032 0 012.976-2.782h3.749a2.562 2.562 0 012.588 2.782l-.262 3.748a3.033 3.033 0 01-2.976 2.782zm-3.234-7.375a.922.922 0 00-.9.845l-.261 3.748a.779.779 0 00.785.846h3.749a.924.924 0 00.9-.846l.261-3.748a.777.777 0 00-.785-.845z" data-name="Path 799" transform="translate(-382.79 -1038.382)"/>
                    </g>
                    <g id="prefix__Group_2344-2" data-name="Group 2344" transform="translate(11.34 .469)">
                        <path id="prefix__Path_800-2" d="M425.245 1040.431h-32.876a.782.782 0 01-.789-.85.925.925 0 01.909-.85h32.874a.782.782 0 01.789.85.926.926 0 01-.907.85z" class="prefix__cls-11" data-name="Path 800" transform="translate(-391.103 -1038.731)"/>
                        <path id="prefix__Path_801-2" d="M425.012 1042.957h-32.874a.783.783 0 01-.791-.85.926.926 0 01.909-.849h32.874a.782.782 0 01.791.849.926.926 0 01-.909.85z" class="prefix__cls-11" data-name="Path 801" transform="translate(-391.183 -1037.86)"/>
                        <path id="prefix__Path_802-2" d="M407.954 1045.485h-15.938a.781.781 0 01-.789-.85.925.925 0 01.909-.85h15.936a.783.783 0 01.791.85.926.926 0 01-.909.85z" class="prefix__cls-11" data-name="Path 802" transform="translate(-391.224 -1036.989)"/>
                    </g>
                </g>
                <path id="prefix__Path_11409" d="M387.095 1047.315l-.282-.235a23.346 23.346 0 01-4.112-4.456l-.316-.449 3.468-.85.117.258a15.054 15.054 0 001.213 2.174c1.972-1.984 4.2-4.05 6.479-5.994l.514.495c-1.135 1.4-2.291 2.908-3.41 4.367s-2.28 2.974-3.422 4.383zm-3.453-4.7a22.705 22.705 0 003.387 3.641c1.053-1.312 2.123-2.706 3.16-4.057l.977-1.275c-1.334 1.222-2.615 2.456-3.794 3.656l-.317.322-.246-.343a15.685 15.685 0 01-1.4-2.378z" class="prefix__cls-12" data-name="Path 11409" transform="translate(-336.982 -958.949)"/>
                <g id="prefix__Group_2345-3" data-name="Group 2345" transform="translate(19.514 9.156)">
                    <g id="prefix__Group_2343-3" class="prefix__cls-10" data-name="Group 2343">
                        <path id="prefix__Path_799-3" d="M369.474 995.27h-3.749a2.564 2.564 0 01-2.588-2.782l.262-3.749a3.036 3.036 0 012.977-2.783h3.749a2.565 2.565 0 012.588 2.783l-.262 3.749a3.033 3.033 0 01-2.977 2.782zm-3.234-7.375a.919.919 0 00-.9.844l-.262 3.749a.78.78 0 00.787.846h3.749a.922.922 0 00.9-.846l.262-3.749a.778.778 0 00-.787-.844z" data-name="Path 799" transform="translate(-363.13 -985.956)"/>
                    </g>
                    <g id="prefix__Group_2344-3" data-name="Group 2344" transform="translate(11.34 .471)">
                        <path id="prefix__Path_800-3" d="M405.586 988.005H372.71a.783.783 0 01-.791-.85.926.926 0 01.909-.85H405.7a.782.782 0 01.791.85.928.928 0 01-.905.85z" class="prefix__cls-11" data-name="Path 800" transform="translate(-371.443 -986.306)"/>
                        <path id="prefix__Path_801-3" d="M405.354 990.532h-32.876a.782.782 0 01-.789-.85.924.924 0 01.909-.848h32.874a.78.78 0 01.789.848.924.924 0 01-.907.85z" class="prefix__cls-11" data-name="Path 801" transform="translate(-371.523 -985.435)"/>
                        <path id="prefix__Path_802-3" d="M388.3 993.06h-15.943a.783.783 0 01-.791-.85.926.926 0 01.909-.85h15.937a.781.781 0 01.789.85.925.925 0 01-.901.85z" class="prefix__cls-11" data-name="Path 802" transform="translate(-371.564 -984.564)"/>
                    </g>
                </g>
                <path id="prefix__Path_11410" d="M367.436 994.89l-.284-.237a23.326 23.326 0 01-4.11-4.454l-.317-.449 3.469-.851.117.258a14.8 14.8 0 001.213 2.174c1.971-1.983 4.2-4.048 6.479-5.993l.512.493c-1.133 1.4-2.291 2.91-3.408 4.367s-2.282 2.976-3.422 4.385zm-3.454-4.7a22.646 22.646 0 003.388 3.642c1.053-1.312 2.122-2.707 3.158-4.058.323-.421.649-.847.978-1.273-1.332 1.222-2.614 2.455-3.794 3.655l-.317.323-.245-.344a15.481 15.481 0 01-1.4-2.377z" class="prefix__cls-12" data-name="Path 11410" transform="translate(-343.756 -977.012)"/>
                <path id="prefix__Path_11411" d="M389.026 1013.026l-.251-.269a23.474 23.474 0 01-3.544-4.933l-.261-.485 3.516-.456.086.272a15.19 15.19 0 00.947 2.317c2.174-1.764 4.612-3.578 7.076-5.267l.449.554c-1.287 1.281-2.608 2.669-3.886 4.012s-2.572 2.7-3.851 3.977zm-2.867-5.1a22.749 22.749 0 002.923 4.035c1.18-1.187 2.385-2.452 3.554-3.68.375-.393.753-.791 1.134-1.189-1.454 1.072-2.859 2.162-4.159 3.228l-.35.286-.2-.371a15.727 15.727 0 01-1.108-2.543z" class="prefix__cls-12" data-name="Path 11411" transform="translate(-336.092 -970.512)"/>
                <path id="prefix__Path_11412" d="M441.234 1055.326h16.3s-4.122 12.576-12.542 12.109-66.176-1.862-66.176-1.862 6.056 2.794 12.11-12.577z" class="prefix__cls-7" data-name="Path 11412" transform="translate(-338.211 -953.701)"/>
                <g id="prefix__Group_12119" data-name="Group 12119" transform="translate(28.58 22.461)">
                    <path id="prefix__Line_1433" d="M52.425 0.647L0 0" class="prefix__cls-8" data-name="Line 1433" transform="translate(.007 .551)"/>
                    <path id="prefix__Rectangle_2782" d="M0 0H1.102V52.429H0z" class="prefix__cls-5" data-name="Rectangle 2782" transform="rotate(-89.31 .558 .551)"/>
                </g>
            </g>
        </g>
    </g>
</svg>
