<svg xmlns="http://www.w3.org/2000/svg" width="161.916" height="159.999" viewBox="0 0 161.916 159.999">
    <defs>
        <style>
            .prefix__cls-2{fill:#e94d6a;isolation:isolate;opacity:.429}.prefix__cls-5{fill:#ae1130}.prefix__cls-7{fill:#fff}.prefix__cls-8{fill:#e94b6a}.prefix__cls-9{opacity:.2}
        </style>
    </defs>
    <g id="prefix__Group_11923" data-name="Group 11923" transform="translate(-59.801 -474.601)">
        <g id="prefix__Group_6942" data-name="Group 6942" transform="translate(65.747 478.492)">
            <path id="prefix__Rectangle_1795" d="M167.305 515.244l36.611 38.414a25.993 25.993 0 01-1.241 37.194l-39.093 35.974a27.115 27.115 0 01-37.853-1.22l-36.611-38.414A25.993 25.993 0 0190.359 550l39.094-35.974a27.116 27.116 0 0137.852 1.218z" data-name="Rectangle 1795" transform="translate(-72.368 -488.181)" style="fill:#e43554;opacity:.15"/>
            <path id="prefix__Path_11129" d="M254.2 693.359a3.468 3.468 0 01-3.451-3.011 3.372 3.372 0 01.7-2.512 3.494 3.494 0 016.207 1.673 3.373 3.373 0 01-.7 2.512 3.47 3.47 0 01-2.332 1.311 3.622 3.622 0 01-.424.027zm0-5.436a2.092 2.092 0 00-1.637.79 1.956 1.956 0 00-.4 1.459 2.07 2.07 0 003.673.974 1.961 1.961 0 00.406-1.46 2.042 2.042 0 00-2.042-1.763z" class="prefix__cls-2" data-name="Path 11129" transform="translate(-122.987 -542.022)"/>
            <path id="prefix__Path_11130" d="M95.2 696.006l.137-5.861-4.86-3.445 5.742-1.7 1.822-5.59 3.395 4.815 5.989-.01-3.632 4.681 1.862 5.583-5.639-1.936zm-1.507-8.774l3.084 2.19-.088 3.761 3.095-2.222 3.61 1.24-1.192-3.574 2.313-2.981-3.817.006-2.182-3.1-1.176 3.6z" data-name="Path 11130" transform="translate(-74.944 -539.897)" style="opacity:.418;fill:#e94d6a;isolation:isolate"/>
            <path id="prefix__Path_11131" d="M246.812 506.33l-1.026-4.127-4.071-1.531 3.706-2.247.214-4.247 3.3 2.75 4.189-1.124-1.644 3.955 2.374 3.581-4.329-.319zm-1.854-5.959l2.029.763.522 2.1 1.381-1.685 2.172.16-1.19-1.8.826-1.985-2.111.566-1.673-1.4-.109 2.154z" data-name="Path 11131" transform="translate(-120.287 -484.361)" style="opacity:.369;fill:#e94d6a;isolation:isolate"/>
            <path id="prefix__Path_11132" d="M90.313 517.143a5.424 5.424 0 01-5.4-4.705A5.272 5.272 0 0186 508.514a5.468 5.468 0 019.712 2.614 5.267 5.267 0 01-1.088 3.923 5.417 5.417 0 01-3.651 2.052 5.6 5.6 0 01-.66.04zm0-9.3a4.083 4.083 0 00-.494.029 4.008 4.008 0 00-2.7 1.514 3.857 3.857 0 00-.8 2.871 4.045 4.045 0 007.18 1.913 3.86 3.86 0 00.8-2.87 4 4 0 00-3.981-3.453z" class="prefix__cls-2" data-name="Path 11132" transform="translate(-73.264 -488.033)"/>
            <path id="prefix__Path_11133" d="M71.77 530.823a3.468 3.468 0 01-3.451-3.012 3.374 3.374 0 01.695-2.51 3.493 3.493 0 016.208 1.672 3.371 3.371 0 01-.7 2.512 3.512 3.512 0 01-2.755 1.337zm0-5.436a2.091 2.091 0 00-1.637.791 1.956 1.956 0 00-.4 1.458 2.07 2.07 0 003.672.974 1.961 1.961 0 00.406-1.461 2.042 2.042 0 00-2.037-1.763z" class="prefix__cls-2" data-name="Path 11133" transform="translate(-68.293 -493.291)"/>
            <path id="prefix__Path_11134" d="M252.791 530.939a4.558 4.558 0 01-.567-.034 4.613 4.613 0 01-3.108-1.746 4.488 4.488 0 01-.925-3.34 4.655 4.655 0 018.27-2.224 4.486 4.486 0 01.925 3.339 4.614 4.614 0 01-4.595 4.005zm-.006-7.914a3.4 3.4 0 00-3.392 2.944 3.288 3.288 0 00.679 2.443 3.443 3.443 0 006.112-1.629 3.282 3.282 0 00-.678-2.442 3.474 3.474 0 00-2.72-1.316z" class="prefix__cls-2" data-name="Path 11134" transform="translate(-122.218 -492.647)"/>
            <path id="prefix__Path_11135" d="M273.824 540.19a3.515 3.515 0 01-2.755-1.337 3.372 3.372 0 01-.7-2.512 3.492 3.492 0 016.206-1.674 3.372 3.372 0 01.7 2.512 3.468 3.468 0 01-3.451 3.011zm0-5.436a2.04 2.04 0 00-2.037 1.762 1.959 1.959 0 00.406 1.461 2.07 2.07 0 003.672-.974 1.957 1.957 0 00-.406-1.459 2.049 2.049 0 00-1.382-.774 2.082 2.082 0 00-.256-.016z" class="prefix__cls-2" data-name="Path 11135" transform="translate(-128.87 -496.099)"/>
            <path id="prefix__Path_11136" d="M157.183 633.336a.643.643 0 01-.012-1.286c.829-.015 1.672-.07 2.5-.165a.643.643 0 11.146 1.277c-.874.1-1.757.158-2.628.174zm-2.566-.074h-.05c-.872-.067-1.751-.176-2.612-.327a.643.643 0 01.221-1.267c.821.143 1.659.249 2.489.312a.643.643 0 01-.048 1.284zm7.668-.506a.643.643 0 01-.132-1.272c.82-.174 1.636-.387 2.428-.634a.643.643 0 01.384 1.227c-.83.259-1.687.482-2.546.664a.625.625 0 01-.134.015zm-12.729-.375a.644.644 0 01-.17-.023c-.841-.232-1.683-.507-2.5-.819a.643.643 0 01.459-1.2c.781.3 1.584.56 2.384.781a.643.643 0 01-.17 1.263zm17.631-1.157a.643.643 0 01-.249-1.237c.767-.322 1.53-.685 2.264-1.081a.643.643 0 11.61 1.133c-.771.414-1.571.8-2.376 1.135a.645.645 0 01-.248.05zm-22.431-.673a.645.645 0 01-.286-.067q-.694-.344-1.379-.732l-.91-.516a.642.642 0 11.633-1.118l.911.516q.653.372 1.316.7a.643.643 0 01-.286 1.219zm26.952-1.762a.643.643 0 01-.357-1.178c.7-.467 1.373-.97 2.014-1.5a.643.643 0 11.817.993c-.672.553-1.385 1.082-2.116 1.572a.638.638 0 01-.357.113zm-31.445-.739a.64.64 0 01-.318-.084l-2.237-1.269a.643.643 0 11.636-1.118l2.236 1.269a.643.643 0 01-.317 1.2zm35.413-2.522a.636.636 0 01-.455-.189.643.643 0 010-.909 24.967 24.967 0 001.685-1.859.643.643 0 11.994.814c-.556.679-1.152 1.337-1.769 1.954a.639.639 0 01-.454.189zm-39.888-.016a.645.645 0 01-.317-.083l-2.237-1.269a.643.643 0 11.636-1.118l2.236 1.269a.643.643 0 01-.318 1.2zm-4.473-2.537a.646.646 0 01-.317-.084l-2.237-1.269a.643.643 0 11.635-1.118l2.237 1.269a.643.643 0 01-.318 1.2zm47.618-1.421a.643.643 0 01-.534-1q.409-.611.784-1.251l.536-.912a.643.643 0 011.11.651l-.536.912q-.4.673-.825 1.314a.645.645 0 01-.535.286zm-52.091-1.117a.644.644 0 01-.318-.083l-2.236-1.27a.643.643 0 01.635-1.118l2.237 1.269a.643.643 0 01-.318 1.2zm-4.474-2.538a.649.649 0 01-.318-.084l-2.236-1.269a.643.643 0 11.635-1.118l2.237 1.269a.643.643 0 01-.318 1.2zm59.207-.756a.645.645 0 01-.555-.97l1.3-2.217a.643.643 0 011.109.652l-1.3 2.217a.643.643 0 01-.553.317zM117.9 615.36a.648.648 0 01-.318-.083l-2.236-1.269a.643.643 0 11.635-1.118l2.237 1.269a.643.643 0 01-.318 1.2zm-4.474-2.537a.65.65 0 01-.318-.084l-2.237-1.269a.643.643 0 01.636-1.119l2.236 1.269a.643.643 0 01-.317 1.2zm70.76-.116a.644.644 0 01-.555-.968l1.3-2.217a.643.643 0 011.11.651l-1.3 2.217a.643.643 0 01-.559.317zm-75.234-2.423a.646.646 0 01-.318-.083l-2.237-1.269a.643.643 0 11.636-1.118l2.236 1.269a.643.643 0 01-.317 1.2zm77.839-2.011a.643.643 0 01-.555-.968l1.3-2.218a.643.643 0 011.109.651l-1.3 2.217a.642.642 0 01-.558.318zm-82.314-.527a.646.646 0 01-.317-.084l-2.237-1.269a.643.643 0 11.636-1.119l2.236 1.269a.643.643 0 01-.318 1.2zM100 605.208a.639.639 0 01-.317-.084l-2.237-1.269a.643.643 0 11.636-1.118l2.236 1.269a.643.643 0 01-.318 1.2zm89.395-1.37a.644.644 0 01-.555-.968l1.3-2.217a.643.643 0 011.11.651l-1.3 2.218a.642.642 0 01-.557.315zM95.568 602.6a.641.641 0 01-.36-.11c-.73-.494-1.439-1.024-2.108-1.577a.643.643 0 11.82-.99c.635.526 1.311 1.031 2.007 1.5a.643.643 0 01-.36 1.176zM192 599.4a.636.636 0 01-.325-.089.643.643 0 01-.23-.88l1.3-2.217a.643.643 0 011.109.652l-1.3 2.217a.643.643 0 01-.554.317zm-100.391-.074a.64.64 0 01-.456-.19c-.618-.621-1.211-1.28-1.763-1.957a.643.643 0 011-.812c.525.644 1.09 1.272 1.678 1.863a.643.643 0 01-.457 1.1zm-3.245-3.982a.641.641 0 01-.536-.288 26.241 26.241 0 01-1.345-2.267.643.643 0 011.138-.6c.385.732.816 1.456 1.279 2.156a.643.643 0 01-.536 1zm106.242-.379a.644.644 0 01-.555-.969l1.3-2.217a.644.644 0 011.11.652l-1.3 2.217a.644.644 0 01-.561.32zM85.965 590.8a.644.644 0 01-.6-.4c-.332-.816-.625-1.652-.871-2.487a.642.642 0 111.232-.363c.235.793.514 1.589.83 2.365a.643.643 0 01-.354.838.627.627 0 01-.237.047zm111.245-.271a.645.645 0 01-.555-.97l1.3-2.217a.643.643 0 011.109.653l-1.3 2.217a.642.642 0 01-.554.322zm2.606-4.435a.643.643 0 01-.555-.968l1.3-2.217a.643.643 0 011.11.65l-1.3 2.218a.643.643 0 01-.555.323zM84.5 585.881a.642.642 0 01-.63-.522c-.165-.866-.287-1.743-.364-2.61a.644.644 0 01.584-.7.653.653 0 01.7.585c.073.823.189 1.657.346 2.482a.644.644 0 01-.511.752.664.664 0 01-.125.013zm117.917-4.217a.644.644 0 01-.555-.968l1.3-2.217a.643.643 0 011.109.651l-1.3 2.217a.643.643 0 01-.549.318zm-118.371-.9h-.006a.643.643 0 01-.636-.65 26.1 26.1 0 01.161-2.631.643.643 0 011.279.143 24.767 24.767 0 00-.153 2.5.644.644 0 01-.64.642zm120.977-3.537a.645.645 0 01-.555-.969l1.3-2.217q.269-.457.517-.92a.642.642 0 111.132.607q-.259.484-.539.964l-1.3 2.217a.643.643 0 01-.55.321zm-120.401-1.562a.653.653 0 01-.136-.015.643.643 0 01-.493-.764 25.94 25.94 0 01.685-2.545.642.642 0 111.222.4 24.574 24.574 0 00-.649 2.418.645.645 0 01-.629.506zm123.334-3.918a.645.645 0 01-.594-.889 24.631 24.631 0 00.841-2.361.643.643 0 011.232.37c-.253.839-.55 1.674-.884 2.482a.643.643 0 01-.595.398zM86.2 570.779a.642.642 0 01-.59-.9c.352-.8.747-1.594 1.175-2.357a.643.643 0 111.122.629c-.409.727-.784 1.482-1.118 2.245a.645.645 0 01-.589.383zm123.233-3.95a.669.669 0 01-.123-.012.644.644 0 01-.51-.753 24.986 24.986 0 00.351-2.481.676.676 0 01.7-.583.644.644 0 01.583.7c-.078.865-.2 1.743-.369 2.609a.644.644 0 01-.629.519zm-120.79-.57a.643.643 0 01-.555-.968l1.3-2.217a.643.643 0 111.109.651l-1.3 2.217a.643.643 0 01-.551.316zm2.606-4.434a.644.644 0 01-.555-.968l1.3-2.218a.643.643 0 011.11.651l-1.3 2.217a.643.643 0 01-.552.317zm118.645-.109a.643.643 0 01-.643-.636c-.009-.835-.059-1.676-.15-2.5a.643.643 0 111.279-.141c.095.867.148 1.753.158 2.63a.643.643 0 01-.637.649zM93.858 557.39a.643.643 0 01-.555-.968l1.3-2.218a.643.643 0 011.109.651l-1.3 2.218a.642.642 0 01-.554.317zm115.474-.777a.643.643 0 01-.627-.509c-.172-.81-.388-1.624-.642-2.424a.643.643 0 111.225-.389c.268.839.5 1.7.676 2.545a.644.644 0 01-.5.763.632.632 0 01-.132.014zm-112.868-3.659a.637.637 0 01-.326-.089.644.644 0 01-.23-.88l1.3-2.217a.644.644 0 011.11.652l-1.3 2.217a.643.643 0 01-.554.317zm111.311-1.234a.644.644 0 01-.591-.389 24.66 24.66 0 00-1.107-2.248.644.644 0 011.125-.625c.428.77.819 1.566 1.163 2.365a.643.643 0 01-.59.9zm-108.706-3.2a.644.644 0 01-.555-.968l1.3-2.218a.643.643 0 011.109.65l-1.3 2.218a.642.642 0 01-.554.318zm106.212-1.29a.642.642 0 01-.529-.278 24.791 24.791 0 00-1.526-1.988.642.642 0 11.979-.832 26.231 26.231 0 011.606 2.09.643.643 0 01-.529 1.008zm-103.606-3.144a.644.644 0 01-.555-.968l1.3-2.218a.643.643 0 011.11.651l-1.3 2.218a.643.643 0 01-.555.316zm100.279-.77a.642.642 0 01-.447-.181c-.6-.577-1.232-1.133-1.888-1.653a.643.643 0 11.8-1.007c.688.545 1.355 1.129 1.983 1.735a.643.643 0 01-.447 1.106zm-4.026-3.191a.642.642 0 01-.349-.1q-.634-.41-1.3-.788l-.882-.5a.642.642 0 11.633-1.118l.883.5c.466.264.919.539 1.363.825a.643.643 0 01-.349 1.184zm-93.647-.474a.643.643 0 01-.555-.968l1.3-2.218a.643.643 0 011.109.651l-1.3 2.218a.641.641 0 01-.554.317zm89.2-2.1a.64.64 0 01-.318-.084l-2.237-1.269a.643.643 0 11.636-1.118l2.236 1.269a.643.643 0 01-.317 1.2zm-86.591-2.333a.644.644 0 01-.555-.969l1.3-2.217a.644.644 0 011.11.652l-1.3 2.217a.644.644 0 01-.558.314zm82.11-.208a.646.646 0 01-.318-.084l-2.237-1.269a.643.643 0 11.636-1.118l2.236 1.269a.643.643 0 01-.317 1.2zm-4.474-2.538a.639.639 0 01-.317-.084l-2.237-1.269a.643.643 0 11.636-1.118l2.236 1.269a.643.643 0 01-.318 1.2zm-75.038-1.691a.643.643 0 01-.555-.968l1.3-2.217a.643.643 0 111.109.65l-1.3 2.218a.642.642 0 01-.55.317zm70.564-.847a.65.65 0 01-.318-.083l-2.236-1.269a.643.643 0 11.635-1.118l2.237 1.269a.643.643 0 01-.318 1.2zm-4.474-2.538a.641.641 0 01-.318-.084l-2.236-1.269a.643.643 0 11.635-1.118l2.237 1.269a.643.643 0 01-.318 1.2zm-63.486-1.05a.644.644 0 01-.555-.969l1.3-2.217a.643.643 0 011.11.651l-1.3 2.217a.642.642 0 01-.547.319zm59.013-1.489a.648.648 0 01-.318-.083l-2.236-1.269a.643.643 0 11.635-1.118l2.237 1.269a.643.643 0 01-.318 1.2zm-4.475-2.537a.649.649 0 01-.318-.084l-2.236-1.269a.643.643 0 11.635-1.119l2.237 1.269a.643.643 0 01-.318 1.2zm-51.915-.4a.643.643 0 01-.542-.989c.468-.734.98-1.456 1.524-2.149a.643.643 0 111.012.795c-.517.659-1.005 1.347-1.451 2.046a.644.644 0 01-.539.298zm47.442-2.138a.641.641 0 01-.318-.084l-2.236-1.269a.643.643 0 11.635-1.118l2.237 1.269a.643.643 0 01-.318 1.2zm-44.271-1.9a.643.643 0 01-.464-1.088c.607-.633 1.252-1.242 1.916-1.811a.643.643 0 01.835.977c-.632.541-1.245 1.12-1.823 1.723a.639.639 0 01-.46.199zm39.8-.637a.647.647 0 01-.318-.084l-2.237-1.269a.643.643 0 01.636-1.119l2.236 1.27a.643.643 0 01-.317 1.2zm-4.474-2.539a.641.641 0 01-.318-.084l-2.237-1.269a.643.643 0 11.636-1.118l2.236 1.269a.643.643 0 01-.317 1.2zm-31.422-.167a.643.643 0 01-.369-1.169c.716-.5 1.466-.974 2.228-1.4a.643.643 0 01.632 1.12c-.726.41-1.441.86-2.122 1.337a.643.643 0 01-.367.113zm26.91-2.3a.646.646 0 01-.274-.062c-.755-.356-1.535-.678-2.318-.959a.643.643 0 01.433-1.211c.823.295 1.64.633 2.433 1.005a.643.643 0 01-.274 1.225zm-22.44-.224a.643.643 0 01-.261-1.23c.8-.356 1.628-.677 2.455-.953a.643.643 0 01.407 1.219c-.788.263-1.575.569-2.339.909a.636.636 0 01-.259.054zm17.606-1.509a.647.647 0 01-.158-.02c-.812-.205-1.64-.373-2.46-.5a.643.643 0 01.195-1.271c.861.132 1.728.308 2.58.523a.643.643 0 01-.158 1.267zm-12.736-.12a.643.643 0 01-.145-1.269c.852-.2 1.723-.357 2.588-.473a.643.643 0 01.172 1.274c-.826.111-1.657.262-2.47.451a.645.645 0 01-.142.016zm7.661-.659h-.036c-.84-.048-1.672-.056-2.51-.022a.643.643 0 01-.048-1.285q1.314-.05 2.63.023a.643.643 0 01-.036 1.286z" class="prefix__cls-5" data-name="Path 11136" transform="translate(-72.825 -488.624)"/>
            <path id="prefix__Path_11137" d="M287.18 588.887a2.063 2.063 0 01-2.066-1.762 1.951 1.951 0 01.4-1.457 2.106 2.106 0 013.729.961 1.946 1.946 0 01-.4 1.456 2.087 2.087 0 01-1.414.787 2.186 2.186 0 01-.249.015zm0-3.176a1.3 1.3 0 00-.155.009 1.242 1.242 0 00-.844.467 1.112 1.112 0 00-.233.83 1.224 1.224 0 001.385 1.017 1.246 1.246 0 00.847-.468 1.108 1.108 0 00.231-.828 1.218 1.218 0 00-1.229-1.027z" class="prefix__cls-2" data-name="Path 11137" transform="translate(-133.294 -511.552)"/>
            <path id="prefix__Path_11138" d="M252.6 677.271a5.423 5.423 0 01-5.4-4.7 5.272 5.272 0 011.089-3.924 5.467 5.467 0 019.712 2.614 5.264 5.264 0 01-1.087 3.923 5.417 5.417 0 01-3.651 2.052 5.63 5.63 0 01-.663.035zm.006-9.3a4.25 4.25 0 00-.494.029 4.01 4.01 0 00-2.7 1.515 3.855 3.855 0 00-.8 2.87 4.046 4.046 0 007.18 1.914 3.861 3.861 0 00.8-2.871 4 4 0 00-3.982-3.453z" data-name="Path 11138" transform="translate(-121.921 -536.041)" style="opacity:.25;fill:#e94d6a;isolation:isolate"/>
            <path id="prefix__Path_11139" d="M137.564 484.175a2.06 2.06 0 01-2.066-1.762 1.945 1.945 0 01.4-1.455 2.106 2.106 0 013.731.96 1.944 1.944 0 01-.4 1.456 2.077 2.077 0 01-1.412.786 2.172 2.172 0 01-.253.015zm0-3.175a1.294 1.294 0 00-.155.009 1.249 1.249 0 00-.847.468 1.111 1.111 0 00-.23.828 1.219 1.219 0 001.385 1.019 1.24 1.24 0 00.844-.468 1.1 1.1 0 00.232-.829 1.217 1.217 0 00-1.227-1.027z" class="prefix__cls-2" data-name="Path 11139" transform="translate(-88.437 -480.158)"/>
            <path id="prefix__Path_11140" d="M215.878 512.809a2.061 2.061 0 01-2.065-1.762 1.955 1.955 0 01.4-1.458 2.106 2.106 0 013.729.963 1.952 1.952 0 01-.4 1.456 2.082 2.082 0 01-1.412.786 2.2 2.2 0 01-.252.015zm0-3.175a1.3 1.3 0 00-.154.008 1.25 1.25 0 00-.845.466 1.12 1.12 0 00-.232.831 1.219 1.219 0 001.385 1.017 1.249 1.249 0 00.845-.467 1.115 1.115 0 00.232-.83 1.219 1.219 0 00-1.23-1.026z" class="prefix__cls-2" data-name="Path 11140" transform="translate(-111.917 -488.742)"/>
            <path id="prefix__Path_11141" d="M88.388 543.232a2.061 2.061 0 01-2.065-1.762 1.947 1.947 0 01.4-1.457 2.106 2.106 0 013.729.962 1.953 1.953 0 01-.4 1.457 2.083 2.083 0 01-1.412.786 2.353 2.353 0 01-.252.014zm0-3.177a1.3 1.3 0 00-.155.01 1.249 1.249 0 00-.845.466 1.115 1.115 0 00-.232.83 1.224 1.224 0 001.384 1.017 1.248 1.248 0 00.846-.466 1.118 1.118 0 00.232-.83 1.217 1.217 0 00-1.227-1.027z" class="prefix__cls-2" data-name="Path 11141" transform="translate(-73.694 -497.864)"/>
            <path id="prefix__Path_11142" d="M95.675 663.135a2.061 2.061 0 01-2.067-1.762 1.945 1.945 0 01.4-1.457 2.107 2.107 0 013.729.962 1.952 1.952 0 01-.4 1.457 2.08 2.08 0 01-1.412.786 2.182 2.182 0 01-.25.014zm0-3.175a1.27 1.27 0 00-.155.009 1.247 1.247 0 00-.846.466 1.117 1.117 0 00-.232.83 1.219 1.219 0 001.385 1.018 1.242 1.242 0 00.844-.467 1.112 1.112 0 00.233-.83 1.219 1.219 0 00-1.228-1.027z" class="prefix__cls-2" data-name="Path 11142" transform="translate(-75.878 -533.812)"/>
        </g>
        <g id="prefix__Group_11927" data-name="Group 11927" transform="translate(73.218 520.248)">
            <g id="prefix__Group_11923-2" data-name="Group 11923" transform="translate(27.2 11.566)">
                <rect id="prefix__Rectangle_2774" width="22.948" height="32.167" class="prefix__cls-7" data-name="Rectangle 2774" rx="8.746" transform="translate(.825 .826)"/>
                <path id="prefix__Path_11143" d="M130.11 590.133a12.314 12.314 0 01-12.3-12.3v-9.219a12.3 12.3 0 1124.6 0v9.219a12.314 12.314 0 01-12.3 12.3zm0-32.167a10.662 10.662 0 00-10.65 10.647v9.219a10.649 10.649 0 0021.3 0v-9.219a10.66 10.66 0 00-10.65-10.648z" class="prefix__cls-8" data-name="Path 11143" transform="translate(-117.81 -556.313)"/>
            </g>
            <g id="prefix__Group_11926" data-name="Group 11926">
                <g id="prefix__Group_11924" data-name="Group 11924">
                    <path id="prefix__Path_11144" d="M156.228 562.141l-13.3-20.9-5.515 3.925 8.6 18.982-10.8 18.712a20.175 20.175 0 00-5.091-2.391 11.461 11.461 0 01-22.64.4 20.332 20.332 0 00-4.91 2.654l-11.193-19.37 8.6-18.982-5.514-3.925-13.424 21.083a6.845 6.845 0 00-.048 7.278l16.45 24.31c1 1.624-3.1 25.563-3.1 25.563h50.017s-2.46-23.463-3.537-25.93l15.449-23.757a7.189 7.189 0 00-.044-7.652z" class="prefix__cls-7" data-name="Path 11144" transform="translate(-79.265 -540.229)"/>
                    <path id="prefix__Path_11145" d="M144.85 619.758H93.2l.142-.835c1.914-11.177 3.679-23.774 3.174-25.1L80.1 569.572a7.61 7.61 0 01.036-8.062l13.827-21.716 6.6 4.7-8.69 19.184 10.611 18.379a21.119 21.119 0 014.434-2.288l.8-.3.15.847a10.746 10.746 0 0021.228-.373l.116-.831.8.247a20.834 20.834 0 014.634 2.075l10.249-17.753-8.69-19.184 6.6-4.7 13.708 21.528a7.945 7.945 0 01.049 8.411l-15.269 23.478c1.131 3.763 3.215 23.441 3.459 25.758zm-49.96-1.428h48.374c-1-9.394-2.661-23.243-3.4-24.93l-.153-.352 15.66-24.08a6.5 6.5 0 00-.048-6.879l-12.9-20.261-4.423 3.148 8.507 18.781-11.363 19.684-.633-.413a19.424 19.424 0 00-4.14-2.052 12.174 12.174 0 01-23.721.439 19.535 19.535 0 00-3.967 2.251l-.642.474-11.764-20.383 8.507-18.781-4.422-3.148-13.02 20.449a6.16 6.16 0 00-.042 6.523l16.434 24.286c1.012 1.631-1.541 17.573-2.844 25.244z" class="prefix__cls-8" data-name="Path 11145" transform="translate(-78.963 -539.794)"/>
                </g>
                <g id="prefix__Group_11925" class="prefix__cls-9" data-name="Group 11925" transform="translate(6.545 1.022)">
                    <path id="prefix__Path_11146" d="M144.147 568.96v9.22a11.48 11.48 0 01-4.786 9.331 8.3 8.3 0 01-1.1.686 11.236 11.236 0 01-4.842 1.428 11.464 11.464 0 005.158-9.591v-9.22A11.476 11.476 0 00127.1 559.35a4.961 4.961 0 00-.742.037 11.477 11.477 0 0117.79 9.572z" class="prefix__cls-8" data-name="Path 11146" transform="translate(-99.718 -546.123)"/>
                    <path id="prefix__Path_11147" d="M121.258 590.36a4.734 4.734 0 00.724-.037 11.266 11.266 0 01-6.289 1.892 11.475 11.475 0 01-11.279-9.48 20.955 20.955 0 00-4.916 2.653L88.311 566.02l8.607-19-2.486-1.762 2.542-4.007 5.51 3.915-8.608 19 11.186 19.368a17.131 17.131 0 011.725-1.113 20.254 20.254 0 013.191-1.54 11.522 11.522 0 0011.279 9.48z" class="prefix__cls-8" data-name="Path 11147" transform="translate(-88.311 -541.254)"/>
                    <path id="prefix__Path_11148" d="M151.056 597.264c.557.186 1.113.371 1.651.594l-2.115 3.654c-.242-.167-.5-.315-.761-.464a11.33 11.33 0 001.225-3.784z" class="prefix__cls-8" data-name="Path 11148" transform="translate(-106.755 -558.046)"/>
                    <path id="prefix__Path_11149" d="M179.937 569.8l-15.453 23.75c1.076 2.467 3.544 25.934 3.544 25.934h-5.77c-.612-5.6-2.449-22.038-3.339-24.08l15.453-23.745a7.186 7.186 0 00-.037-7.661l-12.393-19.46 4.657-3.284 13.3 20.889a7.184 7.184 0 01.038 7.657z" class="prefix__cls-8" data-name="Path 11149" transform="translate(-109.48 -541.254)"/>
                </g>
            </g>
        </g>
        <g id="prefix__Group_11930" data-name="Group 11930" transform="translate(73.781 503.076)" style="opacity:.76">
            <g id="prefix__Group_11928" data-name="Group 11928">
                <path id="prefix__Path_11150" d="M85 547.769l32.124-12.493-11.724-18.754-24.5 10.392z" class="prefix__cls-7" data-name="Path 11150" transform="translate(-80.108 -515.644)"/>
                <path id="prefix__Path_11151" d="M84.131 548.349l-4.364-22.234 25.573-10.847 12.482 19.978zM81.36 526.96l3.822 19.476 30.556-11.884-10.952-17.53z" class="prefix__cls-5" data-name="Path 11151" transform="translate(-79.767 -515.268)"/>
            </g>
            <g id="prefix__Group_11929" data-name="Group 11929" transform="translate(20.751 24.984)">
                <path id="prefix__Path_11152" d="M118.331 571.9l1.383-.538a.935.935 0 00.526-1.226l-7.061-17.2a1.6 1.6 0 00-2.35-.732.935.935 0 00-.367 1.106l6.653 18.04a.935.935 0 001.216.55z" class="prefix__cls-7" data-name="Path 11152" transform="translate(-109.703 -551.249)"/>
                <path id="prefix__Path_11153" d="M117.691 572.367a1.638 1.638 0 01-1.533-1.07l-6.653-18.04a1.627 1.627 0 01.641-1.935 2.3 2.3 0 013.38 1.052l7.061 17.2a1.635 1.635 0 01-.92 2.144l-1.383.538a1.633 1.633 0 01-.593.111zM111.4 552.35a.89.89 0 00-.489.146.233.233 0 00-.092.278l6.652 18.039a.234.234 0 00.123.132.241.241 0 00.182 0l1.382-.538a.232.232 0 00.13-.126.23.23 0 000-.181l-7.06-17.2a.9.9 0 00-.83-.557z" class="prefix__cls-5" data-name="Path 11153" transform="translate(-109.403 -550.95)"/>
            </g>
        </g>
        <g id="prefix__Group_11935" data-name="Group 11935" transform="translate(130.713 527.381)">
            <g id="prefix__Group_11931" data-name="Group 11931" transform="translate(24.774 10.535)">
                <rect id="prefix__Rectangle_2775" width="20.901" height="29.298" class="prefix__cls-7" data-name="Rectangle 2775" rx="7.966" transform="translate(.752 .752)"/>
                <path id="prefix__Path_11154" d="M207.661 595.83a11.215 11.215 0 01-11.2-11.2v-8.4a11.2 11.2 0 1122.405 0v8.4a11.216 11.216 0 01-11.205 11.2zm0-29.3a9.709 9.709 0 00-9.7 9.7v8.4a9.7 9.7 0 1019.4 0v-8.4a9.71 9.71 0 00-9.7-9.698z" class="prefix__cls-8" data-name="Path 11154" transform="translate(-196.459 -565.027)"/>
            </g>
            <g id="prefix__Group_11934" data-name="Group 11934">
                <g id="prefix__Group_11932" data-name="Group 11932">
                    <path id="prefix__Path_11155" d="M231.45 570.335L219.333 551.3l-5.022 3.575 7.832 17.289-9.84 17.043a18.38 18.38 0 00-4.637-2.178 10.438 10.438 0 01-20.62.363 18.5 18.5 0 00-4.473 2.417l-10.187-17.645 7.832-17.289-5.018-3.575-12.226 19.2a6.235 6.235 0 00-.043 6.629l14.983 22.141c.914 1.479-2.822 23.282-2.822 23.282h45.554s-2.241-21.37-3.222-23.617L231.49 577.3a6.547 6.547 0 00-.04-6.965z" class="prefix__cls-7" data-name="Path 11155" transform="translate(-161.352 -550.378)"/>
                    <path id="prefix__Path_11156" d="M221.088 622.813h-47.047l.131-.76c1.744-10.18 3.35-21.653 2.892-22.865L162.112 577.1a6.927 6.927 0 01.034-7.343l12.592-19.779 6.017 4.282-7.916 17.473 9.663 16.739a19.272 19.272 0 014.039-2.083l.733-.276.135.772a9.788 9.788 0 0019.336-.34l.105-.756.73.225a19.01 19.01 0 014.22 1.886l9.336-16.169-7.915-17.473 6.017-4.282 12.482 19.608a7.237 7.237 0 01.045 7.661l-13.9 21.382c1.029 3.429 2.927 21.351 3.148 23.462zm-45.505-1.3h44.06c-.907-8.556-2.423-21.169-3.093-22.706l-.141-.321 14.262-21.931a5.929 5.929 0 00-.045-6.266l-11.748-18.453-4.03 2.867 7.75 17.106-10.352 17.928-.574-.376a17.73 17.73 0 00-3.771-1.868 11.088 11.088 0 01-21.6.4 17.655 17.655 0 00-3.612 2.05l-.586.431-10.717-18.565 7.75-17.106-4.03-2.867-11.858 18.624a5.611 5.611 0 00-.039 5.938l14.969 22.12c.922 1.482-1.408 16.007-2.595 22.994z" class="prefix__cls-8" data-name="Path 11156" transform="translate(-161.077 -549.981)"/>
                </g>
                <g id="prefix__Group_11933" class="prefix__cls-9" data-name="Group 11933" transform="translate(5.962 .931)">
                    <path id="prefix__Path_11157" d="M220.448 576.546v8.4a10.456 10.456 0 01-4.359 8.5 7.56 7.56 0 01-1 .625 10.237 10.237 0 01-4.41 1.3 10.44 10.44 0 004.7-8.736v-8.4a10.452 10.452 0 00-10.459-10.442 4.543 4.543 0 00-.676.034 10.454 10.454 0 0116.2 8.719z" class="prefix__cls-8" data-name="Path 11157" transform="translate(-179.98 -555.746)"/>
                    <path id="prefix__Path_11158" d="M199.6 596.036a4.23 4.23 0 00.659-.034 10.255 10.255 0 01-5.728 1.724 10.452 10.452 0 01-10.273-8.634 19.1 19.1 0 00-4.478 2.416l-10.188-17.64 7.84-17.3-2.264-1.6 2.314-3.65 5.019 3.565-7.84 17.3 10.188 17.64a15.5 15.5 0 011.571-1.014 18.385 18.385 0 012.906-1.4 10.5 10.5 0 0010.273 8.634z" class="prefix__cls-8" data-name="Path 11158" transform="translate(-169.591 -551.311)"/>
                    <path id="prefix__Path_11159" d="M226.739 602.325c.507.169 1.013.338 1.5.541l-1.926 3.329c-.219-.152-.456-.287-.692-.422a10.35 10.35 0 001.118-3.448z" class="prefix__cls-8" data-name="Path 11159" transform="translate(-186.39 -566.606)"/>
                    <path id="prefix__Path_11160" d="M253.045 577.315l-14.075 21.627c.98 2.248 3.227 23.622 3.227 23.622h-5.254c-.558-5.1-2.231-20.073-3.042-21.932L247.976 579a6.545 6.545 0 00-.034-6.978L236.655 554.3l4.241-2.991 12.115 19.026a6.545 6.545 0 01.034 6.98z" class="prefix__cls-8" data-name="Path 11160" transform="translate(-188.872 -551.311)"/>
                </g>
            </g>
        </g>
        <g id="prefix__Group_11940" data-name="Group 11940" transform="translate(59.801 535.58)">
            <g id="prefix__Group_11936" data-name="Group 11936" transform="translate(21.983 9.349)">
                <rect id="prefix__Rectangle_2776" width="18.548" height="25.999" class="prefix__cls-7" data-name="Rectangle 2776" rx="4.476" transform="translate(.668 .668)"/>
                <path id="prefix__Path_11161" d="M104.542 602.378h-6.805a6.548 6.548 0 01-6.54-6.54v-14.257a6.548 6.548 0 016.54-6.539h6.805a6.547 6.547 0 016.539 6.539v14.257a6.548 6.548 0 01-6.539 6.54zm-6.805-26a5.209 5.209 0 00-5.2 5.2v14.257a5.209 5.209 0 005.2 5.2h6.805a5.209 5.209 0 005.2-5.2v-14.254a5.209 5.209 0 00-5.2-5.2z" class="prefix__cls-5" data-name="Path 11161" transform="translate(-91.197 -575.042)"/>
            </g>
            <g id="prefix__Group_11939" data-name="Group 11939">
                <g id="prefix__Group_11937" data-name="Group 11937">
                    <path id="prefix__Path_11162" d="M122.25 579.754l-10.75-16.889-4.457 3.173 6.95 15.343-8.734 15.119a16.33 16.33 0 00-4.115-1.932 9.264 9.264 0 01-18.3.323 16.39 16.39 0 00-3.969 2.145l-9.041-15.66 6.951-15.343-4.457-3.173-10.85 17.041a5.534 5.534 0 00-.038 5.883l13.3 19.649c.812 1.312-2.5 20.66-2.5 20.66h40.425s-1.989-18.964-2.859-20.958l12.486-19.2a5.81 5.81 0 00-.042-6.181z" class="prefix__cls-7" data-name="Path 11162" transform="translate(-60.045 -562.042)"/>
                    <path id="prefix__Path_11163" d="M113.055 626.322h-41.75l.116-.674c1.548-9.033 2.974-19.215 2.566-20.29l-13.266-19.6a6.151 6.151 0 01.028-6.516l11.176-17.552 5.338 3.8L70.24 581l8.576 14.855A17.076 17.076 0 0182.4 594l.649-.245.122.685a8.686 8.686 0 0017.159-.3l.094-.671.648.2a16.873 16.873 0 013.743 1.677L113.1 581l-7.026-15.505 5.342-3.8 11.078 17.4a6.42 6.42 0 01.039 6.8l-12.339 18.976c.914 3.043 2.6 18.946 2.8 20.82zm-40.382-1.153h39.1c-.807-7.594-2.152-18.785-2.75-20.15l-.123-.286 12.657-19.462a5.261 5.261 0 00-.039-5.561l-10.427-16.375-3.575 2.545 6.877 15.179-9.186 15.909-.511-.333a15.686 15.686 0 00-3.345-1.658 9.84 9.84 0 01-19.173.354 15.74 15.74 0 00-3.206 1.82l-.52.383-9.51-16.475 6.877-15.179-3.575-2.545-10.522 16.528a4.986 4.986 0 00-.034 5.27l13.283 19.629c.82 1.321-1.244 14.206-2.298 20.407z" class="prefix__cls-5" data-name="Path 11163" transform="translate(-59.801 -561.69)"/>
                </g>
                <g id="prefix__Group_11938" class="prefix__cls-9" data-name="Group 11938" transform="translate(5.289 .827)">
                    <path id="prefix__Path_11164" d="M112.486 585.265v7.452a9.276 9.276 0 01-3.869 7.542 6.694 6.694 0 01-.884.555 9.09 9.09 0 01-3.913 1.155 9.267 9.267 0 004.168-7.753v-7.452a9.276 9.276 0 00-9.282-9.266 4 4 0 00-.6.03 9.277 9.277 0 0114.379 7.737z" class="prefix__cls-8" data-name="Path 11164" transform="translate(-76.575 -566.807)"/>
                    <path id="prefix__Path_11165" d="M93.985 602.561a3.8 3.8 0 00.585-.03 9.1 9.1 0 01-5.083 1.529 9.275 9.275 0 01-9.117-7.66 16.9 16.9 0 00-3.974 2.144l-9.042-15.654 6.958-15.354-2.012-1.426 2.054-3.239 4.453 3.164-6.953 15.355 9.046 15.653a13.838 13.838 0 011.394-.9 16.412 16.412 0 012.579-1.244 9.311 9.311 0 009.116 7.662z" class="prefix__cls-8" data-name="Path 11165" transform="translate(-67.355 -562.871)"/>
                    <path id="prefix__Path_11166" d="M118.07 608.142c.45.15.9.3 1.334.48l-1.709 2.954c-.195-.135-.4-.255-.615-.375a9.168 9.168 0 00.99-3.059z" class="prefix__cls-8" data-name="Path 11166" transform="translate(-82.263 -576.444)"/>
                    <path id="prefix__Path_11167" d="M141.414 585.948l-12.49 19.192c.87 1.994 2.864 20.962 2.864 20.962h-4.663c-.5-4.528-1.979-17.814-2.7-19.463l12.491-19.193a5.808 5.808 0 00-.03-6.193l-10.016-15.729 3.764-2.654 10.751 16.884a5.81 5.81 0 01.029 6.194z" class="prefix__cls-8" data-name="Path 11167" transform="translate(-84.465 -562.871)"/>
                </g>
            </g>
        </g>
        <g id="prefix__Group_11949" data-name="Group 11949" transform="translate(146.949 497.074)">
            <g id="prefix__Group_11945" data-name="Group 11945" transform="translate(10.079 39.292)">
                <g id="prefix__Group_11941" data-name="Group 11941" transform="translate(21.983 8.563)">
                    <rect id="prefix__Rectangle_2777" width="18.548" height="25.999" class="prefix__cls-7" data-name="Rectangle 2777" rx="7.069" transform="translate(.668 .668)"/>
                    <path id="prefix__Path_11168" d="M240 602.378a9.954 9.954 0 01-9.942-9.942v-7.452a9.942 9.942 0 1119.884 0v7.452a9.953 9.953 0 01-9.942 9.942zm0-26a8.615 8.615 0 00-8.605 8.606v7.452a8.606 8.606 0 0017.211 0v-7.452a8.616 8.616 0 00-8.606-8.606z" class="prefix__cls-5" data-name="Path 11168" transform="translate(-230.054 -575.042)"/>
                </g>
                <g id="prefix__Group_11944" data-name="Group 11944">
                    <g id="prefix__Group_11942" data-name="Group 11942">
                        <path id="prefix__Path_11169" d="M248.967 605c-3.5-.4-4.859-3.891-4.075-6.693l-.011-.027a5.5 5.5 0 01-.5-1.6c-.035-.04-.067-.083-.1-.124l-.162.28a16.3 16.3 0 00-4.119-1.928 9.264 9.264 0 01-18.3.323 16.39 16.39 0 00-3.969 2.145l-9.041-15.66-.127-14.556-4.457-3.173-3.772 16.254a5.532 5.532 0 00-.038 5.883l13.3 19.649c.812 1.312-2.5 20.66-2.5 20.66h40.425s-1.989-18.964-2.859-20.958z" class="prefix__cls-7" data-name="Path 11169" transform="translate(-198.902 -563.165)"/>
                        <path id="prefix__Path_11170" d="M249.386 606.688q-.2-.727-.332-1.474v-.012c-.015-.082-.031-.163-.045-.246-.083-.1-.162-.2-.244-.3a5.326 5.326 0 01-.657-.115l-.346.532.123.286c.6 1.365 1.943 12.557 2.75 20.15h-39.1c1.054-6.2 3.118-19.086 2.3-20.407l-13.289-19.632a4.986 4.986 0 01.034-5.27l3.447-15.741L207.6 567l.2 14.393 9.51 16.475.52-.383a15.743 15.743 0 013.206-1.82 9.84 9.84 0 0019.173-.354 15.685 15.685 0 013.345 1.658l.511.333.195-.337a4.962 4.962 0 01-.127-.634 4.8 4.8 0 01-.474-.657 16.85 16.85 0 00-3.732-1.671l-.648-.2-.094.671a8.686 8.686 0 01-17.159.3l-.122-.685-.649.245a17.075 17.075 0 00-3.584 1.849l-8.571-14.851-.055-14.719-5.338-3.8-4.1 16.767a6.151 6.151 0 00-.028 6.516l13.266 19.6c.408 1.076-1.018 11.257-2.566 20.29l-.116.674h41.75l-.065-.636c-.175-1.664-1.522-14.367-2.462-19.336z" class="prefix__cls-5" data-name="Path 11170" transform="translate(-198.658 -562.813)"/>
                    </g>
                    <g id="prefix__Group_11943" class="prefix__cls-9" data-name="Group 11943" transform="translate(3.16 .828)">
                        <path id="prefix__Path_11171" d="M251.343 585.265v7.452a9.276 9.276 0 01-3.869 7.542 6.694 6.694 0 01-.884.555 9.09 9.09 0 01-3.913 1.155 9.267 9.267 0 004.168-7.753v-7.452a9.276 9.276 0 00-9.282-9.266 4 4 0 00-.6.03 9.277 9.277 0 0114.379 7.737z" class="prefix__cls-8" data-name="Path 11171" transform="translate(-213.303 -567.594)"/>
                        <path id="prefix__Path_11172" d="M231.931 602.9a3.8 3.8 0 00.585-.03 9.1 9.1 0 01-5.083 1.529 9.275 9.275 0 01-9.116-7.661 16.9 16.9 0 00-3.974 2.144l-9.043-15.656-.12-14.567-2.009-1.425 2.054-3.238 4.453 3.163.12 14.568 9.042 15.653a13.838 13.838 0 011.394-.9 16.412 16.412 0 012.579-1.244 9.311 9.311 0 009.116 7.662z" class="prefix__cls-8" data-name="Path 11172" transform="translate(-203.172 -563.995)"/>
                        <path id="prefix__Path_11173" d="M256.927 608.142c.45.15.9.3 1.334.48l-1.709 2.954c-.195-.135-.4-.255-.615-.375a9.168 9.168 0 00.99-3.059z" class="prefix__cls-8" data-name="Path 11173" transform="translate(-218.992 -577.231)"/>
                        <path id="prefix__Path_11174" d="M268.091 622.031a4.651 4.651 0 01-2.722-1.229l-2.087 3.206c.72 1.649 2.2 14.934 2.7 19.462h4.663s-1.994-18.968-2.864-20.962z" class="prefix__cls-8" data-name="Path 11174" transform="translate(-221.194 -581.026)"/>
                    </g>
                </g>
            </g>
            <path id="prefix__Path_11175" d="M267.059 620.009a14.385 14.385 0 00-4.915-9.093l.83-1.128a15.611 15.611 0 015.471 10.022z" class="prefix__cls-5" data-name="Path 11175" transform="translate(-207.613 -537.605)"/>
            <g id="prefix__Group_11948" data-name="Group 11948">
                <g id="prefix__Group_11946" data-name="Group 11946">
                    <path id="prefix__Path_11176" d="M229.341 550.352l-43.59-16.952 15.9-25.448 33.244 14.1z" class="prefix__cls-7" data-name="Path 11176" transform="translate(-184.71 -507.073)"/>
                    <path id="prefix__Path_11177" d="M229.421 550.932l-45.157-17.563 16.663-26.669 34.318 14.557zm-43.074-18.255l42.023 16.343 5.282-26.922-32.171-13.646z" class="prefix__cls-5" data-name="Path 11177" transform="translate(-184.264 -506.697)"/>
                </g>
                <g id="prefix__Group_11947" data-name="Group 11947" transform="translate(8.015 33.838)">
                    <path id="prefix__Path_11178" d="M199.4 583.1l-1.877-.73a1.268 1.268 0 01-.714-1.664l9.581-23.336a2.168 2.168 0 013.189-.993 1.268 1.268 0 01.5 1.5l-9.028 24.479a1.268 1.268 0 01-1.651.744z" class="prefix__cls-7" data-name="Path 11178" transform="translate(-196.011 -555.324)"/>
                    <path id="prefix__Path_11179" d="M199.557 583.587a1.967 1.967 0 01-.714-.135l-1.876-.73a1.969 1.969 0 01-1.108-2.582l9.581-23.34a2.869 2.869 0 014.219-1.314 1.96 1.96 0 01.772 2.331L201.4 582.3a1.975 1.975 0 01-1.846 1.288zm8.537-27.162a1.5 1.5 0 00-.438.066 1.465 1.465 0 00-.921.844l-9.581 23.337a.569.569 0 00.32.746l1.877.73a.569.569 0 00.739-.333l9.028-24.478a.566.566 0 00-.223-.673 1.467 1.467 0 00-.801-.239z" class="prefix__cls-5" data-name="Path 11179" transform="translate(-195.711 -555.024)"/>
                </g>
            </g>
        </g>
        <g id="prefix__Group_11956" data-name="Group 11956" transform="translate(96.514 474.601)">
            <g id="prefix__Group_11950" data-name="Group 11950" transform="translate(5.79)">
                <path id="prefix__Path_11180" d="M190.036 518.824h-67.722l8.1-42.686 52.264 1.582z" class="prefix__cls-7" data-name="Path 11180" transform="translate(-121.046 -475.062)"/>
                <path id="prefix__Path_11181" d="M190.748 519.414H120.5l8.5-44.813 54.013 1.634zm-67.708-2.1h65.2l-6.987-39.029-50.515-1.529z" class="prefix__cls-5" data-name="Path 11181" transform="translate(-120.503 -474.601)"/>
            </g>
            <g id="prefix__Group_11955" data-name="Group 11955" transform="translate(0 39.956)">
                <g id="prefix__Group_11951" data-name="Group 11951" transform="translate(28.214 14.519)">
                    <rect id="prefix__Rectangle_2778" width="23.708" height="33.232" class="prefix__cls-7" data-name="Rectangle 2778" rx="9.036" transform="translate(.958 .958)"/>
                    <path id="prefix__Path_11182" d="M165.339 587.551a12.827 12.827 0 01-12.811-12.813v-9.523a12.812 12.812 0 1125.625 0v9.523a12.827 12.827 0 01-12.814 12.813zm0-33.232a10.908 10.908 0 00-10.895 10.9v9.523a10.9 10.9 0 0021.791 0v-9.523a10.909 10.909 0 00-10.896-10.901z" class="prefix__cls-5" data-name="Path 11182" transform="translate(-152.528 -552.402)"/>
                </g>
                <g id="prefix__Group_11954" data-name="Group 11954">
                    <g id="prefix__Group_11952" data-name="Group 11952">
                        <path id="prefix__Path_11183" d="M192.369 557.563l-5.095-23.946-5.7 4.055.234 21.971-11.161 19.331a20.845 20.845 0 00-5.259-2.47 11.841 11.841 0 01-23.39.412 20.981 20.981 0 00-5.073 2.742l-11.556-20.015.234-21.971-5.7-4.055-5.218 24.14a7.074 7.074 0 00-.049 7.52l17 25.114c1.037 1.677-3.2 26.408-3.2 26.408h51.67s-2.542-24.239-3.654-26.788l15.961-24.544a7.428 7.428 0 00-.044-7.904z" class="prefix__cls-7" data-name="Path 11183" transform="translate(-112.639 -532.251)"/>
                        <path id="prefix__Path_11184" d="M180.766 617.172H126.9l.191-1.12c1.98-11.557 3.752-24.376 3.289-25.824l-16.933-25a8.094 8.094 0 01.035-8.572l5.76-24.991 7.161 5.1-.36 22.235 10.786 18.684a22.118 22.118 0 014.43-2.255l1.082-.406.2 1.138a10.882 10.882 0 0021.5-.38l.155-1.114 1.076.332a21.816 21.816 0 014.642 2.05L180.33 559l-.354-22.239 7.159-5.1 5.638 24.8a8.43 8.43 0 01.05 8.925L177.1 589.563c1.186 4.2 3.3 24.177 3.552 26.551zm-51.6-1.916h49.469c-1.031-9.685-2.723-23.738-3.466-25.447l-.208-.473 16.242-24.976a6.5 6.5 0 00-.05-6.868L186.6 534.4l-4.232 3.012.111 21.7-11.913 20.634-.848-.554a19.921 19.921 0 00-4-2.011 12.8 12.8 0 01-24.817.465 19.792 19.792 0 00-3.817 2.2l-.863.636-12.338-21.37.113-21.7-4.233-3.012-4.663 23.286a6.153 6.153 0 00-.043 6.5l16.974 25.081c1.044 1.695-1.256 16.52-2.862 25.989z" class="prefix__cls-5" data-name="Path 11184" transform="translate(-112.233 -531.666)"/>
                    </g>
                    <g id="prefix__Group_11953" class="prefix__cls-9" data-name="Group 11953" transform="translate(4.655 1.372)">
                        <path id="prefix__Path_11185" d="M179.888 565.617v9.525a11.858 11.858 0 01-4.945 9.64 8.612 8.612 0 01-1.131.709 11.617 11.617 0 01-5 1.476 11.843 11.843 0 005.328-9.909v-9.525a11.856 11.856 0 00-11.863-11.844 5.2 5.2 0 00-.767.038 11.857 11.857 0 0118.379 9.889z" class="prefix__cls-8" data-name="Path 11185" transform="translate(-131.662 -539.666)"/>
                        <path id="prefix__Path_11186" d="M155.245 586.715a4.866 4.866 0 00.748-.039 11.638 11.638 0 01-6.5 1.955 11.855 11.855 0 01-11.653-9.794 21.645 21.645 0 00-5.079 2.741l-11.554-20.008.243-21.985-2.568-1.821 2.626-4.14 5.692 4.044-.243 21.985 11.557 20.009a17.626 17.626 0 011.783-1.15 20.893 20.893 0 013.3-1.591 11.9 11.9 0 0011.653 9.794z" class="prefix__cls-8" data-name="Path 11186" transform="translate(-118.882 -533.625)"/>
                        <path id="prefix__Path_11187" d="M187.025 594.859c.575.191 1.15.383 1.706.613l-2.185 3.775c-.249-.172-.518-.326-.786-.479a11.711 11.711 0 001.265-3.909z" class="prefix__cls-8" data-name="Path 11187" transform="translate(-138.933 -551.984)"/>
                        <path id="prefix__Path_11188" d="M216.863 565.48L200.9 590.012c1.112 2.549 3.661 26.793 3.661 26.793H198.6c-.632-5.788-2.53-22.769-3.45-24.877l15.964-24.528a7.425 7.425 0 00-.039-7.916l-4.153-22.464 4.81-3.392 5.092 23.939a7.425 7.425 0 01.039 7.913z" class="prefix__cls-8" data-name="Path 11188" transform="translate(-141.748 -533.625)"/>
                    </g>
                </g>
            </g>
        </g>
    </g>
</svg>
