<svg xmlns="http://www.w3.org/2000/svg" width="159.857" height="160" viewBox="0 0 159.857 160">
    <defs>
        <style>
            .prefix__cls-11,.prefix__cls-2{fill:#ed4e67}.prefix__cls-3{opacity:.429;isolation:isolate}.prefix__cls-4{fill:#f7657d}.prefix__cls-7{fill:#bf2640}.prefix__cls-9{fill:#fff}.prefix__cls-10{fill:#f1647d}.prefix__cls-10,.prefix__cls-11{opacity:.2}
        </style>
    </defs>
    <g id="prefix__Group_11962" data-name="Group 11962" transform="translate(-1172.047 -1153.719)">
        <g id="prefix__Group_6942" data-name="Group 6942" transform="translate(1172.047 1153.719)">
            <g id="prefix__Rectangle_1795" data-name="Rectangle 1795" opacity="0.15" transform="translate(9.754 19.204)">
                <path id="prefix__Path_11219" d="M1266.85 1176.537l37.523 39.371a26.641 26.641 0 0 1-1.272 38.122l-40.069 36.87a27.79 27.79 0 0 1-38.8-1.249l-37.523-39.371a26.643 26.643 0 0 1 1.272-38.122l40.069-36.87a27.79 27.79 0 0 1 38.8 1.249z" class="prefix__cls-2" data-name="Path 11219" transform="translate(-1179.301 -1168.003)"/>
            </g>
            <g id="prefix__Ellipse_80" class="prefix__cls-3" data-name="Ellipse 80" transform="translate(130.918 148.08)">
                <path id="prefix__Path_11220" d="M1272.98 1270.885a3.556 3.556 0 0 1-3.536-3.086 3.461 3.461 0 0 1 .714-2.576 3.58 3.58 0 0 1 6.361 1.716 3.458 3.458 0 0 1-.714 2.575 3.549 3.549 0 0 1-2.39 1.344 3.62 3.62 0 0 1-.435.027zm0-5.573a2.142 2.142 0 0 0-.261.016 2.1 2.1 0 0 0-1.416.793 2.011 2.011 0 0 0-.416 1.5 2.121 2.121 0 0 0 3.763 1 2.015 2.015 0 0 0 .417-1.5 2.093 2.093 0 0 0-2.083-1.809z" class="prefix__cls-4" data-name="Path 11220" transform="translate(-1269.417 -1263.854)"/>
            </g>
            <g id="prefix__Path_823" data-name="Path 823" transform="translate(15.921 142.995)" style="isolation:isolate" opacity="0.418">
                <path id="prefix__Path_11221" d="M1188.727 1277.076l.141-6.007-4.98-3.535 5.884-1.733 1.869-5.729 3.478 4.934 6.138-.01-3.72 4.8 1.908 5.722-5.779-1.984zm-1.544-8.992l3.161 2.245-.09 3.855 3.172-2.278 3.7 1.271-1.221-3.662 2.369-3.055-3.911.007-2.237-3.176-1.2 3.692z" class="prefix__cls-4" data-name="Path 11221" transform="translate(-1183.888 -1260.072)"/>
            </g>
            <g id="prefix__Path_828" data-name="Path 828" transform="translate(124.455 10.064)" style="isolation:isolate" opacity="0.369">
                <path id="prefix__Path_11222" d="M1269.833 1173.657l-1.052-4.229-4.172-1.569 3.8-2.3.221-4.354 3.379 2.818 4.295-1.152-1.685 4.054 2.434 3.671-4.437-.327zm-1.9-6.106l2.079.781.536 2.153 1.414-1.728 2.227.164-1.22-1.841.846-2.033-2.163.579-1.716-1.432-.112 2.208z" class="prefix__cls-4" data-name="Path 11222" transform="translate(-1264.61 -1161.204)"/>
            </g>
            <g id="prefix__Ellipse_81" class="prefix__cls-3" data-name="Ellipse 81" transform="translate(11.899 18.851)">
                <path id="prefix__Path_11223" d="M1186.47 1178.726a5.559 5.559 0 0 1-5.531-4.823 5.4 5.4 0 0 1 1.116-4.021 5.6 5.6 0 0 1 9.955 2.68 5.4 5.4 0 0 1-1.115 4.02 5.562 5.562 0 0 1-3.743 2.1 5.813 5.813 0 0 1-.682.044zm.007-9.527a4.286 4.286 0 0 0-.505.03 4.106 4.106 0 0 0-2.767 1.551 3.954 3.954 0 0 0-.818 2.942 4.145 4.145 0 0 0 7.359 1.962 3.95 3.95 0 0 0 .816-2.942 4.093 4.093 0 0 0-4.085-3.542z" class="prefix__cls-4" data-name="Path 11223" transform="translate(-1180.896 -1167.74)"/>
            </g>
            <g id="prefix__Ellipse_80-2" class="prefix__cls-3" data-name="Ellipse 80-2" transform="translate(0 31.439)">
                <path id="prefix__Path_11224" d="M1175.61 1184.131a3.554 3.554 0 0 1-3.536-3.084 3.457 3.457 0 0 1 .714-2.575 3.579 3.579 0 0 1 6.361 1.714 3.452 3.452 0 0 1-.714 2.575 3.55 3.55 0 0 1-2.39 1.344 3.645 3.645 0 0 1-.435.026zm0-5.572a2.168 2.168 0 0 0-.261.016 2.1 2.1 0 0 0-1.416.795 2 2 0 0 0-.415 1.5 2.121 2.121 0 0 0 3.763 1 2.012 2.012 0 0 0 .417-1.5 2.092 2.092 0 0 0-2.084-1.81z" class="prefix__cls-4" data-name="Path 11224" transform="translate(-1172.047 -1177.102)"/>
            </g>
            <g id="prefix__Ellipse_81-2" class="prefix__cls-3" data-name="Ellipse 81" transform="translate(129.076 29.895)">
                <path id="prefix__Path_11225" d="M1272.8 1185.307a4.8 4.8 0 0 1-3.766-1.823 4.6 4.6 0 0 1-.949-3.425 4.771 4.771 0 0 1 8.476-2.279 4.592 4.592 0 0 1 .948 3.422 4.728 4.728 0 0 1-4.709 4.105zm-3.484-5.093a3.367 3.367 0 0 0 .7 2.5 3.529 3.529 0 0 0 6.264-1.67 3.367 3.367 0 0 0-.7-2.5 3.53 3.53 0 0 0-6.266 1.67z" class="prefix__cls-4" data-name="Path 11225" transform="translate(-1268.047 -1175.953)"/>
            </g>
            <g id="prefix__Ellipse_80-2-2" class="prefix__cls-3" data-name="Ellipse 80-2" transform="translate(145 38.161)">
                <path id="prefix__Path_11226" d="M1283.458 1189.131a3.708 3.708 0 0 1-.436-.025 3.553 3.553 0 0 1-2.391-1.345 3.459 3.459 0 0 1-.714-2.575 3.58 3.58 0 0 1 6.361-1.716 3.455 3.455 0 0 1 .714 2.576 3.553 3.553 0 0 1-3.534 3.085zm0-5.572a2.089 2.089 0 0 0-2.088 1.807 2.01 2.01 0 0 0 .415 1.5 2.122 2.122 0 0 0 3.765-1 2.012 2.012 0 0 0-.417-1.5 2.143 2.143 0 0 0-1.675-.809z" class="prefix__cls-4" data-name="Path 11226" transform="translate(-1279.891 -1182.102)"/>
            </g>
            <g id="prefix__Group_11962-2" data-name="Group 11962" transform="translate(10.848 20.267)">
                <path id="prefix__Path_11227" d="M1255.729 1296.845a.66.66 0 0 1-.012-1.319c.85-.015 1.713-.071 2.565-.168a.658.658 0 1 1 .149 1.308c-.894.1-1.8.163-2.69.179zm-2.633-.075h-.052c-.893-.068-1.794-.181-2.677-.335a.659.659 0 0 1 .227-1.3c.84.147 1.7.254 2.552.32a.659.659 0 0 1-.05 1.316zm7.86-.519a.659.659 0 0 1-.136-1.3c.839-.177 1.677-.4 2.489-.65a.659.659 0 0 1 .394 1.257c-.852.266-1.73.5-2.61.682a.675.675 0 0 1-.136.011zm-13.046-.385a.676.676 0 0 1-.176-.024c-.862-.238-1.725-.52-2.564-.839a.659.659 0 0 1 .47-1.232c.8.3 1.622.573 2.443.8a.659.659 0 0 1-.173 1.295zm18.071-1.186a.659.659 0 0 1-.255-1.267c.789-.332 1.569-.7 2.321-1.109a.659.659 0 1 1 .624 1.162c-.788.424-1.607.815-2.434 1.162a.633.633 0 0 1-.256.053zm-22.989-.69a.671.671 0 0 1-.292-.068q-.714-.353-1.413-.75l-.935-.53a.659.659 0 0 1 .651-1.147l.934.53c.445.253.893.492 1.347.715a.66.66 0 0 1-.293 1.25zm27.625-1.806a.659.659 0 0 1-.369-1.206c.714-.479 1.408-.995 2.064-1.534a.659.659 0 0 1 .838 1.018c-.69.568-1.419 1.108-2.168 1.611a.649.649 0 0 1-.365.112zm-32.231-.758a.65.65 0 0 1-.325-.086l-2.293-1.3a.659.659 0 1 1 .651-1.145l2.292 1.3a.658.658 0 0 1-.325 1.232zm36.3-2.584a.659.659 0 0 1-.466-1.125c.6-.6 1.183-1.244 1.725-1.905a.659.659 0 0 1 1.021.835c-.57.7-1.181 1.369-1.812 2a.664.664 0 0 1-.471.196zm-40.882-.016a.665.665 0 0 1-.325-.086l-2.292-1.3a.659.659 0 0 1 .651-1.147l2.292 1.3a.66.66 0 0 1-.326 1.233zm-4.586-2.6a.642.642 0 0 1-.324-.086l-2.292-1.3a.659.659 0 1 1 .651-1.146l2.292 1.3a.659.659 0 0 1-.327 1.232zm48.805-1.456a.658.658 0 0 1-.547-1.023c.277-.418.546-.846.8-1.284l.55-.934a.659.659 0 0 1 1.136.667l-.548.936q-.406.687-.843 1.346a.658.658 0 0 1-.551.291zm-53.39-1.146a.644.644 0 0 1-.324-.086l-2.292-1.3a.659.659 0 0 1 .649-1.147l2.294 1.3a.659.659 0 0 1-.327 1.232zm-4.585-2.6a.664.664 0 0 1-.325-.086l-2.292-1.3a.659.659 0 0 1 .651-1.146l2.293 1.3a.659.659 0 0 1-.326 1.233zm60.683-.776a.66.66 0 0 1-.567-.994l1.335-2.272a.659.659 0 0 1 1.136.668l-1.335 2.272a.657.657 0 0 1-.572.325zm-65.268-1.826a.654.654 0 0 1-.325-.086l-2.292-1.3a.659.659 0 0 1 .651-1.147l2.292 1.3a.659.659 0 0 1-.325 1.232zm-4.586-2.6a.663.663 0 0 1-.324-.086l-2.292-1.3a.658.658 0 1 1 .65-1.146l2.294 1.3a.66.66 0 0 1-.327 1.233zm72.524-.118a.646.646 0 0 1-.332-.091.659.659 0 0 1-.235-.9l1.335-2.272a.66.66 0 0 1 1.137.668l-1.336 2.272a.66.66 0 0 1-.57.319zm-77.109-2.485a.656.656 0 0 1-.324-.085l-2.294-1.3a.659.659 0 1 1 .651-1.145l2.292 1.3a.658.658 0 0 1-.325 1.232zm79.781-2.061a.659.659 0 0 1-.567-.992l1.335-2.272a.659.659 0 1 1 1.136.667l-1.335 2.272a.658.658 0 0 1-.572.324zm-84.365-.539a.665.665 0 0 1-.325-.086l-2.293-1.3a.659.659 0 0 1 .651-1.147l2.292 1.3a.659.659 0 0 1-.325 1.233zm-4.586-2.6a.642.642 0 0 1-.324-.086l-2.292-1.3a.659.659 0 0 1 .651-1.146l2.293 1.3a.659.659 0 0 1-.327 1.232zm91.622-1.4a.659.659 0 0 1-.567-.992l1.335-2.274a.659.659 0 0 1 1.136.667l-1.335 2.274a.66.66 0 0 1-.573.318zm-96.164-1.268a.662.662 0 0 1-.367-.113c-.746-.5-1.474-1.047-2.162-1.616a.659.659 0 1 1 .839-1.015c.656.541 1.35 1.06 2.06 1.538a.659.659 0 0 1-.37 1.206zm98.834-3.277a.66.66 0 0 1-.567-.994l1.335-2.272a.659.659 0 0 1 1.136.667l-1.335 2.272a.658.658 0 0 1-.573.321zm-102.892-.077a.655.655 0 0 1-.467-.195c-.633-.636-1.241-1.312-1.807-2.006a.659.659 0 1 1 1.022-.832c.538.66 1.117 1.3 1.72 1.909a.66.66 0 0 1-.468 1.124zm-3.325-4.082a.657.657 0 0 1-.55-.3c-.495-.749-.959-1.53-1.377-2.322a.658.658 0 1 1 1.164-.616c.4.754.839 1.5 1.313 2.21a.661.661 0 0 1-.55 1.023zm108.887-.387a.653.653 0 0 1-.332-.091.659.659 0 0 1-.235-.9l1.335-2.272a.66.66 0 0 1 1.137.668l-1.335 2.272a.664.664 0 0 1-.573.317zm-111.345-4.268a.659.659 0 0 1-.61-.41c-.339-.832-.64-1.69-.894-2.548a.659.659 0 0 1 1.264-.375c.242.818.528 1.634.851 2.426a.66.66 0 0 1-.362.859.677.677 0 0 1-.253.042zm114.017-.278a.659.659 0 0 1-.568-.992l1.335-2.272a.659.659 0 0 1 1.136.668l-1.335 2.272a.658.658 0 0 1-.572.318zm2.67-4.545a.659.659 0 0 1-.567-.992l1.335-2.274a.659.659 0 0 1 1.136.667l-1.335 2.274a.657.657 0 0 1-.573.319zm-118.182-.223a.66.66 0 0 1-.647-.536c-.168-.881-.293-1.78-.374-2.673a.659.659 0 1 1 1.314-.117c.075.848.195 1.7.355 2.544a.662.662 0 0 1-.648.783zm120.852-4.321a.66.66 0 0 1-.568-.994l1.335-2.272a.659.659 0 0 1 1.136.667l-1.335 2.272a.658.658 0 0 1-.571.321zm-121.319-.921h-.007a.659.659 0 0 1-.652-.666c.011-.9.066-1.806.165-2.7a.659.659 0 1 1 1.31.148c-.094.847-.146 1.709-.157 2.564a.657.657 0 0 1-.662.648zm123.99-3.625a.66.66 0 0 1-.569-.992l1.336-2.274c.183-.31.358-.625.527-.94a.659.659 0 1 1 1.162.621c-.176.331-.36.659-.553.987l-1.335 2.272a.658.658 0 0 1-.571.32zm-123.4-1.6a.709.709 0 0 1-.14-.015.658.658 0 0 1-.5-.782 26.383 26.383 0 0 1 .7-2.609.658.658 0 1 1 1.253.4c-.262.815-.487 1.648-.666 2.481a.66.66 0 0 1-.653.515zm126.4-4.015a.659.659 0 0 1-.609-.91c.325-.789.616-1.6.86-2.42a.659.659 0 0 1 1.263.379 26.671 26.671 0 0 1-.9 2.544.66.66 0 0 1-.616.397zm-124.786-.992a.636.636 0 0 1-.264-.056.657.657 0 0 1-.339-.867c.358-.818.762-1.63 1.2-2.416a.659.659 0 1 1 1.15.644c-.419.749-.8 1.523-1.144 2.3a.661.661 0 0 1-.605.385zm126.3-4.048a.583.583 0 0 1-.126-.012.659.659 0 0 1-.522-.772c.163-.838.284-1.693.362-2.542a.659.659 0 1 1 1.312.12c-.082.893-.21 1.792-.379 2.673a.659.659 0 0 1-.649.522zm-123.8-.586a.658.658 0 0 1-.568-.992l1.335-2.272a.659.659 0 0 1 1.136.668l-1.335 2.272a.658.658 0 0 1-.565.318zm2.67-4.545a.659.659 0 0 1-.567-.992l1.335-2.274a.659.659 0 0 1 1.136.667l-1.335 2.274a.657.657 0 0 1-.566.315zm121.6-.109a.658.658 0 0 1-.659-.652c-.008-.852-.06-1.715-.153-2.564a.659.659 0 1 1 1.309-.145c.1.894.153 1.8.161 2.7a.659.659 0 0 1-.652.666zm-118.93-4.436a.661.661 0 0 1-.567-.994l1.335-2.272a.659.659 0 0 1 1.137.667l-1.336 2.272a.656.656 0 0 1-.566.317zm118.353-.795a.659.659 0 0 1-.644-.522c-.178-.836-.4-1.671-.659-2.483a.659.659 0 0 1 1.256-.4c.272.854.506 1.732.691 2.61a.658.658 0 0 1-.507.781.7.7 0 0 1-.134.004zm-115.674-3.761a.66.66 0 0 1-.568-.992l1.335-2.272a.659.659 0 1 1 1.136.667l-1.335 2.272a.658.658 0 0 1-.568.325zm114.084-1.264a.656.656 0 0 1-.6-.4c-.339-.782-.721-1.558-1.135-2.3a.659.659 0 1 1 1.152-.64c.436.785.836 1.6 1.191 2.423a.658.658 0 0 1-.6.92zm-111.414-3.282a.67.67 0 0 1-.333-.09.66.66 0 0 1-.234-.9l1.335-2.272a.659.659 0 0 1 1.136.667l-1.335 2.272a.656.656 0 0 1-.573.323zm108.859-1.32a.659.659 0 0 1-.542-.284c-.488-.7-1.015-1.39-1.566-2.04a.659.659 0 0 1 1-.852c.579.682 1.133 1.4 1.644 2.141a.66.66 0 0 1-.541 1.035zm-106.189-3.224a.66.66 0 0 1-.567-.993l1.335-2.272a.659.659 0 0 1 1.136.668l-1.335 2.272a.657.657 0 0 1-.573.325zm102.779-.788a.654.654 0 0 1-.457-.186c-.615-.592-1.265-1.161-1.937-1.693a.659.659 0 0 1 .819-1.034c.7.559 1.389 1.158 2.033 1.779a.659.659 0 0 1-.457 1.133zm-4.126-3.27a.653.653 0 0 1-.358-.106q-.651-.422-1.332-.808l-.9-.512a.658.658 0 1 1 .649-1.145l.9.512q.716.405 1.4.847a.659.659 0 0 1-.358 1.213zm-95.982-.487a.652.652 0 0 1-.332-.092.659.659 0 0 1-.235-.9l1.335-2.272a.659.659 0 0 1 1.138.667l-1.337 2.274a.658.658 0 0 1-.573.323zm91.42-2.154a.644.644 0 0 1-.324-.086l-2.292-1.3a.659.659 0 1 1 .649-1.147l2.292 1.3a.658.658 0 0 1-.325 1.232zm-88.749-2.392a.659.659 0 0 1-.567-.992l1.335-2.272a.659.659 0 1 1 1.136.667l-1.335 2.272a.657.657 0 0 1-.573.325zm84.164-.21a.641.641 0 0 1-.324-.086l-2.294-1.3a.659.659 0 0 1 .651-1.147l2.292 1.3a.658.658 0 0 1-.325 1.232zm-4.586-2.6a.657.657 0 0 1-.324-.086l-2.292-1.3a.659.659 0 0 1 .651-1.146l2.292 1.3a.66.66 0 0 1-.327 1.233zm-76.907-1.734a.659.659 0 0 1-.568-.992l1.335-2.274a.659.659 0 0 1 1.136.667l-1.335 2.274a.657.657 0 0 1-.572.325zm72.322-.867a.66.66 0 0 1-.324-.086l-2.292-1.3a.659.659 0 1 1 .649-1.147l2.294 1.3a.66.66 0 0 1-.327 1.233zm-4.585-2.6a.654.654 0 0 1-.325-.086l-2.292-1.3a.659.659 0 1 1 .651-1.146l2.292 1.3a.658.658 0 0 1-.325 1.232zm-65.068-1.077a.66.66 0 0 1-.568-.994l1.335-2.272a.659.659 0 0 1 1.136.668l-1.335 2.272a.657.657 0 0 1-.571.324zm60.483-1.523a.656.656 0 0 1-.324-.086l-2.294-1.3a.659.659 0 0 1 .651-1.147l2.292 1.3a.659.659 0 0 1-.325 1.233zm-4.586-2.6a.644.644 0 0 1-.324-.086l-2.292-1.3a.659.659 0 0 1 .651-1.147l2.292 1.3a.659.659 0 0 1-.327 1.231zm-53.21-.41a.645.645 0 0 1-.354-.105.657.657 0 0 1-.2-.909c.483-.756 1.008-1.5 1.561-2.2a.659.659 0 1 1 1.037.813c-.527.672-1.027 1.378-1.486 2.1a.662.662 0 0 1-.562.297zm48.625-2.192a.644.644 0 0 1-.324-.086l-2.292-1.3a.659.659 0 1 1 .651-1.147l2.292 1.3a.659.659 0 0 1-.327 1.232zm-45.373-1.948a.659.659 0 0 1-.476-1.115c.621-.648 1.281-1.272 1.963-1.855a.658.658 0 1 1 .857 1c-.648.555-1.276 1.15-1.868 1.767a.659.659 0 0 1-.479.199zm40.788-.652a.667.667 0 0 1-.325-.086l-2.292-1.3a.659.659 0 1 1 .651-1.146l2.292 1.3a.659.659 0 0 1-.325 1.233zm-4.585-2.6a.65.65 0 0 1-.325-.086l-2.292-1.3a.659.659 0 0 1 .651-1.147l2.292 1.3a.659.659 0 0 1-.325 1.232zm-32.2-.172a.66.66 0 0 1-.379-1.2c.736-.514 1.5-1 2.284-1.439a.659.659 0 0 1 .647 1.148c-.742.419-1.474.879-2.174 1.37a.658.658 0 0 1-.386.115zm27.582-2.359a.655.655 0 0 1-.281-.063c-.774-.364-1.573-.7-2.376-.983a.658.658 0 1 1 .444-1.24c.843.3 1.682.648 2.494 1.031a.659.659 0 0 1-.281 1.254zm-23-.23a.659.659 0 0 1-.269-1.261c.82-.365 1.666-.694 2.516-.977a.659.659 0 0 1 .417 1.25c-.808.27-1.615.584-2.4.931a.646.646 0 0 1-.27.052zm18.043-1.546a.684.684 0 0 1-.163-.02c-.829-.21-1.678-.382-2.52-.512a.658.658 0 1 1 .2-1.3c.883.135 1.773.316 2.643.537a.659.659 0 0 1-.161 1.3zm-13.054-.124a.659.659 0 0 1-.148-1.3c.874-.2 1.767-.366 2.653-.484a.659.659 0 0 1 .175 1.307c-.844.113-1.7.268-2.531.461a.642.642 0 0 1-.155.011zm7.852-.675h-.038c-.859-.048-1.717-.058-2.572-.023a.67.67 0 0 1-.685-.633.659.659 0 0 1 .633-.684q1.345-.05 2.7.024a.659.659 0 0 1-.036 1.318z" class="prefix__cls-7" data-name="Path 11227" transform="translate(-1180.115 -1168.793)"/>
            </g>
            <g id="prefix__Ellipse_80-2-3" class="prefix__cls-3" data-name="Ellipse 80" transform="translate(155.589 75.145)">
                <path id="prefix__Path_11228" d="M1289.9 1213.728a2.112 2.112 0 0 1-2.116-1.806 2 2 0 0 1 .413-1.494 2.159 2.159 0 0 1 3.823.987 2 2 0 0 1-.413 1.493 2.138 2.138 0 0 1-1.447.805 2.423 2.423 0 0 1-.26.015zm0-3.255a1.257 1.257 0 0 0-.159.01 1.271 1.271 0 0 0-.866.479 1.135 1.135 0 0 0-.238.851 1.26 1.26 0 0 0 1.418 1.042 1.277 1.277 0 0 0 .867-.479 1.141 1.141 0 0 0 .237-.85 1.248 1.248 0 0 0-1.259-1.054z" class="prefix__cls-4" data-name="Path 11228" transform="translate(-1287.766 -1209.608)"/>
            </g>
            <g id="prefix__Ellipse_81-3" data-name="Ellipse 81" transform="translate(128.365 133.765)" style="isolation:isolate" opacity="0.25">
                <path id="prefix__Path_11229" d="M1273.092 1264.192a5.556 5.556 0 0 1-5.531-4.821 5.4 5.4 0 0 1 1.115-4.02 5.6 5.6 0 0 1 9.956 2.678 5.4 5.4 0 0 1-1.115 4.02 5.562 5.562 0 0 1-3.743 2.1 5.883 5.883 0 0 1-.682.043zm.007-9.526a4.353 4.353 0 0 0-.507.029 4.112 4.112 0 0 0-2.767 1.553 3.955 3.955 0 0 0-.816 2.941 4.145 4.145 0 0 0 7.359 1.962 3.955 3.955 0 0 0 .816-2.941 4.094 4.094 0 0 0-4.084-3.544z" class="prefix__cls-4" data-name="Path 11229" transform="translate(-1267.518 -1253.207)"/>
            </g>
            <g id="prefix__Ellipse_80-3" class="prefix__cls-3" data-name="Ellipse 80" transform="translate(48.217)">
                <path id="prefix__Path_11230" d="M1210.042 1157.839a2.115 2.115 0 0 1-2.118-1.807 2 2 0 0 1 .414-1.491 2.158 2.158 0 0 1 3.823.986 2 2 0 0 1-.413 1.493 2.138 2.138 0 0 1-1.447.805 2.392 2.392 0 0 1-.259.014zm0-3.255a1.3 1.3 0 0 0-.159.009 1.279 1.279 0 0 0-.867.479 1.142 1.142 0 0 0-.237.85 1.252 1.252 0 0 0 1.419 1.043 1.265 1.265 0 0 0 .866-.479 1.133 1.133 0 0 0 .238-.85 1.247 1.247 0 0 0-1.257-1.053z" class="prefix__cls-4" data-name="Path 11230" transform="translate(-1207.908 -1153.719)"/>
            </g>
            <g id="prefix__Ellipse_80-4" class="prefix__cls-3" data-name="Ellipse 80" transform="translate(104.418 20.551)">
                <path id="prefix__Path_11231" d="M1251.842 1173.121a2.115 2.115 0 0 1-2.118-1.806 2 2 0 0 1 .414-1.494 2.159 2.159 0 0 1 3.823.987 2 2 0 0 1-.413 1.493 2.138 2.138 0 0 1-1.447.805 2.425 2.425 0 0 1-.259.015zm0-3.255a1.251 1.251 0 0 0-.159.009 1.281 1.281 0 0 0-.867.479 1.141 1.141 0 0 0-.237.851 1.255 1.255 0 0 0 1.418 1.042 1.271 1.271 0 0 0 .866-.479 1.137 1.137 0 0 0 .238-.85 1.248 1.248 0 0 0-1.257-1.052z" class="prefix__cls-4" data-name="Path 11231" transform="translate(-1249.708 -1169.004)"/>
            </g>
            <g id="prefix__Ellipse_80-5" class="prefix__cls-3" data-name="Ellipse 80" transform="translate(12.928 42.381)">
                <path id="prefix__Path_11232" d="M1183.8 1189.36a2.113 2.113 0 0 1-2.118-1.806 2 2 0 0 1 .413-1.492 2.158 2.158 0 0 1 3.823.985 2 2 0 0 1-.413 1.492 2.136 2.136 0 0 1-1.447.805 2.386 2.386 0 0 1-.258.016zm0-3.255a1.216 1.216 0 0 0-.157.009 1.27 1.27 0 0 0-.867.479 1.139 1.139 0 0 0-.238.851 1.3 1.3 0 0 0 2.284.563 1.134 1.134 0 0 0 .238-.85 1.246 1.246 0 0 0-1.26-1.057z" class="prefix__cls-4" data-name="Path 11232" transform="translate(-1181.662 -1185.24)"/>
            </g>
            <g id="prefix__Ellipse_80-6" class="prefix__cls-3" data-name="Ellipse 80" transform="translate(18.155 128.428)">
                <path id="prefix__Path_11233" d="M1187.685 1253.356a2.115 2.115 0 0 1-2.119-1.806 1.992 1.992 0 0 1 .414-1.492 2.159 2.159 0 0 1 3.823.985 2 2 0 0 1-.413 1.494 2.14 2.14 0 0 1-1.447.805 2.4 2.4 0 0 1-.258.014zm0-3.255a1.3 1.3 0 0 0-.159.011 1.265 1.265 0 0 0-.867.479 1.14 1.14 0 0 0-.238.85 1.261 1.261 0 0 0 1.42 1.043 1.275 1.275 0 0 0 .866-.479 1.146 1.146 0 0 0 .238-.851 1.248 1.248 0 0 0-1.258-1.054z" class="prefix__cls-4" data-name="Path 11233" transform="translate(-1185.55 -1249.238)"/>
            </g>
        </g>
        <g id="prefix__Group_12274" data-name="Group 12274" transform="translate(1048.219 124.455)">
            <g id="prefix__Group_12244" data-name="Group 12244" transform="translate(160.134 1056.041)">
                <ellipse id="prefix__Ellipse_428" cx="12.538" cy="22.63" class="prefix__cls-2" data-name="Ellipse 428" rx="12.538" ry="22.63" transform="translate(7.386)"/>
                <g id="prefix__Group_12243" data-name="Group 12243" transform="translate(0 2.893)">
                    <g id="prefix__Group_12231" data-name="Group 12231" transform="translate(20.604 22.132)">
                        <path id="prefix__Path_11595" d="M164.861 1075l.922-3.743a17.206 17.206 0 0 1 4.776 4.149c1.76 2.442 2.6 8.951 3.1 9.195s6.071-7.413 7.044-8.62c1.2-1.492 1.655-3.206 2.409-4.509s3.409-1.745 4.416-1.582-1.092 5.575-1.092 5.575-6.324 7.753-8.335 12.88-8.3 7.567-9.3 6.835-3.94-20.18-3.94-20.18z" class="prefix__cls-9" data-name="Path 11595" transform="translate(-164.135 -1069.144)"/>
                        <path id="prefix__Path_11596" d="M169.575 1096.232a1.623 1.623 0 0 1-.976-.262c-.828-.6-2.249-7.549-4.225-20.649l-.021-.138 1.179-4.792.82.462a17.781 17.781 0 0 1 5 4.353c1.174 1.626 1.92 4.74 2.466 7.013.118.5.247 1.032.358 1.447 1.184-1.3 3.695-4.627 4.879-6.2.606-.8 1.083-1.435 1.311-1.719a12.042 12.042 0 0 0 1.558-2.8 16.654 16.654 0 0 1 .788-1.622c.946-1.634 3.89-2.138 5.146-1.928a.967.967 0 0 1 .691.485c.549.959-.366 3.82-1.23 6.051l-.113.194c-.063.077-6.279 7.727-8.224 12.687-1.7 4.322-6 6.588-8.038 7.182a4.955 4.955 0 0 1-1.369.236zm-.1-1.423c1.06.13 6.378-1.917 8.179-6.511 1.937-4.932 7.631-12.059 8.375-12.979a19.752 19.752 0 0 0 1.281-4.537c-1.018.013-2.889.44-3.365 1.264a15.856 15.856 0 0 0-.718 1.485 13.34 13.34 0 0 1-1.752 3.112c-.222.277-.69.9-1.283 1.683-5.711 7.57-5.925 7.476-6.628 7.13-.476-.229-.616-.75-1.133-2.906-.489-2.037-1.226-5.113-2.234-6.512a15.369 15.369 0 0 0-3.743-3.437l-.653 2.648c1.299 8.604 2.999 18.166 3.675 19.56z" class="prefix__cls-7" data-name="Path 11596" transform="translate(-164.352 -1069.357)"/>
                    </g>
                    <g id="prefix__Group_12232" data-name="Group 12232" transform="translate(38.851 21.71)">
                        <path id="prefix__Path_11597" d="M177.74 1072.03s.251-.985.928-1.187a5.33 5.33 0 0 1 1.931 0 14.8 14.8 0 0 0 1.38-.6l-1.079 1.792s-2.107 2.217-2.809 1.388-.351-1.393-.351-1.393z" class="prefix__cls-9" data-name="Path 11597" transform="translate(-176.942 -1068.56)"/>
                        <path id="prefix__Path_11598" d="M178.723 1074.817h-.04a1.238 1.238 0 0 1-.924-.437 1.981 1.981 0 0 1-.473-2.112 2.366 2.366 0 0 1 1.39-1.607 5.427 5.427 0 0 1 2.077-.046c.229-.1.721-.322 1.129-.517l2.151-1.036-2.4 3.96c-.408.423-1.798 1.795-2.91 1.795zm-.143-1.95c-.02.081.013.292.267.592a8.345 8.345 0 0 0 1.7-1.364l.043-.071a4.543 4.543 0 0 0-1.5 0c-.175.051-.375.433-.443.684z" class="prefix__cls-7" data-name="Path 11598" transform="translate(-177.154 -1069.061)"/>
                    </g>
                    <g id="prefix__Group_12233" data-name="Group 12233" transform="translate(42.694 21.487)">
                        <path id="prefix__Path_11599" d="M181.2 1070.3a20.313 20.313 0 0 1 .569 4.179c-.192.727-.678.338-.768.18a12.375 12.375 0 0 1-.636-2.866z" class="prefix__cls-9" data-name="Path 11599" transform="translate(-179.631 -1068.313)"/>
                        <path id="prefix__Path_11600" d="M181.617 1076.206a1.245 1.245 0 0 1-1.012-.6 11.77 11.77 0 0 1-.728-3.141l-.027-.229 1.866-3.33.4 1.829c.239 1.09.774 3.712.562 4.516a1.124 1.124 0 0 1-.926.947.885.885 0 0 1-.135.008z" class="prefix__cls-7" data-name="Path 11600" transform="translate(-179.85 -1068.905)"/>
                    </g>
                    <g id="prefix__Group_12234" data-name="Group 12234" transform="translate(41.867 23.758)">
                        <path id="prefix__Path_11601" d="M179.8 1072.624s.363 2.144.737 2.4c.242.164.552.067.651-.366a19.129 19.129 0 0 0-.485-3.074z" class="prefix__cls-9" data-name="Path 11601" transform="translate(-179.044 -1070.038)"/>
                        <path id="prefix__Path_11602" d="M180.993 1076.268a1.116 1.116 0 0 1-.627-.2c-.171-.115-.626-.422-1.041-2.866l-.056-.331 2.053-2.375.306 1.385a12.035 12.035 0 0 1 .482 3.39 1.224 1.224 0 0 1-.73.922 1.078 1.078 0 0 1-.387.075z" class="prefix__cls-7" data-name="Path 11602" transform="translate(-179.27 -1070.498)"/>
                    </g>
                    <g id="prefix__Group_12235" data-name="Group 12235" transform="translate(14.312 62.207)">
                        <path id="prefix__Path_11603" d="M175.7 1115.654c-.225 2.425-.334 12.059-1.591 23.426l-13.156.177-.178-5.171-.334-9.916 7.606-23.424.86-2.637 2.895.97 1.564.523s2.934 9.662 2.334 16.052z" class="prefix__cls-9" data-name="Path 11603" transform="translate(-159.724 -1097.203)"/>
                        <path id="prefix__Path_11604" d="M160.478 1140.249l-.54-15.913.04-.118 8.686-26.745 5.489 1.839.107.352c.121.4 2.966 9.872 2.363 16.326-.064.684-.117 1.946-.191 3.659-.185 4.347-.5 11.622-1.4 19.78l-.07.626zm.894-15.71l.482 14.265 11.83-.158c.844-7.855 1.143-14.841 1.324-19.058.076-1.748.131-3.033.2-3.729.515-5.5-1.7-13.648-2.205-15.428l-3.424-1.146z" class="prefix__cls-7" data-name="Path 11604" transform="translate(-159.938 -1097.473)"/>
                    </g>
                    <path id="prefix__Path_11605" d="M173.268 1116.1c-.228 2.423-.342 12.058-1.6 23.419l-2.722.043c1.254-11.332 1.354-20.924 1.582-23.347.6-6.385-2.338-16.049-2.338-16.049l-1.568-.528-.456-.157.3-.926 2.893.969 1.568.527s2.94 9.664 2.341 16.049z" class="prefix__cls-10" data-name="Path 11605" transform="translate(-142.975 -1034.806)"/>
                    <g id="prefix__Group_12236" data-name="Group 12236" transform="translate(0 59.55)">
                        <path id="prefix__Path_11606" d="M176.747 1096.184l-.71 3.713-.229 1.2-2.189 11.447-8.609 22.356-1.987 5.171h-12.54c1.365-8.6-.254-23.521.874-28.754.834-3.891 3.441-8.318 5.1-10.857.84-1.286 1.435-2.083 1.435-2.083z" class="prefix__cls-9" data-name="Path 11606" transform="translate(-149.648 -1095.364)"/>
                        <path id="prefix__Path_11607" d="M163.763 1141.032H149.9l.131-.824c.711-4.476.6-10.814.5-16.409-.093-5.275-.172-9.829.376-12.383.874-4.068 3.633-8.7 5.2-11.1.852-1.307 1.46-2.119 1.46-2.119l.184-.247 20.126-2.345-3.31 17.308zm-12.207-1.425h11.226l10.421-27.079 2.911-15.28-17.582 2.051c-.234.324-.678.955-1.229 1.8-1.514 2.316-4.176 6.773-5 10.618-.516 2.393-.435 7.088-.346 12.06a117.735 117.735 0 0 1-.401 15.83z" class="prefix__cls-7" data-name="Path 11607" transform="translate(-149.897 -1095.609)"/>
                    </g>
                    <path id="prefix__Path_11608" d="M173.664 1096.624l-.706 3.72-.224 1.2-2.193 11.446-8.608 22.088-1.98 4.9H157.7l1.981-5.026 8.609-22.276 2.195-11.416.214-1.175.6-3.185v-.014z" class="prefix__cls-10" data-name="Path 11608" transform="translate(-146.578 -1035.627)"/>
                    <g id="prefix__Group_12237" data-name="Group 12237" transform="translate(4.495 21.577)">
                        <path id="prefix__Path_11609" d="M161.562 1069.471s-4.624.469-7.389 3.154 4.47 24.267 4.973 27.683-4.121 11.389-4.121 11.389 17.277 2.851 21.969.084c0 0 .5-24.573 0-27.013s-4.692-12.368-5.7-13.344-9.732-1.953-9.732-1.953z" class="prefix__cls-9" data-name="Path 11609" transform="translate(-152.84 -1068.754)"/>
                        <path id="prefix__Path_11610" d="M169.53 1113.911a103.047 103.047 0 0 1-14.409-1.3l-1.019-.168.517-.892c1.251-2.156 4.416-8.328 4.032-10.928-.125-.852-.717-2.988-1.467-5.693-3.086-11.123-5.463-20.5-3.3-22.6 2.911-2.825 7.616-3.331 7.815-3.351l.077-.009.074.009c2.7.3 9.085 1.115 10.15 2.151 1.257 1.217 5.429 11.42 5.9 13.711.515 2.49.036 26.164.016 27.172l-.009.4-.342.2c-1.653.971-4.704 1.298-8.035 1.298zm-13.173-2.546c5.2.781 16.337 1.964 20.145.194.141-7.107.4-24.535.007-26.435-.527-2.55-4.732-12.227-5.5-12.974-.6-.506-5.245-1.3-9.235-1.749-.576.074-4.524.646-6.894 2.946-1.738 1.686 2.057 15.364 3.677 21.2.791 2.859 1.366 4.926 1.5 5.868.443 2.948-2.487 8.717-3.7 10.95z" class="prefix__cls-7" data-name="Path 11610" transform="translate(-153.051 -1068.968)"/>
                    </g>
                    <path id="prefix__Path_11611" d="M174.824 1112.234c-2.922 1.725-10.69 1.269-16.164.684 5.117.428 11.175.542 13.669-.926 0 0 .5-24.573 0-27.011s-4.7-12.372-5.7-13.356c-.684-.656-4.875-1.311-7.526-1.668l.285-.043s8.723.983 9.735 1.953 5.188 10.9 5.7 13.341.001 27.026.001 27.026z" class="prefix__cls-10" data-name="Path 11611" transform="translate(-146.17 -1046.988)"/>
                    <g id="prefix__Group_12238" data-name="Group 12238" transform="translate(4.851 25.3)">
                        <path id="prefix__Path_11612" d="M154.215 1073.541a2.523 2.523 0 0 1 3.275-1.279c1.786.688 4.25 2 5.453 4.236 2.011 3.741 9.051 16.6 11.23 17.085s11.062-13.344 11.062-13.344a8.157 8.157 0 0 1 .5-3.824c.754-1.383 3.017-2.848 3.352-2.359s-1.257 1.709-1.257 1.953.67.406 1.592-.081a3.814 3.814 0 0 0 1.421-1.475 4.41 4.41 0 0 1-.08 4.648c-1.592 2.2-2.263 3.092-2.263 3.092s-10.308 20.424-14.08 20.668c-3.507.226-23.734-19.798-20.205-29.32z" class="prefix__cls-9" data-name="Path 11612" transform="translate(-153.086 -1071.367)"/>
                        <path id="prefix__Path_11613" d="M174.6 1103.787c-2.513 0-9.9-6.641-15.052-13.558-3.65-4.9-7.619-11.783-5.787-16.724a2.894 2.894 0 0 1 1.559-1.625 3.438 3.438 0 0 1 2.64-.071c1.941.75 4.528 2.149 5.825 4.564 5.992 11.149 9.777 16.487 10.759 16.728 1.229-.1 6.219-6.7 10.176-12.833a8.285 8.285 0 0 1 .606-3.981c.706-1.293 2.631-2.771 3.68-2.825a.971.971 0 0 1 .887.4 1.093 1.093 0 0 1-.013 1.209 3.4 3.4 0 0 0 .544-.731l.574-1.138.669 1.085a5.1 5.1 0 0 1-.108 5.442c-1.6 2.2-2.269 3.1-2.269 3.1-1.686 3.364-10.629 20.693-14.606 20.951-.027.006-.055.007-.084.007zm-17.877-30.782a1.985 1.985 0 0 0-.815.174 1.491 1.491 0 0 0-.811.823c-1.256 3.386.733 8.847 5.595 15.375 5.653 7.59 12.409 12.986 13.867 12.986h.034c2.322-.15 9.286-11.949 13.49-20.277.068-.11.737-1 2.322-3.19a3.262 3.262 0 0 0 .469-2.8 3.833 3.833 0 0 1-.9.673 2.358 2.358 0 0 1-2.189.215.9.9 0 0 1-.45-.762.788.788 0 0 1 .033-.225 4.122 4.122 0 0 0-.788.974 7.2 7.2 0 0 0-.42 3.408l.027.249-.135.211c-3.418 5.324-9.517 14.161-11.818 13.655-1.755-.395-5.693-6.264-11.7-17.446-1.092-2.03-3.365-3.246-5.081-3.908a2.012 2.012 0 0 0-.729-.135z" class="prefix__cls-7" data-name="Path 11613" transform="translate(-153.3 -1071.58)"/>
                    </g>
                    <g id="prefix__Group_12239" data-name="Group 12239" transform="translate(11.565 13.103)">
                        <path id="prefix__Path_11614" d="M161.077 1063.675l-.1.5c-.312 1.5-1.512 6.463-2.323 7.828-.979 1.649 3.355 6.911 7.526 6.269 1.243-.191-1.049-4.835-.939-5.327.211-.941.5-2.226.79-3.543.165-.743.332-1.5.489-2.2l.811-3.658z" class="prefix__cls-9" data-name="Path 11614" transform="translate(-157.797 -1062.804)"/>
                        <path id="prefix__Path_11615" d="M165.7 1079.252c-2.661 0-5.352-1.933-6.77-4.034-.918-1.361-1.159-2.554-.677-3.365.716-1.2 1.876-5.867 2.239-7.608l.2-1.051 7.738-.171-2.265 10.2c.046.207.234.728.389 1.156.723 2 1.2 3.483.718 4.29a1.07 1.07 0 0 1-.775.524 5.4 5.4 0 0 1-.797.059zm-3.827-14.658c-.242 1.146-1.481 6.451-2.395 7.989-.11.185-.036.848.633 1.837 1.236 1.832 3.709 3.592 5.945 3.391a13.94 13.94 0 0 0-.84-2.949c-.41-1.137-.537-1.514-.46-1.857l1.893-8.518z" class="prefix__cls-7" data-name="Path 11615" transform="translate(-158.011 -1063.023)"/>
                    </g>
                    <g id="prefix__Group_12240" data-name="Group 12240" transform="translate(11.436)">
                        <path id="prefix__Path_11616" d="M164.877 1054.332a7.638 7.638 0 0 0-4.4 2.443c-1.846 2.128-3.837 8.708.751 12.285s9.121-.472 9.794-4.766.538-10.117-6.145-9.962z" class="prefix__cls-9" data-name="Path 11616" transform="translate(-157.708 -1053.618)"/>
                        <path id="prefix__Path_11617" d="M165.082 1071.356a6.631 6.631 0 0 1-4.077-1.522 7.932 7.932 0 0 1-3.039-5.63 11.091 11.091 0 0 1 2.186-7.684 8.334 8.334 0 0 1 4.848-2.684h.071a6.741 6.741 0 0 1 5.455 2.005c1.569 1.792 2.045 4.746 1.414 8.78a8.259 8.259 0 0 1-4.761 6.334 5.7 5.7 0 0 1-2.097.401zm.067-16.1a7 7 0 0 0-3.918 2.2 9.828 9.828 0 0 0-1.844 6.609 6.447 6.447 0 0 0 2.5 4.645 4.692 4.692 0 0 0 4.774.916 6.882 6.882 0 0 0 3.876-5.228c.564-3.6.2-6.163-1.078-7.621a5.345 5.345 0 0 0-4.31-1.522z" class="prefix__cls-7" data-name="Path 11617" transform="translate(-157.92 -1053.83)"/>
                    </g>
                    <g id="prefix__Group_12241" data-name="Group 12241" transform="translate(22.995 6.148)">
                        <path id="prefix__Path_11618" d="M169.043 1060.991c-.547.948-1.467 1.474-2.053 1.173s-.619-1.313-.071-2.262 1.468-1.472 2.054-1.172.618 1.313.07 2.261z" class="prefix__cls-9" data-name="Path 11618" transform="translate(-165.818 -1057.93)"/>
                        <path id="prefix__Path_11619" d="M167.572 1063.176a1.507 1.507 0 0 1-.694-.164 1.537 1.537 0 0 1-.764-.958 3.044 3.044 0 0 1 .4-2.293c.757-1.314 2.04-1.94 2.995-1.452a1.549 1.549 0 0 1 .764.959 3.038 3.038 0 0 1-.4 2.293 2.888 2.888 0 0 1-2.301 1.615zm1.2-3.551a1.487 1.487 0 0 0-1.019.848 1.7 1.7 0 0 0-.269 1.179c.161.142.735-.076 1.157-.8a1.7 1.7 0 0 0 .269-1.179.2.2 0 0 0-.14-.048z" class="prefix__cls-7" data-name="Path 11619" transform="translate(-166.03 -1058.143)"/>
                    </g>
                    <path id="prefix__Path_11620" d="M166.461 1054.281s-3.937 6.257-6.753 6.547-3.186 3.613-3.186 3.613 1.008-7.661 3.8-9.139a11.492 11.492 0 0 1 6.139-1.021z" class="prefix__cls-2" data-name="Path 11620" transform="translate(-147.079 -1053.666)"/>
                    <g id="prefix__Group_12242" data-name="Group 12242" transform="translate(9.891 6.172)">
                        <path id="prefix__Path_11621" d="M160.282 1060.427c.229 1.11-.231 2.13-1.028 2.275s-1.629-.635-1.859-1.748.232-2.129 1.029-2.276 1.63.637 1.858 1.749z" class="prefix__cls-9" data-name="Path 11621" transform="translate(-156.623 -1057.947)"/>
                        <path id="prefix__Path_11622" d="M159.269 1063.646a2.67 2.67 0 0 1-2.359-2.333 3.033 3.033 0 0 1 .375-2.293 1.906 1.906 0 0 1 1.223-.83 2.553 2.553 0 0 1 2.684 2.3 3.024 3.024 0 0 1-.372 2.292 1.823 1.823 0 0 1-1.551.859zm-.439-4.059a.333.333 0 0 0-.066.007.47.47 0 0 0-.3.224 1.642 1.642 0 0 0-.16 1.206c.157.761.677 1.257 1.032 1.19a.468.468 0 0 0 .3-.224 1.664 1.664 0 0 0 .161-1.206c-.147-.716-.614-1.197-.967-1.197z" class="prefix__cls-7" data-name="Path 11622" transform="translate(-156.836 -1058.16)"/>
                    </g>
                </g>
            </g>
            <g id="prefix__Group_12255" data-name="Group 12255" transform="translate(193.598 1053.055)">
                <g id="prefix__Group_12245" data-name="Group 12245" transform="translate(0 41.293)">
                    <path id="prefix__Path_11623" d="M178.357 1112.131a5.791 5.791 0 0 1 2.892-.376 45.087 45.087 0 0 0 3.408-4.226s9.024-12.037 9.486-12.706l2.846-15.576 8.549-.067s-3.572 16.82-3.921 17.653-14.65 15.535-15.861 16.872c0 0-.784 2.174-1.323 3.518a11.01 11.01 0 0 1-1.91 2.677 11.6 11.6 0 0 1-2.2 2.261c-1.186.938-.559-.523-.559-.523s1.836-2.155 1.621-2.283c-.165-.1-1.09 1.143-2.392 2.2-.334.271-.664.537-.971.78-.805.634-1.487.3-.767-.509a9.262 9.262 0 0 1 1.05-1.026 7.5 7.5 0 0 0 .921-1.025 9.867 9.867 0 0 0 .941-1.062c-.053-.014-.037-.221-.4.054a23.215 23.215 0 0 1-1.88 1.688c-.391.247-1.17.814-1.17.814a8.82 8.82 0 0 1-1.44.559c-.393-.375.389-1.07.974-1.334a6.23 6.23 0 0 1 1.1-.935s1.393-1.554 1.149-1.77a21.57 21.57 0 0 0-2.2 1.417c-1.032.617-2.2 1.069-2.375.877-.3-.326.757-1.14.757-1.14s.778-.527 1.021-.723c.284-.23 1.073-.986 1.073-.986s2.61-2.768 2.363-2.956a2.121 2.121 0 0 0-1.286-.331c-.229.111-.516.54-.745.651a.718.718 0 0 1-.835-.221c-.191-.277.66-1.246.66-1.246a3.783 3.783 0 0 1 1.424-1z" class="prefix__cls-9" data-name="Path 11623" transform="translate(-173.162 -1078.46)"/>
                    <path id="prefix__Path_11624" d="M177.469 1123.588a1 1 0 0 1-.758-.314.982.982 0 0 1-.244-.818c-.832.358-1.155.394-1.467.1a1.044 1.044 0 0 1-.314-.944 1.53 1.53 0 0 1 .346-.7c-.667.2-1.143.16-1.414-.134a.907.907 0 0 1-.241-.71 2.5 2.5 0 0 1 1.085-1.478c.037-.026.777-.529 1.008-.714.271-.218 1.025-.942 1.028-.945.65-.69 1.393-1.527 1.829-2.075-.033.037-.073.081-.114.124a2.113 2.113 0 0 1-.574.472 1.424 1.424 0 0 1-1.736-.458c-.215-.315-.376-.875.713-2.12a4.4 4.4 0 0 1 1.76-1.206 6.551 6.551 0 0 1 2.846-.416c.5-.52 1.91-2.345 3.077-3.926 2.976-3.969 8.562-11.43 9.387-12.566l2.922-16 10.026-.078-.184.868c-.6 2.819-3.6 16.93-3.961 17.78-.231.549-3.116 3.647-12.351 13.264-1.728 1.8-3.082 3.208-3.546 3.71-.181.5-.82 2.255-1.283 3.407a8.474 8.474 0 0 1-1.673 2.45 3.45 3.45 0 0 0-.291.335 12.129 12.129 0 0 1-2.362 2.444c-.261.205-.949.747-1.539.3a.832.832 0 0 1-.312-.49l-.45.362a2.021 2.021 0 0 1-1.213.476zm4.111-4.748a.735.735 0 0 1 .385.117l.285.17.07.353v.007c.071-.084.157-.182.257-.291a7.081 7.081 0 0 0 1.407-2.024c.536-1.334 1.313-3.492 1.313-3.492l.143-.238c.351-.387 1.787-1.884 3.669-3.841 4.052-4.22 11.6-12.075 12.088-12.879.232-.634 2.259-9.975 3.672-16.607l-7.071.055-2.855 15.273c-.465.674-9.134 12.237-9.5 12.729-3.167 4.287-3.525 4.4-3.763 4.477a1.137 1.137 0 0 1-.6.019 5.077 5.077 0 0 0-2.312.365 2.171 2.171 0 0 0-.671.392 3.034 3.034 0 0 1 1.689.493l.255.192.041.351c.024.3.054.671-2.456 3.345.681-.479 1.11-.744 1.564-.341l.22.2.046.361a1.061 1.061 0 0 1-.144.589 2.931 2.931 0 0 1 .239-.2 1.083 1.083 0 0 1 .845-.275l.3.048.086.107.177.046.114.4a.742.742 0 0 1 .038.277.846.846 0 0 1 .469-.178z" class="prefix__cls-7" data-name="Path 11624" transform="translate(-173.374 -1078.675)"/>
                </g>
                <g id="prefix__Group_12246" data-name="Group 12246" transform="translate(13.801 75.237)">
                    <path id="prefix__Path_11625" d="M208.318 1111.886s-3.934 9.131-7.894 18.587c-.942 2.249-1.884 4.514-2.777 6.679h-13.975l6.359-30.37.382-1.834 4.383-1.893 3.595 2.35 4.379 2.855z" class="prefix__cls-9" data-name="Path 11625" transform="translate(-182.795 -1102.25)"/>
                    <path id="prefix__Path_11626" d="M198.385 1138.105h-15.328l7-33.425 5.074-2.191 14.345 9.369-.238.552c-.04.09-3.977 9.234-7.892 18.578-.939 2.248-1.881 4.513-2.775 6.675zm-13.574-1.425h12.62c.84-2.031 1.718-4.144 2.6-6.243 3.365-8.036 6.749-15.924 7.66-18.041l-12.7-8.294-3.69 1.595z" class="prefix__cls-7" data-name="Path 11626" transform="translate(-183.057 -1102.49)"/>
                </g>
                <path id="prefix__Path_11627" d="M205.571 1112.33s-3.934 8.86-7.9 18.31a58.645 58.645 0 0 1-2.765 6.408h-2.751a60.464 60.464 0 0 0 2.665-6.166c3.962-9.464 7.9-18.448 7.9-18.448l-5.545-3.566-4.376-2.817-2.68-1.735 1.938-.818 3.592 2.342 4.376 2.866z" class="prefix__cls-11" data-name="Path 11627" transform="translate(-166.251 -1026.823)"/>
                <g id="prefix__Group_12247" data-name="Group 12247" transform="translate(28.423 76.274)">
                    <path id="prefix__Path_11628" d="M209.458 1136.87h-12.836c-.154-2.041-.335-4.312-.527-6.679-.7-8.378-1.581-17.918-2-22.405-.154-1.629-.247-2.593-.247-2.593l.211-.07c1.541-.514 11.115-3.464 15.573 1.145a3.787 3.787 0 0 1 .633 1.535c.247.995.4 2.165.51 2.762.812 4.656-.248 14.605-1.317 26.305z" class="prefix__cls-9" data-name="Path 11628" transform="translate(-193.087 -1103.003)"/>
                    <path id="prefix__Path_11629" d="M210.337 1137.8h-14.149l-.05-.66c-.153-2.04-.334-4.309-.527-6.673-.5-6.014-1.173-13.549-2-22.4l-.3-3.144.753-.262c1.893-.63 11.587-3.548 16.306 1.327a4.092 4.092 0 0 1 .812 1.859c.192.774.332 1.642.433 2.275l.087.537c.747 4.283-.02 12.556-.992 23.029zm-12.825-1.425h11.524l.261-2.818c.924-9.956 1.72-18.557 1.008-22.65l-.091-.557c-.1-.612-.229-1.434-.409-2.158a3.02 3.02 0 0 0-.455-1.211c-3.928-4.062-12.5-1.693-14.509-1.069l.194 2.026c.824 8.853 1.5 16.393 2 22.412.171 2.112.334 4.15.476 6.021z" class="prefix__cls-7" data-name="Path 11629" transform="translate(-193.315 -1103.217)"/>
                </g>
                <path id="prefix__Path_11630" d="M207.356 1136.776h-2.494c1.069-11.4 2.124-21.375 1.326-26.036-.114-.6-.271-1.629-.513-2.627a3.319 3.319 0 0 0-.641-1.457 9.3 9.3 0 0 0-6.243-2.474c3.107-.2 6.542.247 8.737 2.527a3.7 3.7 0 0 1 .641 1.534c.242 1 .4 1.894.513 2.493.798 4.664-.257 14.637-1.326 26.04z" class="prefix__cls-11" data-name="Path 11630" transform="translate(-162.563 -1026.551)"/>
                <g id="prefix__Group_12248" data-name="Group 12248" transform="translate(19.409 27.132)">
                    <path id="prefix__Path_11631" d="M187.51 1093.07l8.964-.6s.443-8.013.443-11.836c0-4.636 1.413-11.474.861-11.346a10.908 10.908 0 0 0-5.472 3.521c-4.306 5.991-4.796 20.261-4.796 20.261z" class="prefix__cls-9" data-name="Path 11631" transform="translate(-186.77 -1068.508)"/>
                    <path id="prefix__Path_11632" d="M186.991 1094.064l.026-.788c.021-.592.553-14.556 4.93-20.655a11.676 11.676 0 0 1 5.89-3.8l.362-.083.331.262c.433.392.4.912-.03 4.359a65.461 65.461 0 0 0-.649 7.5c0 3.8-.44 11.795-.443 11.875l-.036.63zm10.4-23.612a10.21 10.21 0 0 0-4.287 3c-3.561 4.959-4.444 16.032-4.624 19.083l7.536-.5c.1-1.963.408-8.028.408-11.166a66.587 66.587 0 0 1 .66-7.681c.124-.988.258-2.052.309-2.736z" class="prefix__cls-7" data-name="Path 11632" transform="translate(-186.991 -1068.74)"/>
                </g>
                <g id="prefix__Group_12249" data-name="Group 12249" transform="translate(31.824 18.533)">
                    <path id="prefix__Path_11633" d="M203.652 1063.7l1.266 8.286s-4.622 9.865-7.381 9.01c-2.315-.718-.891-9.447-.891-9.447s1.261-4.688.884-7.033 6.122-.816 6.122-.816z" class="prefix__cls-9" data-name="Path 11633" transform="translate(-195.484 -1062.493)"/>
                    <path id="prefix__Path_11634" d="M198.084 1081.975a1.8 1.8 0 0 1-.54-.081c-2.7-.835-1.74-8.05-1.383-10.241.027-.117 1.232-4.638.882-6.806a1.58 1.58 0 0 1 .47-1.451c1.358-1.266 5.334-.45 6.518-.169l.469.11 1.373 8.974-.093.2c-1.08 2.301-4.68 9.464-7.696 9.464zm1.937-17.834a2.628 2.628 0 0 0-1.535.3c-.029.026-.056.051-.036.18.4 2.471-.844 7.135-.9 7.333-.61 3.769-.6 8.267.415 8.581 1.253.393 4.326-4.008 6.43-8.437l-1.159-7.587a17.06 17.06 0 0 0-3.215-.37z" class="prefix__cls-7" data-name="Path 11634" transform="translate(-195.701 -1062.708)"/>
                </g>
                <g id="prefix__Group_12252" data-name="Group 12252" transform="translate(27.167)">
                    <ellipse id="prefix__Ellipse_429" cx="2.599" cy="2.82" class="prefix__cls-2" data-name="Ellipse 429" rx="2.599" ry="2.82" transform="translate(0 5.022)"/>
                    <ellipse id="prefix__Ellipse_430" cx="2.599" cy="2.82" class="prefix__cls-2" data-name="Ellipse 430" rx="2.599" ry="2.82" transform="translate(.264 7.49)"/>
                    <g id="prefix__Group_12250" data-name="Group 12250" transform="translate(.697 10.082)">
                        <ellipse id="prefix__Ellipse_431" cx="2.071" cy="2.246" class="prefix__cls-9" data-name="Ellipse 431" rx="2.071" ry="2.246" transform="translate(.712 .713)"/>
                        <path id="prefix__Path_11635" d="M195.707 1062.7a2.965 2.965 0 1 1 2.782-2.959 2.878 2.878 0 0 1-2.782 2.959zm0-4.493a1.545 1.545 0 1 0 1.357 1.534 1.455 1.455 0 0 0-1.357-1.541z" class="prefix__cls-2" data-name="Path 11635" transform="translate(-192.923 -1056.778)"/>
                    </g>
                    <g id="prefix__Group_12251" data-name="Group 12251" transform="translate(1.816 4.841)">
                        <path id="prefix__Path_11636" d="M205.571 1056.068c.184-.067 1.472 9.436-.974 12.05s-7.211 3.471-8.921 1.411c-1.89-2.277-2.447-12.341 1.355-15.03s8.54 1.569 8.54 1.569z" class="prefix__cls-9" data-name="Path 11636" transform="translate(-193.495 -1052.885)"/>
                        <path id="prefix__Path_11637" d="M198.889 1071.606h-.21a4.347 4.347 0 0 1-3.34-1.4c-1.313-1.582-1.968-5.989-1.461-9.825.277-2.091 1.013-4.871 2.953-6.243 3.659-2.581 7.887.376 9.1 1.343l.145-.051.319.478c.495.752 1.522 10.158-1.063 12.919a9.3 9.3 0 0 1-6.443 2.779zm1.176-17.061a4.071 4.071 0 0 0-2.409.751c-1.187.84-2.027 2.708-2.365 5.265-.479 3.629.211 7.6 1.146 8.729a3.02 3.02 0 0 0 2.283.889 7.844 7.844 0 0 0 5.569-2.332c1.907-2.038 1.219-9.714.891-11.143a9.152 9.152 0 0 0-5.115-2.159z" class="prefix__cls-7" data-name="Path 11637" transform="translate(-193.708 -1053.101)"/>
                    </g>
                    <path id="prefix__Path_11638" d="M198.648 1050.58a10.588 10.588 0 0 1 5.543 3.14c1.334.157 3.149.89 5.022 3.971a7.673 7.673 0 0 1-2.078 10.044 6.029 6.029 0 0 0-2.651 4.45l-.418-1.243a6.831 6.831 0 0 1-.335-2.9 5.634 5.634 0 0 1 .433-1.742c.644-1.375-1.385-2.289-1.954-3.434-.439-.881-.46-2.9-1.15-4.353l-.825-1.112a5.262 5.262 0 0 0-3.764-1.055c-1.863.418-1.595-6.531 2.177-5.766z" class="prefix__cls-2" data-name="Path 11638" transform="translate(-191.196 -1049.358)"/>
                    <path id="prefix__Path_11639" d="M213.591 1063.009a2.85 2.85 0 0 0-1.428-2.514 3 3 0 0 0 .284-1.274 2.736 2.736 0 0 0-2.392-2.808c.007-.091.013-.183.013-.275a2.8 2.8 0 0 0-1.853-2.7v-.031a2.716 2.716 0 0 0-2.6-2.819 2.411 2.411 0 0 0-.855.16 2.444 2.444 0 0 0-3.519-.057 2.512 2.512 0 0 0-1.97-.984 2.616 2.616 0 0 0-2.425 1.807 2.42 2.42 0 0 0-1.012-.221 2.829 2.829 0 0 0 0 5.639 2.616 2.616 0 0 0 2.425-1.807 2.42 2.42 0 0 0 1.012.221 2.478 2.478 0 0 0 1.73-.72 2.513 2.513 0 0 0 1.97.985 2.422 2.422 0 0 0 .857-.16 2.572 2.572 0 0 0 1.039.657v.031a2.738 2.738 0 0 0 2.392 2.808c-.007.091-.013.182-.013.275a2.852 2.852 0 0 0 1.428 2.516 2.908 2.908 0 0 0-.221.67 2.742 2.742 0 0 0-2.352 2.807c0 .046 0 .09.006.135a2.85 2.85 0 0 0-1.415 2.507 2.608 2.608 0 1 0 5.2 0c0-.046 0-.09-.006-.134a2.8 2.8 0 0 0 1.354-1.906 2.742 2.742 0 0 0 2.351-2.808z" class="prefix__cls-2" data-name="Path 11639" transform="translate(-192.092 -1049.705)"/>
                    <path id="prefix__Path_11640" d="M200.249 1060.99c-.02 1.16.51 2.109 1.184 2.121s1.236-.919 1.256-2.08-.512-2.108-1.186-2.12-1.235.92-1.254 2.079z" class="prefix__cls-2" data-name="Path 11640" transform="translate(-189.11 -1045.789)"/>
                </g>
                <g id="prefix__Group_12253" data-name="Group 12253" transform="translate(19.166 27.406)">
                    <path id="prefix__Path_11641" d="M215.281 1097.5l9.71-1.569s-1.8-17.7-4.612-20.856a13.069 13.069 0 0 0-6.115-4.163c-2.851-.739-5.486-1.234-5.486-1.234s-7.295-.63-10.761.127-4.483 3.823-5.043 5.529c-.617 1.882-3.327 28.814-3.327 31.776s-2.268 14.241-2.268 14.241c7.184 2.836 26.152 1.639 26.152 1.639s-1.367-9.484-1.358-13.347c.006-2.249 1.283-9.512 2.685-16.811z" class="prefix__cls-9" data-name="Path 11641" transform="translate(-186.584 -1068.719)"/>
                    <path id="prefix__Path_11642" d="M204.783 1124.173c-5.969 0-13.4-.362-17.406-1.946l-.556-.218.118-.586c.024-.111 2.275-11.242 2.275-14.1 0-3 2.744-29.974 3.408-32 .5-1.537 1.683-5.137 5.656-6 3.528-.771 10.841-.165 11.151-.14.087.011 3.114.517 5.964 1.254l-.009.029c1.07.205 3.615 1.535 6.119 4.352 2.886 3.243 4.286 19.435 4.434 21.269l.054.657-11.115 1.8-.029-.306c-1.393 7.633-1.719 10.556-1.72 11.625-.009 3.767 1.343 13.149 1.357 13.243l.11.765-.771.048c-.348.017-4.223.254-9.04.254zm-16.327-3.067c6.467 2.186 21 1.609 24.509 1.428a127.007 127.007 0 0 1-1.263-12.677c0-1.951.911-7.653 2.7-16.946l.956-4.974.805 8.953 8.3-1.343c-.468-5.287-1.937-17.441-4.021-19.782-2.885-3.243-5.384-3.943-5.409-3.95-2.781-.718-5.747-1.213-5.778-1.217-.027 0-7.352-.6-10.67.118-3.176.694-4.141 3.639-4.6 5.056-.532 1.614-3.338 28.154-3.338 31.553-.007 2.633-1.712 11.375-2.191 13.781z" class="prefix__cls-7" data-name="Path 11642" transform="translate(-186.821 -1068.932)"/>
                </g>
                <path id="prefix__Path_11643" d="M209.381 1090.259a108.638 108.638 0 0 0-1.867 12.4c0 3.863 1.368 13.341 1.368 13.341s-4.846.3-10.562.242c4.39-.029 7.711-.242 7.711-.242s-1.368-9.479-1.368-13.341c.014-2.252 1.283-9.507 2.694-16.8l.413 4.661z" class="prefix__cls-11" data-name="Path 11643" transform="translate(-162.763 -1034.328)"/>
                <path id="prefix__Path_11644" d="M220.793 1095.934l-9.721 1.568-.043-.456 6.913-1.112s-1.81-17.7-4.618-20.853a13.028 13.028 0 0 0-6.115-4.162c-1.425-.371-2.794-.684-3.82-.9s-1.668-.342-1.668-.342-2.038-.171-4.461-.228c3.435-.1 7.312.228 7.312.228s.656.128 1.668.342 2.395.527 3.82.9a13.028 13.028 0 0 1 6.115 4.162c2.807 3.15 4.618 20.853 4.618 20.853z" class="prefix__cls-11" data-name="Path 11644" transform="translate(-163.214 -1041.314)"/>
                <path id="prefix__Path_11645" d="M207.277 1090.06l-1.2.2c.257-1.439.542-2.922.827-4.4z" class="prefix__cls-11" data-name="Path 11645" transform="translate(-159.463 -1034.328)"/>
                <g id="prefix__Group_12254" data-name="Group 12254" transform="translate(16.147 52.899)">
                    <path id="prefix__Path_11646" d="M218.662 1088.294a17.566 17.566 0 0 1-2.162-.144c.1 2.541.125 4.536.125 4.536l-16.228-.4v.006c-.316-.212-3.716-2.5-4.2-2.995-.51-.523-2.988-.261-3.643.459s1.457.131 2.04.523-.436 1.374-.436 1.374-4.114.6-4.915-.254-2.943-2.29-3.234-1.44c-.151.439.954 1.769 1.576 2.326-.777-.58-1.706-1.2-2.025-1.09-.583.2-.341.938-.024 1.156s3.58 2.71 4.091 2.885 8.09.358 9.4.649c0 0 21.4 4.872 22.615 4.568 1.068-.267 2.135-7.115 2.135-12.362v-.579a16.227 16.227 0 0 1-5.115.782z" class="prefix__cls-9" data-name="Path 11646" transform="translate(-184.49 -1086.524)"/>
                    <path id="prefix__Path_11647" d="M221.788 1101.455c-2.312 0-16.506-3.171-22.707-4.584-.664-.148-3.382-.281-5.567-.386a27.182 27.182 0 0 1-3.91-.285 25.366 25.366 0 0 1-3.69-2.547c-.294-.22-.5-.378-.573-.425a1.569 1.569 0 0 1-.624-1.442 1.193 1.193 0 0 1 .827-.975.3.3 0 0 1 .043-.014 1.2 1.2 0 0 1-.041-.778 1.07 1.07 0 0 1 .8-.713c1.165-.245 3.065 1.3 3.625 1.9.325.278 2.219.308 4.045.071.038-.046.077-.094.11-.14-.187-.006-.418 0-.57 0-.671.026-1.3.033-1.556-.532a.91.91 0 0 1 .238-1.039 4.56 4.56 0 0 1 2.939-.965 2.228 2.228 0 0 1 1.74.49c.282.291 2.188 1.622 3.907 2.778l15.287.379c-.017-.8-.051-2.182-.111-3.779l-.031-.837.831.1a16.6 16.6 0 0 0 2.075.138 15.588 15.588 0 0 0 4.886-.748l.931-.308.009 1.564c0 1.924-.492 12.507-2.674 13.055a1.09 1.09 0 0 1-.239.022zm-34.324-8.427c.945.7 2.313 1.7 2.618 1.829.227.044 1.966.128 3.5.2 2.943.144 5.081.258 5.811.419 7.792 1.775 20.455 4.524 22.217 4.567.651-.868 1.619-6.092 1.663-11.293a16.8 16.8 0 0 1-5.82.483c.071 2.146.1 3.732.1 3.732l.011.743-16.4-.408-.107.429-.844-.559c-.882-.59-3.8-2.56-4.317-3.089a1.481 1.481 0 0 0-.654-.078 1.084 1.084 0 0 1 .45.792 2.417 2.417 0 0 1-.831 1.658l-.165.158-.227.034c-1.346.192-4.58.541-5.535-.47a7.119 7.119 0 0 0-1.638-1.227 7.793 7.793 0 0 0 .975 1.094z" class="prefix__cls-7" data-name="Path 11647" transform="translate(-184.703 -1086.818)"/>
                </g>
                <path id="prefix__Path_11648" d="M223.74 1087.955v.584c0 5.245-1.041 12.087-2.11 12.358-1.226.3-22.62-4.575-22.62-4.575-1.311-.285-8.894-.47-9.393-.641s-3.763-2.666-4.091-2.894a.787.787 0 0 1-.257-.927 24.783 24.783 0 0 0 2.566 1.768c.5.171 8.1.356 9.407.656 0 0 21.587 4.86 22.813 4.561.941-.242 2.259-5.559 2.259-10.405v-.029c0-.014-.078-.014-.021-.029.642-.099 1.447-.256 1.447-.427z" class="prefix__cls-10" data-name="Path 11648" transform="translate(-168.343 -1033.435)"/>
                <path id="prefix__Path_11649" d="M211.141 1088.255v.028a.714.714 0 0 1-.171.029v-.029c.057-.014.114-.014.171-.028z" class="prefix__cls-10" data-name="Path 11649" transform="translate(-157.383 -1033.307)"/>
            </g>
            <g id="prefix__Group_12261" data-name="Group 12261" transform="translate(125.829 1065.09)">
                <g id="prefix__Group_12256" class="prefix__cls-3" data-name="Group 12256">
                    <path id="prefix__Path_11650" d="M163.673 1067.985v-6.8a2.531 2.531 0 0 0-2.53-2.531h-32.284a2.531 2.531 0 0 0-2.53 2.531v7.66a2.531 2.531 0 0 0 2.53 2.531h32.029a1.146 1.146 0 0 0 .255 0c1.983-.205-.958 4.1-.958 4.1 4.515-1.232 3.488-7.491 3.488-7.491z" class="prefix__cls-9" data-name="Path 11650" transform="translate(-125.616 -1057.936)"/>
                    <path id="prefix__Path_11651" d="M158.719 1076.882l1.09-1.6a10.6 10.6 0 0 0 1.511-2.982 1.719 1.719 0 0 1-.305-.011l-31.944.006a3.247 3.247 0 0 1-3.243-3.244v-7.661a3.245 3.245 0 0 1 3.243-3.243h32.284a3.245 3.245 0 0 1 3.243 3.243v6.751c.376 2.4.014 7.135-4.012 8.233zm2.767-6.018a1.193 1.193 0 0 1 1.089.567 2.007 2.007 0 0 1 .034 1.562 8.965 8.965 0 0 0 .574-4.679l-.01-.115v-6.807a1.819 1.819 0 0 0-1.817-1.817h-32.284a1.819 1.819 0 0 0-1.817 1.817v7.661a1.821 1.821 0 0 0 1.817 1.819h32.21a1.742 1.742 0 0 1 .204-.007z" class="prefix__cls-2" data-name="Path 11651" transform="translate(-125.829 -1058.149)"/>
                </g>
                <g id="prefix__Group_12260" data-name="Group 12260" transform="translate(10.254 3.591)">
                    <g id="prefix__Group_12257" class="prefix__cls-3" data-name="Group 12257">
                        <path id="prefix__Line_1482" d="M0 0L24.007 0" class="prefix__cls-9" data-name="Line 1482" transform="translate(0 .713)"/>
                        <path id="prefix__Rectangle_2807" d="M0 0H24.007V1.425H0z" class="prefix__cls-2" data-name="Rectangle 2807" transform="translate(.001)"/>
                    </g>
                    <g id="prefix__Group_12258" class="prefix__cls-3" data-name="Group 12258" transform="translate(0 2.326)">
                        <path id="prefix__Line_1483" d="M0 0L24.007 0" class="prefix__cls-9" data-name="Line 1483" transform="translate(0 .712)"/>
                        <path id="prefix__Rectangle_2808" d="M0 0H24.007V1.425H0z" class="prefix__cls-2" data-name="Rectangle 2808" transform="translate(.001)"/>
                    </g>
                    <g id="prefix__Group_12259" class="prefix__cls-3" data-name="Group 12259" transform="translate(14.261 4.651)">
                        <path id="prefix__Line_1484" d="M0 0L9.747 0" class="prefix__cls-9" data-name="Line 1484" transform="translate(0 .713)"/>
                        <path id="prefix__Rectangle_2809" d="M0 0H9.746V1.425H0z" class="prefix__cls-2" data-name="Rectangle 2809"/>
                    </g>
                </g>
            </g>
            <g id="prefix__Group_12267" data-name="Group 12267" transform="translate(248.495 1068.557)">
                <g id="prefix__Group_12262" class="prefix__cls-3" data-name="Group 12262">
                    <path id="prefix__Path_11652" d="M212.482 1069.033v-5.8a2.155 2.155 0 0 1 2.155-2.155h27.5a2.155 2.155 0 0 1 2.155 2.155v6.525a2.155 2.155 0 0 1-2.155 2.155h-27.28a1.016 1.016 0 0 1-.218 0c-1.689-.175.817 3.495.817 3.495-3.847-1.046-2.974-6.375-2.974-6.375z" class="prefix__cls-9" data-name="Path 11652" transform="translate(-211.673 -1060.368)"/>
                    <path id="prefix__Path_11653" d="M217.35 1076.821l-1.867-.509c-3.5-.954-3.82-5.042-3.5-7.123v-5.741a2.872 2.872 0 0 1 2.868-2.868h27.5a2.871 2.871 0 0 1 2.868 2.868v6.524a2.871 2.871 0 0 1-2.868 2.869h-27.28a.342.342 0 0 1-.054.006 9.947 9.947 0 0 0 1.241 2.375zm-2.5-14.815a1.444 1.444 0 0 0-1.442 1.442l-.01 5.911a8.129 8.129 0 0 0 .167 3.15 1.216 1.216 0 0 1 .157-.564 1.161 1.161 0 0 1 1.2-.524l.041-.006h27.383a1.444 1.444 0 0 0 1.442-1.444v-6.524a1.444 1.444 0 0 0-1.442-1.442z" class="prefix__cls-2" data-name="Path 11653" transform="translate(-211.889 -1060.581)"/>
                </g>
                <g id="prefix__Group_12266" data-name="Group 12266" transform="translate(4.043 3.057)">
                    <g id="prefix__Group_12263" class="prefix__cls-3" data-name="Group 12263">
                        <path id="prefix__Line_1485" d="M20.448 0L0 0" class="prefix__cls-9" data-name="Line 1485" transform="translate(0 .713)"/>
                        <path id="prefix__Rectangle_2810" d="M0 0H20.449V1.425H0z" class="prefix__cls-2" data-name="Rectangle 2810"/>
                    </g>
                    <g id="prefix__Group_12264" class="prefix__cls-3" data-name="Group 12264" transform="translate(0 1.981)">
                        <path id="prefix__Line_1486" d="M20.448 0L0 0" class="prefix__cls-9" data-name="Line 1486" transform="translate(0 .713)"/>
                        <path id="prefix__Rectangle_2811" d="M0 0H20.449V1.425H0z" class="prefix__cls-2" data-name="Rectangle 2811"/>
                    </g>
                    <g id="prefix__Group_12265" class="prefix__cls-3" data-name="Group 12265" transform="translate(0 3.961)">
                        <path id="prefix__Line_1487" d="M8.302 0L0 0" class="prefix__cls-9" data-name="Line 1487" transform="translate(0 .713)"/>
                        <path id="prefix__Rectangle_2812" d="M0 0H8.302V1.425H0z" class="prefix__cls-2" data-name="Rectangle 2812"/>
                    </g>
                </g>
            </g>
            <g id="prefix__Group_12273" data-name="Group 12273" transform="translate(188.013 1041.83)">
                <g id="prefix__Group_12268" class="prefix__cls-3" data-name="Group 12268">
                    <path id="prefix__Path_11654" d="M200.183 1049.886v-5.509a2.048 2.048 0 0 0-2.048-2.048H172a2.049 2.049 0 0 0-2.048 2.048v6.2a2.049 2.049 0 0 0 2.048 2.048h25.924a.906.906 0 0 0 .207 0c1.6-.165-.775 3.323-.775 3.323 3.657-.996 2.827-6.062 2.827-6.062z" class="prefix__cls-9" data-name="Path 11654" transform="translate(-169.244 -1041.618)"/>
                    <path id="prefix__Path_11655" d="M195.895 1057.355l1.088-1.6a9.769 9.769 0 0 0 1.163-2.2c-.031 0-.063 0-.094-.009l-25.836.006a2.764 2.764 0 0 1-2.759-2.76v-6.2a2.764 2.764 0 0 1 2.759-2.76h26.131a2.764 2.764 0 0 1 2.761 2.76v5.451c.308 1.993 0 5.9-3.348 6.807zm2.443-5.238a1.194 1.194 0 0 1 1.113.529 1.11 1.11 0 0 1 .133.365 7.863 7.863 0 0 0 .108-2.8l-.01-.114v-5.508a1.335 1.335 0 0 0-1.336-1.334h-26.131a1.335 1.335 0 0 0-1.334 1.334v6.2a1.336 1.336 0 0 0 1.334 1.334h25.926c.07-.003.136-.006.197-.006z" class="prefix__cls-2" data-name="Path 11655" transform="translate(-169.456 -1041.83)"/>
                </g>
                <g id="prefix__Group_12272" data-name="Group 12272" transform="translate(8.656 2.629)">
                    <g id="prefix__Group_12269" class="prefix__cls-3" data-name="Group 12269">
                        <path id="prefix__Line_1488" d="M0 0L19.432 0" class="prefix__cls-9" data-name="Line 1488" transform="translate(0 .712)"/>
                        <path id="prefix__Rectangle_2813" d="M0 0H19.432V1.425H0z" class="prefix__cls-2" data-name="Rectangle 2813"/>
                    </g>
                    <g id="prefix__Group_12270" class="prefix__cls-3" data-name="Group 12270" transform="translate(0 1.882)">
                        <path id="prefix__Line_1489" d="M0 0L19.432 0" class="prefix__cls-9" data-name="Line 1489" transform="translate(0 .713)"/>
                        <path id="prefix__Rectangle_2814" d="M0 0H19.432V1.425H0z" class="prefix__cls-2" data-name="Rectangle 2814"/>
                    </g>
                    <g id="prefix__Group_12271" class="prefix__cls-3" data-name="Group 12271" transform="translate(11.542 3.764)">
                        <path id="prefix__Line_1490" d="M0 0L7.889 0" class="prefix__cls-9" data-name="Line 1490" transform="translate(0 .713)"/>
                        <path id="prefix__Rectangle_2815" d="M0 0H7.89V1.425H0z" class="prefix__cls-2" data-name="Rectangle 2815"/>
                    </g>
                </g>
            </g>
        </g>
    </g>
</svg>
