<svg xmlns="http://www.w3.org/2000/svg" width="159.859" height="160" viewBox="0 0 159.859 160">
    <defs>
        <style>
            .prefix__cls-3{opacity:.429;isolation:isolate}.prefix__cls-4{fill:#f7657d}.prefix__cls-7{fill:#bf2640}.prefix__cls-11,.prefix__cls-9{fill:#fff}.prefix__cls-9{stroke:#bf2640;stroke-miterlimit:10}.prefix__cls-10{opacity:.28}.prefix__cls-12,.prefix__cls-13{fill:#f1647d}.prefix__cls-13{opacity:.2}
        </style>
    </defs>
    <g id="prefix__Group_12123" data-name="Group 12123" transform="translate(-1334.01 -1125.6)">
        <g id="prefix__Group_6942" data-name="Group 6942" transform="translate(1334.01 1125.6)">
            <g id="prefix__Rectangle_1795" data-name="Rectangle 1795" opacity="0.15" transform="translate(9.754 19.204)">
                <path id="prefix__Path_11413" fill="#ed4e67" d="M1428.815 1148.418l37.524 39.371a26.64 26.64 0 0 1-1.272 38.121L1425 1262.782a27.793 27.793 0 0 1-38.8-1.25l-37.524-39.371a26.643 26.643 0 0 1 1.272-38.122l40.069-36.87a27.79 27.79 0 0 1 38.798 1.249z" data-name="Path 11413" transform="translate(-1341.264 -1139.883)"/>
            </g>
            <g id="prefix__Ellipse_80" class="prefix__cls-3" data-name="Ellipse 80" transform="translate(130.919 148.08)">
                <path id="prefix__Path_11414" d="M1434.942 1242.764a3.553 3.553 0 0 1-3.535-3.084 3.461 3.461 0 0 1 .714-2.576 3.58 3.58 0 0 1 6.361 1.716 3.456 3.456 0 0 1-.714 2.576 3.556 3.556 0 0 1-2.391 1.343 3.652 3.652 0 0 1-.435.025zm.005-5.571a2.144 2.144 0 0 0-.261.016 2.1 2.1 0 0 0-1.416.792 2.012 2.012 0 0 0-.415 1.5 2.121 2.121 0 0 0 3.763 1 2.011 2.011 0 0 0 .417-1.5 2.091 2.091 0 0 0-2.088-1.808z" class="prefix__cls-4" data-name="Path 11414" transform="translate(-1431.38 -1235.733)"/>
            </g>
            <g id="prefix__Path_823" data-name="Path 823" transform="translate(15.921 142.997)" style="isolation:isolate" opacity="0.418">
                <path id="prefix__Path_11415" d="M1350.689 1248.956l.143-6.006-4.98-3.536 5.884-1.733 1.869-5.728 3.48 4.933 6.137-.011-3.72 4.8 1.908 5.722-5.779-1.985zm-1.542-8.991l3.161 2.244-.09 3.855 3.172-2.278 3.7 1.271-1.221-3.663 2.369-3.055-3.91.007-2.239-3.176-1.2 3.692z" class="prefix__cls-4" data-name="Path 11415" transform="translate(-1345.851 -1231.953)"/>
            </g>
            <g id="prefix__Path_828" data-name="Path 828" transform="translate(124.457 10.061)" style="isolation:isolate" opacity="0.369">
                <path id="prefix__Path_11416" d="M1431.8 1145.539l-1.051-4.23-4.172-1.569 3.8-2.3.221-4.355 3.379 2.82 4.295-1.151-1.685 4.052 2.434 3.671-4.437-.325zm-1.9-6.107l2.08.782.535 2.151 1.414-1.726 2.227.163-1.219-1.841.846-2.033-2.163.581-1.716-1.433-.112 2.208z" class="prefix__cls-4" data-name="Path 11416" transform="translate(-1426.573 -1133.083)"/>
            </g>
            <g id="prefix__Ellipse_81" class="prefix__cls-3" data-name="Ellipse 81" transform="translate(11.899 18.85)">
                <path id="prefix__Path_11417" d="M1348.435 1150.606a5.558 5.558 0 0 1-5.533-4.823 5.4 5.4 0 0 1 1.115-4.02 5.6 5.6 0 0 1 9.956 2.678 5.4 5.4 0 0 1-1.115 4.02 5.642 5.642 0 0 1-4.424 2.145zm.007-9.528a4.041 4.041 0 0 0-.507.031 4.112 4.112 0 0 0-2.769 1.552 3.955 3.955 0 0 0-.816 2.941 4.145 4.145 0 0 0 7.359 1.962 3.952 3.952 0 0 0 .816-2.941 4.094 4.094 0 0 0-4.084-3.544z" class="prefix__cls-4" data-name="Path 11417" transform="translate(-1342.859 -1139.62)"/>
            </g>
            <g id="prefix__Ellipse_80-2" class="prefix__cls-3" data-name="Ellipse 80-2" transform="translate(0 31.437)">
                <path id="prefix__Path_11418" d="M1337.572 1156.012a3.554 3.554 0 0 1-3.535-3.084 3.461 3.461 0 0 1 .714-2.576 3.58 3.58 0 0 1 6.361 1.716 3.457 3.457 0 0 1-.714 2.575 3.546 3.546 0 0 1-2.391 1.343 3.394 3.394 0 0 1-.435.026zm.005-5.572a2.145 2.145 0 0 0-1.677.809 2.01 2.01 0 0 0-.415 1.5 2.121 2.121 0 0 0 3.763 1 2.008 2.008 0 0 0 .417-1.495 2.092 2.092 0 0 0-2.088-1.814z" class="prefix__cls-4" data-name="Path 11418" transform="translate(-1334.01 -1148.981)"/>
            </g>
            <g id="prefix__Ellipse_81-2" class="prefix__cls-3" data-name="Ellipse 81" transform="translate(129.078 29.894)">
                <path id="prefix__Path_11419" d="M1434.762 1157.188a5.026 5.026 0 0 1-.581-.035 4.73 4.73 0 0 1-3.185-1.791 4.6 4.6 0 0 1-.949-3.422 4.77 4.77 0 0 1 8.476-2.28 4.6 4.6 0 0 1 .949 3.422 4.732 4.732 0 0 1-4.71 4.106zm-.007-8.112a3.487 3.487 0 0 0-3.477 3.017 3.37 3.37 0 0 0 .7 2.505 3.529 3.529 0 0 0 6.264-1.67 3.369 3.369 0 0 0-.7-2.5 3.5 3.5 0 0 0-2.357-1.322 3.6 3.6 0 0 0-.43-.029z" class="prefix__cls-4" data-name="Path 11419" transform="translate(-1430.01 -1147.834)"/>
            </g>
            <g id="prefix__Ellipse_80-2-2" class="prefix__cls-3" data-name="Ellipse 80-2" transform="translate(145.003 38.159)">
                <path id="prefix__Path_11420" d="M1445.421 1161.012a3.4 3.4 0 0 1-.436-.027 3.542 3.542 0 0 1-2.389-1.343 3.457 3.457 0 0 1-.715-2.575 3.58 3.58 0 0 1 6.361-1.716 3.455 3.455 0 0 1 .714 2.576 3.552 3.552 0 0 1-3.535 3.085zm0-5.572a2.092 2.092 0 0 0-2.088 1.808 2.008 2.008 0 0 0 .415 1.495 2.122 2.122 0 0 0 3.765-1 2.006 2.006 0 0 0-.417-1.5 2.145 2.145 0 0 0-1.675-.809z" class="prefix__cls-4" data-name="Path 11420" transform="translate(-1441.854 -1153.981)"/>
            </g>
            <g id="prefix__Group_12123-2" data-name="Group 12123" transform="translate(10.848 20.266)">
                <path id="prefix__Path_11421" d="M1417.692 1268.727a.659.659 0 0 1-.012-1.318c.852-.016 1.716-.074 2.567-.169a.65.65 0 0 1 .729.58.658.658 0 0 1-.581.729c-.891.1-1.8.161-2.69.179zm-2.633-.077h-.051c-.894-.07-1.795-.183-2.677-.336a.659.659 0 1 1 .226-1.3c.842.148 1.7.255 2.552.32a.659.659 0 0 1-.05 1.316zm7.862-.519a.659.659 0 0 1-.136-1.3c.839-.177 1.677-.4 2.489-.651a.659.659 0 0 1 .393 1.259c-.851.265-1.729.495-2.61.68a.6.6 0 0 1-.136.012zm-13.048-.385a.712.712 0 0 1-.175-.023c-.863-.238-1.726-.522-2.564-.84a.659.659 0 0 1 .469-1.232c.8.305 1.622.574 2.444.8a.659.659 0 0 1-.175 1.295zm18.072-1.185a.659.659 0 0 1-.257-1.267c.789-.332 1.57-.7 2.321-1.109a.659.659 0 1 1 .625 1.16c-.788.425-1.607.816-2.435 1.163a.63.63 0 0 1-.254.054zm-22.99-.69a.653.653 0 0 1-.292-.07q-.712-.351-1.412-.749l-.935-.53a.659.659 0 1 1 .651-1.147l.934.531c.445.253.893.489 1.346.714a.66.66 0 0 1-.293 1.25zm27.625-1.806a.659.659 0 0 1-.367-1.206c.713-.477 1.406-.992 2.064-1.533a.659.659 0 1 1 .836 1.018c-.69.567-1.418 1.109-2.166 1.609a.66.66 0 0 1-.367.114zm-32.231-.758a.642.642 0 0 1-.324-.086l-2.294-1.3a.659.659 0 0 1 .651-1.145l2.292 1.3a.658.658 0 0 1-.325 1.232zm36.3-2.584a.658.658 0 0 1-.467-1.124c.6-.6 1.183-1.244 1.725-1.906a.659.659 0 0 1 1.021.835c-.57.7-1.181 1.37-1.812 2a.658.658 0 0 1-.469.196zm-40.884-.016a.667.667 0 0 1-.325-.086l-2.292-1.3a.659.659 0 0 1 .651-1.147l2.293 1.3a.659.659 0 0 1-.325 1.233zm-4.585-2.6a.65.65 0 0 1-.325-.086l-2.292-1.3a.659.659 0 0 1 .651-1.147l2.292 1.3a.659.659 0 0 1-.325 1.231zm48.806-1.455a.659.659 0 0 1-.547-1.025c.277-.418.546-.846.8-1.284l.55-.934a.659.659 0 1 1 1.136.668l-.55.935q-.4.69-.843 1.346a.658.658 0 0 1-.548.293zm-53.392-1.147a.645.645 0 0 1-.324-.086l-2.292-1.3a.659.659 0 1 1 .651-1.147l2.292 1.3a.659.659 0 0 1-.327 1.232zm-4.585-2.6a.656.656 0 0 1-.324-.086l-2.293-1.3a.659.659 0 1 1 .651-1.146l2.292 1.3a.66.66 0 0 1-.327 1.233zm60.685-.776a.668.668 0 0 1-.333-.09.66.66 0 0 1-.234-.9l1.335-2.272a.659.659 0 1 1 1.136.668l-1.335 2.272a.659.659 0 0 1-.571.321zm-65.27-1.826a.667.667 0 0 1-.325-.086l-2.292-1.3a.659.659 0 0 1 .651-1.147l2.293 1.3a.659.659 0 0 1-.325 1.233zm-4.585-2.6a.65.65 0 0 1-.325-.086l-2.292-1.3a.659.659 0 0 1 .651-1.146l2.293 1.3a.659.659 0 0 1-.325 1.232zm72.525-.117a.659.659 0 0 1-.568-.992l1.335-2.274a.659.659 0 0 1 1.137.667l-1.336 2.274a.656.656 0 0 1-.569.323zm-77.112-2.485a.648.648 0 0 1-.324-.086l-2.292-1.3a.658.658 0 1 1 .65-1.146l2.294 1.3a.659.659 0 0 1-.327 1.232zm79.783-2.06a.651.651 0 0 1-.333-.091.66.66 0 0 1-.235-.9l1.336-2.272a.659.659 0 0 1 1.136.667l-1.335 2.272a.66.66 0 0 1-.57.322zm-84.368-.541a.658.658 0 0 1-.324-.086l-2.292-1.3a.659.659 0 0 1 .649-1.147l2.292 1.3a.659.659 0 0 1-.325 1.233zm-4.585-2.6a.652.652 0 0 1-.325-.086l-2.292-1.3a.659.659 0 0 1 .651-1.147l2.292 1.3a.658.658 0 0 1-.325 1.232zm91.623-1.4a.659.659 0 0 1-.567-.992l1.335-2.272a.659.659 0 1 1 1.136.667l-1.335 2.272a.657.657 0 0 1-.574.318zm-96.165-1.269a.652.652 0 0 1-.368-.113c-.746-.5-1.472-1.046-2.161-1.615a.659.659 0 0 1 .839-1.016c.656.542 1.349 1.06 2.059 1.54a.658.658 0 0 1-.368 1.2zm98.835-3.277a.671.671 0 0 1-.333-.09.66.66 0 0 1-.234-.9l1.335-2.272a.66.66 0 0 1 1.137.668l-1.336 2.272a.658.658 0 0 1-.569.315zm-102.893-.077a.657.657 0 0 1-.468-.195c-.632-.636-1.241-1.311-1.807-2.006a.659.659 0 0 1 1.022-.832c.539.661 1.119 1.3 1.721 1.909a.662.662 0 0 1 0 .933.653.653 0 0 1-.469.185zm-3.325-4.082a.656.656 0 0 1-.55-.3c-.5-.749-.96-1.532-1.378-2.323a.659.659 0 0 1 1.167-.615c.4.753.838 1.5 1.31 2.21a.658.658 0 0 1-.549 1.023zm108.89-.386a.661.661 0 0 1-.569-.994l1.336-2.272a.659.659 0 0 1 1.136.668l-1.335 2.272a.658.658 0 0 1-.569.317zm-111.348-4.269a.657.657 0 0 1-.61-.41c-.337-.83-.639-1.686-.894-2.548a.659.659 0 0 1 1.264-.374c.243.82.528 1.636.85 2.424a.658.658 0 0 1-.362.859.645.645 0 0 1-.247.043zm114.018-.276a.66.66 0 0 1-.567-.994l1.335-2.272a.659.659 0 0 1 1.136.668l-1.335 2.272a.66.66 0 0 1-.569.32zm2.67-4.546a.659.659 0 0 1-.567-.992l1.335-2.272a.659.659 0 1 1 1.136.667l-1.335 2.272a.657.657 0 0 1-.569.319zm-118.184-.224a.66.66 0 0 1-.647-.537c-.168-.881-.293-1.78-.374-2.673a.659.659 0 0 1 1.314-.117c.075.849.195 1.7.355 2.544a.659.659 0 0 1-.524.77.64.64 0 0 1-.127.007zm120.854-4.32a.66.66 0 0 1-.567-.992l1.335-2.274a.659.659 0 0 1 1.137.667l-1.336 2.274a.657.657 0 0 1-.569.319zm-121.321-.921h-.007a.66.66 0 0 1-.652-.667 26.909 26.909 0 0 1 .166-2.7.659.659 0 0 1 1.31.146c-.094.847-.148 1.71-.157 2.564a.659.659 0 0 1-.659.651zm123.992-3.624a.66.66 0 0 1-.567-.994l1.335-2.272c.183-.312.358-.625.527-.94a.659.659 0 1 1 1.162.621q-.264.5-.553.986l-1.335 2.272a.659.659 0 0 1-.568.321zm-123.4-1.607a.707.707 0 0 1-.14-.015.659.659 0 0 1-.506-.784 26.612 26.612 0 0 1 .7-2.607.658.658 0 1 1 1.253.4 25.634 25.634 0 0 0-.667 2.481.658.658 0 0 1-.644.519zm126.406-4.011a.659.659 0 0 1-.609-.91c.325-.789.616-1.6.861-2.421a.659.659 0 0 1 1.263.38c-.258.858-.562 1.714-.905 2.544a.659.659 0 0 1-.614.401zm-124.788-1a.661.661 0 0 1-.6-.924c.358-.819.762-1.631 1.2-2.416a.659.659 0 0 1 1.15.644c-.418.748-.8 1.522-1.146 2.3a.658.658 0 0 1-.608.394zm126.3-4.046a.682.682 0 0 1-.126-.012.66.66 0 0 1-.522-.772c.163-.838.284-1.693.362-2.543a.659.659 0 1 1 1.312.12c-.082.893-.21 1.792-.379 2.673a.659.659 0 0 1-.649.532zm-123.8-.587a.66.66 0 0 1-.567-.994l1.335-2.272a.659.659 0 0 1 1.136.668l-1.335 2.272a.66.66 0 0 1-.568.324zm2.67-4.546a.659.659 0 0 1-.568-.992l1.335-2.272a.66.66 0 0 1 1.137.668l-1.336 2.272a.658.658 0 0 1-.567.322zm121.6-.1a.658.658 0 0 1-.659-.653c-.01-.851-.061-1.714-.155-2.564a.659.659 0 1 1 1.31-.144 26.983 26.983 0 0 1 .163 2.7.66.66 0 0 1-.654.666zm-118.931-4.44a.651.651 0 0 1-.333-.091.658.658 0 0 1-.234-.9l1.335-2.274a.659.659 0 0 1 1.136.667l-1.335 2.274a.658.658 0 0 1-.565.317zm118.353-.792a.66.66 0 0 1-.644-.522c-.177-.836-.4-1.671-.657-2.484a.659.659 0 0 1 1.256-.4c.271.854.5 1.732.691 2.61a.659.659 0 0 1-.507.781.616.616 0 0 1-.135.008zm-115.683-3.753a.66.66 0 0 1-.567-.994l1.335-2.272a.659.659 0 0 1 1.136.667l-1.335 2.274a.659.659 0 0 1-.565.319zm114.085-1.262a.659.659 0 0 1-.6-.4c-.339-.782-.719-1.558-1.135-2.306a.659.659 0 1 1 1.152-.639c.436.784.836 1.6 1.193 2.423a.659.659 0 0 1-.6.92zm-111.415-3.283a.659.659 0 0 1-.567-.992l1.335-2.272a.659.659 0 1 1 1.136.667l-1.335 2.272a.657.657 0 0 1-.565.318zm108.862-1.32a.657.657 0 0 1-.543-.284c-.487-.7-1.014-1.389-1.565-2.038a.658.658 0 1 1 1-.852c.581.68 1.133 1.4 1.646 2.141a.659.659 0 0 1-.541 1.034zm-106.192-3.226a.659.659 0 0 1-.567-.992l1.335-2.272a.66.66 0 0 1 1.137.668l-1.335 2.272a.662.662 0 0 1-.565.317zm102.782-.785a.658.658 0 0 1-.458-.185c-.613-.592-1.264-1.16-1.936-1.693a.66.66 0 0 1 .819-1.034c.706.559 1.389 1.158 2.033 1.779a.659.659 0 0 1-.457 1.133zm-4.126-3.27a.661.661 0 0 1-.358-.106q-.651-.422-1.334-.808l-.9-.512a.659.659 0 1 1 .649-1.147l.9.512c.479.27.944.554 1.4.848a.659.659 0 0 1-.358 1.213zm-95.984-.49a.659.659 0 0 1-.567-.992l1.335-2.272a.659.659 0 0 1 1.136.667l-1.335 2.272a.657.657 0 0 1-.565.314zm91.422-2.151a.667.667 0 0 1-.325-.086l-2.292-1.3a.659.659 0 1 1 .651-1.146l2.292 1.3a.659.659 0 0 1-.325 1.233zm-88.751-2.393a.66.66 0 0 1-.567-.994l1.335-2.272a.659.659 0 0 1 1.136.667l-1.335 2.274a.66.66 0 0 1-.566.318zm84.167-.208a.658.658 0 0 1-.325-.086l-2.293-1.3a.659.659 0 0 1 .651-1.147l2.292 1.3a.66.66 0 0 1-.325 1.233zm-4.586-2.6a.643.643 0 0 1-.324-.086l-2.293-1.3a.659.659 0 1 1 .651-1.146l2.292 1.3a.659.659 0 0 1-.327 1.232zm-76.91-1.736a.659.659 0 0 1-.567-.992l1.335-2.272a.659.659 0 1 1 1.136.667l-1.335 2.272a.657.657 0 0 1-.566.316zm72.325-.865a.656.656 0 0 1-.324-.086l-2.294-1.3a.659.659 0 1 1 .651-1.146l2.294 1.3a.66.66 0 0 1-.327 1.233zm-4.585-2.6a.666.666 0 0 1-.325-.086l-2.292-1.3a.659.659 0 0 1 .651-1.146l2.292 1.3a.659.659 0 0 1-.325 1.233zm-65.068-1.078a.66.66 0 0 1-.569-.992l1.336-2.274a.659.659 0 0 1 1.136.667l-1.335 2.274a.658.658 0 0 1-.566.314zm60.483-1.523a.652.652 0 0 1-.325-.086l-2.292-1.3a.659.659 0 0 1 .651-1.147l2.292 1.3a.659.659 0 0 1-.325 1.232zm-4.586-2.6a.657.657 0 0 1-.324-.086l-2.293-1.3a.659.659 0 1 1 .651-1.145l2.292 1.3a.66.66 0 0 1-.327 1.233zm-53.212-.411a.659.659 0 0 1-.554-1.014c.483-.757 1.008-1.5 1.561-2.2a.659.659 0 0 1 1.037.814c-.527.669-1.027 1.375-1.487 2.1a.659.659 0 0 1-.555.288zm48.627-2.19a.643.643 0 0 1-.324-.086l-2.292-1.3a.659.659 0 0 1 .649-1.147l2.294 1.3a.659.659 0 0 1-.327 1.232zm-45.373-1.95a.659.659 0 0 1-.476-1.115c.621-.648 1.281-1.273 1.962-1.855a.659.659 0 1 1 .858 1c-.648.555-1.277 1.15-1.868 1.765a.657.657 0 0 1-.474.193zm40.788-.652a.657.657 0 0 1-.324-.086l-2.294-1.3a.659.659 0 0 1 .651-1.147l2.292 1.3a.659.659 0 0 1-.325 1.233zm-4.585-2.6a.648.648 0 0 1-.325-.086l-2.292-1.3a.659.659 0 0 1 .651-1.146l2.292 1.3a.659.659 0 0 1-.325 1.232zm-32.2-.172a.66.66 0 0 1-.379-1.2c.737-.515 1.506-1 2.284-1.437a.658.658 0 1 1 .647 1.147c-.741.42-1.474.88-2.176 1.372a.66.66 0 0 1-.378.104zm27.582-2.357a.648.648 0 0 1-.281-.063c-.774-.364-1.573-.7-2.376-.983a.659.659 0 0 1 .444-1.241c.843.3 1.682.649 2.494 1.031a.66.66 0 0 1-.281 1.256zm-23-.231a.659.659 0 0 1-.269-1.261c.82-.364 1.666-.692 2.516-.976a.658.658 0 1 1 .417 1.249c-.808.27-1.615.584-2.4.932a.644.644 0 0 1-.269.042zm18.044-1.546a.664.664 0 0 1-.161-.02c-.831-.21-1.678-.382-2.521-.511a.659.659 0 1 1 .2-1.3c.884.136 1.772.316 2.643.536a.659.659 0 0 1-.161 1.3zm-13.054-.124a.659.659 0 0 1-.148-1.3c.874-.2 1.767-.366 2.653-.485a.659.659 0 0 1 .175 1.307c-.844.113-1.7.269-2.531.463a.711.711 0 0 1-.15.001zm7.852-.675h-.038c-.858-.048-1.718-.057-2.572-.023a.659.659 0 1 1-.051-1.318c.9-.032 1.8-.026 2.7.026a.659.659 0 0 1-.036 1.316z" class="prefix__cls-7" data-name="Path 11421" transform="translate(-1342.078 -1140.673)"/>
            </g>
            <g id="prefix__Ellipse_80-2-3" class="prefix__cls-3" data-name="Ellipse 80" transform="translate(155.591 75.145)">
                <path id="prefix__Path_11422" d="M1451.862 1185.607a2.112 2.112 0 0 1-2.116-1.806 2 2 0 0 1 .413-1.492 2.159 2.159 0 0 1 3.823.986 2 2 0 0 1-.413 1.492 2.138 2.138 0 0 1-1.447.805 2.42 2.42 0 0 1-.26.015zm0-3.255a1.323 1.323 0 0 0-.159.009 1.271 1.271 0 0 0-.866.479 1.138 1.138 0 0 0-.238.851 1.3 1.3 0 0 0 2.284.563 1.135 1.135 0 0 0 .238-.85 1.247 1.247 0 0 0-1.257-1.052z" class="prefix__cls-4" data-name="Path 11422" transform="translate(-1449.729 -1181.489)"/>
            </g>
            <g id="prefix__Ellipse_81-3" data-name="Ellipse 81" transform="translate(128.367 133.765)" style="isolation:isolate" opacity="0.25">
                <path id="prefix__Path_11423" d="M1435.055 1236.074a5.558 5.558 0 0 1-5.531-4.823 5.4 5.4 0 0 1 1.116-4.02 5.6 5.6 0 0 1 9.955 2.678 5.4 5.4 0 0 1-1.116 4.021 5.643 5.643 0 0 1-4.424 2.143zm.007-9.528a4.261 4.261 0 0 0-.505.03 4.1 4.1 0 0 0-2.767 1.553 3.951 3.951 0 0 0-.818 2.942 4.146 4.146 0 0 0 7.359 1.962 3.96 3.96 0 0 0 .816-2.942 4.1 4.1 0 0 0-4.085-3.545z" class="prefix__cls-4" data-name="Path 11423" transform="translate(-1429.481 -1225.087)"/>
            </g>
            <g id="prefix__Ellipse_80-3" class="prefix__cls-3" data-name="Ellipse 80" transform="translate(48.219)">
                <path id="prefix__Path_11424" d="M1372 1129.718a2.112 2.112 0 0 1-2.116-1.806 2 2 0 0 1 .413-1.492 2.159 2.159 0 0 1 3.823.986 2 2 0 0 1-.413 1.494 2.142 2.142 0 0 1-1.448.8 2.364 2.364 0 0 1-.259.018zm0-3.255a1.347 1.347 0 0 0-1.026.488 1.144 1.144 0 0 0-.237.851 1.252 1.252 0 0 0 1.417 1.042 1.269 1.269 0 0 0 .867-.477 1.138 1.138 0 0 0 .238-.851 1.248 1.248 0 0 0-1.252-1.053z" class="prefix__cls-4" data-name="Path 11424" transform="translate(-1369.872 -1125.6)"/>
            </g>
            <g id="prefix__Ellipse_80-4" class="prefix__cls-3" data-name="Ellipse 80" transform="translate(104.421 20.549)">
                <path id="prefix__Path_11425" d="M1413.8 1145a2.112 2.112 0 0 1-2.116-1.806 2 2 0 0 1 .413-1.494 2.16 2.16 0 0 1 3.823.987 2 2 0 0 1-.413 1.492 2.138 2.138 0 0 1-1.447.805 2.388 2.388 0 0 1-.26.016zm0-3.255a1.251 1.251 0 0 0-.159.009 1.276 1.276 0 0 0-.866.479 1.139 1.139 0 0 0-.238.851 1.3 1.3 0 0 0 2.284.563 1.135 1.135 0 0 0 .238-.85 1.247 1.247 0 0 0-1.252-1.051z" class="prefix__cls-4" data-name="Path 11425" transform="translate(-1411.672 -1140.884)"/>
            </g>
            <g id="prefix__Ellipse_80-5" class="prefix__cls-3" data-name="Ellipse 80" transform="translate(12.928 42.381)">
                <path id="prefix__Path_11426" d="M1345.759 1161.239a2.113 2.113 0 0 1-2.118-1.806 2 2 0 0 1 .413-1.492 2.16 2.16 0 0 1 3.824.986 2 2 0 0 1-.414 1.494 2.129 2.129 0 0 1-1.447.8 2.082 2.082 0 0 1-.258.018zm0-3.255a1.285 1.285 0 0 0-.159.011 1.271 1.271 0 0 0-.867.477 1.139 1.139 0 0 0-.238.851 1.254 1.254 0 0 0 1.418 1.043 1.281 1.281 0 0 0 .867-.479 1.143 1.143 0 0 0 .237-.851 1.248 1.248 0 0 0-1.255-1.052z" class="prefix__cls-4" data-name="Path 11426" transform="translate(-1343.625 -1157.121)"/>
            </g>
            <g id="prefix__Ellipse_80-6" class="prefix__cls-3" data-name="Ellipse 80" transform="translate(18.156 128.43)">
                <path id="prefix__Path_11427" d="M1349.647 1225.238a2.116 2.116 0 0 1-2.118-1.807 2 2 0 0 1 .414-1.492 2.159 2.159 0 0 1 3.823.986 2 2 0 0 1-.413 1.492 2.2 2.2 0 0 1-1.706.822zm0-3.255a1.235 1.235 0 0 0-.159.01 1.275 1.275 0 0 0-.867.477 1.144 1.144 0 0 0-.237.851 1.256 1.256 0 0 0 1.417 1.043 1.277 1.277 0 0 0 .867-.479 1.137 1.137 0 0 0 .238-.851 1.247 1.247 0 0 0-1.256-1.052z" class="prefix__cls-4" data-name="Path 11427" transform="translate(-1347.513 -1221.119)"/>
            </g>
        </g>
        <g id="prefix__Group_12409" data-name="Group 12409" transform="translate(898.113 94.224)">
            <g id="prefix__Group_12321" data-name="Group 12321" transform="translate(538.834 1061.216)"/>
            <g id="prefix__Group_12346" class="prefix__cls-10" data-name="Group 12346" transform="translate(520.333 1062.4)">
                <g id="prefix__Group_12322" data-name="Group 12322" transform="translate(12.981)">
                    <path id="prefix__Path_11734" d="M492.323 1061.444s9.784-9.145 14.716-.513c0 0 8.99-3.508 5.719 11.519s-20.435-11.006-20.435-11.006z" class="prefix__cls-11" data-name="Path 11734" transform="translate(-491.142 -1056.315)"/>
                    <path id="prefix__Path_11735" d="M509.385 1078.438c-6.488 0-16.168-14.383-17.289-16.083l-.422-.642.559-.524c.227-.211 5.573-5.146 10.691-4.385a7.27 7.27 0 0 1 5.06 3.468 5.5 5.5 0 0 1 4.867.917c2.189 1.867 2.636 5.859 1.328 11.865-.686 3.153-2.049 4.944-4.054 5.317a3.987 3.987 0 0 1-.74.067zm-15.326-16.419c4.252 6.276 11.907 15.271 15.735 14.563 1.214-.227 2.091-1.543 2.607-3.916 1.436-6.6.395-9.134-.731-10.095-1.452-1.237-3.745-.393-3.768-.384l-.731.286-.389-.682a5.719 5.719 0 0 0-4.125-3.188c-3.368-.503-7.171 2.249-8.598 3.416z" class="prefix__cls-7" data-name="Path 11735" transform="translate(-491.674 -1056.724)"/>
                </g>
                <g id="prefix__Group_12343" data-name="Group 12343" transform="translate(0 6.709)">
                    <g id="prefix__Group_12337" data-name="Group 12337" transform="translate(12.533)">
                        <g id="prefix__Group_12336" data-name="Group 12336">
                            <g id="prefix__Group_12335" data-name="Group 12335">
                                <g id="prefix__Group_12334" data-name="Group 12334">
                                    <g id="prefix__Group_12333" data-name="Group 12333">
                                        <g id="prefix__Group_12332" data-name="Group 12332">
                                            <g id="prefix__Group_12325" data-name="Group 12325" transform="translate(10.51 15.299)">
                                                <g id="prefix__Group_12324" data-name="Group 12324">
                                                    <g id="prefix__Group_12323" data-name="Group 12323">
                                                        <path id="prefix__Path_11736" d="M509.6 1069.4l3.841 16.5c.411 3.468-3.852 8.963-7.287 9.582a6.6 6.6 0 0 1-7.767-6.294l-.662-17.644z" class="prefix__cls-11" data-name="Path 11736" transform="translate(-496.781 -1068.348)"/>
                                                        <path id="prefix__Path_11737" d="M505.4 1096.96a7.507 7.507 0 0 1-7.5-7.28l-.691-18.428 13.5-2.433 4.039 17.338c.48 4.03-4.021 9.965-8.015 10.682a7.507 7.507 0 0 1-1.333.121zm-6.317-24.2l.635 16.854a5.69 5.69 0 0 0 6.7 5.433c2.975-.535 6.892-5.666 6.547-8.579l-3.628-15.555z" class="prefix__cls-7" data-name="Path 11737" transform="translate(-497.204 -1068.82)"/>
                                                    </g>
                                                </g>
                                            </g>
                                            <g id="prefix__Group_12328" data-name="Group 12328">
                                                <g id="prefix__Group_12327" data-name="Group 12327">
                                                    <g id="prefix__Group_12326" data-name="Group 12326">
                                                        <path id="prefix__Path_11738" d="M496.462 1061.7a8.152 8.152 0 0 1 2.438-.711c7.871-1.028 13.947 8.472 14.507 15.482.311 3.879-1.312 7.889-4.634 9.867-4.858 2.889-11.052.793-14.07-3.737-1.941-2.913-1.485-7.94-2.464-11.485a7.934 7.934 0 0 1 4.223-9.416z" class="prefix__cls-11" data-name="Path 11738" transform="translate(-491.016 -1060.003)"/>
                                                        <path id="prefix__Path_11739" d="M504.352 1088.953a12.155 12.155 0 0 1-9.995-5.442c-1.33-2-1.627-4.764-1.91-7.437a28.086 28.086 0 0 0-.673-4.31 8.8 8.8 0 0 1 4.711-10.48 9.058 9.058 0 0 1 2.709-.791 10.981 10.981 0 0 1 8.4 2.631 21.092 21.092 0 0 1 7.136 13.679 11.326 11.326 0 0 1-5.075 10.722 10.314 10.314 0 0 1-5.303 1.428zm-3.885-26.723a7.7 7.7 0 0 0-1.037.067 7.268 7.268 0 0 0-2.167.632 7 7 0 0 0-3.734 8.351 29.723 29.723 0 0 1 .726 4.6c.262 2.452.531 4.993 1.616 6.617 2.922 4.385 8.686 5.937 12.849 3.461a9.509 9.509 0 0 0 4.192-9.014 19.138 19.138 0 0 0-6.468-12.411 9.495 9.495 0 0 0-5.977-2.303z" class="prefix__cls-7" data-name="Path 11739" transform="translate(-491.428 -1060.411)"/>
                                                    </g>
                                                </g>
                                            </g>
                                            <g id="prefix__Group_12331" data-name="Group 12331" transform="translate(19.678 7.774)">
                                                <g id="prefix__Group_12330" data-name="Group 12330">
                                                    <g id="prefix__Group_12329" data-name="Group 12329">
                                                        <path id="prefix__Path_11740" d="M504.328 1073.443a4.18 4.18 0 0 0 3.794-1.78 4.547 4.547 0 0 0 .235-4.238 3.681 3.681 0 0 0-3-2.242 2.6 2.6 0 0 0-2.609 2.4z" class="prefix__cls-11" data-name="Path 11740" transform="translate(-501.833 -1064.275)"/>
                                                        <path id="prefix__Path_11741" d="M505.136 1074.786a3.871 3.871 0 0 1-.506-.031l-.609-.073-1.778-6.694a3.208 3.208 0 0 1 1.033-2.289 3.587 3.587 0 0 1 2.515-1.015 4.575 4.575 0 0 1 3.8 2.773 5.438 5.438 0 0 1-.3 5.107 5.115 5.115 0 0 1-4.155 2.222zm-1.068-6.89l1.368 5.055a3.309 3.309 0 0 0 2.327-1.37 3.643 3.643 0 0 0 .175-3.366 2.771 2.771 0 0 0-2.205-1.71 1.755 1.755 0 0 0-1.2.506 1.47 1.47 0 0 0-.465.889z" class="prefix__cls-7" data-name="Path 11741" transform="translate(-502.243 -1064.684)"/>
                                                    </g>
                                                </g>
                                            </g>
                                        </g>
                                    </g>
                                </g>
                            </g>
                        </g>
                    </g>
                    <g id="prefix__Group_12342" data-name="Group 12342" transform="translate(0 31.439)">
                        <g id="prefix__Group_12341" data-name="Group 12341">
                            <g id="prefix__Group_12340" data-name="Group 12340">
                                <g id="prefix__Group_12338" data-name="Group 12338">
                                    <path id="prefix__Path_11742" d="M547.019 1141.288s-2.737-10.033-4.875-17.6c4.652-15.211 2.107-26.874-1.419-34.3a18.7 18.7 0 0 0-14.44-10.5 4.067 4.067 0 0 1-.85-.182 2.039 2.039 0 0 0-1.7.167 19 19 0 0 1-10.085 2.36c-3.322-.208-4.813-1.725-5.16-2.977a25.268 25.268 0 0 0-10.6 5.226c-5.619 4.867-16.841 31-11.4 36.228 2.524 2.426 14.241 4.094 14.241 4.094l-.515 17.476z" class="prefix__cls-11" data-name="Path 11742" transform="translate(-484.13 -1077.219)"/>
                                    <path id="prefix__Path_11743" d="M548.618 1142.67h-48.93l.519-17.607c-2.866-.446-11.592-1.963-13.939-4.218-1.214-1.168-1.794-3.169-1.721-5.946.24-9.389 8.286-27.406 13.157-31.629a26.316 26.316 0 0 1 11.037-5.431l.817-.149.222.8c.267.959 1.563 2.138 4.343 2.313a17.945 17.945 0 0 0 9.573-2.24 2.924 2.924 0 0 1 2.451-.237 3.45 3.45 0 0 0 .668.136 19.536 19.536 0 0 1 15.142 11.01c3.355 7.06 6.336 18.8 1.545 34.694 2.129 7.538 4.805 17.353 4.805 17.353zm-47.058-1.819h44.674c-.779-2.846-2.857-10.426-4.558-16.445l-.073-.258.078-.255c4.731-15.468 1.867-26.831-1.37-33.639a17.714 17.714 0 0 0-13.735-9.985 5.078 5.078 0 0 1-1.039-.227 1.116 1.116 0 0 0-.932.1 20.046 20.046 0 0 1-10.6 2.48c-3.115-.2-4.885-1.485-5.646-2.84a24.708 24.708 0 0 0-9.467 4.867c-4.178 3.621-12.291 20.952-12.531 30.3-.056 2.212.346 3.8 1.166 4.587 1.9 1.821 10.559 3.4 13.737 3.848l.806.116z" class="prefix__cls-7" data-name="Path 11743" transform="translate(-484.54 -1077.69)"/>
                                </g>
                                <g id="prefix__Group_12339" data-name="Group 12339" transform="translate(14.619 33.992)">
                                    <path id="prefix__Line_1491" d="M0 0L0.559 10.775" class="prefix__cls-11" data-name="Line 1491" transform="translate(.907 .047)"/>
                                    <path id="prefix__Rectangle_2816" d="M0 0H1.818V10.789H0z" class="prefix__cls-7" data-name="Rectangle 2816" transform="rotate(-2.98 1.806 .047)"/>
                                </g>
                            </g>
                        </g>
                    </g>
                </g>
                <g id="prefix__Group_12344" data-name="Group 12344" transform="translate(21.527 6.71)">
                    <path id="prefix__Path_11744" d="M496.948 1064.518s1.008 2.511 6.044 3.191 5.624 7.533 5.624 7.533-1.934-5.158.717-7.942-5.262-11.117-12.385-2.782z" class="prefix__cls-11" data-name="Path 11744" transform="translate(-495.898 -1060.004)"/>
                    <path id="prefix__Path_11745" d="M510.565 1082.177l-2.327-6.206a13.3 13.3 0 0 1-.653-2.806c-.62-1.754-1.85-3.821-4.243-4.145-5.5-.744-6.714-3.632-6.765-3.754l-.206-.513.358-.418c3.535-4.136 7.052-4.141 8.834-3.775a7.354 7.354 0 0 1 5.484 4.585 3.131 3.131 0 0 1-.582 3.191 5.482 5.482 0 0 0-1.1 4.38 13.406 13.406 0 0 1 .628 2.858zm-12.005-17.16c.533.638 1.9 1.776 5.027 2.2a6.255 6.255 0 0 1 4.17 2.418 5.753 5.753 0 0 1 1.39-2.555 1.386 1.386 0 0 0 .164-1.392 5.531 5.531 0 0 0-4.112-3.35c-1.614-.325-4.028-.101-6.639 2.679z" class="prefix__cls-7" data-name="Path 11745" transform="translate(-496.371 -1060.412)"/>
                </g>
                <g id="prefix__Group_12345" data-name="Group 12345" transform="translate(.277 1.868)">
                    <path id="prefix__Path_11746" d="M510.763 1059.923c1.585 4.354-2.764 9.933-9.713 12.46s-13.974 1.084-15.449-3.306c-2.651-7.895 8.344-8.117 11.987-8.064 7.432.105 11.592-5.444 13.175-1.09z" class="prefix__cls-11" data-name="Path 11746" transform="translate(-484.281 -1057.339)"/>
                    <path id="prefix__Path_11747" d="M494.7 1074.956a13.4 13.4 0 0 1-5.8-1.2 6.928 6.928 0 0 1-3.748-3.981 5.954 5.954 0 0 1 .528-5.659c1.812-2.482 5.97-3.71 12.334-3.6a17.95 17.95 0 0 0 7.607-1.75c1.921-.762 3.435-1.368 4.747-.773a3.276 3.276 0 0 1 1.663 2.032c.877 2.413.242 5.176-1.794 7.786a18.943 18.943 0 0 1-8.463 5.841 20.882 20.882 0 0 1-7.074 1.304zm2.686-12.626c-5.262 0-8.885 1.01-10.237 2.862a4.2 4.2 0 0 0-.275 4 5.162 5.162 0 0 0 2.813 2.924c2.908 1.4 7.3 1.332 11.463-.182a17.122 17.122 0 0 0 7.649-5.247c1.636-2.1 2.176-4.245 1.519-6.046a1.654 1.654 0 0 0-.7-1c-.6-.275-1.869.222-3.33.806a20.262 20.262 0 0 1-8.3 1.878c-.204.006-.406.006-.603.006z" class="prefix__cls-7" data-name="Path 11747" transform="translate(-484.692 -1057.751)"/>
                </g>
            </g>
            <g id="prefix__Group_12382" class="prefix__cls-10" data-name="Group 12382" transform="translate(440.863 1049.799)">
                <g id="prefix__Group_12347" data-name="Group 12347" transform="translate(22.114 12.042)">
                    <path id="prefix__Path_11748" d="M465.589 1064.08a5.6 5.6 0 0 0 .16-1.326 6.123 6.123 0 0 0-12.233 0 5.726 5.726 0 0 0 2.305 4.562 5.531 5.531 0 0 0-.162 1.328 6.124 6.124 0 0 0 12.234 0 5.732 5.732 0 0 0-2.304-4.564z" class="prefix__cls-11" data-name="Path 11748" transform="translate(-452.607 -1056.007)"/>
                    <path id="prefix__Path_11749" d="M462.189 1075.8a6.9 6.9 0 0 1-7.029-6.747 6.7 6.7 0 0 1 .073-.972 6.59 6.59 0 0 1-2.216-4.92 7.032 7.032 0 0 1 14.052 0 6.5 6.5 0 0 1-.073.974 6.587 6.587 0 0 1 2.218 4.918 6.9 6.9 0 0 1-7.025 6.747zm-2.145-17.564a5.079 5.079 0 0 0-5.207 4.926 4.815 4.815 0 0 0 1.945 3.841l.473.359-.14.577a4.782 4.782 0 0 0-.135 1.115 5.215 5.215 0 0 0 10.415 0 4.823 4.823 0 0 0-1.945-3.841l-.473-.358.138-.577a4.664 4.664 0 0 0 .135-1.115 5.077 5.077 0 0 0-5.206-4.927z" class="prefix__cls-7" data-name="Path 11749" transform="translate(-453.017 -1056.417)"/>
                </g>
                <g id="prefix__Group_12374" data-name="Group 12374">
                    <g id="prefix__Group_12372" data-name="Group 12372" transform="translate(0 .121)">
                        <g id="prefix__Group_12348" data-name="Group 12348" transform="translate(26.641)">
                            <path id="prefix__Path_11750" d="M479.772 1055.109s-11-10.277-16.538-.577c0 0-10.1-3.941-6.428 12.946s22.966-12.369 22.966-12.369z" class="prefix__cls-11" data-name="Path 11750" transform="translate(-455.098 -1049.455)"/>
                            <path id="prefix__Path_11751" d="M461.611 1074.046a4.564 4.564 0 0 1-.821-.075c-2.2-.411-3.7-2.393-4.465-5.89-1.461-6.7-.97-11.152 1.454-13.222a6.143 6.143 0 0 1 5.449-.988 8.091 8.091 0 0 1 5.648-3.914c5.711-.864 11.67 4.663 11.923 4.9l.56.524-.424.642c-1.252 1.902-12.098 18.023-19.324 18.023zm-.269-18.59a3.6 3.6 0 0 0-2.391.793c-1.283 1.1-2.473 3.985-.848 11.447.591 2.713 1.607 4.223 3.02 4.485 4.916.926 14.138-11.023 17.851-16.5-1.552-1.279-5.915-4.531-9.829-3.925a6.6 6.6 0 0 0-4.714 3.637l-.388.677-.731-.278a6.127 6.127 0 0 0-1.97-.336z" class="prefix__cls-7" data-name="Path 11751" transform="translate(-455.505 -1049.866)"/>
                        </g>
                        <g id="prefix__Group_12369" data-name="Group 12369" transform="translate(0 7.539)">
                            <g id="prefix__Group_12363" data-name="Group 12363" transform="translate(25.023)">
                                <g id="prefix__Group_12362" data-name="Group 12362">
                                    <g id="prefix__Group_12361" data-name="Group 12361">
                                        <g id="prefix__Group_12360" data-name="Group 12360">
                                            <g id="prefix__Group_12359" data-name="Group 12359">
                                                <g id="prefix__Group_12358" data-name="Group 12358">
                                                    <g id="prefix__Group_12351" data-name="Group 12351" transform="translate(.649 8.739)">
                                                        <g id="prefix__Group_12350" data-name="Group 12350">
                                                            <g id="prefix__Group_12349" data-name="Group 12349">
                                                                <path id="prefix__Path_11752" d="M460.463 1068.594a4.692 4.692 0 0 1-4.263-2 5.1 5.1 0 0 1-.262-4.761 4.13 4.13 0 0 1 3.375-2.52 2.925 2.925 0 0 1 2.929 2.7z" class="prefix__cls-11" data-name="Path 11752" transform="translate(-454.562 -1058.403)"/>
                                                                <path id="prefix__Path_11753" d="M460.423 1069.94a5.632 5.632 0 0 1-4.578-2.445 6 6 0 0 1-.326-5.631 5.03 5.03 0 0 1 4.174-3.051 4.169 4.169 0 0 1 2.746 1.112 3.492 3.492 0 0 1 1.123 2.489l-.031.244-1.941 7.178-.61.073a4.688 4.688 0 0 1-.557.031zm-.628-9.31h-.044a3.236 3.236 0 0 0-2.578 1.989 4.2 4.2 0 0 0 .2 3.89 3.836 3.836 0 0 0 2.8 1.6l1.565-5.793a1.729 1.729 0 0 0-.56-1.083 2.088 2.088 0 0 0-1.378-.603z" class="prefix__cls-7" data-name="Path 11753" transform="translate(-454.972 -1058.812)"/>
                                                            </g>
                                                        </g>
                                                    </g>
                                                    <g id="prefix__Group_12354" data-name="Group 12354" transform="translate(0 17.212)">
                                                        <g id="prefix__Group_12353" data-name="Group 12353">
                                                            <g id="prefix__Group_12352" data-name="Group 12352">
                                                                <path id="prefix__Path_11754" d="M459.463 1064.046l-4.318 18.537c-.462 3.9 4.329 10.073 8.19 10.77a7.419 7.419 0 0 0 8.73-7.074l.744-19.829z" class="prefix__cls-11" data-name="Path 11754" transform="translate(-454.207 -1062.996)"/>
                                                                <path id="prefix__Path_11755" d="M465.06 1094.852a8.3 8.3 0 0 1-1.477-.131c-4.349-.786-9.441-7.495-8.932-11.771l4.531-19.481 14.973 2.7-.771 20.617a8.328 8.328 0 0 1-8.322 8.066zm-4.5-29.285l-4.121 17.7c-.386 3.292 4 9.041 7.467 9.667a6.509 6.509 0 0 0 7.656-6.206l.715-19.045z" class="prefix__cls-7" data-name="Path 11755" transform="translate(-454.616 -1063.469)"/>
                                                            </g>
                                                        </g>
                                                    </g>
                                                    <g id="prefix__Group_12357" data-name="Group 12357" transform="translate(5.351)">
                                                        <g id="prefix__Group_12356" data-name="Group 12356">
                                                            <g id="prefix__Group_12355" data-name="Group 12355">
                                                                <path id="prefix__Path_11756" d="M477.142 1055.4a9.177 9.177 0 0 0-2.74-.8c-8.845-1.155-15.671 9.521-16.3 17.4-.349 4.359 1.476 8.866 5.207 11.088 5.46 3.248 11.885.491 15.813-4.2a18.472 18.472 0 0 0 4.44-12.567c-.237-4.501-2.462-9.055-6.42-10.921z" class="prefix__cls-11" data-name="Path 11756" transform="translate(-457.147 -1053.6)"/>
                                                                <path id="prefix__Path_11757" d="M468.771 1085.8a10.659 10.659 0 0 1-5.52-1.532c-3.828-2.278-6.046-6.965-5.648-11.941a23.589 23.589 0 0 1 7.979-15.3 12.212 12.212 0 0 1 9.347-2.933 10.111 10.111 0 0 1 3.011.879c3.939 1.863 6.661 6.452 6.936 11.7a19.357 19.357 0 0 1-4.647 13.2c-2.754 3.29-7.037 5.927-11.458 5.927zm4.742-29.976a10.779 10.779 0 0 0-6.787 2.622 21.631 21.631 0 0 0-7.311 14.027c-.34 4.289 1.528 8.306 4.767 10.233 5.207 3.1 11.112.224 14.653-4a17.517 17.517 0 0 0 4.227-11.934c-.242-4.585-2.556-8.566-5.9-10.146a8.326 8.326 0 0 0-2.469-.72 9.157 9.157 0 0 0-1.181-.077z" class="prefix__cls-7" data-name="Path 11757" transform="translate(-457.557 -1054.009)"/>
                                                            </g>
                                                        </g>
                                                    </g>
                                                </g>
                                            </g>
                                        </g>
                                    </g>
                                </g>
                            </g>
                            <g id="prefix__Group_12368" data-name="Group 12368" transform="translate(0 36.181)">
                                <g id="prefix__Group_12367" data-name="Group 12367">
                                    <g id="prefix__Group_12366" data-name="Group 12366">
                                        <g id="prefix__Group_12364" data-name="Group 12364">
                                            <path id="prefix__Path_11758" d="M441.518 1144.3s3.031-11.117 5.4-19.5c-5.155-16.854-2.336-29.776 1.572-38a20.716 20.716 0 0 1 16-11.628 4.709 4.709 0 0 0 .943-.2 2.261 2.261 0 0 1 1.878.184 21.021 21.021 0 0 0 11.174 2.616c3.683-.231 5.331-1.912 5.719-3.3a28 28 0 0 1 11.749 5.79c6.225 5.393 18.661 34.349 12.633 40.14-2.8 2.689-15.781 4.538-15.781 4.538l.571 19.363z" class="prefix__cls-11" data-name="Path 11758" transform="translate(-440.326 -1073.424)"/>
                                            <path id="prefix__Path_11759" d="M494.848 1145.679h-53.985l.313-1.15s2.971-10.9 5.331-19.252c-5.311-17.595-2.016-30.584 1.7-38.4a21.543 21.543 0 0 1 16.7-12.141 3.839 3.839 0 0 0 .757-.157 3.161 3.161 0 0 1 2.636.255 20.033 20.033 0 0 0 10.662 2.495c3.128-.2 4.594-1.543 4.9-2.636l.224-.8.815.149a29.008 29.008 0 0 1 12.182 6c5.384 4.663 14.276 24.583 14.545 34.969.078 3.05-.553 5.242-1.878 6.516-2.6 2.5-12.4 4.187-15.479 4.66zm-51.6-1.819h49.729l-.57-19.24.806-.116c3.53-.5 13.157-2.253 15.277-4.29.928-.892 1.385-2.677 1.321-5.156-.267-10.382-9.278-29.62-13.917-33.641a27.459 27.459 0 0 0-10.6-5.433c-.808 1.5-2.753 2.946-6.214 3.162a21.97 21.97 0 0 1-11.687-2.737 1.353 1.353 0 0 0-1.123-.113 5.511 5.511 0 0 1-1.117.244 19.741 19.741 0 0 0-15.3 11.119c-3.594 7.562-6.776 20.177-1.523 37.344l.078.256-.073.257c-1.915 6.757-4.255 15.292-5.088 18.344z" class="prefix__cls-7" data-name="Path 11759" transform="translate(-440.863 -1073.894)"/>
                                        </g>
                                        <g id="prefix__Group_12365" data-name="Group 12365" transform="translate(52.146 37.555)">
                                            <path id="prefix__Line_1492" d="M0.619 0L0 11.939" class="prefix__cls-11" data-name="Line 1492" transform="translate(.902 .047)"/>
                                            <path id="prefix__Rectangle_2817" d="M0 0H11.955V1.818H0z" class="prefix__cls-7" data-name="Rectangle 2817" transform="rotate(-87.08 6.28 5.968)"/>
                                        </g>
                                    </g>
                                </g>
                            </g>
                        </g>
                        <g id="prefix__Group_12370" data-name="Group 12370" transform="translate(55.115 1.12)"/>
                        <g id="prefix__Group_12371" data-name="Group 12371" transform="translate(29.788 7.545)">
                            <path id="prefix__Path_11761" d="M472.24 1058.565s-1.134 2.82-6.79 3.588-6.323 8.464-6.323 8.464 2.176-5.8-.8-8.925 5.909-12.492 13.913-3.127z" class="prefix__cls-11" data-name="Path 11761" transform="translate(-456.825 -1053.606)"/>
                            <path id="prefix__Path_11762" d="M458.061 1077.552l.57-6.606a14.881 14.881 0 0 1 .7-3.193 6.283 6.283 0 0 0-1.265-5.027 3.406 3.406 0 0 1-.628-3.475 8.131 8.131 0 0 1 6.081-5.078c1.974-.4 5.884-.395 9.816 4.208l.358.418-.206.511c-.055.137-1.4 3.323-7.513 4.15-2.747.373-4.156 2.74-4.862 4.745a14.8 14.8 0 0 1-.73 3.139zm7.127-21.73a6.566 6.566 0 0 0-6.01 3.974 1.667 1.667 0 0 0 .211 1.676 6.47 6.47 0 0 1 1.592 3.048 6.961 6.961 0 0 1 4.753-2.862c3.632-.491 5.2-1.876 5.777-2.595-2.352-2.539-4.581-3.241-6.323-3.241z" class="prefix__cls-7" data-name="Path 11762" transform="translate(-457.234 -1054.012)"/>
                        </g>
                    </g>
                    <g id="prefix__Group_12373" data-name="Group 12373" transform="translate(39.653)">
                        <path id="prefix__Path_11763" d="M484.4 1061.791a4.005 4.005 0 0 0-3.091-2.917 5.94 5.94 0 0 0-5.326-5.724 6.179 6.179 0 0 0-5.257-2.851 5.982 5.982 0 0 0-6.117 5.837 5.63 5.63 0 0 0 .144 1.257 4.994 4.994 0 0 0-1.594 3.681 4.861 4.861 0 0 0 4.78 4.938 4.693 4.693 0 0 0 3.541-1.622c-.009.126-.016.253-.016.382a4.082 4.082 0 0 0 3.868 4.265 3.566 3.566 0 0 0 1.667-.42 5.606 5.606 0 0 0 5.328 4.74 5.752 5.752 0 0 0 5.453-6.01 6.04 6.04 0 0 0-3.38-5.556z" class="prefix__cls-11" data-name="Path 11763" transform="translate(-462.246 -1049.389)"/>
                        <path id="prefix__Path_11764" d="M482.732 1074.677a6.437 6.437 0 0 1-5.941-4.447 4.348 4.348 0 0 1-1.052.127 4.863 4.863 0 0 1-4.6-3.777 5.578 5.578 0 0 1-2.791.751 5.776 5.776 0 0 1-5.69-5.848 5.945 5.945 0 0 1 1.521-3.979 6.529 6.529 0 0 1-.071-.961 6.9 6.9 0 0 1 7.025-6.745 7.162 7.162 0 0 1 5.79 2.922 6.9 6.9 0 0 1 5.657 5.85 4.985 4.985 0 0 1 2.971 2.982 6.978 6.978 0 0 1 3.544 6.2 6.665 6.665 0 0 1-6.363 6.925zm-4.671-7.027l.235 1.2a4.725 4.725 0 0 0 4.436 4 4.851 4.851 0 0 0 4.542-5.1 5.113 5.113 0 0 0-2.842-4.729l-.382-.173-.116-.4a3.123 3.123 0 0 0-2.371-2.272l-.748-.128-.009-.759a5.05 5.05 0 0 0-4.529-4.831l-.431-.053-.229-.369a5.3 5.3 0 0 0-4.485-2.422 5.078 5.078 0 0 0-5.206 4.926 4.717 4.717 0 0 0 .12 1.052l.12.517-.389.358a4.108 4.108 0 0 0-1.3 3.013 3.956 3.956 0 0 0 3.87 4.029 3.811 3.811 0 0 0 2.857-1.312l1.827-2.078-.237 2.757c-.007.1-.013.2-.013.3a3.179 3.179 0 0 0 2.96 3.357 2.613 2.613 0 0 0 1.239-.317z" class="prefix__cls-7" data-name="Path 11764" transform="translate(-462.656 -1049.799)"/>
                    </g>
                </g>
                <g id="prefix__Group_12379" data-name="Group 12379" transform="translate(.999 48.998)">
                    <g id="prefix__Group_12375" data-name="Group 12375" transform="translate(17.918 .338)">
                        <path id="prefix__Path_11765" d="M495.954 1115.287c-2.356 6.761-12.913 6.27-24.938 2.573l-.051-.017-.113-.034-1.654-.528c-.227-.075-.458-.151-.686-.229q-1.943-.652-3.912-1.4a134.13 134.13 0 0 1-12.707-5.641l.029-.071 1.228-3.2.42-1.088s.458.049 1.275.129c2.817.271 9.9.882 17.234.968a74.944 74.944 0 0 0 14.989-1.012c.189-.04.375-.08.557-.122a6.908 6.908 0 0 0-.127-.741c-5.939-20.258.555-24.141 2.729-26.967.001-.002 10.173 24.614 5.727 37.38z" class="prefix__cls-11" data-name="Path 11765" transform="translate(-450.741 -1076.102)"/>
                        <path id="prefix__Path_11766" d="M486.165 1122.238a52.364 52.364 0 0 1-14.9-2.7l-2.533-.815q-1.954-.655-3.941-1.414a134.019 134.019 0 0 1-12.791-5.675l-.742-.377 2.233-5.777 1.96.2c2.727.264 9.862.879 17.158.964a73.854 73.854 0 0 0 14.471-.926c-5.326-18.337-.475-23.723 2.136-26.619.306-.34.582-.646.808-.941l.962-1.248.6 1.454c.42 1.019 10.255 25.086 5.744 38.031-1.35 3.883-5.193 5.843-11.165 5.843zm-32.607-11.859c3.972 1.981 7.966 3.741 11.885 5.231q1.949.745 3.877 1.394l2.327.751c7.951 2.444 21.407 5.373 23.968-1.956 3.688-10.586-3.139-30.008-5.167-35.346-2.56 2.847-6.619 7.709-1.559 24.973a3.875 3.875 0 0 1 .118.615l.184 1.073-1.421.324a74.186 74.186 0 0 1-15.182 1.03c-7.364-.086-14.56-.708-17.311-.972l-.589-.06z" class="prefix__cls-7" data-name="Path 11766" transform="translate(-451.26 -1076.914)"/>
                    </g>
                    <g id="prefix__Group_12378" data-name="Group 12378">
                        <g id="prefix__Group_12376" data-name="Group 12376">
                            <path id="prefix__Path_11767" d="M487.656 1114.42c-34.449 11.625-45.046 4.018-45.046 4.018-4.092-32.538 11.235-41.039 11.235-41.039 2.525 4.17 1.785 12.447 1.785 12.447l-.661 16.241-.056.448-.027.211-.142 1.1v.022l.222.047c10.42 2.2 29.478-.258 29.478-.258z" class="prefix__cls-11" data-name="Path 11767" transform="translate(-440.999 -1076.178)"/>
                            <path id="prefix__Path_11768" d="M455.631 1122.354c-9.294 0-12.886-2.447-13.139-2.627l-.322-.231-.049-.395c-4.123-32.773 11.048-41.588 11.7-41.949l.766-.424.453.75c2.651 4.374 1.947 12.649 1.914 13l-.786 17.22c10.271 1.934 28.39-.368 28.574-.391l.655-.084 3.939 8.282-.97.326c-15.02 5.069-25.573 6.523-32.735 6.523zm-11.759-3.923c1.971 1.034 13.388 5.79 42.935-4l-2.493-5.242c-3.5.419-19.64 2.169-29.127.167l-1.063-.233.358-2.606.651-16.163c.011-.115.595-7-1.208-11.075-2.97 2.291-13.305 12.307-10.053 39.152z" class="prefix__cls-7" data-name="Path 11768" transform="translate(-441.412 -1076.728)"/>
                        </g>
                        <g id="prefix__Group_12377" data-name="Group 12377" transform="translate(42.442 22.617)">
                            <path id="prefix__Path_11769" d="M465.288 1097.614s3.814-8.681 9.612-7.908l1.749 6.276c-3.175 1.35-3.639 6.8-8.144 8.393z" class="prefix__cls-11" data-name="Path 11769" transform="translate(-464.287 -1088.749)"/>
                            <path id="prefix__Path_11770" d="M468.486 1105.914l-3.748-7.877.167-.38c.169-.38 4.145-9.272 10.566-8.444l.593.08 2.127 7.622-.737.313c-1.157.493-1.931 1.756-2.828 3.219-1.21 1.976-2.582 4.212-5.369 5.195zm-1.739-7.891l2.653 5.577c1.707-.891 2.706-2.522 3.675-4.1a10.641 10.641 0 0 1 2.953-3.561l-1.381-4.956h-.024c-4.112-.006-7.138 5.544-7.876 7.04z" class="prefix__cls-7" data-name="Path 11770" transform="translate(-464.738 -1089.158)"/>
                        </g>
                    </g>
                </g>
                <g id="prefix__Group_12380" data-name="Group 12380" transform="translate(14.563 79.606)">
                    <path id="prefix__Path_11771" d="M448.965 1094.714s17.578 3.5 27.92-.7" class="prefix__cls-11" data-name="Path 11771" transform="translate(-448.787 -1093.17)"/>
                    <path id="prefix__Path_11772" d="M463.545 1097.38a83.542 83.542 0 0 1-14.678-1.394l.355-1.783c.173.033 17.435 3.393 27.4-.653l.686 1.685c-4.029 1.635-9.06 2.145-13.763 2.145z" class="prefix__cls-7" data-name="Path 11772" transform="translate(-448.867 -1093.55)"/>
                </g>
                <g id="prefix__Group_12381" data-name="Group 12381" transform="translate(1.348 86.518)">
                    <path id="prefix__Path_11773" d="M442.125 1098.687s-1.068 5.768 12.462 5.46a103.541 103.541 0 0 0 32.338-6.33" class="prefix__cls-11" data-name="Path 11773" transform="translate(-441.193 -1096.965)"/>
                    <path id="prefix__Path_11774" d="M453.958 1105.453c-5.617 0-9.4-1.09-11.239-3.25a4.143 4.143 0 0 1-1.079-3.3l1.79.313a2.466 2.466 0 0 0 .721 1.859c1.1 1.248 3.892 2.731 10.824 2.544a103.528 103.528 0 0 0 32.04-6.272l.641 1.7A105.477 105.477 0 0 1 455 1105.44c-.354.008-.7.013-1.042.013z" class="prefix__cls-7" data-name="Path 11774" transform="translate(-441.604 -1097.349)"/>
                </g>
            </g>
            <g id="prefix__Group_12384" data-name="Group 12384" transform="translate(576.928 1127.368)">
                <g id="prefix__Group_12383" data-name="Group 12383">
                    <path id="prefix__Path_11775" d="M520.475 1105.783s-1.221-4.143-4.358-13.188" class="prefix__cls-11" data-name="Path 11775" transform="translate(-515.256 -1092.297)"/>
                    <path id="prefix__Path_11776" d="M519.991 1106.176c-.013-.042-1.254-4.234-4.347-13.148l1.721-.6c3.106 8.961 4.358 13.188 4.37 13.23z" class="prefix__cls-7" data-name="Path 11776" transform="translate(-515.644 -1092.431)"/>
                </g>
            </g>
            <g id="prefix__Group_12403" data-name="Group 12403" transform="translate(476.663 1080.688)">
                <g id="prefix__Group_12401" data-name="Group 12401">
                    <ellipse id="prefix__Ellipse_432" cx="16.26" cy="16.547" class="prefix__cls-12" data-name="Ellipse 432" rx="16.26" ry="16.547" transform="translate(16.091)"/>
                    <ellipse id="prefix__Ellipse_433" cx="6.768" cy="6.888" class="prefix__cls-12" data-name="Ellipse 433" rx="6.768" ry="6.888" transform="translate(9.892 2.771)"/>
                    <g id="prefix__Group_12400" data-name="Group 12400" transform="translate(0 2.293)">
                        <g id="prefix__Group_12389" data-name="Group 12389" transform="translate(19.781)">
                            <g id="prefix__Group_12388" data-name="Group 12388" transform="translate(0 1.113)">
                                <g id="prefix__Group_12387" data-name="Group 12387">
                                    <g id="prefix__Group_12386" data-name="Group 12386">
                                        <g id="prefix__Group_12385" data-name="Group 12385">
                                            <path id="prefix__Path_11777" d="M496.186 1075.228c-2.371-3.654-6.437-6.4-10.661-6.052a8.865 8.865 0 0 0-2.684.653c-5.519 2.289-7.485 8.859-7.087 14.982a2.877 2.877 0 0 0-2.629.421 4 4 0 0 0-1.1 3.925 4.935 4.935 0 0 0 3.017 3.493 4.374 4.374 0 0 0 2.72-.025c.138.269.282.533.439.791l.77 14.976a7.178 7.178 0 1 0 14.3-1.141l-1.1-9.411c3.41-1.916 5.646-5.813 6.37-9.929a17.884 17.884 0 0 0-2.355-12.683z" class="prefix__cls-11" data-name="Path 11777" transform="translate(-471 -1068.238)"/>
                                            <path id="prefix__Path_11778" d="M486.557 1116.663h-.2a8.043 8.043 0 0 1-7.889-7.813l-.757-14.747-.007-.016a5.129 5.129 0 0 1-2.56-.169 5.841 5.841 0 0 1-3.6-4.147 4.9 4.9 0 0 1 1.408-4.834 3.56 3.56 0 0 1 2.253-.768c-.106-5.748 1.843-12.343 7.693-14.769a9.74 9.74 0 0 1 2.957-.721c4.225-.351 8.725 2.191 11.5 6.463a18.749 18.749 0 0 1 2.484 13.337 15.2 15.2 0 0 1-6.294 10.249l1.034 8.825a8.115 8.115 0 0 1-8.026 9.11zm-7.919-24.722l.346.679c.127.249.26.495.406.733l.118.2.781 15.206a6.269 6.269 0 1 0 12.487-.984l-1.172-10.016.528-.3c2.977-1.672 5.189-5.147 5.921-9.294a16.913 16.913 0 0 0-2.222-12.029c-2.411-3.721-6.252-5.913-9.822-5.642a8.039 8.039 0 0 0-2.411.588c-5.342 2.216-6.874 8.726-6.527 14.083l.086 1.316-1.261-.389a2.014 2.014 0 0 0-1.785.255 3.1 3.1 0 0 0-.788 3.018 4.042 4.042 0 0 0 2.433 2.842 3.474 3.474 0 0 0 2.151-.04z" class="prefix__cls-7" data-name="Path 11778" transform="translate(-471.41 -1068.647)"/>
                                        </g>
                                        <path id="prefix__Path_11779" d="M493.039 1087.906c-.722 4.112-2.969 8.022-6.377 9.927l1.1 9.425a7.18 7.18 0 0 1-7.3 8.062 7.893 7.893 0 0 1-1.845-.28 7.189 7.189 0 0 0 5.135-7.782l-1.1-9.425c3.41-1.905 5.655-5.815 6.377-9.927a17.9 17.9 0 0 0-2.345-12.673 13.282 13.282 0 0 0-7.922-5.857 9.276 9.276 0 0 1 1.263-.2c4.232-.34 8.3 2.407 10.67 6.057a17.914 17.914 0 0 1 2.344 12.673z" class="prefix__cls-13" data-name="Path 11779" transform="translate(-465.502 -1068.237)"/>
                                    </g>
                                </g>
                            </g>
                            <path id="prefix__Path_11780" d="M496.538 1073.727a4.091 4.091 0 0 1 1.135 2.629c.073 1.949-1.3 4.467-9.729 2.964-7.844-1.4-7.178 4.285-12.4 2.678l-2.98-1.852s5.726-17.575 19.209-10.382a21.79 21.79 0 0 1 4.765 3.963z" class="prefix__cls-12" data-name="Path 11780" transform="translate(-470.467 -1068.036)"/>
                        </g>
                        <g id="prefix__Group_12399" data-name="Group 12399" transform="translate(0 37.621)">
                            <g id="prefix__Group_12397" data-name="Group 12397">
                                <g id="prefix__Group_12390" data-name="Group 12390">
                                    <path id="prefix__Path_11781" d="M513.458 1090.9c-3.866-2.056-8.339-1.617-11.374-1.687-.164 1.174-1.492 2.746-4.978 3.4a16.218 16.218 0 0 1-10.167-1.132c-.084.013-.171.032-.255.047l.016-.213c-1.759-.011-8.317 1.072-10.471 2.9-6.6 5.6-14.361 25.276-15.184 34.487-.26 2.926 7.167 2.351 13.6 1.317-.653 4.823-1.163 9.693-1.163 9.693l45.637-2.929s8.828-.122 11.1-2.655c4.906-5.458-10.007-39.634-16.761-43.228z" class="prefix__cls-11" data-name="Path 11781" transform="translate(-460.129 -1088.299)"/>
                                    <path id="prefix__Path_11782" d="M472.872 1141.1l.113-1.072c0-.046.435-4.149 1-8.513-10.439 1.545-12.14-.042-12.713-.575a2.254 2.254 0 0 1-.728-1.908c.8-8.945 8.373-28.9 15.5-34.948 2.394-2.029 9.17-2.964 11.037-2.964h.027l.977-.146-.029.309a15.337 15.337 0 0 0 9.285.885c3.144-.588 4.148-1.947 4.247-2.647l.113-.812.808.013c.5.015 1.041.007 1.6 0 2.98-.024 6.75-.036 10.177 1.785 5.833 3.1 15.742 24.571 17.806 36.235.746 4.229.488 6.976-.793 8.4-2.471 2.748-10.824 2.944-11.769 2.955zm3.246-11.761l-.166 1.215c-.462 3.417-.855 6.89-1.044 8.592l44.56-2.86c3.306-.047 9.025-.728 10.484-2.354.491-.544 1.188-2.162.357-6.869-2.085-11.791-12.016-32.365-16.867-34.948-3.02-1.606-6.51-1.586-9.314-1.572-.331 0-.659.009-.961 0-.459 1.063-1.767 2.678-5.486 3.372a17.2 17.2 0 0 1-10.446-1.084l-.881.151-.047-.3c-2.333.215-7.4 1.214-9.081 2.642-6.186 5.246-14.016 24.371-14.865 33.874a.443.443 0 0 0 .158.413c.409.384 2.522 1.51 12.387-.076z" class="prefix__cls-7" data-name="Path 11782" transform="translate(-460.538 -1088.712)"/>
                                </g>
                                <path id="prefix__Path_11783" d="M462.428 1112.3c1.645-.16 3.39-.4 5.055-.662-.04.262-.06.522-.1.762a23.144 23.144 0 0 1-4.955-.1z" class="prefix__cls-13" data-name="Path 11783" transform="translate(-458.99 -1069.922)"/>
                                <path id="prefix__Path_11784" d="M472.612 1091.03a25.267 25.267 0 0 1 4.612-.661l-.02.22.24-.06a15.941 15.941 0 0 0 3.79 1.2 16.343 16.343 0 0 1-8.622-.699z" class="prefix__cls-13" data-name="Path 11784" transform="translate(-450.644 -1087.354)"/>
                                <path id="prefix__Path_11785" d="M524.625 1134.133c-2.285 2.527-11.11 2.647-11.11 2.647l-45.642 2.928s.02-.14.04-.382l39.587-2.546s8.823-.12 11.11-2.647c4.893-5.455-10.007-39.627-16.765-43.217a15 15 0 0 0-5.395-1.543.483.483 0 0 0 .04-.162c3.028.08 7.5-.36 11.37 1.7 6.758 3.595 21.658 37.767 16.765 43.222z" class="prefix__cls-13" data-name="Path 11785" transform="translate(-454.528 -1088.303)"/>
                                <path id="prefix__Path_11786" d="M488.683 1089.373c-.242 1.162-1.625 2.605-4.955 3.248a17.045 17.045 0 0 1-6.377.06l.362-.06c3.49-.662 4.833-2.225 4.993-3.41 1.665.04 3.77-.06 5.977.162z" class="prefix__cls-13" data-name="Path 11786" transform="translate(-446.76 -1088.303)"/>
                                <g id="prefix__Group_12391" data-name="Group 12391" transform="translate(56.043 26.382)">
                                    <path id="prefix__Line_1493" d="M1.181 9.765L0 0" class="prefix__cls-11" data-name="Line 1493" transform="translate(.903 .109)"/>
                                    <path id="prefix__Rectangle_2818" d="M0 0H1.818V9.835H0z" class="prefix__cls-7" data-name="Rectangle 2818" transform="rotate(-6.78 1.819 .106)"/>
                                </g>
                                <g id="prefix__Group_12396" data-name="Group 12396" transform="translate(1.473 34.361)">
                                    <g id="prefix__Group_12395" data-name="Group 12395">
                                        <g id="prefix__Group_12394" data-name="Group 12394">
                                            <g id="prefix__Group_12393" data-name="Group 12393">
                                                <g id="prefix__Group_12392" data-name="Group 12392">
                                                    <path id="prefix__Path_11787" d="M501.18 1108.172s-26.845 5.508-26.681 4.636l.027-.151a22.418 22.418 0 0 1-7.815 1.346 24.083 24.083 0 0 1-4.847-.477 23.4 23.4 0 0 0 .822 5.9c4.008 13.736 40.975-5.007 40.975-5.007z" class="prefix__cls-11" data-name="Path 11787" transform="translate(-460.925 -1107.126)"/>
                                                    <path id="prefix__Path_11788" d="M472.089 1125.828a14.308 14.308 0 0 1-5.653-.981 7.108 7.108 0 0 1-4.2-4.7 24.041 24.041 0 0 1-.859-6.13l-.029-1.145 1.123.227a23.206 23.206 0 0 0 4.663.46 21.618 21.618 0 0 0 7.5-1.29l1.525-.562-.142.713c3.635-.358 16.971-2.946 25.4-4.676l.746-.153 3.075 7.726-.742.377c-.946.485-20.14 10.134-32.407 10.134zm-8.843-10.735a20.637 20.637 0 0 0 .737 4.547 5.3 5.3 0 0 0 3.177 3.539c8.963 3.87 31.394-6.608 35.77-8.736l-1.89-4.756c-20.924 4.281-25.207 4.7-26.325 4.489a24.878 24.878 0 0 1-11.469.917z" class="prefix__cls-7" data-name="Path 11788" transform="translate(-461.348 -1107.597)"/>
                                                </g>
                                            </g>
                                        </g>
                                    </g>
                                </g>
                            </g>
                            <g id="prefix__Group_12398" data-name="Group 12398" transform="translate(26.579 .084)">
                                <path id="prefix__Path_11789" d="M475.468 1091.239s2.513 2.111 8.384 1.5a10.25 10.25 0 0 0 5-1.807 5.526 5.526 0 0 0 1.758-1.961" class="prefix__cls-11" data-name="Path 11789" transform="translate(-474.882 -1088.58)"/>
                                <path id="prefix__Path_11790" d="M482.075 1093.94c-4.691 0-6.827-1.741-6.929-1.827l1.17-1.394-.584.7.577-.7c.024.02 2.38 1.85 7.715 1.3a9.323 9.323 0 0 0 4.558-1.636 4.616 4.616 0 0 0 1.476-1.623l1.638.79a6.374 6.374 0 0 1-2.038 2.3 11.17 11.17 0 0 1-5.446 1.976 20.936 20.936 0 0 1-2.137.114z" class="prefix__cls-7" data-name="Path 11790" transform="translate(-475.146 -1088.758)"/>
                            </g>
                        </g>
                    </g>
                    <path id="prefix__Path_11791" d="M474.1 1083.493s2.256 0 2.105 3.222 2.442-9.027 7.549-8.637 7.385-14.256-3.3-5.994-6.354 11.409-6.354 11.409z" class="prefix__cls-12" data-name="Path 11791" transform="translate(-450.135 -1064.499)"/>
                    <path id="prefix__Path_11792" d="M485.965 1070.8s7.818-1.4 3.268 10.784 1.477-3.666-1.838-6.1-1.43-4.684-1.43-4.684z" class="prefix__cls-12" data-name="Path 11792" transform="translate(-440.139 -1063.518)"/>
                </g>
                <g id="prefix__Group_12402" data-name="Group 12402" transform="translate(40.698 72.033)">
                    <path id="prefix__Path_11793" d="M483.472 1109.253s11-6.452 16.4 1.8 2.464 6.9 2.464 6.9-1.128-1.865-1.128.082-4.136-2.263-4.136-2.263.075.979-4.889-1.2c0 0-3.91 2.708-5.864.752s-2.847-6.071-2.847-6.071z" class="prefix__cls-11" data-name="Path 11793" transform="translate(-482.442 -1105.965)"/>
                    <path id="prefix__Path_11794" d="M501.3 1119.862c-.595 0-1.718-.408-3.948-2.589-.708.1-1.985-.153-4.629-1.285-1.2.717-4.552 2.407-6.588.369-2.122-2.12-3.055-6.335-3.093-6.514l-.14-.644.569-.333c.115-.069 11.823-6.789 17.62 2.085 3.95 6.039 3.685 7.236 3.071 7.944a1.475 1.475 0 0 1-1.749.277 1.228 1.228 0 0 1-.63.586 1.189 1.189 0 0 1-.483.104zm-4.873-6.115l1.75 1.781a18.313 18.313 0 0 0 2.627 2.252 1.273 1.273 0 0 1 .873-1.108 1.084 1.084 0 0 1 .619.005 35.216 35.216 0 0 0-2.729-4.731c-4.229-6.468-12.305-2.993-14.58-1.832a12.407 12.407 0 0 0 2.433 4.956c1.155 1.157 3.852-.267 4.705-.857l.417-.289.466.2a19.208 19.208 0 0 0 3.548 1.285z" class="prefix__cls-7" data-name="Path 11794" transform="translate(-482.906 -1106.365)"/>
                </g>
            </g>
            <g id="prefix__Group_12408" data-name="Group 12408" transform="translate(521.908 1135.442)">
                <g id="prefix__Group_12404" data-name="Group 12404" transform="translate(0 28.73)">
                    <path id="prefix__Path_11795" d="M487.462 1116.272h19.445v-3.115h-19.445a1.558 1.558 0 0 0-1.557 1.557 1.557 1.557 0 0 0 1.557 1.558z" class="prefix__cls-11" data-name="Path 11795" transform="translate(-484.995 -1112.249)"/>
                    <path id="prefix__Path_11796" d="M508.227 1117.593h-20.355a2.467 2.467 0 0 1 0-4.935h20.355zm-20.355-3.115a.648.648 0 0 0 0 1.3h18.535v-1.3z" class="prefix__cls-7" data-name="Path 11796" transform="translate(-485.405 -1112.658)"/>
                </g>
                <g id="prefix__Group_12407" data-name="Group 12407" transform="translate(18.392)">
                    <g id="prefix__Group_12405" data-name="Group 12405">
                        <path id="prefix__Path_11797" d="M496.161 1130.936h36.579a4.7 4.7 0 0 0 4.521-3.433l7.132-25.628a3.553 3.553 0 0 0-3.424-4.507h-33.6a3.1 3.1 0 0 0-2.993 2.307z" class="prefix__cls-11" data-name="Path 11797" transform="translate(-494.982 -1096.458)"/>
                        <path id="prefix__Path_11798" d="M533.273 1132.256h-37.76l8.517-32.4a4.01 4.01 0 0 1 3.874-2.986h33.6a4.461 4.461 0 0 1 4.3 5.66l-7.132 25.626a5.617 5.617 0 0 1-5.399 4.1zm-35.4-1.82h35.4a3.8 3.8 0 0 0 3.643-2.769l7.132-25.626a2.644 2.644 0 0 0-2.547-3.353H507.9a2.189 2.189 0 0 0-2.114 1.63z" class="prefix__cls-7" data-name="Path 11798" transform="translate(-495.513 -1096.868)"/>
                    </g>
                    <path id="prefix__Path_11799" d="M544.395 1102.32l-7.138 25.63a4.682 4.682 0 0 1-4.512 3.428h-36.58l.04-.12h32.147a4.682 4.682 0 0 0 4.512-3.428L540 1102.2a3.548 3.548 0 0 0-2.547-4.393h3.51a3.567 3.567 0 0 1 3.432 4.513z" class="prefix__cls-13" data-name="Path 11799" transform="translate(-494.979 -1096.098)"/>
                    <g id="prefix__Group_12406" data-name="Group 12406" transform="translate(21.248 13.033)">
                        <path id="prefix__Path_11800" d="M507.691 1107.992a3.461 3.461 0 1 0 3.461-3.461 3.46 3.46 0 0 0-3.461 3.461z" class="prefix__cls-11" data-name="Path 11800" transform="translate(-506.781 -1103.621)"/>
                        <path id="prefix__Path_11801" d="M511.561 1112.772a4.37 4.37 0 1 1 4.37-4.37 4.375 4.375 0 0 1-4.37 4.37zm0-6.921a2.551 2.551 0 1 0 2.551 2.551 2.554 2.554 0 0 0-2.551-2.552z" class="prefix__cls-7" data-name="Path 11801" transform="translate(-507.191 -1104.031)"/>
                    </g>
                </g>
            </g>
        </g>
    </g>
</svg>
