<svg xmlns="http://www.w3.org/2000/svg" width="161.061" height="161.014" viewBox="0 0 161.061 161.014">
    <defs>
        <style>
            .prefix__cls-9{fill:#ed4e67}.prefix__cls-2,.prefix__cls-7{fill:none;stroke:#f7657d;isolation:isolate;stroke-miterlimit:10;stroke-width:1.085px;opacity:.429}.prefix__cls-7{stroke-width:.643px}.prefix__cls-10,.prefix__cls-19{fill:#bf2640}.prefix__cls-11,.prefix__cls-17{fill:#fff}.prefix__cls-12,.prefix__cls-14{fill:#f1647d}.prefix__cls-14,.prefix__cls-17,.prefix__cls-19{fill-rule:evenodd}.prefix__cls-21{opacity:.4}.prefix__cls-22{fill:#bf263f}
        </style>
    </defs>
    <g id="prefix__Group_10349" data-name="Group 10349" transform="translate(.543 .321)">
        <g id="prefix__Group_6942" data-name="Group 6942">
            <path id="prefix__Rectangle_1795" d="M1377.322 1067.034l37.879 39.743a26.894 26.894 0 01-1.284 38.483l-40.447 37.219a28.054 28.054 0 01-39.164-1.261l-37.879-39.743a26.894 26.894 0 011.285-38.482l40.447-37.219a28.053 28.053 0 0139.163 1.26z" data-name="Rectangle 1795" transform="translate(-1279.835 -1039.469)" style="opacity:.15;fill:#ed4e67"/>
            <ellipse id="prefix__Ellipse_80" cx="2.862" cy="2.812" class="prefix__cls-2" data-name="Ellipse 80" rx="2.862" ry="2.812" transform="translate(132.157 149.781)"/>
            <path id="prefix__Path_823" d="M1301.165 1151.685l2.885 4.094 5.071-.01-3.074 3.963 1.58 4.738-4.784-1.643-4.094 2.938.117-4.977-4.109-2.917 4.856-1.432z" data-name="Path 823" transform="translate(-1277.759 -1006.148)" style="opacity:.418;stroke-width:1.085px;stroke-miterlimit:10;stroke:#f7657d;isolation:isolate;fill:none"/>
            <path id="prefix__Path_828" d="M1384.359 1054l-1.277 3.073 1.845 2.781-3.363-.247-2.117 2.583-.8-3.221-3.156-1.188 2.872-1.741.167-3.312 2.572 2.146z" data-name="Path 828" transform="translate(-1248.916 -1041.5)" style="opacity:.369;stroke-width:1.085px;stroke-miterlimit:10;stroke:#f7657d;isolation:isolate;fill:none"/>
            <ellipse id="prefix__Ellipse_81" cx="4.894" cy="4.808" class="prefix__cls-2" data-name="Ellipse 81" rx="4.894" ry="4.808" transform="translate(12.012 19.329)"/>
            <ellipse id="prefix__Ellipse_80-2" cx="2.862" cy="2.812" class="prefix__cls-2" data-name="Ellipse 80-2" rx="2.862" ry="2.812" transform="translate(0 32.035)"/>
            <ellipse id="prefix__Ellipse_81-2" cx="4.166" cy="4.094" data-name="Ellipse 81" rx="4.166" ry="4.094" transform="translate(130.188 30.369)" style="stroke-width:.924px;opacity:.429;stroke-miterlimit:10;stroke:#f7657d;isolation:isolate;fill:none"/>
            <ellipse id="prefix__Ellipse_80-2-2" cx="2.862" cy="2.812" class="prefix__cls-2" data-name="Ellipse 80-2" rx="2.862" ry="2.812" transform="translate(146.373 38.822)"/>
            <path id="prefix__Path_8784" d="M1416.76 1127.291l-27.513 46.826a27.779 27.779 0 01-37.584 9.894l-47.655-27.034a26.783 26.783 0 01-10.071-36.931l27.515-46.826a27.779 27.779 0 0137.584-9.895l47.655 27.034a26.781 26.781 0 0110.069 36.932z" data-name="Path 8784" transform="translate(-1279.37 -1039.011)" style="stroke-linecap:round;stroke-width:.98px;stroke-dasharray:1.96 1.96;stroke:#bf2640;fill:none"/>
            <ellipse id="prefix__Ellipse_80-2-3" cx="1.718" cy="1.643" class="prefix__cls-7" data-name="Ellipse 80" rx="1.718" ry="1.643" transform="translate(156.76 75.856)"/>
            <ellipse id="prefix__Ellipse_81-3" cx="4.894" cy="4.808" data-name="Ellipse 81" rx="4.894" ry="4.808" transform="translate(129.58 135.33)" style="opacity:.25;stroke-width:1.085px;stroke-miterlimit:10;stroke:#f7657d;isolation:isolate;fill:none"/>
            <ellipse id="prefix__Ellipse_80-3" cx="1.718" cy="1.643" class="prefix__cls-7" data-name="Ellipse 80" rx="1.718" ry="1.643" transform="translate(48.373)"/>
            <ellipse id="prefix__Ellipse_80-4" cx="1.718" cy="1.643" class="prefix__cls-7" data-name="Ellipse 80" rx="1.718" ry="1.643" transform="translate(105.106 20.743)"/>
            <ellipse id="prefix__Ellipse_80-5" cx="1.718" cy="1.643" class="prefix__cls-7" data-name="Ellipse 80" rx="1.718" ry="1.643" transform="translate(12.749 42.782)"/>
            <ellipse id="prefix__Ellipse_80-6" cx="1.718" cy="1.643" class="prefix__cls-7" data-name="Ellipse 80" rx="1.718" ry="1.643" transform="translate(18.027 129.644)"/>
        </g>
        <g id="prefix__Group_10389" data-name="Group 10389" transform="translate(4.5 24.152)">
            <g id="prefix__Group_10369" data-name="Group 10369" transform="translate(90.298)">
                <g id="prefix__Group_10349-2" data-name="Group 10349" transform="translate(26.053 33.959)">
                    <path id="prefix__Path_8785" d="M1381.087 1088.571a9.69 9.69 0 001.774-.21c.616-.151 1.2-.422 1.8-.6a2.936 2.936 0 011.868-.035 2.711 2.711 0 00.432.157 1.715 1.715 0 00.642-.047 12.748 12.748 0 011.8-.226.783.783 0 01.337.034.753.753 0 01.352.533 6.762 6.762 0 01.243 1.959.8.8 0 01-.055.324.729.729 0 01-.244.262 4.763 4.763 0 01-2.549.652l-13.186.814a2.979 2.979 0 01-1.857-.288 2.333 2.333 0 01-.86-1.908c-.027-.767.231-.9.961-.942q2.72-.155 5.438-.3z" class="prefix__cls-9" data-name="Path 8785" transform="translate(-1371.162 -1087.16)"/>
                    <path id="prefix__Path_8786" d="M1373.843 1092.747a2.369 2.369 0 01-2.568-2.629c-.041-1.083.49-1.331 1.36-1.38l8.54-.478a9.386 9.386 0 001.7-.2 8.746 8.746 0 00.975-.319c.269-.1.536-.2.81-.277a3.273 3.273 0 012.14-.026l.136.056a1.274 1.274 0 00.224.081 1.382 1.382 0 00.446-.039 13.564 13.564 0 011.895-.24 1.131 1.131 0 01.525.068 1.157 1.157 0 01.6.81 7.18 7.18 0 01.258 2.082 1.19 1.19 0 01-.1.5 1.127 1.127 0 01-.379.425 5.115 5.115 0 01-2.773.732l-13.184.814c-.188.008-.391.02-.605.02zm7.38-3.64l-8.539.479c-.577.032-.577.042-.56.5a1.983 1.983 0 00.67 1.571 2.632 2.632 0 001.6.218l13.185-.816a4.484 4.484 0 002.326-.57.388.388 0 00.109-.1.589.589 0 00.016-.156 6.393 6.393 0 00-.227-1.835c-.06-.213-.107-.251-.111-.255a.975.975 0 00-.145 0 12.6 12.6 0 00-1.744.219 2.057 2.057 0 01-.807.047 1.974 1.974 0 01-.394-.134l-.107-.043a2.476 2.476 0 00-1.595.046c-.255.074-.505.168-.756.26a10.266 10.266 0 01-1.066.347 9.929 9.929 0 01-1.851.22z" class="prefix__cls-10" data-name="Path 8786" transform="translate(-1371.273 -1087.272)"/>
                </g>
                <g id="prefix__Group_10350" data-name="Group 10350" transform="translate(16.822 20.199)">
                    <path id="prefix__Path_8787" d="M1367.679 1089.3a13.877 13.877 0 001.987 4.412 6.688 6.688 0 004.141 2.519c1.844.272 2.959.337 4.138.532.9.149 4.6.24 5.163-.123s.248-3.822.161-4.49a.673.673 0 00-.169-.394.93.93 0 00-.79-.145 34.555 34.555 0 01-6.4-.272 5.245 5.245 0 01-3.247-3.182 20.359 20.359 0 01-1.045-4.579 10.57 10.57 0 00-1.521-4.412c-.883-1.257-2.585-2.174-3.955-1.477-1.917.975-1.442 2.872-.771 4.381a68.938 68.938 0 012.308 7.23z" class="prefix__cls-11" data-name="Path 8787" transform="translate(-1364.363 -1077.021)"/>
                    <path id="prefix__Path_8788" d="M1380.727 1097.429a24.585 24.585 0 01-2.742-.134c-.578-.1-1.141-.16-1.783-.233-.665-.075-1.413-.16-2.348-.3a7.075 7.075 0 01-4.415-2.678 14.372 14.372 0 01-2.056-4.545c-.24-.76-.46-1.542-.681-2.328a36.337 36.337 0 00-1.614-4.856c-1.068-2.4-.744-4.062.965-4.934 1.608-.816 3.518.218 4.5 1.613a10.956 10.956 0 011.592 4.587l.118.734a16.272 16.272 0 00.9 3.75 4.769 4.769 0 002.966 2.936 34.286 34.286 0 006.241.261 1.315 1.315 0 011.145.267 1.076 1.076 0 01.288.635c.058.444.542 4.334-.353 4.907a7.271 7.271 0 01-2.723.318zm-12.533-8.145a13.458 13.458 0 001.918 4.279 6.3 6.3 0 003.867 2.359c.923.136 1.663.22 2.32.294s1.234.141 1.826.239a18.662 18.662 0 004.867-.062 13.455 13.455 0 00-.034-4.076.3.3 0 00-.049-.151c-.03-.031-.129-.058-.437-.022a34.309 34.309 0 01-6.565-.282 5.606 5.606 0 01-3.53-3.428 17 17 0 01-.956-3.946l-.117-.728a10.2 10.2 0 00-1.45-4.239c-.785-1.116-2.279-1.925-3.415-1.342-1.285.653-1.463 1.835-.576 3.829a36.9 36.9 0 011.656 4.972c.219.778.437 1.551.675 2.3z" class="prefix__cls-10" data-name="Path 8788" transform="translate(-1364.472 -1077.134)"/>
                </g>
                <g id="prefix__Group_10366" data-name="Group 10366">
                    <g id="prefix__Group_10365" data-name="Group 10365">
                        <g id="prefix__Group_10351" data-name="Group 10351" transform="translate(1.014 45.31)">
                            <path id="prefix__Path_8789" d="M1354.174 1125.218c.347-6.83-.383-13.8-.319-20.668a14.567 14.567 0 011.086-7.05 1.06 1.06 0 01.237-.387c.363-.331.981-.155 1.462.02a17.417 17.417 0 0014.238-1.09 8.334 8.334 0 011.272 3.823 58.07 58.07 0 01.782 6.447v.012c.019.463.03.927.019 1.391a53.994 53.994 0 01-1.1 7.986 33.549 33.549 0 00-.585 5.22 16.8 16.8 0 01-.156 4.146c-.889 3.455-.892 7.221-1.268 10.751-.4 3.781-.8 7.563-1.13 11.35l-.04.452c-.214.052-3.5.722-3.5-.033q-.4-11.024-.79-22.049c-.111-3.093.141-13.541-.742-16.488l-1.093.1c-2 9.725-3.527 26.855-5.528 36.581a4.087 4.087 0 01-1.026 2.332c-.636.551-2.67.3-2.858-.55.593-7.431.665-14.861 1.039-22.296z" class="prefix__cls-11" data-name="Path 8789" transform="translate(-1352.712 -1095.489)"/>
                            <path id="prefix__Path_8790" d="M1355.035 1148.929a3.573 3.573 0 01-1.093-.17 1.5 1.5 0 01-1.1-1.007l-.014-.062.005-.062c.365-4.638.532-9.357.693-13.921.1-2.788.2-5.574.338-8.364.2-3.913.041-7.949-.114-11.852-.115-2.887-.234-5.874-.205-8.8a14.964 14.964 0 011.118-7.211 1.459 1.459 0 01.344-.535c.592-.54 1.5-.208 1.893-.065a17.032 17.032 0 0013.884-1.061l.328-.185.223.3a8.624 8.624 0 011.35 4.011l.1.677a52.2 52.2 0 01.683 5.817c.019.484.03.957.019 1.43a41.6 41.6 0 01-.831 6.51c-.092.514-.186 1.026-.276 1.539a33.436 33.436 0 00-.578 5.153c-.005.422.01.831.025 1.236a10.179 10.179 0 01-.193 3.01 42.713 42.713 0 00-.985 7.445c-.08 1.094-.159 2.18-.273 3.247-.409 3.83-.8 7.58-1.129 11.34l-.065.759-.3.07c-.028.007-2.983.691-3.761.077a.653.653 0 01-.259-.524l-.79-22.032c-.029-.782-.034-2.031-.04-3.509-.016-4.069-.039-10.121-.6-12.541l-.418.038c-.973 4.827-1.85 11.5-2.7 17.955-.867 6.607-1.765 13.44-2.768 18.316a4.387 4.387 0 01-1.164 2.567 2.1 2.1 0 01-1.347.404zm-1.352-1.318a.932.932 0 00.526.342 2.084 2.084 0 001.622-.065 3.739 3.739 0 00.889-2.1c1-4.845 1.892-11.662 2.758-18.254.868-6.611 1.766-13.448 2.77-18.326l.064-.309 1.754-.158.1.333c.679 2.265.7 8.536.721 13.114.007 1.467.011 2.706.038 3.481l.787 21.948a8.743 8.743 0 002.679-.2l.012-.14c.327-3.766.722-7.522 1.131-11.358.113-1.056.193-2.134.271-3.218a43.226 43.226 0 011.009-7.594 9.357 9.357 0 00.168-2.767c-.016-.418-.031-.843-.026-1.279a34.035 34.035 0 01.592-5.286c.088-.516.182-1.032.276-1.547a41.067 41.067 0 00.817-6.377c.01-.456 0-.909-.019-1.364a51.343 51.343 0 00-.673-5.735l-.1-.677a8.821 8.821 0 00-.987-3.329 17.945 17.945 0 01-14.25.93c-.542-.2-.889-.234-1.029-.106a.766.766 0 00-.133.239 14.187 14.187 0 00-1.055 6.844c-.026 2.949.094 5.924.206 8.8.156 3.921.316 7.975.115 11.928-.142 2.784-.24 5.567-.338 8.351-.166 4.551-.332 9.25-.695 13.879z" class="prefix__cls-10" data-name="Path 8790" transform="translate(-1352.825 -1095.635)"/>
                        </g>
                        <g id="prefix__Group_10352" data-name="Group 10352" transform="translate(6.399 1.946)">
                            <path id="prefix__Path_8791" d="M1357.106 1069.086a5.487 5.487 0 0110.945 0 4.753 4.753 0 01-.2 1.353c-.005.11-.007.224-.005.342a14.385 14.385 0 01-.228 3.033 6.981 6.981 0 01-3.3 4.863 4.223 4.223 0 01-2.121.645 4.1 4.1 0 01-2.666-1.183c-2.341-2.15-2.544-5.383-2.378-8.433a4.667 4.667 0 01-.047-.62z" class="prefix__cls-11" data-name="Path 8791" transform="translate(-1356.681 -1063.573)"/>
                            <path id="prefix__Path_8792" d="M1362.328 1079.859h-.024a4.506 4.506 0 01-2.951-1.3c-2.51-2.3-2.679-5.726-2.515-8.769a3.677 3.677 0 01-.045-.6 5.91 5.91 0 0111.793 0 5.2 5.2 0 01-.219 1.474c0-.008.011.1.012.213a14.7 14.7 0 01-.236 3.124 7.386 7.386 0 01-3.5 5.148 4.645 4.645 0 01-2.315.71zm.362-15.325a4.872 4.872 0 00-5.048 4.664 4.285 4.285 0 00.041.563c-.151 2.925-.005 6.11 2.245 8.177a3.766 3.766 0 002.381 1.071h.019a3.818 3.818 0 001.887-.586 6.617 6.617 0 003.095-4.579 13.713 13.713 0 00.221-2.944c0-.126 0-.247.005-.365a5.019 5.019 0 00.2-1.337 4.873 4.873 0 00-5.046-4.663z" class="prefix__cls-10" data-name="Path 8792" transform="translate(-1356.793 -1063.685)"/>
                        </g>
                        <g id="prefix__Group_10353" data-name="Group 10353" transform="translate(12.379 97.032)">
                            <path id="prefix__Path_8793" d="M1362.085 1134.105a19.478 19.478 0 014.228.157 16.344 16.344 0 003.5 1.744 2.821 2.821 0 011.007.507.681.681 0 01.126.941 1.3 1.3 0 01-.943.26 46.11 46.11 0 01-7.777-.586.847.847 0 01-.428-.152.6.6 0 01-.163-.3 2.95 2.95 0 01.45-2.571z" class="prefix__cls-12" data-name="Path 8793" transform="translate(-1361.087 -1133.63)"/>
                            <path id="prefix__Path_8794" d="M1369.686 1138.255a46.544 46.544 0 01-7.419-.594 1.211 1.211 0 01-.641-.254 1.013 1.013 0 01-.289-.489 3.383 3.383 0 01.516-2.951l.115-.16.2-.015a20 20 0 014.32.163l.172.065a16 16 0 003.407 1.7 3.15 3.15 0 011.156.6 1.094 1.094 0 01.142 1.539 1.684 1.684 0 01-1.249.395zm-7.253-3.628a2.525 2.525 0 00-.282 2.044.333.333 0 00.041.1 1.013 1.013 0 00.212.049 45.469 45.469 0 007.705.581c.156 0 .524-.005.637-.126.061-.064.007-.233-.107-.342a2.293 2.293 0 00-.791-.391 17.06 17.06 0 01-3.575-1.762 19.1 19.1 0 00-3.84-.153z" class="prefix__cls-10" data-name="Path 8794" transform="translate(-1361.199 -1133.742)"/>
                        </g>
                        <g id="prefix__Group_10354" data-name="Group 10354" transform="translate(0 96.277)">
                            <path id="prefix__Path_8795" d="M1353.3 1133.512a20.35 20.35 0 014.019.886 11.429 11.429 0 002.424 1.988 2.385 2.385 0 01.789.6.61.61 0 01-.075.85 1.2 1.2 0 01-.882.084 40.61 40.61 0 01-6.748-1.722.729.729 0 01-.348-.2.531.531 0 01-.085-.286 2.748 2.748 0 01.906-2.2z" class="prefix__cls-12" data-name="Path 8795" transform="translate(-1351.966 -1133.07)"/>
                            <path id="prefix__Path_8796" d="M1360.109 1138.508a2.968 2.968 0 01-.487-.047 41.326 41.326 0 01-6.819-1.74 1.12 1.12 0 01-.546-.345.932.932 0 01-.171-.512 3.184 3.184 0 011.042-2.549l.14-.129.191.019a20.742 20.742 0 014.11.907l.246.18a10.626 10.626 0 002.257 1.845 2.712 2.712 0 01.924.726 1.028 1.028 0 01-.175 1.44 1.187 1.187 0 01-.712.205zm-6.538-4.436a2.312 2.312 0 00-.638 1.728c.016.07.111.1.151.118a40.4 40.4 0 006.677 1.7c.122.019.449.075.566-.009.053-.038.041-.167-.026-.261a1.918 1.918 0 00-.6-.449 11.466 11.466 0 01-2.481-2l-.011-.011a20.5 20.5 0 00-3.638-.816z" class="prefix__cls-10" data-name="Path 8796" transform="translate(-1352.078 -1133.186)"/>
                        </g>
                        <g id="prefix__Group_10355" data-name="Group 10355" transform="translate(.569 18.545)">
                            <path id="prefix__Path_8797" d="M1352.889 1104.349l.047-12.23c.014-3.434.88-7.078 1.443-10.471a10.3 10.3 0 011.611-4.18c.133-.238.155-.4 1.4-.757a3.919 3.919 0 011.239-.357c1.618.247 3.266-.308 4.885-.061 1.713.262 4.585-.521 5.92.537 1.8 1.432 1.929 4.835 2.216 7.059.387 3 1.3 6.048 1.467 9.068.142 2.651.219 5.3.273 7.959.028 1.383.586 6.193-.787 7.119-.8.54-2.954.761-5.166.828-.079 0-.159.006-.239.007h-.064c-.9.022-1.8.019-2.617 0-1.2-.023-2.223-.076-2.777-.121a63.379 63.379 0 01-7.657-1.215 1.792 1.792 0 01-1.19-.59 12.653 12.653 0 01-.004-2.595z" class="prefix__cls-11" data-name="Path 8797" transform="translate(-1352.385 -1075.803)"/>
                            <path id="prefix__Path_8798" d="M1365.886 1109.422q-.664 0-1.269-.012c-1.279-.026-2.287-.08-2.8-.122a64.082 64.082 0 01-7.708-1.222 2.2 2.2 0 01-1.46-.774c-.167-.254-.186-.769-.091-2.4.011-.2.02-.359.022-.43l.049-12.23a46.587 46.587 0 011.007-8.074c.153-.832.305-1.656.44-2.465a10.7 10.7 0 011.659-4.317c.217-.4.442-.608 1.648-.96.068-.019.161-.058.267-.1a2.418 2.418 0 011.155-.267 9.543 9.543 0 002.34-.033 10.433 10.433 0 012.545-.027 11.076 11.076 0 002.078.007c1.5-.08 3.061-.164 4.043.618 1.7 1.351 2.013 4.148 2.263 6.4.037.329.072.646.11.94.157 1.219.408 2.473.651 3.688a38.524 38.524 0 01.82 5.413c.125 2.328.209 4.787.273 7.971.005.22.023.526.045.891.168 2.873.229 5.748-1.019 6.588-.763.515-2.576.817-5.391.9l-.239.007c-.501.006-.979.01-1.438.01zm-12.461-4.961c0 .078-.01.253-.023.478a12.344 12.344 0 00-.022 1.934 1.647 1.647 0 00.9.361 63.214 63.214 0 007.6 1.207c.505.041 1.492.095 2.75.12.812.016 1.7.019 2.6 0l.3-.008c3.474-.1 4.586-.518 4.94-.756.95-.641.736-4.279.645-5.833-.023-.379-.042-.7-.046-.924-.064-3.176-.148-5.626-.273-7.944a37.785 37.785 0 00-.8-5.292c-.246-1.227-.5-2.5-.661-3.745-.038-.3-.074-.62-.111-.956-.234-2.091-.523-4.695-1.948-5.825-.728-.578-2.12-.5-3.468-.434a11.645 11.645 0 01-2.253-.015 9.588 9.588 0 00-2.337.033 10.238 10.238 0 01-2.547.027 3.216 3.216 0 00-.71.217c-.137.056-.259.1-.346.128-1 .29-1.059.4-1.118.513a10.061 10.061 0 00-1.588 4.088c-.134.813-.288 1.642-.441 2.478a46.135 46.135 0 00-.995 7.924z" class="prefix__cls-10" data-name="Path 8798" transform="translate(-1352.497 -1075.915)"/>
                        </g>
                        <g id="prefix__Group_10356" data-name="Group 10356" transform="translate(11.783 18.152)">
                            <path id="prefix__Path_8799" d="M1361.21 1077.059c-.084-.109-.175-.239-.121-.363a.443.443 0 01.254-.185q.693-.283 1.41-.512a.647.647 0 01.479-.023.566.566 0 01.174.167q.444.586.889 1.17a.357.357 0 01.094.2.366.366 0 01-.141.225 12.314 12.314 0 00-.9.965c-.2.24-.436.812-.832.56-.3-.191-.411-.779-.566-1.068a7.779 7.779 0 00-.74-1.136z" class="prefix__cls-11" data-name="Path 8799" transform="translate(-1360.647 -1075.513)"/>
                            <path id="prefix__Path_8800" d="M1362.816 1079.87a.773.773 0 01-.416-.132 1.771 1.771 0 01-.6-.945 2.372 2.372 0 00-.115-.284 7.489 7.489 0 00-.7-1.079.774.774 0 01-.174-.794.83.83 0 01.481-.407q.708-.289 1.443-.523a1.03 1.03 0 01.8 0 .936.936 0 01.316.288l.889 1.17a.739.739 0 01.18.471.751.751 0 01-.269.517 11.494 11.494 0 00-.87.934 1.562 1.562 0 00-.106.149c-.114.181-.419.635-.859.635zm-1.1-2.891a8.531 8.531 0 01.726 1.131 3.419 3.419 0 01.163.392 1.535 1.535 0 00.255.518c-.035-.024.065-.174.12-.255s.109-.16.159-.22c.271-.324.565-.641.873-.942l-.828-1.09c-.019-.041-.064-.037-.182 0q-.661.212-1.29.466z" class="prefix__cls-10" data-name="Path 8800" transform="translate(-1360.759 -1075.625)"/>
                        </g>
                        <g id="prefix__Group_10357" data-name="Group 10357" transform="translate(7.466 18.009)">
                            <path id="prefix__Path_8801" d="M1360.74 1078.576a4.068 4.068 0 01-.187.738.177.177 0 01-.061.086c-.1.062-.217-.04-.281-.129a11.885 11.885 0 00-1.885-2.067 1.467 1.467 0 01-.373-.406.416.416 0 01.046-.5.783.783 0 01.341-.159l.812-.234a1.308 1.308 0 01.509-.073 1.2 1.2 0 01.428.17c.33.188 1.245.581 1.279.968.019.217-.269.55-.356.753a4.551 4.551 0 00-.272.853z" class="prefix__cls-11" data-name="Path 8801" transform="translate(-1357.467 -1075.408)"/>
                            <path id="prefix__Path_8802" d="M1360.54 1079.958a.708.708 0 01-.562-.326 11.431 11.431 0 00-1.819-2 1.843 1.843 0 01-.472-.531.833.833 0 01.126-1 1.159 1.159 0 01.521-.263l.812-.233a1.737 1.737 0 01.678-.086 1.565 1.565 0 01.585.221l.209.111c.676.349 1.238.68 1.283 1.189a1.311 1.311 0 01-.281.774 1.5 1.5 0 00-.107.185 4.11 4.11 0 00-.246.77l-.034.166a3.12 3.12 0 01-.178.65l-.05.118-.17.157a.542.542 0 01-.295.098zm-.855-3.589a1.231 1.231 0 00-.3.062l-.813.232a.741.741 0 00-.164.058l.286.251a12.464 12.464 0 011.71 1.8l.035-.177a5.133 5.133 0 01.3-.926 2.456 2.456 0 01.168-.3 1.564 1.564 0 00.155-.286 6.606 6.606 0 00-.825-.472c-.094-.047-.178-.091-.24-.127a.866.866 0 00-.27-.117z" class="prefix__cls-10" data-name="Path 8802" transform="translate(-1357.579 -1075.52)"/>
                        </g>
                        <g id="prefix__Group_10358" data-name="Group 10358" transform="translate(10.764 20.119)">
                            <path id="prefix__Path_8803" d="M1362.1 1077.867a.151.151 0 000-.1.159.159 0 00-.072-.069 2.075 2.075 0 00-1.372-.288.4.4 0 00-.161.049.314.314 0 00-.11.146 1.063 1.063 0 000 .763 2.846 2.846 0 00.391.692.208.208 0 00.072.073.226.226 0 00.109.015c.66-.033 1.007-.81 1.143-1.281z" class="prefix__cls-10" data-name="Path 8803" transform="translate(-1359.897 -1076.963)"/>
                            <path id="prefix__Path_8804" d="M1361.058 1079.682a.6.6 0 01-.285-.064l-.1-.049-.133-.16a3.26 3.26 0 01-.44-.793 1.473 1.473 0 01.007-1.07.733.733 0 01.272-.337.821.821 0 01.331-.113 2.5 2.5 0 011.66.35l.111.069.124.19a.56.56 0 01.014.388c-.134.46-.554 1.537-1.524 1.584zm0-1.757a1.521 1.521 0 00-.223.015 1.229 1.229 0 00.073.4 2.149 2.149 0 00.256.474 1.235 1.235 0 00.571-.742 1.656 1.656 0 00-.678-.147z" class="prefix__cls-10" data-name="Path 8804" transform="translate(-1360.008 -1077.075)"/>
                        </g>
                        <g id="prefix__Group_10361" data-name="Group 10361" transform="translate(2.094 42.448)">
                            <g id="prefix__Group_10360" data-name="Group 10360">
                                <g id="prefix__Group_10359" data-name="Group 10359"/>
                            </g>
                        </g>
                        <g id="prefix__Group_10362" data-name="Group 10362" transform="translate(10.679 22.312)">
                            <path id="prefix__Path_8806" d="M1361.589 1079.527a7.32 7.32 0 01.972 3.578 34.7 34.7 0 00.232 3.741 8.952 8.952 0 00.9 2.644c.741 1.41 1.862 2.626 2.371 4.137a1 1 0 01.064.569 1.115 1.115 0 01-.285.43 13.165 13.165 0 00-2 2.957l-3.046-1.521a.927.927 0 01-.493-.417.971.971 0 01.026-.591c.874-3.533 0-7.24.039-10.88a32.889 32.889 0 01.241-3.365c.044-.381-.019-1.371.212-1.669.285-.377.596.124.767.387z" class="prefix__cls-10" data-name="Path 8806" transform="translate(-1359.834 -1078.578)"/>
                            <path id="prefix__Path_8807" d="M1364.138 1098.266l-3.427-1.71a1.105 1.105 0 01-.69-1.49 21.992 21.992 0 00.2-6.978c-.094-1.247-.19-2.535-.175-3.806a33.657 33.657 0 01.243-3.408c.011-.1.013-.239.017-.4a2.673 2.673 0 01.281-1.485.676.676 0 01.586-.3c.427.017.692.427.867.7l-.345.25.356-.232a7.841 7.841 0 011.04 3.784c.026.411.037.825.048 1.238a17.431 17.431 0 00.181 2.457 8.477 8.477 0 00.852 2.518 17.7 17.7 0 00.951 1.541 11.536 11.536 0 011.447 2.659 1.372 1.372 0 01.069.818 1.465 1.465 0 01-.369.592 12.713 12.713 0 00-1.946 2.869zm-2.921-18.584a6.211 6.211 0 00-.057.816c-.005.189-.011.357-.024.472-.1.908-.223 2.106-.238 3.321-.012 1.234.083 2.5.174 3.733a22.964 22.964 0 01-.225 7.246.831.831 0 00-.045.327c.026.065.2.155.29.2l2.668 1.332a13.556 13.556 0 011.873-2.672.875.875 0 00.19-.258.7.7 0 00-.056-.322 10.689 10.689 0 00-1.349-2.461 18.316 18.316 0 01-1-1.615 9.343 9.343 0 01-.938-2.77 18.458 18.458 0 01-.191-2.576c-.011-.4-.022-.808-.045-1.209a7.086 7.086 0 00-.9-3.372l-.014-.019c-.022-.04-.066-.108-.112-.173z" class="prefix__cls-10" data-name="Path 8807" transform="translate(-1359.946 -1078.691)"/>
                        </g>
                        <g id="prefix__Group_10363" data-name="Group 10363" transform="translate(7.076 22.724)">
                            <path id="prefix__Path_8808" d="M1360.112 1087.033a29 29 0 01-1.291 2.838 11.42 11.42 0 00-.926 2.052 8.193 8.193 0 00-.261 1.931c-.041.941-.032 1.883-.023 2.823.007.66.012 1.319.033 1.979a2.027 2.027 0 00.261 1.128.718.718 0 001.016.2c.3-.28.172-.766.09-1.166a12.566 12.566 0 01.054-3.158c.037-.812-.03-1.626.011-2.436a11.056 11.056 0 011.456-4.8c.307-.551.653-1.08.932-1.646a14.15 14.15 0 001.144-5.823 2.221 2.221 0 00-.194-1.222c-.314-.529-1.059-.642-1.07.054-.014.82.061 1.617-.023 2.439a18.444 18.444 0 01-1.209 4.807z" class="prefix__cls-10" data-name="Path 8808" transform="translate(-1357.18 -1078.882)"/>
                            <path id="prefix__Path_8809" d="M1358.668 1100.665c-.038 0-.075 0-.113-.005a1.275 1.275 0 01-.886-.519 2.43 2.43 0 01-.338-1.36c-.02-.662-.026-1.325-.033-1.987-.008-.931-.017-1.893.023-2.845a8.658 8.658 0 01.277-2.032 10.109 10.109 0 01.825-1.877l.133-.252a27.924 27.924 0 001.269-2.8 17.828 17.828 0 001.186-4.687 12.233 12.233 0 00.028-1.517c-.007-.294-.012-.589-.008-.886a.848.848 0 01.609-.877 1.174 1.174 0 011.25.613 2.616 2.616 0 01.253 1.452 14.556 14.556 0 01-1.187 6c-.181.366-.39.719-.6 1.072-.117.2-.234.394-.345.592a10.683 10.683 0 00-1.4 4.612c-.02.4-.014.806-.007 1.209s.015.817 0 1.226c-.015.307-.043.615-.072.922a7.174 7.174 0 00.008 2.131 1.576 1.576 0 01-.215 1.564.95.95 0 01-.657.251zm1.95-13.366a29.015 29.015 0 01-1.308 2.88l-.133.256a9.372 9.372 0 00-.763 1.718 8 8 0 00-.245 1.833c-.039.928-.03 1.88-.022 2.8.007.657.012 1.314.033 1.971a1.668 1.668 0 00.183.894.415.415 0 00.277.161c.208-.12.135-.464.081-.717a7.93 7.93 0 01-.038-2.455c.027-.294.054-.589.068-.884.017-.39.011-.78 0-1.171-.007-.422-.014-.844.007-1.267a11.544 11.544 0 011.509-4.982c.115-.206.235-.41.354-.612.2-.334.4-.668.569-1.015a13.813 13.813 0 001.1-5.65 1.861 1.861 0 00-.136-.99.469.469 0 00-.3-.225c.021.356.026.639.033.923a13.011 13.011 0 01-.033 1.622 18.67 18.67 0 01-1.239 4.909z" class="prefix__cls-10" data-name="Path 8809" transform="translate(-1357.292 -1078.994)"/>
                        </g>
                        <g id="prefix__Group_10364" data-name="Group 10364" transform="translate(3.075)">
                            <path id="prefix__Path_8810" d="M1370.378 1069.493c-.094-.416-.444-.713-.554-1.124a5.51 5.51 0 01.024-1.241 2.475 2.475 0 00-.282-1.014 3.239 3.239 0 00-1.049-1.279 1.874 1.874 0 00-1.524-.3c-.014 0-.024.013-.038.017a1.725 1.725 0 00-.22-.768 1.884 1.884 0 00-1.978-.623 1.671 1.671 0 01-.928-.009 2.19 2.19 0 01-.448-.314 2.836 2.836 0 00-3.317-.1 6.3 6.3 0 01-.932.65c-.547.246-1.2.137-1.717.443a2.573 2.573 0 00-.973 1.751 5.332 5.332 0 01-.627 1.98c-.409.585-1.109.92-1.37 1.6a2.534 2.534 0 00.742 2.421 2.569 2.569 0 01.7 1.083c.041.186.035.381.075.568.069.338.4.561.476.888.449 2.028 1.656 1.743 3.552 4.1a2.362 2.362 0 01-.366-.977 5.273 5.273 0 01.019-1.759 1.408 1.408 0 000-.835 11.158 11.158 0 01-.546-1.17.537.537 0 01.418-.668.548.548 0 01.528.586 4.3 4.3 0 01.273-2.154 2.844 2.844 0 012.073-1.338 18.4 18.4 0 002.455-.423 2.864 2.864 0 00.981-.579 1.791 1.791 0 00.395.391 7.326 7.326 0 011.025.7 2.481 2.481 0 01.973 1.466c.076.654.483 1.227.55 1.883a2.917 2.917 0 01.668-1.526c.289-.337.235-.746.529-1.076a1.464 1.464 0 00.413-1.25z" class="prefix__cls-9" data-name="Path 8810" transform="translate(-1354.343 -1062.252)"/>
                        </g>
                    </g>
                </g>
                <g id="prefix__Group_10367" data-name="Group 10367" transform="translate(21.616 16.861)">
                    <path id="prefix__Path_8811" d="M1376.222 1079.429a4.114 4.114 0 00.98-.87c.474-.646.6-1.576 1.277-2 .383-.239.866-.255 1.27-.455.582-.285.968-.926 1.6-1.083a1.833 1.833 0 011.542.49 1.953 1.953 0 01.761 1.146 1.694 1.694 0 01-.361 1.242 4.75 4.75 0 01-.968.905q-1.3 1-2.653 1.944a2.3 2.3 0 01-.984.469 3.08 3.08 0 00-.435.05 1.312 1.312 0 00-.472.3q-2.637 2.254-5.27 4.509a4.118 4.118 0 01-1.988 1.132 1.253 1.253 0 01-.869-.156 1.588 1.588 0 01-.4-.433c-.319-.455-1.178-1.594-.856-2.176.182-.327.882-.561 1.2-.744q.678-.395 1.348-.8 2.694-1.642 5.278-3.47z" class="prefix__cls-9" data-name="Path 8811" transform="translate(-1367.892 -1074.562)"/>
                    <path id="prefix__Path_8812" d="M1370.394 1087.763a1.544 1.544 0 01-.869-.246 1.97 1.97 0 01-.516-.543l-.069-.1c-.6-.847-1.205-1.811-.81-2.526a2.231 2.231 0 011.056-.759c.114-.053.22-.1.3-.148q.672-.393 1.341-.8c1.788-1.086 3.559-2.246 5.262-3.453a3.812 3.812 0 00.882-.774 4.083 4.083 0 00.394-.737 2.852 2.852 0 011-1.371 2.9 2.9 0 01.808-.309 2.636 2.636 0 00.5-.166 2.9 2.9 0 00.582-.436 2.65 2.65 0 011.1-.679 2.212 2.212 0 011.915.574 2.319 2.319 0 01.911 1.407 2.1 2.1 0 01-.438 1.561 5.128 5.128 0 01-1.05.991c-.867.668-1.765 1.326-2.67 1.954a2.7 2.7 0 01-1.173.543c-.063.008-.125.012-.187.016a1.1 1.1 0 00-.187.02 1.05 1.05 0 00-.311.213l-5.272 4.509a4.474 4.474 0 01-2.206 1.23 2.115 2.115 0 01-.293.029zm11.356-12.24a.741.741 0 00-.188.023 1.977 1.977 0 00-.741.491 2.741 2.741 0 01-1.425.786 2.212 2.212 0 00-.579.21 2.143 2.143 0 00-.677 1 4.8 4.8 0 01-.482.889 4.5 4.5 0 01-1.078.965c-1.718 1.217-3.506 2.39-5.311 3.485q-.674.409-1.354.806c-.1.057-.227.118-.368.185a2.271 2.271 0 00-.672.4c-.064.115-.05.479.76 1.623l.072.1a1.248 1.248 0 00.291.324.836.836 0 00.574.088 3.84 3.84 0 001.77-1.034l5.272-4.509a1.387 1.387 0 011-.437l.129-.01a1.965 1.965 0 00.8-.4c.893-.622 1.779-1.272 2.636-1.931a4.363 4.363 0 00.885-.821 1.266 1.266 0 00.282-.923 1.515 1.515 0 00-.609-.882 1.742 1.742 0 00-.987-.427z" class="prefix__cls-10" data-name="Path 8812" transform="translate(-1368.004 -1074.674)"/>
                </g>
                <g id="prefix__Group_10368" data-name="Group 10368" transform="translate(1.67 19.712)">
                    <path id="prefix__Path_8813" d="M1361.475 1079.816a45.076 45.076 0 013.965 3.795 2.477 2.477 0 003.99.512 33.867 33.867 0 018.781-3.94 32.461 32.461 0 012.172 3.085.882.882 0 01-.221 1.386c-3.458 3.108-7.628 5.292-11.748 7.443a5.137 5.137 0 01-2.339.772c-1.644-.011-2.818-1.5-3.994-2.653-2.577-2.516-8.066-4.622-8.448-8.749-.125-1.357.685-3.985 2.076-4.309 1.991-.464 4.391 1.492 5.766 2.658z" class="prefix__cls-11" data-name="Path 8813" transform="translate(-1353.197 -1076.663)"/>
                    <path id="prefix__Path_8814" d="M1366.2 1093.4h-.02c-1.573-.009-2.736-1.2-3.763-2.244-.177-.181-.351-.358-.525-.529a22.8 22.8 0 00-2.876-2.2c-2.538-1.754-5.415-3.741-5.7-6.812-.129-1.413.7-4.368 2.4-4.761 2.271-.533 4.881 1.685 6.136 2.747a45.587 45.587 0 014 3.832 2.085 2.085 0 003.442.447 34.283 34.283 0 018.9-4l.273-.079.177.223a33.041 33.041 0 012.2 3.126 1.283 1.283 0 01-.3 1.925c-3.519 3.164-7.747 5.37-11.835 7.506a5.6 5.6 0 01-2.509.819zm-9.766-15.778a2.325 2.325 0 00-.522.057c-1.061.247-1.866 2.587-1.748 3.858.247 2.675 2.834 4.463 5.337 6.191a23.379 23.379 0 012.985 2.292c.179.175.358.357.539.543.954.974 1.943 1.981 3.161 1.99h.015a4.866 4.866 0 002.124-.725c4.042-2.109 8.221-4.29 11.66-7.382.109-.1.311-.279.323-.421a.875.875 0 00-.179-.425 32.232 32.232 0 00-1.965-2.82 33.35 33.35 0 00-8.4 3.811 2.873 2.873 0 01-4.531-.582 44.633 44.633 0 00-3.927-3.76c-.957-.812-3.094-2.623-4.867-2.623z" class="prefix__cls-10" data-name="Path 8814" transform="translate(-1353.308 -1076.775)"/>
                </g>
            </g>
            <g id="prefix__Group_10370" data-name="Group 10370" transform="translate(0 1.976)">
                <path id="prefix__Path_8815" d="M1335.626 1157.167h-42.273c1.049-1.433 1.8-2.944 2.733-4.319a29.8 29.8 0 002.655-4.437 47.8 47.8 0 002.02-5.031 45.369 45.369 0 001.15-5.943 23.948 23.948 0 00.159-6.576 19.137 19.137 0 00-1.862-5.229 15.517 15.517 0 00-2.853-4.24c-1.121-1.25-2.237-2.489-3.407-3.684a18.962 18.962 0 01-3.012-4.042c-.418-.745-.785-1.551-1.188-2.337a31.4 31.4 0 01-3.685-14.064 52.744 52.744 0 01.318-6.656 26.047 26.047 0 011.307-5.785 29.7 29.7 0 012.1-4.992 33.168 33.168 0 012.734-4.358 23.88 23.88 0 017.647-6.5c3.1-1.66 6.77-2.573 10.577-3.6a25.863 25.863 0 012.892-.634c2.1-.32 4.392-.331 6.577-.477a49.077 49.077 0 016.735.2 37.085 37.085 0 015.983 1.109c.917.225 1.779.6 2.653.911 1.85.649 3.48 1.31 5.033 2.021a29.738 29.738 0 014.4 2.694 14.525 14.525 0 013.565 3.526 37.953 37.953 0 014.873 9.27c.322.89.573 1.745.951 2.575.759 1.667 1.543 3.1 2.416 4.676a5.228 5.228 0 01.753 2.812 9.108 9.108 0 01-1.348 3.962c-.137.258-.593.824-.593 1.189a5.049 5.049 0 00.752 1.7 11.12 11.12 0 001.03 1.426 25.439 25.439 0 011.783 3.13c.284.579.46 1.177.752 1.7a9.858 9.858 0 001.03 1.426c.711.865 1.781 1.713 1.982 2.971.224 1.411-.861 1.931-1.744 2.457-.961.571-1.773 1.186-2.694 1.862-.528.387-1.142.506-1.268 1.03-.187.776.679 1.555 1.03 2.1a3.452 3.452 0 01.475 2.457 2.624 2.624 0 01-1.03 1.387c-.091.079-.334.156-.277.355a1.531 1.531 0 01.357 1.505c-.2.8-1.04 1.03-1.546 1.466a4.379 4.379 0 00-.791 2.339 2.206 2.206 0 00.039.554 11.916 11.916 0 001.03 2.535 4.058 4.058 0 010 2.932 9.484 9.484 0 01-2.774 4.4 10.962 10.962 0 01-5.387 1.744c-2.159.206-4.562.5-6.775.634a55.037 55.037 0 00-3.368 7.488c-1.012 2.716-1.666 5.694-2.616 8.361z" class="prefix__cls-14" data-name="Path 8815" transform="translate(-1285.37 -1063.529)"/>
                <path id="prefix__Path_8816" d="M1336.282 1158.024h-44.089l.791-1.079c.57-.78 1.06-1.6 1.535-2.4.386-.649.767-1.288 1.185-1.9a29.341 29.341 0 002.6-4.335 47.452 47.452 0 001.992-4.961 26.266 26.266 0 00.838-4.068c.091-.583.182-1.178.287-1.782a23.315 23.315 0 00.155-6.368 13.887 13.887 0 00-1.357-4.036c-.155-.338-.308-.675-.455-1.017a14.756 14.756 0 00-2.735-4.053c-1.025-1.143-2.185-2.437-3.386-3.663a19.5 19.5 0 01-3.118-4.184c-.27-.48-.517-.983-.767-1.49-.143-.29-.286-.581-.434-.869a31.922 31.922 0 01-3.76-14.356 53.014 53.014 0 01.32-6.74 27.07 27.07 0 011.338-5.932 30.223 30.223 0 012.15-5.107 33.422 33.422 0 012.793-4.446 24.422 24.422 0 017.861-6.679 46.11 46.11 0 019.783-3.41l.937-.252a25.957 25.957 0 012.968-.649 44.91 44.91 0 014.638-.376c.67-.031 1.338-.062 2-.107a47.543 47.543 0 016.51.175l.322.024a38.04 38.04 0 016.094 1.126 16.658 16.658 0 011.932.641c.262.1.524.2.786.289 1.8.634 3.469 1.3 5.09 2.044a27.565 27.565 0 014.117 2.489l.383.263a15.182 15.182 0 013.732 3.689 38.862 38.862 0 014.959 9.436c.1.276.193.548.285.817.2.6.4 1.162.645 1.707.741 1.629 1.491 3 2.393 4.627a5.879 5.879 0 01.838 3.175 9.557 9.557 0 01-1.4 4.2c-.072.136-.141.244-.221.366a2.824 2.824 0 00-.322.581 3.958 3.958 0 00.457.969c.083.145.16.281.221.4a4.945 4.945 0 00.6.861c.137.166.266.324.379.487a25.058 25.058 0 011.835 3.218c.134.274.247.551.356.824a8 8 0 00.381.851 9.252 9.252 0 00.961 1.325c.156.19.331.379.511.573a5.313 5.313 0 011.616 2.723c.282 1.77-1.021 2.533-1.882 3.038l-.183.109c-.821.489-1.55 1.025-2.322 1.592l-.318.234a5.244 5.244 0 01-.592.361c-.16.087-.4.219-.418.282-.065.269.326.765.586 1.094.135.171.261.331.354.476a4.156 4.156 0 01.57 2.958 3 3 0 01-1.117 1.652 2.255 2.255 0 01.16 1.629 2.541 2.541 0 01-1.329 1.523 3.315 3.315 0 00-.432.293 4.071 4.071 0 00-.558 1.869 1.527 1.527 0 00.028.387 6.121 6.121 0 00.62 1.61c.132.263.259.524.369.787a4.737 4.737 0 01.014 3.422 10.139 10.139 0 01-3 4.7 11.508 11.508 0 01-5.74 1.884c-.664.062-1.349.134-2.044.208-1.451.152-2.947.308-4.38.4a55.189 55.189 0 00-3.148 7.071c-.524 1.41-.961 2.923-1.383 4.388-.38 1.319-.774 2.683-1.228 3.963zm-41.469-1.357h40.507c.378-1.111.717-2.288 1.047-3.432.429-1.489.873-3.027 1.414-4.484a55.617 55.617 0 013.411-7.58l.18-.327.372-.022c1.517-.091 3.132-.259 4.7-.423.7-.072 1.388-.145 2.055-.209a10.184 10.184 0 005.035-1.6 8.9 8.9 0 002.552-4.091 3.4 3.4 0 00.014-2.442c-.1-.238-.216-.468-.333-.7a7.324 7.324 0 01-.74-1.968 2.878 2.878 0 01-.049-.725 4.923 4.923 0 011.026-2.805 4.8 4.8 0 01.6-.422c.4-.248.655-.415.725-.695a.857.857 0 00-.2-.88l-.11-.118-.045-.155a.9.9 0 01.487-1.064c.4-.343.733-.631.806-1a2.792 2.792 0 00-.38-1.957c-.073-.114-.174-.239-.28-.373a2.723 2.723 0 01-.84-2.253 1.836 1.836 0 011.09-1.156 3.937 3.937 0 00.437-.262l.315-.234c.8-.588 1.555-1.143 2.434-1.665l.191-.113c.949-.555 1.352-.88 1.228-1.653a4.173 4.173 0 00-1.274-2.016c-.2-.214-.388-.422-.561-.632a10.234 10.234 0 01-1.1-1.527 9.2 9.2 0 01-.453-1c-.1-.242-.2-.489-.315-.73a24.019 24.019 0 00-1.731-3.042c-.094-.134-.2-.267-.316-.4a6.142 6.142 0 01-.761-1.1c-.053-.1-.121-.221-.193-.348a3.691 3.691 0 01-.634-1.667 2.572 2.572 0 01.542-1.3c.054-.082.1-.152.132-.208a8.483 8.483 0 001.267-3.674 4.5 4.5 0 00-.667-2.453c-.886-1.595-1.68-3.052-2.442-4.723-.276-.605-.489-1.228-.694-1.831-.09-.26-.181-.525-.277-.794a37.53 37.53 0 00-4.787-9.106 13.843 13.843 0 00-3.4-3.362l-.384-.263a25.866 25.866 0 00-3.913-2.372c-1.581-.725-3.209-1.379-4.973-2l-.817-.3a15.538 15.538 0 00-1.775-.59 36.83 36.83 0 00-5.869-1.093l-.323-.024a45.855 45.855 0 00-6.319-.174c-.666.045-1.342.076-2.021.109a44.357 44.357 0 00-4.5.361 24.884 24.884 0 00-2.818.618l-.939.254a45.207 45.207 0 00-9.5 3.3 23.062 23.062 0 00-7.43 6.317 32.418 32.418 0 00-2.677 4.269 28.774 28.774 0 00-2.048 4.877 25.332 25.332 0 00-1.277 5.637 51.523 51.523 0 00-.314 6.572 30.619 30.619 0 003.609 13.774c.152.294.3.593.445.889.239.486.475.968.733 1.426a18.188 18.188 0 002.9 3.9c1.132 1.155 2.178 2.313 3.427 3.707a16.338 16.338 0 012.971 4.423c.142.333.293.66.444.99a15.175 15.175 0 011.467 4.418 24.55 24.55 0 01-.161 6.785c-.1.594-.2 1.181-.284 1.755a27.266 27.266 0 01-.89 4.281 48.255 48.255 0 01-2.047 5.1 30.4 30.4 0 01-2.712 4.539c-.4.589-.768 1.205-1.14 1.83-.257.448-.543.927-.849 1.406z" class="prefix__cls-10" data-name="Path 8816" transform="translate(-1285.549 -1063.708)"/>
            </g>
            <path id="prefix__Path_8817" d="M1323.17 1124.683c1.507-.082 3.108-.244 4.655-.421-.434 1-.842 2.036-1.235 3.095-1.018 2.715-1.669 5.687-2.62 8.361h-5.307c.339-1.194.706-2.389 1.14-3.542a55.461 55.461 0 013.367-7.493z" data-name="Path 8817" transform="translate(-1273.718 -1040.098)" style="opacity:.2;fill-rule:evenodd;fill:#ed4e67"/>
            <path id="prefix__Path_8818" d="M1359.011 1114.024a31.909 31.909 0 00-2.7 1.859c-.529.394-1.14.5-1.262 1.031-.19.774.679 1.547 1.032 2.1a3.452 3.452 0 01.475 2.457 2.648 2.648 0 01-1.032 1.385c-.095.081-.339.149-.271.353a1.547 1.547 0 01.353 1.507c-.2.8-1.045 1.031-1.547 1.466a4.359 4.359 0 00-.787 2.335 2.216 2.216 0 00.041.556 11.929 11.929 0 001.018 2.538 4.046 4.046 0 010 2.932 9.346 9.346 0 01-2.769 4.4 9.92 9.92 0 01-4.492 1.629c.177-.407.339-.814.475-1.208a4.046 4.046 0 000-2.932 11.387 11.387 0 01-1.018-2.538 2.1 2.1 0 01-.041-.543 4.364 4.364 0 01.787-2.348c.5-.434 1.344-.665 1.547-1.466a1.547 1.547 0 00-.353-1.507c-.068-.19.177-.271.271-.353a2.6 2.6 0 001.032-1.385 3.453 3.453 0 00-.475-2.457c-.353-.543-1.222-1.33-1.032-2.1.122-.516.733-.638 1.262-1.031.923-.665 1.737-1.29 2.7-1.859.882-.516 1.968-1.045 1.737-2.457-.19-1.249-1.262-2.1-1.982-2.972a9.094 9.094 0 01-1.031-1.425c-.285-.529-.461-1.127-.747-1.7a24.582 24.582 0 00-1.778-3.135 9.957 9.957 0 01-1.032-1.425 4.961 4.961 0 01-.76-1.7c0-.367.462-.936.6-1.194a8.969 8.969 0 001.344-3.963 5.279 5.279 0 00-.746-2.809c-.869-1.574-1.656-3.013-2.416-4.682-.38-.828-.638-1.683-.95-2.565a37.805 37.805 0 00-4.873-9.27 14.694 14.694 0 00-3.57-3.529 30.074 30.074 0 00-4.4-2.7c-1.547-.706-3.189-1.371-5.036-2.022-.869-.3-1.737-.679-2.647-.909a37.4 37.4 0 00-5.986-1.1 47.975 47.975 0 00-6.732-.2c-2.185.149-4.479.149-6.583.475a24.222 24.222 0 00-2.891.638 58.337 58.337 0 00-9.514 3.081 23.048 23.048 0 015.728-4.3c3.095-1.656 6.773-2.579 10.573-3.61a27.2 27.2 0 012.891-.624c2.1-.326 4.4-.339 6.583-.475a50.171 50.171 0 016.732.19 37.377 37.377 0 015.985 1.113 25.309 25.309 0 012.647.909c1.846.652 3.488 1.317 5.036 2.022a29.976 29.976 0 014.4 2.688 14.692 14.692 0 013.57 3.529 38.3 38.3 0 014.873 9.27c.312.9.57 1.751.95 2.579.76 1.669 1.547 3.108 2.416 4.669a5.329 5.329 0 01.746 2.823 9.031 9.031 0 01-1.344 3.963c-.136.244-.6.814-.6 1.181a5.136 5.136 0 00.76 1.71 10.75 10.75 0 001.032 1.425 24.484 24.484 0 011.778 3.122c.285.584.462 1.181.747 1.71a10.564 10.564 0 001.031 1.425c.719.869 1.792 1.71 1.982 2.973.231 1.404-.855 1.92-1.737 2.45z" data-name="Path 8818" transform="translate(-1283.16 -1061.551)" style="fill:#7d1749;opacity:.2;fill-rule:evenodd"/>
            <g id="prefix__Group_10382" data-name="Group 10382" transform="translate(115.29 15.659)">
                <g id="prefix__Group_10381" data-name="Group 10381">
                    <g id="prefix__Group_10377" data-name="Group 10377" transform="translate(17.485)">
                        <g id="prefix__Group_10373" data-name="Group 10373" transform="translate(7.088 5.388)">
                            <g id="prefix__Group_10371" data-name="Group 10371" transform="translate(.869 .246)">
                                <path id="prefix__Path_8819" d="M1397.726 1078.415l-8.145 2.677v3.9l8.145-2.67z" class="prefix__cls-17" data-name="Path 8819" transform="translate(-1389.114 -1077.77)"/>
                                <path id="prefix__Path_8820" d="M1389.237 1080.923l9.079-2.983v4.891l-9.079 2.975zm8.146-1.7l-7.214 2.371v2.921l7.214-2.364z" class="prefix__cls-10" data-name="Path 8820" transform="translate(-1389.237 -1077.94)"/>
                            </g>
                            <g id="prefix__Group_10372" data-name="Group 10372">
                                <path id="prefix__Path_8821" d="M1397.953 1078.487l-1.164-.368-7.757 2.443-.087 4.2.829.354.034-.034v-3.882l8.078-2.651a.74.74 0 00.067-.06z" class="prefix__cls-17" data-name="Path 8821" transform="translate(-1388.472 -1077.63)"/>
                                <path id="prefix__Path_8822" d="M1390.005 1085.795l.36-.36.033-.227v-3.544l8.009-2.718.543-.543-2.037-.645-8.216 2.588-.1 4.845z" class="prefix__cls-10" data-name="Path 8822" transform="translate(-1388.597 -1077.758)"/>
                            </g>
                        </g>
                        <g id="prefix__Group_10376" data-name="Group 10376">
                            <g id="prefix__Group_10374" data-name="Group 10374" transform="translate(.876 .254)">
                                <path id="prefix__Path_8823" d="M1392.509 1074.45l-8.146 2.671v3.909l8.146-2.671z" class="prefix__cls-17" data-name="Path 8823" transform="translate(-1383.897 -1073.807)"/>
                                <path id="prefix__Path_8824" d="M1384.02 1076.952l9.079-2.977v4.89l-9.079 2.977zm8.146-1.69l-7.214 2.366v2.926l7.214-2.365z" class="prefix__cls-10" data-name="Path 8824" transform="translate(-1384.02 -1073.976)"/>
                            </g>
                            <g id="prefix__Group_10375" data-name="Group 10375">
                                <path id="prefix__Path_8825" d="M1392.738 1074.524l-1.171-.375-7.757 2.443-.087 4.2.836.354.034-.026v-3.889l8.072-2.644c.046-.041.073-.061.073-.061z" class="prefix__cls-17" data-name="Path 8825" transform="translate(-1383.25 -1073.66)"/>
                                <path id="prefix__Path_8826" d="M1384.755 1081.808l.4-.31.034-.253v-3.545l7.91-2.629.63-.544-.719-.314-1.312-.42-8.217 2.588-.1 4.847z" class="prefix__cls-10" data-name="Path 8826" transform="translate(-1383.374 -1073.789)"/>
                            </g>
                        </g>
                    </g>
                    <g id="prefix__Group_10380" data-name="Group 10380" transform="translate(0 .932)">
                        <g id="prefix__Group_10378" data-name="Group 10378" transform="translate(6.213)">
                            <path id="prefix__Path_8827" d="M1399.584 1082.412l-12.395-7.937s-11.478 3.688-11.834 4.678-.354 6.866-.14 8.5 4.464 4.317 4.464 4.317l7.864.214 11.191-3.614a11.013 11.013 0 00.85-6.158z" data-name="Path 8827" transform="translate(-1375.069 -1074.475)" style="fill-rule:evenodd;fill:#ed4e67"/>
                            <path id="prefix__Path_8828" d="M1375.3 1078.079a46.207 46.207 0 00-.087 8.286c.214 1.627 4.464 4.317 4.464 4.317l7.811.214.067-5.434z" class="prefix__cls-19" data-name="Path 8828" transform="translate(-1375.068 -1073.187)"/>
                            <path id="prefix__Path_8829" d="M1375.073 1082.089a34.279 34.279 0 00.141 3.439c.214 1.628 4.464 4.318 4.464 4.318l7.864.214 11.191-3.614a10.945 10.945 0 00.863-6.024c-1.894.776-9.115 3.7-11.506 4.129l-7.51 1.346z" class="prefix__cls-19" data-name="Path 8829" transform="translate(-1375.068 -1072.35)"/>
                            <path id="prefix__Path_8830" d="M1375.073 1081.65a34.282 34.282 0 00.141 3.439c.214 1.627 4.464 4.317 4.464 4.317l7.811.214.067-5.409-6.975 1.246z" class="prefix__cls-19" data-name="Path 8830" transform="translate(-1375.068 -1071.911)"/>
                            <path id="prefix__Path_8831" d="M1386.213 1077.8c-1.653-.9-3.34-.977-3.775-.18s.548 2.176 2.2 3.071 3.333.984 3.769.181-.55-2.174-2.2-3.072z" class="prefix__cls-19" data-name="Path 8831" transform="translate(-1372.473 -1073.546)"/>
                        </g>
                        <g id="prefix__Group_10379" data-name="Group 10379" transform="translate(0 9.501)">
                            <path id="prefix__Path_8832" d="M1382.037 1089.316c.682-.958.395-3.507.148-4.077s-4.384-4.028-5.448-3.747a8.008 8.008 0 00-1.379.669c-1.76 1.144-4.919 3.861-4.866 4.779.073 1.131 2.169 4.236 3.259 4.11.991-.114 7.671-.858 8.286-1.733z" class="prefix__cls-14" data-name="Path 8832" transform="translate(-1370.491 -1081.475)"/>
                            <path id="prefix__Path_8833" d="M1375.126 1081.99a9.031 9.031 0 012.135 1.144 9.955 9.955 0 012.55 2.8 7.964 7.964 0 011.025 3.7c-.369.113-.824.227-1.312.334a7.15 7.15 0 00-.843-3.32 8.676 8.676 0 00-2.2-2.436 8.2 8.2 0 00-2.69-1.251c.482-.375.943-.71 1.338-.97zm-2.964 2.343a6.413 6.413 0 013.407 2.8 9.044 9.044 0 011.064 3.34c-.461.067-.911.126-1.312.18a7.677 7.677 0 00-.9-2.852 5.066 5.066 0 00-3.333-2.389 14.709 14.709 0 011.078-1.078z" class="prefix__cls-17" data-name="Path 8833" transform="translate(-1370.28 -1081.291)"/>
                        </g>
                    </g>
                </g>
            </g>
            <path id="prefix__Path_8834" d="M1348.506 1163.247a58.217 58.217 0 01-16.674-2.705c-2.879-.919-3.2-2.3-3.067-3.169q-.969.087-1.968.186c-8.87.886-14.334-.193-16.249-3.208-1.676-2.641.041-5.573.115-5.7l1.17-1.773 1.7 1.124-1.146 1.736s-1.116 1.962-.113 3.525c.832 1.3 3.8 3.313 14.314 2.261q1.991-.2 3.87-.349c4.776-3.34 18.9-5.8 33.932-4.229a18.168 18.168 0 00-.126-4.353c-2.459-17.653.44-52.868 29.016-59.8l1.117-.227.4 2-1.078.219c-25.15 6.1-30.192 37.75-27.436 57.528a20.469 20.469 0 01.137 4.873q2.567.328 5.14.821c10.329 2 10.971 2.9 10.8 4.142-.153 1.118-.924 1.858-9.869 1.941-3.272.027-6.693-.052-8.786-.137a11.492 11.492 0 01-1.391 1.389c-3.43 2.897-8.538 3.905-13.808 3.905zm-17.722-5.565s.171.436 1.669.915c6.918 2.208 21.788 4.881 28.551-.817l.022-.019q-.407-.047-.9-.107a137.87 137.87 0 00-28.959-.482c-.36.33-.383.509-.383.51zm34.264-1.712a127.311 127.311 0 0013.777-.2c-1.31-.4-3.609-.979-7.646-1.758-1.717-.331-3.417-.6-5.091-.823a12.161 12.161 0 01-1.039 2.782zm-21.1-1.353a127.938 127.938 0 0116.417 1.009c.751.091 1.342.163 1.779.2.17.014.362.027.575.041a9.775 9.775 0 001.307-2.918c-11.554-1.224-21.715.06-27.721 1.855 2.775-.132 5.321-.186 7.648-.186z" class="prefix__cls-10" data-name="Path 8834" transform="translate(-1276.879 -1053.565)"/>
            <g id="prefix__Group_10388" data-name="Group 10388" transform="translate(17.708 31.687)">
                <path id="prefix__Path_8835" d="M1303.947 1110.79l3.485 6.923.381 4.861h15.787l.151-5.977 5.381-8.01z" class="prefix__cls-11" data-name="Path 8835" transform="translate(-1296.684 -1077.385)"/>
                <circle id="prefix__Ellipse_270" cx="18.802" cy="18.802" r="18.802" class="prefix__cls-11" data-name="Ellipse 270" transform="translate(.282 .752)"/>
                <path id="prefix__Path_8836" d="M1334.731 1104.956a18.778 18.778 0 01-7.892 15.31l-2.926 4.344-.148 5.98h-4.18l.077-3.146 2.926-4.343a18.8 18.8 0 00-19.1-32.235 18.8 18.8 0 0131.244 14.091z" data-name="Path 8836" transform="translate(-1296.848 -1085.4)" style="opacity:.2;fill:#f1647d"/>
                <rect id="prefix__Rectangle_2551" width="14.413" height="3.844" class="prefix__cls-11" data-name="Rectangle 2551" rx="1.256" transform="translate(11.95 53.964)"/>
                <path id="prefix__Rectangle_2552" d="M0 0H5.782V2.264H0z" class="prefix__cls-11" data-name="Rectangle 2552" transform="translate(16.221 58.681)"/>
                <g id="prefix__Group_10387" data-name="Group 10387">
                    <g id="prefix__Group_10386" data-name="Group 10386">
                        <g id="prefix__Group_10383" data-name="Group 10383" transform="translate(9.751 47.218)">
                            <path id="prefix__Path_8837" d="M1322 1120.387h-13.722a2.5 2.5 0 000 4.992H1322a2.5 2.5 0 000-4.992z" class="prefix__cls-11" data-name="Path 8837" transform="translate(-1305.78 -1120.387)"/>
                            <path id="prefix__Path_8838" d="M1306.527 1125.451a5.059 5.059 0 004.334 4.991 4.147 4.147 0 008.027 0 5.057 5.057 0 004.324-4.989v-.571h-16.685z" class="prefix__cls-11" data-name="Path 8838" transform="translate(-1305.513 -1118.782)"/>
                        </g>
                        <g id="prefix__Group_10384" class="prefix__cls-21" data-name="Group 10384" transform="translate(11.669 47.216)">
                            <path id="prefix__Path_8839" d="M1307.193 1124.014l3.94.071h-3.366a2.235 2.235 0 01-.574-.071z" class="prefix__cls-9" data-name="Path 8839" transform="translate(-1307.193 -1119.09)"/>
                            <path id="prefix__Path_8840" d="M1322.931 1122.879a2.5 2.5 0 01-2.5 2.5h-2.692a2.5 2.5 0 00-.717-4.874l-6.858-.121h10.266a2.5 2.5 0 012.501 2.495z" class="prefix__cls-9" data-name="Path 8840" transform="translate(-1306.132 -1120.386)"/>
                            <path id="prefix__Path_8841" d="M1321.94 1124.88v.574a5.055 5.055 0 01-4.321 4.988 4.13 4.13 0 01-4.011 3.1 4.04 4.04 0 01-1.806-.411 4.121 4.121 0 002.2-2.621 5.059 5.059 0 004.414-4.917l.007-.566-8.339-.149z" class="prefix__cls-9" data-name="Path 8841" transform="translate(-1306.161 -1118.78)"/>
                        </g>
                        <g id="prefix__Group_10385" class="prefix__cls-21" data-name="Group 10385" transform="translate(15.609 52.211)">
                            <path id="prefix__Path_8842" d="M1317.762 1124.066a2.382 2.382 0 01-.807.121l-6.858-.121z" class="prefix__cls-10" data-name="Path 8842" transform="translate(-1310.096 -1124.066)"/>
                        </g>
                        <path id="prefix__Path_8843" d="M1326.724 1131.67h-18.142v-6.57a79.838 79.838 0 00-5.794-8.476 19.108 19.108 0 1129.935-.126 90.494 90.494 0 00-6 8.768zm-17-1.143h15.857v-5.581l.081-.136a92.385 92.385 0 016.041-8.869 18.232 18.232 0 003.785-8.648 17.968 17.968 0 10-35.748-2.872 17.735 17.735 0 003.693 11.173 84.924 84.924 0 015.923 8.568l.366.623z" class="prefix__cls-22" data-name="Path 8843" transform="translate(-1298.596 -1085.598)"/>
                    </g>
                    <path id="prefix__Rectangle_2553" d="M0 0H1.306V20.277H0z" class="prefix__cls-22" data-name="Rectangle 2553" transform="rotate(-12.31 123.183 -41.49)"/>
                    <path id="prefix__Rectangle_2554" d="M0 0H20.694V1.143H0z" class="prefix__cls-22" data-name="Rectangle 2554" transform="rotate(-77.903 38.524 9.759)"/>
                    <path id="prefix__Path_8844" d="M1313.161 1111.248l-1.143-4.381-3.106 2.078-.454-.678 4.06-2.717.816 3.129 2.1-5.1 1.728 4.93 3.059-1.4.339.742-3.872 1.771-1.314-3.749z" class="prefix__cls-22" data-name="Path 8844" transform="translate(-1295.072 -1079.174)"/>
                </g>
                <path id="prefix__Path_8845" d="M1316.373 1105.729l-.71-.265.649-1.75-1.994-1.657-.106-.144a34.109 34.109 0 01-1.585-4.7.742.742 0 00-.375-.475c-1.164-.7-4.3-.149-5.7.187l-.916 7.325-.755-.047v-7.561l-3.709-4.056.561-.512 3.807 4.163.1.256v1.619l.191-1.539.281-.32c.486-.127 4.8-1.212 6.535-.166a1.488 1.488 0 01.722.952 33.606 33.606 0 001.509 4.491l2.128 1.77.113.423z" class="prefix__cls-22" data-name="Path 8845" transform="translate(-1297.677 -1083.283)"/>
            </g>
        </g>
    </g>
</svg>
