<svg xmlns="http://www.w3.org/2000/svg" width="161.06" height="161.202" viewBox="0 0 161.06 161.202">
    <defs>
        <clipPath id="prefix__clip-path">
            <circle id="prefix__Ellipse_255" cx="26.587" cy="26.587" r="26.587" class="prefix__cls-1" data-name="Ellipse 255"/>
        </clipPath>
        <style>
            .prefix__cls-1,.prefix__cls-16{fill:none}.prefix__cls-9{fill:#ed4e67}.prefix__cls-3{fill:#f7657d;isolation:isolate;opacity:.429}.prefix__cls-6{fill:#bf2640}.prefix__cls-8{fill:#fff}.prefix__cls-10{clip-path:url(#prefix__clip-path)}.prefix__cls-11{fill:#bf263f}.prefix__cls-12,.prefix__cls-14{opacity:.2}.prefix__cls-13,.prefix__cls-14,.prefix__cls-17{fill:#f1647d}.prefix__cls-16{stroke:#bf2640;stroke-miterlimit:10;stroke-width:1.632px}.prefix__cls-17{opacity:.1}
        </style>
    </defs>
    <g id="prefix__Group_11265" data-name="Group 11265" transform="translate(-1102.971 -1043.356)">
        <g id="prefix__Group_6942" data-name="Group 6942" transform="translate(1102.971 1043.356)">
            <path id="prefix__Rectangle_1795" d="M1205.355 1066.237l37.806 39.667a26.841 26.841 0 01-1.282 38.407l-40.369 37.149a28 28 0 01-39.089-1.26l-37.806-39.667a26.841 26.841 0 011.283-38.407l40.369-37.149a28 28 0 0139.088 1.26z" data-name="Rectangle 1795" transform="translate(-1107.32 -1038.29)" style="opacity:.15;fill:#ed4e67"/>
            <path id="prefix__Path_8707" d="M1210.852 1160.572a3.582 3.582 0 01-3.561-3.109 3.486 3.486 0 01.719-2.594 3.606 3.606 0 016.409 1.729 3.487 3.487 0 01-.717 2.593 3.585 3.585 0 01-2.411 1.356 3.983 3.983 0 01-.439.025zm.005-5.612a1.88 1.88 0 00-.262.015 2.117 2.117 0 00-1.428.8 2.03 2.03 0 00-.42 1.506 2.139 2.139 0 003.794 1.005 2.022 2.022 0 00.419-1.506 2.106 2.106 0 00-2.103-1.82z" class="prefix__cls-3" data-name="Path 8707" transform="translate(-1075.36 -1004.296)"/>
            <path id="prefix__Path_8708" d="M1126.609 1166.839l.143-6.051-5.019-3.561 5.929-1.747 1.884-5.772 3.5 4.971 6.182-.012-3.748 4.835 1.924 5.768-5.824-2zm-1.554-9.06l3.185 2.262-.091 3.884 3.2-2.295 3.728 1.28-1.23-3.69 2.388-3.078-3.942.007-2.256-3.2-1.214 3.719z" data-name="Path 8708" transform="translate(-1105.693 -1005.637)" style="opacity:.418;fill:#f7657d;isolation:isolate"/>
            <path id="prefix__Path_8709" d="M1207.72 1063.389l-1.061-4.263-4.2-1.58 3.824-2.32.221-4.387 3.406 2.841 4.328-1.162-1.7 4.084 2.452 3.7-4.472-.331zm-1.916-6.154l2.1.788.539 2.167 1.425-1.741 2.243.165-1.229-1.855.852-2.048-2.178.584-1.73-1.443-.113 2.224z" data-name="Path 8709" transform="translate(-1077.064 -1040.701)" style="opacity:.369;fill:#f7657d;isolation:isolate"/>
            <path id="prefix__Path_8710" d="M1124.361 1068.444a5.6 5.6 0 01-5.576-4.859 5.443 5.443 0 011.124-4.049 5.645 5.645 0 0110.03 2.7 5.438 5.438 0 01-1.123 4.052 5.6 5.6 0 01-3.77 2.119 5.87 5.87 0 01-.685.037zm.005-9.6a4.091 4.091 0 00-.509.032 4.139 4.139 0 00-2.789 1.565 3.979 3.979 0 00-.824 2.963 4.177 4.177 0 007.414 1.976 3.994 3.994 0 00.823-2.964 4.128 4.128 0 00-4.115-3.572z" class="prefix__cls-3" data-name="Path 8710" transform="translate(-1106.754 -1038.384)"/>
            <path id="prefix__Path_8711" d="M1113.482 1073.82a3.582 3.582 0 01-3.561-3.109 3.49 3.49 0 01.719-2.6 3.606 3.606 0 016.409 1.73 3.487 3.487 0 01-.717 2.593 3.588 3.588 0 01-2.411 1.356 4.1 4.1 0 01-.439.03zm0-5.613a2.446 2.446 0 00-.26.015 2.117 2.117 0 00-1.425.8 2.025 2.025 0 00-.421 1.508 2.139 2.139 0 003.794 1.005 2.029 2.029 0 00.418-1.506 2.109 2.109 0 00-2.104-1.822z" class="prefix__cls-3" data-name="Path 8711" transform="translate(-1109.893 -1035.063)"/>
            <path id="prefix__Path_8712" d="M1210.679 1075.012a5.245 5.245 0 01-.583-.034 4.768 4.768 0 01-3.211-1.8 4.636 4.636 0 01-.956-3.448 4.807 4.807 0 018.539-2.3 4.629 4.629 0 01.958 3.449 4.77 4.77 0 01-4.747 4.133zm-3.508-5.131a3.4 3.4 0 00.7 2.522 3.556 3.556 0 006.313-1.684 3.393 3.393 0 00-.7-2.523 3.557 3.557 0 00-6.311 1.684z" class="prefix__cls-3" data-name="Path 8712" transform="translate(-1075.845 -1035.469)"/>
            <path id="prefix__Path_8713" d="M1221.332 1078.821a4.007 4.007 0 01-.44-.026 3.583 3.583 0 01-2.41-1.356 3.482 3.482 0 01-.717-2.593 3.6 3.6 0 016.407-1.73 3.49 3.49 0 01.721 2.6 3.583 3.583 0 01-3.561 3.105zm0-5.613a2.108 2.108 0 00-2.105 1.821 2.023 2.023 0 00.419 1.506 2.138 2.138 0 003.793-1.005 2.024 2.024 0 00-.42-1.508 2.115 2.115 0 00-1.427-.8 2.4 2.4 0 00-.264-.015z" class="prefix__cls-3" data-name="Path 8713" transform="translate(-1071.645 -1033.29)"/>
            <path id="prefix__Path_8714" d="M1194.141 1187.443a.664.664 0 01-.011-1.327c.861-.015 1.733-.073 2.586-.171a.676.676 0 01.736.585.668.668 0 01-.585.736c-.9.1-1.808.162-2.713.177zm-2.65-.076h-.052c-.9-.069-1.806-.182-2.7-.337a.663.663 0 01.228-1.307c.851.146 1.716.255 2.57.321a.664.664 0 01-.049 1.326zm7.919-.524a.664.664 0 01-.136-1.314c.841-.178 1.685-.4 2.509-.653a.663.663 0 01.394 1.267c-.863.27-1.746.5-2.629.685a.692.692 0 01-.138.015zm-13.144-.386a.665.665 0 01-.176-.024c-.871-.24-1.739-.523-2.583-.847a.664.664 0 01.473-1.241c.8.309 1.632.58 2.463.807a.664.664 0 01-.176 1.3zm18.205-1.195a.664.664 0 01-.256-1.276c.787-.331 1.574-.706 2.337-1.118a.665.665 0 01.63 1.17c-.8.431-1.627.826-2.453 1.172a.691.691 0 01-.258.052zm-23.161-.7a.672.672 0 01-.3-.068q-.717-.355-1.418-.753l-.944-.535a.664.664 0 11.653-1.156l.943.534c.447.252.9.493 1.356.719a.664.664 0 01-.294 1.258zm27.833-1.818a.664.664 0 01-.37-1.216c.714-.477 1.414-1 2.081-1.544a.664.664 0 01.841 1.027c-.7.574-1.433 1.119-2.184 1.621a.673.673 0 01-.368.115zm-32.474-.763a.672.672 0 01-.328-.085l-2.31-1.31a.665.665 0 11.656-1.157l2.31 1.31a.664.664 0 01-.328 1.242zm36.57-2.6a.664.664 0 01-.47-1.134c.609-.61 1.195-1.255 1.739-1.92a.664.664 0 111.027.841c-.572.7-1.187 1.378-1.826 2.019a.668.668 0 01-.469.194zm-41.19-.018a.678.678 0 01-.329-.085l-2.31-1.31a.665.665 0 11.657-1.156l2.31 1.309a.665.665 0 01-.328 1.242zm-4.619-2.62a.661.661 0 01-.329-.088l-2.31-1.31a.664.664 0 01.657-1.154l2.31 1.311a.664.664 0 01-.328 1.241zm49.171-1.466a.664.664 0 01-.551-1.035c.282-.417.55-.849.81-1.29l.553-.941a.664.664 0 111.146.672l-.554.941q-.408.7-.85 1.359a.665.665 0 01-.555.295zm-53.792-1.156a.657.657 0 01-.328-.087l-2.31-1.311a.663.663 0 01.656-1.153l2.311 1.31a.664.664 0 01-.329 1.241zm-4.62-2.62a.653.653 0 01-.328-.088l-2.31-1.31a.664.664 0 11.655-1.154l2.31 1.311a.664.664 0 01-.328 1.241zm61.141-.78a.658.658 0 01-.336-.092.665.665 0 01-.237-.909l1.345-2.289a.664.664 0 011.146.672l-1.345 2.289a.664.664 0 01-.571.33zm-65.76-1.841a.659.659 0 01-.328-.087l-2.31-1.311a.664.664 0 11.656-1.154l2.31 1.311a.664.664 0 01-.328 1.241zm-4.62-2.62a.654.654 0 01-.328-.088l-2.31-1.311a.663.663 0 11.656-1.153l2.309 1.311a.664.664 0 01-.328 1.241zm73.07-.119a.656.656 0 01-.336-.092.666.666 0 01-.237-.909l1.347-2.288a.664.664 0 111.145.672l-1.345 2.289a.667.667 0 01-.572.329zm-77.69-2.5a.668.668 0 01-.328-.085l-2.311-1.31a.665.665 0 01.657-1.157l2.31 1.31a.665.665 0 01-.328 1.242zm80.381-2.075a.665.665 0 01-.573-1l1.345-2.291a.664.664 0 111.146.672l-1.345 2.291a.666.666 0 01-.57.325zm-85-.544a.679.679 0 01-.329-.087l-2.31-1.31a.665.665 0 01.657-1.156l2.31 1.31a.665.665 0 01-.328 1.242zm-4.621-2.621a.671.671 0 01-.328-.087l-2.31-1.309a.665.665 0 01.657-1.157l2.31 1.31a.664.664 0 01-.329 1.242zm92.313-1.414a.655.655 0 01-.336-.091.665.665 0 01-.237-.909l1.345-2.289a.664.664 0 111.146.672l-1.345 2.289a.666.666 0 01-.576.324zm-96.888-1.277a.674.674 0 01-.373-.114c-.755-.509-1.487-1.058-2.177-1.628a.664.664 0 11.847-1.024c.657.545 1.355 1.066 2.074 1.551a.665.665 0 01-.371 1.215zm99.578-3.3a.656.656 0 01-.336-.091.666.666 0 01-.237-.909l1.347-2.291a.664.664 0 011.145.672l-1.345 2.291a.666.666 0 01-.572.318zm-103.667-.078a.667.667 0 01-.472-.2c-.641-.646-1.253-1.328-1.821-2.025a.664.664 0 111.031-.836c.539.663 1.122 1.31 1.733 1.925a.664.664 0 01-.471 1.132zm-3.353-4.111a.663.663 0 01-.553-.3 26.536 26.536 0 01-1.387-2.342.663.663 0 011.175-.616 25.833 25.833 0 001.319 2.226.663.663 0 01-.187.918.652.652 0 01-.365.108zm109.711-.39a.656.656 0 01-.336-.091.664.664 0 01-.237-.909l1.345-2.289a.664.664 0 011.146.672l-1.347 2.289a.662.662 0 01-.569.321zm-112.186-4.3a.665.665 0 01-.615-.413 26.973 26.973 0 01-.9-2.57.664.664 0 01.451-.823.672.672 0 01.824.451 25.415 25.415 0 00.855 2.443.663.663 0 01-.365.864.653.653 0 01-.248.04zm114.876-.278a.656.656 0 01-.336-.091.665.665 0 01-.237-.909l1.345-2.289a.664.664 0 111.146.672l-1.345 2.289a.666.666 0 01-.571.321zm2.691-4.579a.658.658 0 01-.336-.092.667.667 0 01-.237-.909l1.347-2.289a.664.664 0 111.145.672l-1.345 2.289a.664.664 0 01-.572.322zm-119.073-.228a.666.666 0 01-.651-.54c-.171-.894-.3-1.8-.375-2.693a.664.664 0 011.324-.117c.075.848.2 1.711.356 2.562a.665.665 0 01-.653.788zm121.765-4.352a.666.666 0 01-.573-1l1.345-2.288a.664.664 0 111.146.672l-1.347 2.288a.661.661 0 01-.569.321zm-122.235-.928h-.007a.665.665 0 01-.657-.671c.009-.9.066-1.815.167-2.717a.665.665 0 011.321.148 25.5 25.5 0 00-.16 2.583.662.662 0 01-.662.65zm124.925-3.651a.666.666 0 01-.573-1l1.345-2.289c.185-.313.362-.629.531-.946a.664.664 0 111.172.625c-.177.333-.363.664-.557.994l-1.345 2.289a.666.666 0 01-.571.32zm-124.333-1.619a.716.716 0 01-.141-.014.667.667 0 01-.509-.79c.19-.878.428-1.761.707-2.628a.664.664 0 011.264.408 25.5 25.5 0 00-.672 2.5.665.665 0 01-.647.517zm127.356-4.042a.664.664 0 01-.614-.919 25.864 25.864 0 00.868-2.437.664.664 0 111.272.382c-.26.867-.568 1.73-.912 2.563a.666.666 0 01-.613.404zm-125.723-1a.673.673 0 01-.266-.056.665.665 0 01-.343-.875c.362-.825.77-1.644 1.212-2.436a.665.665 0 011.16.651c-.424.753-.812 1.532-1.156 2.317a.666.666 0 01-.606.39zm127.251-4.075a.655.655 0 01-.126-.012.664.664 0 01-.527-.777 25.429 25.429 0 00.363-2.563.694.694 0 01.722-.6.665.665 0 01.6.721c-.083.9-.21 1.8-.382 2.7a.666.666 0 01-.648.522zm-124.727-.592a.66.66 0 01-.336-.092.666.666 0 01-.237-.909l1.345-2.289a.664.664 0 011.146.672l-1.345 2.289a.664.664 0 01-.572.32zm2.689-4.58a.665.665 0 01-.572-1l1.345-2.29a.664.664 0 111.145.672l-1.345 2.289a.665.665 0 01-.572.322zm122.517-.106a.664.664 0 01-.664-.658c-.01-.862-.061-1.731-.156-2.583a.664.664 0 111.321-.145c.1.9.153 1.808.162 2.714a.665.665 0 01-.657.672zm-119.825-4.473a.665.665 0 01-.573-1l1.345-2.289a.664.664 0 011.146.672l-1.345 2.291a.666.666 0 01-.572.317zm119.242-.8a.663.663 0 01-.648-.527c-.177-.833-.4-1.676-.664-2.5a.664.664 0 111.265-.4c.276.866.511 1.752.7 2.628a.665.665 0 01-.512.787.683.683 0 01-.14.004zm-116.552-3.781a.663.663 0 01-.573-1l1.345-2.291a.664.664 0 111.146.672l-1.345 2.291a.666.666 0 01-.572.32zm114.944-1.271a.666.666 0 01-.611-.4 25.456 25.456 0 00-1.142-2.323.664.664 0 111.161-.646c.435.786.84 1.608 1.2 2.443a.663.663 0 01-.347.872.644.644 0 01-.26.046zm-112.254-3.309a.657.657 0 01-.336-.091.665.665 0 01-.235-.909l1.345-2.29a.664.664 0 011.144.672l-1.345 2.289a.666.666 0 01-.572.321zm109.679-1.326a.665.665 0 01-.546-.287 25.724 25.724 0 00-1.575-2.054.664.664 0 011.011-.86 26.991 26.991 0 011.658 2.159.664.664 0 01-.547 1.042zm-106.987-3.253a.656.656 0 01-.336-.091.664.664 0 01-.237-.909l1.345-2.291a.665.665 0 011.146.673l-1.345 2.289a.666.666 0 01-.572.321zm103.551-.792a.67.67 0 01-.462-.186 25.869 25.869 0 00-1.949-1.707.664.664 0 01.825-1.041c.714.565 1.4 1.168 2.048 1.791a.664.664 0 01-.462 1.142zm-4.156-3.293a.661.661 0 01-.36-.107q-.656-.424-1.345-.815l-.909-.516a.664.664 0 01.656-1.154l.909.516c.481.274.951.557 1.409.854a.664.664 0 01-.359 1.223zm-96.7-.494a.655.655 0 01-.336-.091.666.666 0 01-.237-.909l1.345-2.289a.664.664 0 111.146.672l-1.345 2.289a.666.666 0 01-.577.319zm92.109-2.166a.656.656 0 01-.328-.088l-2.31-1.311a.663.663 0 11.656-1.153l2.31 1.311a.664.664 0 01-.328 1.241zm-89.418-2.413a.656.656 0 01-.336-.091.664.664 0 01-.236-.909l1.345-2.289a.664.664 0 111.145.672l-1.345 2.29a.663.663 0 01-.577.318zm84.8-.208a.652.652 0 01-.328-.087l-2.31-1.311a.664.664 0 11.656-1.154l2.31 1.311a.664.664 0 01-.328 1.241zm-4.619-2.621a.673.673 0 01-.328-.087l-2.31-1.31a.664.664 0 11.656-1.156l2.31 1.31a.664.664 0 01-.328 1.242zm-77.488-1.749a.657.657 0 01-.336-.092.664.664 0 01-.237-.909l1.345-2.289a.664.664 0 111.146.672l-1.345 2.289a.665.665 0 01-.576.319zm72.869-.872a.669.669 0 01-.328-.085l-2.311-1.31a.665.665 0 01.657-1.157l2.31 1.31a.664.664 0 01-.328 1.242zm-4.62-2.621a.677.677 0 01-.329-.085l-2.31-1.31a.665.665 0 11.657-1.155l2.31 1.308a.664.664 0 01-.328 1.242zm-65.559-1.086a.657.657 0 01-.336-.092.665.665 0 01-.237-.909l1.345-2.288a.664.664 0 111.146.672l-1.345 2.289a.666.666 0 01-.578.317zm60.938-1.533a.67.67 0 01-.328-.087l-2.311-1.31a.665.665 0 01.657-1.157l2.311 1.311a.665.665 0 01-.329 1.242zm-4.62-2.621a.657.657 0 01-.328-.087l-2.309-1.311a.663.663 0 11.656-1.153l2.31 1.31a.664.664 0 01-.328 1.241zm-53.609-.414a.676.676 0 01-.357-.1.664.664 0 01-.2-.917 26.943 26.943 0 011.574-2.218.664.664 0 011.043.821c-.531.675-1.033 1.384-1.5 2.111a.664.664 0 01-.562.291zm48.99-2.205a.654.654 0 01-.328-.088l-2.31-1.31a.664.664 0 01.656-1.154l2.31 1.311a.664.664 0 01-.328 1.241zm-45.714-1.964a.656.656 0 01-.459-.186.663.663 0 01-.019-.939c.626-.654 1.292-1.283 1.976-1.868a.663.663 0 11.863 1.008c-.651.558-1.286 1.157-1.881 1.779a.66.66 0 01-.487.194zm41.095-.657a.656.656 0 01-.328-.087l-2.31-1.311a.664.664 0 01.656-1.154l2.31 1.311a.664.664 0 01-.328 1.241zm-4.619-2.621a.67.67 0 01-.328-.087l-2.31-1.31a.664.664 0 11.656-1.156l2.31 1.31a.664.664 0 01-.328 1.242zm-32.447-.175a.664.664 0 01-.382-1.208c.744-.52 1.519-1.008 2.3-1.448a.663.663 0 11.65 1.155c-.746.421-1.483.886-2.19 1.38a.675.675 0 01-.385.109zm27.788-2.373a.663.663 0 01-.283-.064c-.772-.366-1.577-.7-2.392-.992a.663.663 0 11.447-1.248c.858.306 1.7.656 2.511 1.038a.664.664 0 01-.283 1.266zm-23.171-.234a.665.665 0 01-.27-1.272c.823-.365 1.677-.7 2.535-.982a.664.664 0 11.42 1.26c-.817.272-1.631.588-2.416.937a.675.675 0 01-.276.044zm18.181-1.558a.677.677 0 01-.162-.019c-.839-.213-1.693-.386-2.54-.516a.664.664 0 01.2-1.313c.889.137 1.784.318 2.665.541a.664.664 0 01-.163 1.307zm-13.151-.123a.664.664 0 01-.15-1.311c.876-.2 1.774-.367 2.673-.486a.663.663 0 11.178 1.314c-.858.115-1.715.271-2.551.466a.632.632 0 01-.158.004zm7.91-.68h-.039c-.863-.049-1.729-.056-2.591-.023a.659.659 0 01-.69-.639.666.666 0 01.639-.688c.908-.034 1.813-.029 2.719.024a.664.664 0 01-.038 1.328z" class="prefix__cls-6" data-name="Path 8714" transform="translate(-1107.032 -1038.01)"/>
            <path id="prefix__Path_8715" d="M1227.762 1103.393a2.129 2.129 0 01-2.134-1.819 2.016 2.016 0 01.417-1.505 2.175 2.175 0 013.85.994 2.018 2.018 0 01-.416 1.506 2.156 2.156 0 01-1.458.809 2.13 2.13 0 01-.259.015zm0-3.278a1.254 1.254 0 00-.16.01 1.285 1.285 0 00-.874.479 1.153 1.153 0 00-.24.859 1.265 1.265 0 001.429 1.051 1.287 1.287 0 00.872-.482 1.147 1.147 0 00.241-.858 1.257 1.257 0 00-1.265-1.059z" class="prefix__cls-3" data-name="Path 8715" transform="translate(-1068.852 -1023.534)"/>
            <path id="prefix__Path_8716" d="M1210.98 1153.911a5.6 5.6 0 01-5.573-4.859 5.443 5.443 0 011.123-4.049 5.645 5.645 0 0110.031 2.7 5.44 5.44 0 01-1.124 4.052 5.6 5.6 0 01-3.77 2.119 5.872 5.872 0 01-.687.037zm.01-9.6a4.237 4.237 0 00-3.3 1.6 3.98 3.98 0 00-.822 2.961 4.176 4.176 0 007.412 1.978 3.981 3.981 0 00.825-2.964 4.126 4.126 0 00-4.115-3.574z" data-name="Path 8716" transform="translate(-1076.033 -1008.072)" style="opacity:.25;fill:#f7657d;isolation:isolate"/>
            <path id="prefix__Path_8717" d="M1147.905 1047.5a2.128 2.128 0 01-2.134-1.818 2.008 2.008 0 01.416-1.505 2.175 2.175 0 013.851.995 2.007 2.007 0 01-.416 1.5 2.153 2.153 0 01-1.458.813c-.086.015-.174.015-.259.015zm0-3.28a1.33 1.33 0 00-1.033.493 1.155 1.155 0 00-.24.856 1.264 1.264 0 001.431 1.051 1.282 1.282 0 00.874-.484 1.147 1.147 0 00.239-.855 1.257 1.257 0 00-1.271-1.057z" class="prefix__cls-3" data-name="Path 8717" transform="translate(-1097.174 -1043.356)"/>
            <path id="prefix__Path_8718" d="M1189.705 1062.788a2.133 2.133 0 01-2.135-1.821 2.018 2.018 0 01.416-1.5 2.176 2.176 0 013.853.993 2 2 0 01-.417 1.5 2.148 2.148 0 01-1.456.813 2.4 2.4 0 01-.261.015zm0-3.28a1.6 1.6 0 00-.161.008 1.29 1.29 0 00-.872.484 1.15 1.15 0 00-.24.856 1.254 1.254 0 001.431 1.051 1.281 1.281 0 00.872-.482 1.152 1.152 0 00.24-.858 1.257 1.257 0 00-1.268-1.058z" class="prefix__cls-3" data-name="Path 8718" transform="translate(-1082.35 -1037.935)"/>
            <path id="prefix__Path_8719" d="M1121.656 1079.027a2.127 2.127 0 01-2.131-1.821 2 2 0 01.415-1.5 2.175 2.175 0 013.853.991 2.013 2.013 0 01-.417 1.505 2.153 2.153 0 01-1.458.81 2.1 2.1 0 01-.262.015zm0-3.28a1.264 1.264 0 00-.158.01 1.28 1.28 0 00-.874.482 1.146 1.146 0 00-.24.856 1.306 1.306 0 002.3.569 1.141 1.141 0 00.241-.857 1.258 1.258 0 00-1.266-1.059z" class="prefix__cls-3" data-name="Path 8719" transform="translate(-1106.482 -1032.177)"/>
            <path id="prefix__Path_8720" d="M1125.546 1143.023a2.132 2.132 0 01-2.134-1.819 2.015 2.015 0 01.417-1.5 2.174 2.174 0 013.851.992 2.014 2.014 0 01-.417 1.505 2.159 2.159 0 01-1.456.812 2.431 2.431 0 01-.261.01zm0-3.28a1.248 1.248 0 00-.16.01 1.283 1.283 0 00-.872.482 1.152 1.152 0 00-.24.857 1.253 1.253 0 001.43 1.05 1.283 1.283 0 00.872-.482 1.151 1.151 0 00.24-.857 1.259 1.259 0 00-1.269-1.059z" class="prefix__cls-3" data-name="Path 8720" transform="translate(-1105.104 -1009.479)"/>
        </g>
        <g id="prefix__Group_10348" data-name="Group 10348" transform="translate(1104.032 1073.657)">
            <g id="prefix__Group_10299" data-name="Group 10299" transform="translate(0 15.581)">
                <circle id="prefix__Ellipse_254" cx="26.587" cy="26.587" r="26.587" class="prefix__cls-8" data-name="Ellipse 254" transform="translate(.632 .633)"/>
                <path id="prefix__Path_8721" d="M1131.251 1131.666a27.22 27.22 0 1127.22-27.219 27.251 27.251 0 01-27.22 27.219zm0-53.174a25.955 25.955 0 1025.955 25.955 25.984 25.984 0 00-25.955-25.956z" class="prefix__cls-6" data-name="Path 8721" transform="translate(-1104.032 -1077.226)"/>
            </g>
            <g id="prefix__Group_10301" data-name="Group 10301" transform="translate(48.177)">
                <g id="prefix__Group_10300" data-name="Group 10300">
                    <path id="prefix__Path_8722" d="M1207.268 1066.247h-58.227a8.923 8.923 0 00-8.923 8.923v33.956l8.815-7.937c.036 0 .072.005.108.005h58.227a8.923 8.923 0 008.922-8.923v-17.1a8.923 8.923 0 00-8.922-8.924z" class="prefix__cls-8" data-name="Path 8722" transform="translate(-1139.411 -1065.539)"/>
                    <path id="prefix__Path_8723" d="M1139.6 1110.9v-35.546a9.641 9.641 0 019.63-9.63h58.227a9.642 9.642 0 019.63 9.63v17.1a9.643 9.643 0 01-9.63 9.632h-58.07zm9.63-43.761a8.224 8.224 0 00-8.215 8.215v32.368l7.835-7.055 58.606.005a8.225 8.225 0 008.215-8.216v-17.1a8.225 8.225 0 00-8.215-8.215z" class="prefix__cls-6" data-name="Path 8723" transform="translate(-1139.596 -1065.724)"/>
                </g>
            </g>
            <g id="prefix__Group_10302" data-name="Group 10302" transform="translate(56.146 6.919)">
                <rect id="prefix__Rectangle_2539" width="22.13" height="4.004" class="prefix__cls-9" data-name="Rectangle 2539" rx="1.298"/>
                <rect id="prefix__Rectangle_2540" width="60.7" height="4.004" class="prefix__cls-9" data-name="Rectangle 2540" rx="1.298" transform="translate(0 7.693)"/>
                <rect id="prefix__Rectangle_2541" width="41.099" height="4.004" class="prefix__cls-9" data-name="Rectangle 2541" rx="1.298" transform="translate(0 15.861)"/>
            </g>
            <g id="prefix__Group_10315" data-name="Group 10315" transform="translate(.632 16.214)">
                <g id="prefix__Group_10314" class="prefix__cls-10" data-name="Group 10314">
                    <g id="prefix__Group_10313" data-name="Group 10313" transform="translate(8.719 10.571)">
                        <g id="prefix__Group_10307" data-name="Group 10307" transform="translate(0 23.469)">
                            <g id="prefix__Group_10303" data-name="Group 10303" transform="translate(3.2 5.99)">
                                <rect id="prefix__Rectangle_2542" width="27.31" height="12.828" class="prefix__cls-8" data-name="Rectangle 2542" rx="4.159" transform="translate(.233 .232)"/>
                                <path id="prefix__Path_8724" d="M1134.426 1120.535h-14.483a6.646 6.646 0 110-13.292h14.483a6.646 6.646 0 110 13.292zm-14.483-12.827a6.181 6.181 0 000 12.363h14.483a6.181 6.181 0 100-12.363z" class="prefix__cls-11" data-name="Path 8724" transform="translate(-1113.297 -1107.243)"/>
                            </g>
                            <g id="prefix__Group_10305" data-name="Group 10305" transform="translate(13.606)">
                                <g id="prefix__Group_10304" data-name="Group 10304">
                                    <rect id="prefix__Rectangle_2543" width="11.163" height="6.498" class="prefix__cls-8" data-name="Rectangle 2543" rx="2.106" transform="rotate(90 3.249 3.481)"/>
                                    <path id="prefix__Path_8725" d="M1125.632 1114.448h-2.343a2.312 2.312 0 01-2.31-2.31v-7.008a2.312 2.312 0 012.31-2.31h2.343a2.312 2.312 0 012.31 2.31v7.008a2.312 2.312 0 01-2.31 2.31zm-2.343-11.162a1.847 1.847 0 00-1.845 1.845v7.008a1.847 1.847 0 001.845 1.845h2.343a1.847 1.847 0 001.845-1.845v-7.008a1.847 1.847 0 00-1.845-1.845z" class="prefix__cls-11" data-name="Path 8725" transform="translate(-1120.979 -1102.821)"/>
                                </g>
                                <rect id="prefix__Rectangle_2544" width="13.025" height="5.793" class="prefix__cls-8" data-name="Rectangle 2544" rx="1.878" transform="rotate(90 3.073 3.305)"/>
                            </g>
                            <g id="prefix__Group_2364" data-name="Group 2364" transform="translate(0 7.232)">
                                <g id="prefix__Group_2362" data-name="Group 2362">
                                    <g id="prefix__Group_10306" data-name="Group 10306">
                                        <path id="prefix__Path_832" d="M1144.816 1117.819v3.137h-33.709v-3.137a10.29 10.29 0 016.372-9.488 11.521 11.521 0 0021.39.192 7.6 7.6 0 01.8.411 10.249 10.249 0 013.273 2.992 10.139 10.139 0 011.874 5.893z" class="prefix__cls-8" data-name="Path 832" transform="translate(-1110.874 -1108.098)"/>
                                        <path id="prefix__Path_8726" d="M1144.877 1121.25h-33.709a.233.233 0 01-.233-.233v-3.137a10.5 10.5 0 016.517-9.7.232.232 0 01.3.13 11.288 11.288 0 0020.958.19.226.226 0 01.127-.127.234.234 0 01.182 0 8.084 8.084 0 01.828.421 10.571 10.571 0 013.345 3.062 10.317 10.317 0 011.914 6.027v3.136a.233.233 0 01-.229.231zm-33.476-.465h33.243v-2.906a9.849 9.849 0 00-1.828-5.757 10.112 10.112 0 00-3.2-2.927c-.184-.107-.374-.207-.566-.3a11.753 11.753 0 01-21.638-.2 10.031 10.031 0 00-6.012 9.183z" class="prefix__cls-11" data-name="Path 8726" transform="translate(-1110.935 -1108.159)"/>
                                    </g>
                                </g>
                            </g>
                            <g id="prefix__Group_2364-2" class="prefix__cls-12" data-name="Group 2364" transform="translate(1.123 7.465)">
                                <g id="prefix__Group_2362-2" data-name="Group 2362">
                                    <path id="prefix__Path_8727" d="M1138.035 1109.76a11.514 11.514 0 01-21.253-.5 10.282 10.282 0 00-5.018 4.409 10.265 10.265 0 015.484-5.339 11.514 11.514 0 0020.787 1.428z" class="prefix__cls-13" data-name="Path 8727" transform="translate(-1111.764 -1108.332)"/>
                                    <path id="prefix__Path_8728" d="M1137.664 1117.77v3.135h-.465v-2.2a10.176 10.176 0 00-1.869-5.894 10.311 10.311 0 00-3.276-3 7.684 7.684 0 00-.782-.4c.164-.306.308-.623.443-.944a8.71 8.71 0 01.8.409 10.3 10.3 0 013.274 3 10.15 10.15 0 011.875 5.894z" class="prefix__cls-13" data-name="Path 8728" transform="translate(-1104.845 -1108.282)"/>
                                </g>
                            </g>
                            <g id="prefix__Group_2364-3" data-name="Group 2364" transform="translate(27.394 8.586)">
                                <g id="prefix__Group_2362-3" data-name="Group 2362">
                                    <path id="prefix__Path_8729" d="M1131.314 1109.172c-.046.1-.1.2-.157.294.046-.1.092-.2.134-.307a.087.087 0 01.023.013z" class="prefix__cls-13" data-name="Path 8729" transform="translate(-1131.157 -1109.159)"/>
                                </g>
                            </g>
                            <g id="prefix__Group_2364-4" data-name="Group 2364" transform="translate(27.394 8.586)">
                                <g id="prefix__Group_2362-4" data-name="Group 2362">
                                    <path id="prefix__Path_8730" d="M1131.314 1109.172c-.046.1-.1.2-.157.294.046-.1.092-.2.134-.307a.087.087 0 01.023.013z" class="prefix__cls-13" data-name="Path 8730" transform="translate(-1131.157 -1109.159)"/>
                                </g>
                            </g>
                        </g>
                        <g id="prefix__Group_10308" data-name="Group 10308" transform="translate(7.788 2.541)">
                            <rect id="prefix__Rectangle_2545" width="18.048" height="28.16" class="prefix__cls-8" data-name="Rectangle 2545" rx="5.851" transform="translate(.233 .232)"/>
                            <path id="prefix__Path_8731" d="M1125.942 1116a9.268 9.268 0 01-9.258-9.256v-10.111a9.257 9.257 0 0118.514 0v10.111a9.267 9.267 0 01-9.256 9.256zm0-28.159a8.8 8.8 0 00-8.792 8.792v10.111a8.8 8.8 0 008.792 8.792 8.8 8.8 0 008.792-8.792v-10.111a8.8 8.8 0 00-8.792-8.796z" class="prefix__cls-6" data-name="Path 8731" transform="translate(-1116.684 -1087.372)"/>
                        </g>
                        <path id="prefix__Path_8732" d="M1133.8 1096.429v10.111a9.05 9.05 0 01-9.023 9.025 8.95 8.95 0 01-4.8-1.391 8.942 8.942 0 003.041.53 9.05 9.05 0 009.025-9.024v-10.113a8.988 8.988 0 00-2.652-6.372 9.129 9.129 0 00-1.571-1.256 9.091 9.091 0 013.326 2.117 8.984 8.984 0 012.654 6.373z" class="prefix__cls-14" data-name="Path 8732" transform="translate(-1107.728 -1084.63)"/>
                        <g id="prefix__Group_10311" data-name="Group 10311" transform="translate(6.253 14.653)">
                            <g id="prefix__Group_10309" data-name="Group 10309">
                                <path id="prefix__Path_8733" d="M1116.372 1096.485a.649.649 0 00-.649.647v4.423a.648.648 0 101.3 0v-4.423a.649.649 0 00-.651-.647z" class="prefix__cls-8" data-name="Path 8733" transform="translate(-1115.49 -1096.252)"/>
                                <path id="prefix__Path_8734" d="M1116.433 1102.5a.882.882 0 01-.882-.881v-4.423a.881.881 0 011.763 0v4.423a.882.882 0 01-.881.881zm0-5.719a.416.416 0 00-.416.416v4.423a.416.416 0 00.832 0v-4.423a.417.417 0 00-.416-.419z" class="prefix__cls-6" data-name="Path 8734" transform="translate(-1115.551 -1096.313)"/>
                            </g>
                            <g id="prefix__Group_10310" data-name="Group 10310" transform="translate(19.602)">
                                <path id="prefix__Path_8735" d="M1130.841 1096.485a.65.65 0 00-.649.647v4.423a.649.649 0 101.3 0v-4.423a.65.65 0 00-.651-.647z" class="prefix__cls-8" data-name="Path 8735" transform="translate(-1129.96 -1096.252)"/>
                                <path id="prefix__Path_8736" d="M1130.9 1102.5a.881.881 0 01-.881-.881v-4.423a.88.88 0 111.761 0v4.423a.88.88 0 01-.88.881zm0-5.719a.417.417 0 00-.416.416v4.423a.416.416 0 00.832 0v-4.423a.417.417 0 00-.416-.419z" class="prefix__cls-6" data-name="Path 8736" transform="translate(-1130.021 -1096.313)"/>
                            </g>
                        </g>
                        <path id="prefix__Path_8737" d="M1117.243 1089.357c-.042.078-.084.157-.13.237a2.745 2.745 0 01.438-1.163c-.005.065-.01.135-.01.2a1.931 1.931 0 01-.298.726z" class="prefix__cls-14" data-name="Path 8737" transform="translate(-1108.744 -1084.456)"/>
                        <path id="prefix__Path_8738" d="M1128.848 1094.387c-.01.073-.014.141-.019.214a6.081 6.081 0 01.019-1.12c.022-.2.035-.386.045-.562a8.1 8.1 0 01-.045 1.468z" class="prefix__cls-14" data-name="Path 8738" transform="translate(-1104.595 -1082.864)"/>
                        <path id="prefix__Path_8739" d="M1117.5 1097.246c.226-.474.618-.662 1.318-.547a33.858 33.858 0 0012.84-.1c.547-.118 1.084-.274 1.727-.446a.352.352 0 01.421.2l.955 2.493c.111.293.247 1.926.331 1.626.279-.988 1.361-2.992 1.424-4.485.043-1.066-.734-3.855-.682-4.934a13.864 13.864 0 011.632-5.543c-.96.661-6.535.955-7.388 1.03a25.106 25.106 0 00-7.845 1.679c-3.69 1.6-5.736 3.277-6.138 7.744a15.783 15.783 0 00.856 4.51c.559.008.285-2.673.549-3.227z" class="prefix__cls-9" data-name="Path 8739" transform="translate(-1109.109 -1085.496)"/>
                        <path id="prefix__Path_8740" d="M1133.361 1093.266v-.056c-.081-.091.127-.035 0 0-.644.181-.454 1.362-2.073 1.792a29.589 29.589 0 01-12.839.108c-.7-.122-1.093.077-1.319.581v-1.361c.226-.5.616-.7 1.319-.58a31.945 31.945 0 0012.839-.11c.545-.126 1.084-.29 1.729-.471a.341.341 0 01.344.097z" class="prefix__cls-14" data-name="Path 8740" transform="translate(-1108.738 -1082.78)"/>
                        <g id="prefix__Group_10312" data-name="Group 10312" transform="translate(7.95 15.154)">
                            <path id="prefix__Path_8741" d="M1123.115 1102.806h-2.268a4.048 4.048 0 01-4.044-4.044 2.082 2.082 0 012.079-2.079h4.232a2.082 2.082 0 012.079 2.079v1.963a2.083 2.083 0 01-2.078 2.081zm-4.232-5.443a1.4 1.4 0 00-1.4 1.4 3.366 3.366 0 003.363 3.362h2.268a1.4 1.4 0 001.4-1.4v-1.963a1.4 1.4 0 00-1.4-1.4z" class="prefix__cls-11" data-name="Path 8741" transform="translate(-1116.804 -1096.683)"/>
                            <path id="prefix__Path_8742" d="M1128.152 1102.813h-2.268a2.081 2.081 0 01-2.079-2.079v-1.963a2.081 2.081 0 012.079-2.079h4.232a2.081 2.081 0 012.079 2.079 4.048 4.048 0 01-4.043 4.042zm-2.268-5.442a1.4 1.4 0 00-1.4 1.4v1.963a1.4 1.4 0 001.4 1.4h2.268a3.366 3.366 0 003.364-3.362 1.4 1.4 0 00-1.4-1.4z" class="prefix__cls-11" data-name="Path 8742" transform="translate(-1114.321 -1096.68)"/>
                            <path id="prefix__Path_8743" d="M1125.467 1098.315h-3.207a.227.227 0 010-.454h3.207a.227.227 0 010 .454z" class="prefix__cls-11" data-name="Path 8743" transform="translate(-1114.949 -1096.265)"/>
                        </g>
                        <path id="prefix__Path_8744" d="M1124.358 1102.859h-1.566c-.068 0-.125-.1-.125-.233s.057-.233.125-.233h1.566c.069 0 .125.1.125.233s-.056.233-.125.233z" class="prefix__cls-11" data-name="Path 8744" transform="translate(-1106.774 -1079.504)"/>
                    </g>
                </g>
            </g>
            <circle id="prefix__Ellipse_256" cx="26.587" cy="26.587" r="26.587" class="prefix__cls-8" data-name="Ellipse 256" transform="translate(105.005 64.401)"/>
            <g id="prefix__Group_10344" data-name="Group 10344" transform="translate(105.005 64.401)">
                <g id="prefix__Group_10343" class="prefix__cls-10" data-name="Group 10343">
                    <g id="prefix___11" data-name="11" transform="translate(9.738 6.565)">
                        <g id="prefix__Group_10332" data-name="Group 10332">
                            <g id="prefix__Group_6940" data-name="Group 6940" transform="translate(0 24.893)">
                                <g id="prefix__Group_10316" data-name="Group 10316" transform="translate(3.433 6.39)">
                                    <path id="prefix__Rectangle_1789" d="M1205.655 1141.367h15.445a6.84 6.84 0 016.84 6.84 6.84 6.84 0 01-6.84 6.84h-15.446a6.84 6.84 0 01-6.841-6.84 6.84 6.84 0 016.842-6.84z" class="prefix__cls-8" data-name="Rectangle 1789" transform="translate(-1198.593 -1141.146)"/>
                                    <path id="prefix__Path_8745" d="M1221.159 1155.325h-15.446a7.06 7.06 0 110-14.121h15.446a7.06 7.06 0 110 14.121zm-15.446-13.681a6.619 6.619 0 100 13.239h15.446a6.619 6.619 0 000-13.239z" class="prefix__cls-11" data-name="Path 8745" transform="translate(-1198.651 -1141.204)"/>
                                </g>
                                <g id="prefix__Group_6939" data-name="Group 6939" transform="translate(14.531)">
                                    <g id="prefix__Group_10317" data-name="Group 10317">
                                        <rect id="prefix__Rectangle_1790" width="6.93" height="11.905" class="prefix__cls-8" data-name="Rectangle 1790" rx="1.635" transform="translate(.221 .221)"/>
                                        <path id="prefix__Path_8746" d="M1211.779 1148.833h-2.5a2.439 2.439 0 01-2.436-2.436v-7.475a2.439 2.439 0 012.436-2.436h2.5a2.439 2.439 0 012.437 2.436v7.475a2.44 2.44 0 01-2.437 2.436zm-2.5-11.9a2 2 0 00-1.994 1.994v7.475a2 2 0 001.994 2h2.5a2 2 0 002-2v-7.475a2 2 0 00-2-1.994z" class="prefix__cls-11" data-name="Path 8746" transform="translate(-1206.844 -1136.487)"/>
                                    </g>
                                    <rect id="prefix__Rectangle_1791" width="6.178" height="13.891" class="prefix__cls-8" data-name="Rectangle 1791" rx="1.668" transform="translate(.596 .221)"/>
                                </g>
                                <g id="prefix__Group_2364-5" data-name="Group 2364" transform="translate(0 6.847)">
                                    <g id="prefix__Group_2362-5" data-name="Group 2362">
                                        <g id="prefix__Group_10321" data-name="Group 10321">
                                            <g id="prefix__Group_10318" data-name="Group 10318">
                                                <path id="prefix__Path_832-2" d="M1232.246 1152.686v3.346H1196.3v-3.346a10.978 10.978 0 016.8-10.119c3.322-.914 5.232.516 3.849 1.936-1.94 1.991-8.3 4.427-8.3 4.427s22.161-10.5 27.266-6.158a8.35 8.35 0 01.856.438 10.893 10.893 0 011.854 1.345 11.018 11.018 0 011.636 1.848 10.809 10.809 0 011.985 6.283z" class="prefix__cls-8" data-name="Path 832" transform="translate(-1196.053 -1141.479)"/>
                                                <path id="prefix__Path_8747" d="M1232.552 1156.337h-36.435v-3.589a11.188 11.188 0 016.945-10.344c2.429-.671 4.018-.129 4.48.654a1.35 1.35 0 01-.365 1.677 7.087 7.087 0 01-.958.8c6.952-2.681 16.6-5.633 19.877-2.907a8.662 8.662 0 01.849.435 11.165 11.165 0 013.566 3.263 10.989 10.989 0 012.04 6.424zm-35.95-.487h35.464v-3.1a10.5 10.5 0 00-1.951-6.142 10.637 10.637 0 00-1.6-1.807 10.753 10.753 0 00-1.812-1.317 8.142 8.142 0 00-.833-.424l-.061-.038c-3.564-3.034-15.982 1.505-22.666 4.289-2.123 1.051-4.2 1.853-4.355 1.91l-.191-.446c.244-.117 1.967-.927 4.458-1.967a15.544 15.544 0 003.775-2.41c.218-.223.546-.662.294-1.09-.382-.648-1.848-1.008-3.9-.442a10.7 10.7 0 00-6.619 9.885z" class="prefix__cls-6" data-name="Path 8747" transform="translate(-1196.117 -1141.541)"/>
                                            </g>
                                            <g id="prefix__Group_10319" data-name="Group 10319" transform="translate(16.498 2.796)">
                                                <path id="prefix__Path_8748" d="M1224.511 1143.773s-11.222 4.1-16.065 11.53" class="prefix__cls-8" data-name="Path 8748" transform="translate(-1208.243 -1143.545)"/>
                                                <path id="prefix__Path_8749" d="M1208.7 1155.495l-.406-.265c4.831-7.416 16.072-11.584 16.184-11.625l.167.457c-.109.038-11.2 4.154-15.945 11.433z" class="prefix__cls-6" data-name="Path 8749" transform="translate(-1208.296 -1143.605)"/>
                                            </g>
                                            <g id="prefix__Group_10320" data-name="Group 10320" transform="translate(29.122 9.308)">
                                                <path id="prefix__Line_1346" d="M0.777 5.208L0 0" class="prefix__cls-8" data-name="Line 1346" transform="translate(.24 .036)"/>
                                                <path id="prefix__Rectangle_2546" d="M0 0H0.486V5.266H0z" class="prefix__cls-6" data-name="Rectangle 2546" transform="rotate(-8.488 .485 .036)"/>
                                            </g>
                                        </g>
                                    </g>
                                </g>
                                <g id="prefix__Group_2364-6" class="prefix__cls-12" data-name="Group 2364" transform="translate(4.802 7.785)">
                                    <g id="prefix__Group_2362-6" data-name="Group 2362">
                                        <g id="prefix__Group_10322" data-name="Group 10322">
                                            <path id="prefix__Path_8750" d="M1206.026 1144.873c-.03.029-.058.058-.088.083-2.319.817-4.5 1.677-6.276 2.421a16 16 0 003.933-2.5c.856-.88.453-1.76-.768-2.09 2.918-.573 4.488.764 3.199 2.086z" class="prefix__cls-13" data-name="Path 8750" transform="translate(-1199.662 -1142.087)"/>
                                            <path id="prefix__Path_8751" d="M1228.781 1153.2v3.346h-2.43v-3.346a10.835 10.835 0 00-2-6.286c-.184-.259-.378-.511-.588-.755a3.821 3.821 0 00-.312-.349 46.429 46.429 0 00-7.123 3.938l-.014.01-1.269.909-.039.03a23.852 23.852 0 00-5.717 5.849h-2.431c4.473-6.861 14.381-10.882 15.874-11.46l-.014-.015a11.169 11.169 0 00-1.857-1.346 7.32 7.32 0 00-.856-.438 5.007 5.007 0 00-2.791-1c2.265-.18 4.132.073 5.221 1a7.3 7.3 0 01.856.438 11.118 11.118 0 011.857 1.346l.015.015a.162.162 0 01.039.039 10.943 10.943 0 013.578 8.075z" class="prefix__cls-13" data-name="Path 8751" transform="translate(-1197.11 -1142.234)"/>
                                            <path id="prefix__Path_8752" d="M1221 1144.3l-.141.1-1.44 1.035a3.8 3.8 0 00-.312-.349c.822-.37 1.425-.608 1.712-.725.098-.037.16-.061.181-.061z" class="prefix__cls-13" data-name="Path 8752" transform="translate(-1192.765 -1141.503)"/>
                                            <path id="prefix__Line_1347" d="M0.777 5.208L0 0" class="prefix__cls-1" data-name="Line 1347" transform="translate(24.84 9.107)"/>
                                        </g>
                                    </g>
                                </g>
                            </g>
                            <path id="prefix__Path_8753" d="M1215.175 1127.689c-.01.079-.014.151-.019.229a6.632 6.632 0 01.019-1.2c.024-.214.039-.413.049-.6a8.484 8.484 0 01-.049 1.571z" class="prefix__cls-14" data-name="Path 8753" transform="translate(-1189.371 -1115.273)"/>
                            <path id="prefix__Path_8754" d="M1213.34 1123.162a1.032 1.032 0 01-.272.194c0-.01-.005-.014-.005-.023a.162.162 0 01.171-.19.763.763 0 01.106.019z" data-name="Path 8754" transform="translate(-1190.108 -1116.326)" style="opacity:.2;fill:#ed4e67"/>
                            <g id="prefix__Group_10323" data-name="Group 10323" transform="translate(4.589 5.028)">
                                <ellipse id="prefix__Ellipse_257" cx="5.792" cy="4.25" class="prefix__cls-9" data-name="Ellipse 257" rx="5.792" ry="4.25" transform="rotate(-77.007 7.095 5.644)"/>
                                <circle id="prefix__Ellipse_258" cx="3.933" cy="3.933" r="3.933" class="prefix__cls-9" data-name="Ellipse 258" transform="translate(.902 9.587)"/>
                                <circle id="prefix__Ellipse_259" cx="3.441" cy="3.441" r="3.441" class="prefix__cls-9" data-name="Ellipse 259" transform="translate(1.439 14.531)"/>
                                <circle id="prefix__Ellipse_260" cx="2.458" cy="2.458" r="2.458" class="prefix__cls-9" data-name="Ellipse 260" transform="translate(2.896 19.419)"/>
                                <circle id="prefix__Ellipse_261" cx="1.967" cy="1.967" r="1.967" class="prefix__cls-9" data-name="Ellipse 261" transform="translate(4.291 23.267)"/>
                                <circle id="prefix__Ellipse_262" cx="1.967" cy="1.967" r="1.967" class="prefix__cls-9" data-name="Ellipse 262" transform="translate(4.647 26.196)"/>
                                <path id="prefix__Path_8755" d="M1208.339 1146.954c-2.448 7.238-.715 6.871-2.2 7.052s-2.914-4.167-3.184-6.4.345-4.371 1.834-4.553 4.271 1.771 3.55 3.901z" class="prefix__cls-9" data-name="Path 8755" transform="translate(-1198.304 -1114.296)"/>
                            </g>
                            <g id="prefix__Group_10330" data-name="Group 10330" transform="translate(7.547 2.827)">
                                <g id="prefix__Group_10326" data-name="Group 10326" transform="translate(1.475)">
                                    <g id="prefix__Group_10325" data-name="Group 10325">
                                        <g id="prefix__Group_10324" data-name="Group 10324">
                                            <rect id="prefix__Rectangle_2547" width="17.775" height="26.402" class="prefix__cls-8" data-name="Rectangle 2547" rx="5.762" transform="translate(.214 .215)"/>
                                            <path id="prefix__Path_8756" d="M1211.879 1147.03a9.112 9.112 0 01-9.1-9.1v-8.63a9.1 9.1 0 1118.2 0v8.628a9.112 9.112 0 01-9.1 9.102zm0-26.4a8.683 8.683 0 00-8.674 8.672v8.628a8.673 8.673 0 0017.346 0v-8.63a8.682 8.682 0 00-8.672-8.673z" class="prefix__cls-6" data-name="Path 8756" transform="translate(-1202.777 -1120.198)"/>
                                        </g>
                                    </g>
                                    <path id="prefix__Path_8757" d="M1207.4 1145.449c4.952 0 9.007-2.849 9.007-6.329l-1.057-12.272c0-2.643-1.281-3.633-4.573-4.577 4.519.331 8.074.034 8.074 3.29v13.988c0 3.479-4.056 6.328-9.007 6.328" class="prefix__cls-14" data-name="Path 8757" transform="translate(-1201.138 -1119.463)"/>
                                </g>
                                <g id="prefix__Group_10329" data-name="Group 10329" transform="translate(0 11.494)">
                                    <g id="prefix__Group_10327" data-name="Group 10327">
                                        <path id="prefix__Path_8758" d="M1202.5 1128.846a.632.632 0 00-.642.618v4.209a.643.643 0 001.284 0v-4.209a.632.632 0 00-.642-.618z" class="prefix__cls-8" data-name="Path 8758" transform="translate(-1201.628 -1128.625)"/>
                                        <path id="prefix__Path_8759" d="M1202.561 1134.569a.857.857 0 01-.873-.838v-4.209a.873.873 0 011.745 0v4.209a.857.857 0 01-.872.838zm0-5.444a.405.405 0 00-.412.4v4.209a.412.412 0 00.824 0v-4.209a.405.405 0 00-.412-.4z" class="prefix__cls-6" data-name="Path 8759" transform="translate(-1201.688 -1128.683)"/>
                                    </g>
                                    <g id="prefix__Group_10328" data-name="Group 10328" transform="translate(19.41)">
                                        <path id="prefix__Path_8760" d="M1216.828 1128.846a.632.632 0 00-.642.618v4.209a.643.643 0 001.284 0v-4.209a.633.633 0 00-.642-.618z" class="prefix__cls-8" data-name="Path 8760" transform="translate(-1215.956 -1128.625)"/>
                                        <path id="prefix__Path_8761" d="M1216.889 1134.569a.856.856 0 01-.872-.838v-4.209a.873.873 0 011.745 0v4.209a.857.857 0 01-.873.838zm0-5.444a.405.405 0 00-.412.4v4.209a.412.412 0 00.824 0v-4.209a.406.406 0 00-.412-.4z" class="prefix__cls-6" data-name="Path 8761" transform="translate(-1216.016 -1128.683)"/>
                                    </g>
                                </g>
                                <path id="prefix__Path_8762" d="M1210.194 1133.215h-1.058c-.065 0-.118-.1-.118-.221s.053-.222.118-.222h1.058c.067 0 .119.1.119.222s-.053.221-.119.221z" class="prefix__cls-11" data-name="Path 8762" transform="translate(-1199.089 -1115.739)"/>
                            </g>
                            <path id="prefix__Path_8763" d="M1223.791 1129.464c0 .111 0 .224-.01.33a11.27 11.27 0 01-.184 1.784c-.259 1.352-1.726 2.616-2.407 3.744-.725-4.877-3.039-8.922-7.448-10.745-.039-.015-.079-.034-.118-.049h-.2c-.481 0-3.816 1.931-6.475 4.556-1.833 1.8-3.35 3.934-3.4 5.99-.948-1.649-2.464-3.564-2.464-5.611a11.455 11.455 0 01.821-4.255h.01a11.354 11.354 0 0110.527-7.1 11.074 11.074 0 011.565.112 11.35 11.35 0 019.783 11.244z" class="prefix__cls-9" data-name="Path 8763" transform="translate(-1194.356 -1118.111)"/>
                            <path id="prefix__Path_8764" d="M1222.391 1129.435c0 .111 0 .224-.01.33-.443.685-1.079 1.332-1.444 1.931-.578-3.889-2.441-7.113-5.985-8.538h-.16a9.142 9.142 0 00-2.451 1.391c-2.276 1.6-5.3 4.357-5.363 6.952-.433-.753-1.012-1.575-1.429-2.445a4.64 4.64 0 01-.52-1.994 9.093 9.093 0 01.651-3.364 8.982 8.982 0 016.918-5.5 11.35 11.35 0 019.793 11.237z" class="prefix__cls-9" data-name="Path 8764" transform="translate(-1192.956 -1118.082)"/>
                            <g id="prefix__Group_10331" data-name="Group 10331" transform="translate(17.226 18.904)">
                                <path id="prefix__Line_1348" d="M0 0L0 0" class="prefix__cls-8" data-name="Line 1348"/>
                            </g>
                        </g>
                        <g id="prefix__Group_10337" data-name="Group 10337" transform="translate(26.013 20.118)">
                            <g id="prefix__Group_10333" data-name="Group 10333" transform="translate(1.179 1.093)">
                                <circle id="prefix__Ellipse_263" cx=".524" cy=".524" r=".524" class="prefix__cls-8" data-name="Ellipse 263" transform="translate(.132 .131)"/>
                                <path id="prefix__Path_8768" d="M1216.846 1135.079a.655.655 0 11.654-.656.656.656 0 01-.654.656zm0-1.049a.393.393 0 10.393.393.393.393 0 00-.393-.393z" class="prefix__cls-6" data-name="Path 8768" transform="translate(-1216.19 -1133.769)"/>
                            </g>
                            <g id="prefix__Group_10334" data-name="Group 10334" transform="translate(1.383 .486)">
                                <circle id="prefix__Ellipse_264" cx=".361" cy=".361" r=".361" class="prefix__cls-8" data-name="Ellipse 264" transform="translate(.09 .09)"/>
                                <path id="prefix__Path_8769" d="M1216.792 1134.224a.452.452 0 11.451-.452.452.452 0 01-.451.452zm0-.723a.271.271 0 10.271.271.272.272 0 00-.271-.272z" class="prefix__cls-6" data-name="Path 8769" transform="translate(-1216.341 -1133.321)"/>
                            </g>
                            <g id="prefix__Group_10335" data-name="Group 10335" transform="translate(1.383)">
                                <circle id="prefix__Ellipse_265" cx=".361" cy=".361" r=".361" class="prefix__cls-8" data-name="Ellipse 265" transform="translate(.09 .09)"/>
                                <path id="prefix__Path_8770" d="M1216.792 1133.865a.452.452 0 11.451-.453.452.452 0 01-.451.453zm0-.723a.272.272 0 10.271.271.272.272 0 00-.271-.271z" class="prefix__cls-6" data-name="Path 8770" transform="translate(-1216.341 -1132.962)"/>
                            </g>
                            <g id="prefix__Group_10336" data-name="Group 10336" transform="translate(0 2.097)">
                                <path id="prefix__Path_8771" d="M1218.767 1136.3v.088h-3.311a.626.626 0 010-.088 1.659 1.659 0 013.318 0z" class="prefix__cls-8" data-name="Path 8771" transform="translate(-1215.274 -1134.464)"/>
                                <path id="prefix__Path_8772" d="M1218.963 1136.606h-3.618l-.019-.153a1.048 1.048 0 01-.005-.11 1.833 1.833 0 013.667 0 1.051 1.051 0 010 .11zm-3.291-.35h2.964a1.485 1.485 0 00-2.964 0z" class="prefix__cls-6" data-name="Path 8772" transform="translate(-1215.32 -1134.51)"/>
                            </g>
                        </g>
                        <g id="prefix__Group_10342" data-name="Group 10342" transform="translate(6.566 20.118)">
                            <g id="prefix__Group_10338" data-name="Group 10338" transform="translate(1.179 1.093)">
                                <circle id="prefix__Ellipse_266" cx=".524" cy=".524" r=".524" class="prefix__cls-8" data-name="Ellipse 266" transform="translate(.131 .131)"/>
                                <path id="prefix__Path_8773" d="M1202.49 1135.079a.655.655 0 11.654-.656.656.656 0 01-.654.656zm0-1.049a.393.393 0 10.393.393.393.393 0 00-.393-.393z" class="prefix__cls-6" data-name="Path 8773" transform="translate(-1201.834 -1133.769)"/>
                            </g>
                            <g id="prefix__Group_10339" data-name="Group 10339" transform="translate(1.382 .486)">
                                <circle id="prefix__Ellipse_267" cx=".361" cy=".361" r=".361" class="prefix__cls-8" data-name="Ellipse 267" transform="translate(.091 .09)"/>
                                <path id="prefix__Path_8774" d="M1202.436 1134.224a.452.452 0 11.451-.452.453.453 0 01-.451.452zm0-.723a.271.271 0 10.271.271.271.271 0 00-.271-.272z" class="prefix__cls-6" data-name="Path 8774" transform="translate(-1201.984 -1133.321)"/>
                            </g>
                            <g id="prefix__Group_10340" data-name="Group 10340" transform="translate(1.382)">
                                <circle id="prefix__Ellipse_268" cx=".361" cy=".361" r=".361" class="prefix__cls-8" data-name="Ellipse 268" transform="translate(.091 .09)"/>
                                <path id="prefix__Path_8775" d="M1202.436 1133.865a.452.452 0 11.451-.453.453.453 0 01-.451.453zm0-.723a.272.272 0 10.271.271.271.271 0 00-.271-.271z" class="prefix__cls-6" data-name="Path 8775" transform="translate(-1201.984 -1132.962)"/>
                            </g>
                            <g id="prefix__Group_10341" data-name="Group 10341" transform="translate(0 2.097)">
                                <path id="prefix__Path_8776" d="M1204.411 1136.3v.088h-3.311a.645.645 0 010-.088 1.659 1.659 0 013.318 0z" class="prefix__cls-8" data-name="Path 8776" transform="translate(-1200.918 -1134.464)"/>
                                <path id="prefix__Path_8777" d="M1204.607 1136.606h-3.618l-.019-.153a.759.759 0 01-.005-.11 1.834 1.834 0 013.667 0 .71.71 0 01-.006.11zm-3.291-.35h2.963a1.484 1.484 0 00-2.963 0z" class="prefix__cls-6" data-name="Path 8777" transform="translate(-1200.964 -1134.51)"/>
                            </g>
                        </g>
                    </g>
                </g>
            </g>
            <path id="prefix__Path_8778" d="M1215.682 1167.237a27.22 27.22 0 1127.219-27.22 27.251 27.251 0 01-27.219 27.22zm0-53.176a25.955 25.955 0 1025.955 25.955 25.984 25.984 0 00-25.955-25.954z" class="prefix__cls-6" data-name="Path 8778" transform="translate(-1084.089 -1049.029)"/>
            <path id="prefix__Path_8780" d="M1216.192 1075.446v7.073a8.914 8.914 0 00-8.926-8.912h-58.223a8.924 8.924 0 00-8.927 8.912v-7.073a8.924 8.924 0 018.927-8.912h58.223a8.914 8.914 0 018.926 8.912z" class="prefix__cls-17" data-name="Path 8780" transform="translate(-1091.235 -1065.437)"/>
            <g id="prefix__Group_10346" data-name="Group 10346" transform="translate(59.566 45.124)">
                <g id="prefix__Group_10345" data-name="Group 10345">
                    <path id="prefix__Path_8781" d="M1156.352 1099.556h51.075c4.321 0 7.826 4.191 7.826 9.36v35.618l-7.732-8.326c-.031 0-.062.005-.094.005h-51.075c-4.323 0-7.827-4.19-7.827-9.359v-17.939c0-5.168 3.505-9.359 7.827-9.359z" class="prefix__cls-8" data-name="Path 8781" transform="translate(-1147.818 -1098.849)"/>
                    <path id="prefix__Path_8782" d="M1216.146 1146.52l-8.75-9.42-50.859.008c-4.706 0-8.534-4.516-8.534-10.068v-17.94c0-5.55 3.828-10.066 8.534-10.066h51.074c4.7 0 8.535 4.516 8.535 10.066zm-59.609-46.072c-3.926 0-7.119 3.882-7.119 8.652v17.94c0 4.771 3.193 8.652 7.119 8.652h51.382l.3.219 6.506 7.008V1109.1c0-4.77-3.194-8.652-7.119-8.652z" class="prefix__cls-6" data-name="Path 8782" transform="translate(-1148.003 -1099.034)"/>
                </g>
            </g>
            <path id="prefix__Path_8783" d="M1215.261 1109.464v7.073c0-5.164-3.509-9.351-7.837-9.351h-51.067c-4.328 0-7.837 4.187-7.837 9.351v-7.073c0-5.164 3.509-9.351 7.837-9.351h51.067c4.328 0 7.837 4.187 7.837 9.351z" class="prefix__cls-17" data-name="Path 8783" transform="translate(-1088.254 -1053.528)"/>
            <g id="prefix__Group_10347" data-name="Group 10347" transform="translate(67.733 53.874)">
                <rect id="prefix__Rectangle_2548" width="18.96" height="4.004" class="prefix__cls-9" data-name="Rectangle 2548" rx="1.298"/>
                <rect id="prefix__Rectangle_2549" width="52.006" height="4.004" class="prefix__cls-9" data-name="Rectangle 2549" rx="1.298" transform="translate(0 7.693)"/>
                <rect id="prefix__Rectangle_2550" width="35.212" height="4.004" class="prefix__cls-9" data-name="Rectangle 2550" rx="1.298" transform="translate(0 15.861)"/>
            </g>
        </g>
    </g>
</svg>
