<svg xmlns="http://www.w3.org/2000/svg" width="160" height="160.141" viewBox="0 0 160 160.141">
    <defs>
        <style>
            .prefix__cls-2{fill:#f7657d;isolation:isolate;opacity:.429}.prefix__cls-5{fill:#bf2640}.prefix__cls-7{fill:#fff}.prefix__cls-8{opacity:.2}.prefix__cls-9{fill:#f1647d}
        </style>
    </defs>
    <g id="prefix__Group_11270" data-name="Group 11270" transform="translate(-1525.756 -386.072)">
        <g id="prefix__Group_6942" data-name="Group 6942" transform="translate(1525.756 386.072)">
            <path id="prefix__Rectangle_1795" d="M1620.638 408.9l37.557 39.406a26.664 26.664 0 01-1.273 38.155l-40.1 36.9a27.816 27.816 0 01-38.83-1.251l-37.561-39.41a26.666 26.666 0 011.273-38.156l40.1-36.9a27.815 27.815 0 0138.834 1.256z" data-name="Rectangle 1795" transform="translate(-1523.247 -381.134)" style="opacity:.15;fill:#ed4e67"/>
            <path id="prefix__Path_8570" d="M1626.691 503.242a3.558 3.558 0 01-3.538-3.088 3.461 3.461 0 01.715-2.576 3.582 3.582 0 016.367 1.714 3.457 3.457 0 01-.715 2.577 3.556 3.556 0 01-2.391 1.344 3.726 3.726 0 01-.438.029zm0-5.577a2.124 2.124 0 00-1.678.81 2.01 2.01 0 00-.415 1.5 2.123 2.123 0 003.767 1 2.015 2.015 0 00.417-1.5 2.1 2.1 0 00-2.087-1.81z" class="prefix__cls-2" data-name="Path 8570" transform="translate(-1492.091 -347.994)"/>
            <path id="prefix__Path_8571" d="M1542.44 509.443l.141-6.011-4.985-3.539 5.89-1.735 1.868-5.734 3.482 4.939 6.143-.011-3.724 4.8 1.908 5.729-5.784-1.988zm-1.545-9l3.162 2.247-.09 3.858 3.174-2.28 3.705 1.272-1.222-3.666 2.372-3.058-3.916.007-2.239-3.179-1.207 3.7z" data-name="Path 8571" transform="translate(-1521.661 -349.302)" style="opacity:.418;fill:#f7657d;isolation:isolate"/>
            <path id="prefix__Path_8572" d="M1623.547 406.021l-1.052-4.234-4.177-1.571 3.8-2.305.219-4.356 3.382 2.821 4.3-1.153-1.686 4.057 2.436 3.674-4.441-.327zm-1.9-6.112l2.082.782.534 2.155 1.417-1.729 2.229.164-1.222-1.842.848-2.035-2.165.58-1.717-1.433-.112 2.21z" data-name="Path 8572" transform="translate(-1493.753 -383.485)" style="opacity:.369;fill:#f7657d;isolation:isolate"/>
            <path id="prefix__Path_8573" d="M1540.184 411.087a5.561 5.561 0 01-5.535-4.827 5.4 5.4 0 011.114-4.022 5.608 5.608 0 019.965 2.679 5.406 5.406 0 01-1.117 4.025 5.559 5.559 0 01-3.745 2.1 5.86 5.86 0 01-.682.045zm.007-9.536a4.327 4.327 0 00-.507.03 4.115 4.115 0 00-2.769 1.556 3.954 3.954 0 00-.817 2.943 4.15 4.15 0 007.365 1.963 3.959 3.959 0 00.818-2.946 4.1 4.1 0 00-4.09-3.546z" class="prefix__cls-2" data-name="Path 8573" transform="translate(-1522.696 -381.225)"/>
            <path id="prefix__Path_8574" d="M1529.321 416.489a3.556 3.556 0 01-3.538-3.089 3.457 3.457 0 01.716-2.577 3.582 3.582 0 016.365 1.717 3.454 3.454 0 01-.715 2.577 3.556 3.556 0 01-2.393 1.346 3.694 3.694 0 01-.435.026zm0-5.577a2.138 2.138 0 00-.26.016 2.11 2.11 0 00-1.417.794 2.012 2.012 0 00-.416 1.5 2.123 2.123 0 003.767 1 2.012 2.012 0 00.417-1.5 2.1 2.1 0 00-2.087-1.81z" class="prefix__cls-2" data-name="Path 8574" transform="translate(-1525.756 -377.988)"/>
            <path id="prefix__Path_8575" d="M1626.511 417.668a5.013 5.013 0 01-.581-.035 4.73 4.73 0 01-3.188-1.793 4.6 4.6 0 01-.949-3.425 4.775 4.775 0 018.484-2.282 4.6 4.6 0 01.949 3.425 4.735 4.735 0 01-4.715 4.11zm0-8.119a3.49 3.49 0 00-3.481 3.02 3.368 3.368 0 00.7 2.506 3.532 3.532 0 006.27-1.671 3.372 3.372 0 00-.7-2.507 3.5 3.5 0 00-2.358-1.323 3.564 3.564 0 00-.435-.025z" class="prefix__cls-2" data-name="Path 8575" transform="translate(-1492.564 -378.385)"/>
            <path id="prefix__Path_8576" d="M1637.171 421.489a3.688 3.688 0 01-.436-.026 3.556 3.556 0 01-2.393-1.346 3.462 3.462 0 01-.715-2.577 3.584 3.584 0 016.367-1.717 3.46 3.46 0 01.714 2.577 3.557 3.557 0 01-3.537 3.089zm-2.1-3.767a2.01 2.01 0 00.417 1.5 2.124 2.124 0 003.768-1 2.021 2.021 0 00-.417-1.5 2.124 2.124 0 00-3.768 1z" class="prefix__cls-2" data-name="Path 8576" transform="translate(-1488.469 -376.26)"/>
            <path id="prefix__Path_8577" d="M1609.505 529.312a.66.66 0 01-.012-1.32c.85-.015 1.714-.071 2.569-.168a.652.652 0 01.731.58.66.66 0 01-.581.729c-.9.1-1.8.163-2.7.179zm-2.634-.077h-.052c-.895-.07-1.8-.182-2.679-.336a.66.66 0 01.226-1.3c.842.148 1.7.256 2.554.32a.66.66 0 01-.049 1.318zm7.867-.519a.659.659 0 01-.135-1.3c.841-.179 1.678-.4 2.49-.651a.66.66 0 01.395 1.26c-.852.266-1.731.5-2.611.682a.68.68 0 01-.138.008zm-13.059-.385a.71.71 0 01-.175-.023c-.861-.238-1.725-.521-2.566-.841a.66.66 0 01.471-1.233c.8.305 1.624.575 2.445.8a.66.66 0 01-.175 1.3zm18.09-1.187a.659.659 0 01-.256-1.268c.787-.331 1.569-.7 2.323-1.109a.659.659 0 11.624 1.161c-.79.425-1.611.817-2.437 1.164a.654.654 0 01-.254.051zm-23.011-.69a.657.657 0 01-.294-.069q-.71-.353-1.413-.75l-.936-.53a.66.66 0 01.651-1.148l.935.53q.668.377 1.349.716a.66.66 0 01-.293 1.25zm27.648-1.806a.66.66 0 01-.367-1.207c.713-.478 1.408-.995 2.066-1.535a.66.66 0 01.84 1.019c-.693.569-1.423 1.112-2.172 1.612a.656.656 0 01-.367.11zm-32.259-.758a.667.667 0 01-.326-.086l-2.295-1.3a.659.659 0 11.651-1.147l2.295 1.3a.66.66 0 01-.326 1.234zm36.328-2.588a.651.651 0 01-.465-.194.658.658 0 010-.933c.6-.6 1.184-1.245 1.728-1.907a.659.659 0 111.02.836c-.57.7-1.181 1.371-1.815 2.005a.664.664 0 01-.467.191zm-40.917-.016a.666.666 0 01-.326-.086l-2.294-1.3a.66.66 0 11.651-1.148l2.294 1.3a.66.66 0 01-.326 1.234zm-4.589-2.6a.653.653 0 01-.326-.086l-2.294-1.3a.659.659 0 11.651-1.147l2.295 1.3a.659.659 0 01-.326 1.233zm48.848-1.457a.647.647 0 01-.367-.112.66.66 0 01-.181-.915q.42-.624.8-1.281l.55-.937a.66.66 0 011.139.669l-.551.937q-.405.688-.846 1.347a.66.66 0 01-.544.287zm-53.437-1.147a.66.66 0 01-.327-.086l-2.295-1.3a.66.66 0 11.653-1.147l2.295 1.3a.659.659 0 01-.326 1.233zm-4.592-2.6a.666.666 0 01-.326-.086l-2.295-1.3a.66.66 0 01.653-1.147l2.295 1.3a.66.66 0 01-.327 1.234zm60.74-.776a.655.655 0 01-.334-.091.662.662 0 01-.235-.9l1.338-2.274a.66.66 0 011.137.669l-1.336 2.274a.659.659 0 01-.569.316zm-65.329-1.827a.652.652 0 01-.326-.086l-2.295-1.3a.66.66 0 11.651-1.148l2.3 1.3a.659.659 0 01-.327 1.233zm-4.589-2.6a.668.668 0 01-.326-.086l-2.294-1.3a.659.659 0 11.651-1.147l2.294 1.3a.66.66 0 01-.326 1.234zm72.592-.118a.661.661 0 01-.569-.994l1.336-2.274a.66.66 0 011.138.669l-1.338 2.274a.657.657 0 01-.569.314zm-77.181-2.486a.653.653 0 01-.326-.086l-2.295-1.3a.66.66 0 11.651-1.148l2.295 1.3a.659.659 0 01-.326 1.233zm79.853-2.064a.661.661 0 01-.569-.993l1.336-2.274a.66.66 0 011.139.668l-1.336 2.274a.659.659 0 01-.569.314zm-84.441-.54a.665.665 0 01-.326-.086l-2.295-1.3a.66.66 0 11.651-1.148l2.295 1.3a.66.66 0 01-.326 1.234zm-4.589-2.6a.653.653 0 01-.326-.086l-2.3-1.3a.66.66 0 11.653-1.147l2.294 1.3a.659.659 0 01-.326 1.233zm91.7-1.4a.654.654 0 01-.334-.091.661.661 0 01-.235-.9l1.338-2.276a.659.659 0 011.137.668l-1.337 2.276a.659.659 0 01-.566.303zm-96.249-1.269a.668.668 0 01-.37-.113c-.747-.506-1.475-1.05-2.162-1.618a.66.66 0 01.841-1.017c.654.541 1.347 1.06 2.06 1.541a.66.66 0 01-.369 1.207zm98.923-3.28a.661.661 0 01-.569-.994l1.336-2.274a.66.66 0 011.138.668l-1.338 2.274a.656.656 0 01-.564.304zm-102.986-.077a.651.651 0 01-.467-.2c-.634-.638-1.242-1.314-1.809-2.008a.659.659 0 111.023-.833c.538.661 1.118 1.3 1.721 1.911a.66.66 0 01-.468 1.125zm-3.328-4.086a.658.658 0 01-.55-.295c-.5-.754-.964-1.537-1.379-2.325a.66.66 0 111.167-.615c.4.751.837 1.494 1.312 2.212a.659.659 0 01-.549 1.023zm108.986-.388a.661.661 0 01-.569-.994l1.336-2.274a.66.66 0 011.139.669l-1.337 2.274a.661.661 0 01-.565.307zm-111.449-4.271a.662.662 0 01-.611-.41c-.342-.841-.642-1.7-.894-2.553a.66.66 0 011.268-.37 25.108 25.108 0 00.849 2.425.66.66 0 01-.363.859.648.648 0 01-.245.03zm114.122-.279a.659.659 0 01-.569-.993l1.338-2.274a.66.66 0 011.137.669l-1.336 2.274a.66.66 0 01-.567.303zm2.674-4.549a.661.661 0 01-.569-.993l1.337-2.276a.66.66 0 011.138.667l-1.337 2.276a.655.655 0 01-.566.308zm-118.289-.223a.66.66 0 01-.646-.536c-.17-.89-.295-1.79-.374-2.678a.66.66 0 011.315-.116c.076.845.194 1.7.355 2.546a.662.662 0 01-.65.783zm120.962-4.325a.661.661 0 01-.569-.994l1.336-2.274a.66.66 0 011.139.667l-1.337 2.274a.66.66 0 01-.566.308zm-121.431-.92h-.005a.661.661 0 01-.654-.668 27 27 0 01.166-2.7.66.66 0 011.312.147 25.633 25.633 0 00-.158 2.566.66.66 0 01-.657.636zm124.1-3.629a.661.661 0 01-.569-.993l1.338-2.274c.183-.314.359-.627.529-.945a.659.659 0 111.161.623q-.264.5-.553.989l-1.336 2.274a.659.659 0 01-.563.306zm-123.515-1.605a.728.728 0 01-.14-.015.659.659 0 01-.5-.783 26.641 26.641 0 01.7-2.612.659.659 0 111.254.408 25.112 25.112 0 00-.667 2.482.658.658 0 01-.64.5zm126.52-4.018a.648.648 0 01-.253-.051.658.658 0 01-.357-.861 25.219 25.219 0 00.861-2.421.66.66 0 111.265.38c-.26.86-.564 1.717-.907 2.546a.66.66 0 01-.602.387zm-124.9-.993a.639.639 0 01-.265-.057.659.659 0 01-.339-.868c.361-.822.766-1.636 1.2-2.418a.66.66 0 011.152.645c-.42.747-.8 1.521-1.148 2.3a.66.66 0 01-.592.377zm126.415-4.052a.681.681 0 01-.128-.012.66.66 0 01-.522-.772 25.542 25.542 0 00.362-2.545.68.68 0 01.716-.6.659.659 0 01.6.716 27.023 27.023 0 01-.38 2.677.661.661 0 01-.64.515zM1539.2 460.5a.66.66 0 01-.568-.993l1.336-2.276a.659.659 0 011.137.667l-1.336 2.276a.659.659 0 01-.569.326zm2.674-4.549a.653.653 0 01-.334-.092.659.659 0 01-.236-.9l1.336-2.274a.66.66 0 011.138.667l-1.336 2.274a.661.661 0 01-.57.326zm121.709-.11a.661.661 0 01-.66-.654c-.009-.856-.06-1.72-.153-2.566a.659.659 0 111.311-.144 26.833 26.833 0 01.161 2.7.66.66 0 01-.653.667zm-119.036-4.44a.653.653 0 01-.334-.091.661.661 0 01-.236-.9l1.336-2.274a.66.66 0 011.139.669l-1.336 2.274a.662.662 0 01-.571.321zm118.456-.8a.659.659 0 01-.643-.522c-.176-.83-.4-1.666-.658-2.486a.659.659 0 111.256-.4c.274.86.507 1.739.693 2.611a.66.66 0 01-.508.783.683.683 0 01-.143.019zm-115.784-3.753a.658.658 0 01-.568-.993l1.336-2.274a.66.66 0 111.137.669l-1.336 2.274a.66.66 0 01-.57.329zm114.186-1.266a.659.659 0 01-.606-.4 25.338 25.338 0 00-1.136-2.307.66.66 0 011.153-.641 26.926 26.926 0 011.194 2.425.659.659 0 01-.345.867.643.643 0 01-.265.06zm-111.514-3.282a.661.661 0 01-.569-.993l1.336-2.276a.66.66 0 011.139.668l-1.336 2.276a.66.66 0 01-.57.325zm108.954-1.323a.662.662 0 01-.544-.285 25.221 25.221 0 00-1.565-2.039.659.659 0 111-.855 26.813 26.813 0 011.647 2.144.66.66 0 01-.542 1.035zm-106.281-3.226a.653.653 0 01-.334-.092.66.66 0 01-.236-.9l1.335-2.274a.66.66 0 011.138.668l-1.335 2.274a.66.66 0 01-.568.328zm102.869-.79a.659.659 0 01-.457-.184c-.612-.592-1.265-1.163-1.938-1.7a.659.659 0 11.821-1.032c.705.56 1.39 1.159 2.033 1.779a.66.66 0 01-.459 1.134zm-4.129-3.273a.655.655 0 01-.359-.106q-.65-.422-1.333-.809l-.9-.513a.66.66 0 01.653-1.147l.9.513c.476.272.945.553 1.4.849a.66.66 0 01-.359 1.212zm-96.069-.487a.66.66 0 01-.568-.993l1.336-2.274a.659.659 0 111.137.667l-1.337 2.274a.658.658 0 01-.568.33zm91.5-2.156a.669.669 0 01-.327-.086l-2.294-1.3a.66.66 0 01.653-1.147l2.294 1.3a.66.66 0 01-.325 1.234zm-88.83-2.394a.659.659 0 01-.569-.993l1.337-2.274a.66.66 0 011.138.669l-1.336 2.274a.66.66 0 01-.566.328zm84.24-.21a.651.651 0 01-.326-.086l-2.295-1.3a.66.66 0 01.651-1.148l2.3 1.3a.659.659 0 01-.327 1.233zm-4.589-2.6a.666.666 0 01-.326-.086l-2.295-1.3a.659.659 0 11.651-1.147l2.295 1.3a.66.66 0 01-.325 1.234zm-76.978-1.736a.653.653 0 01-.334-.092.66.66 0 01-.235-.9l1.336-2.274a.66.66 0 011.139.669l-1.336 2.274a.659.659 0 01-.566.325zm72.387-.868a.652.652 0 01-.326-.086l-2.294-1.3a.66.66 0 11.655-1.151l2.294 1.3a.659.659 0 01-.326 1.233zm-4.589-2.6a.652.652 0 01-.326-.086l-2.294-1.3a.659.659 0 11.651-1.147l2.295 1.3a.659.659 0 01-.326 1.233zm-65.126-1.077a.66.66 0 01-.568-.994l1.336-2.274a.659.659 0 011.137.667l-1.337 2.274a.66.66 0 01-.563.325zm60.537-1.526a.666.666 0 01-.326-.086l-2.3-1.3a.66.66 0 01.653-1.148l2.294 1.3a.66.66 0 01-.326 1.234zm-4.589-2.6a.66.66 0 01-.327-.086l-2.295-1.3a.66.66 0 01.653-1.148l2.295 1.3a.66.66 0 01-.326 1.233zm-53.258-.41a.66.66 0 01-.556-1.015c.48-.752 1.005-1.494 1.562-2.2a.66.66 0 011.039.814c-.531.676-1.032 1.382-1.49 2.1a.657.657 0 01-.55.295zm48.667-2.194a.653.653 0 01-.326-.086l-2.294-1.3a.66.66 0 01.653-1.148l2.295 1.3a.659.659 0 01-.327 1.233zm-45.415-1.949a.661.661 0 01-.475-1.117c.623-.649 1.284-1.274 1.965-1.857a.66.66 0 01.857 1 25.714 25.714 0 00-1.87 1.768.66.66 0 01-.469.2zm40.826-.654a.667.667 0 01-.326-.086l-2.295-1.3a.659.659 0 11.651-1.147l2.294 1.3a.66.66 0 01-.326 1.234zm-4.589-2.6a.653.653 0 01-.326-.086l-2.294-1.3a.66.66 0 11.651-1.148l2.294 1.3a.659.659 0 01-.325 1.233zm-32.233-.172a.659.659 0 01-.378-1.2c.735-.515 1.5-1 2.285-1.441a.66.66 0 01.649 1.149c-.744.42-1.478.883-2.177 1.371a.656.656 0 01-.375.111zm27.607-2.36a.648.648 0 01-.281-.063c-.774-.363-1.573-.694-2.378-.984a.659.659 0 11.444-1.241c.845.3 1.685.649 2.5 1.032a.659.659 0 01-.281 1.256zm-23.02-.23a.659.659 0 01-.268-1.262c.823-.365 1.67-.694 2.518-.977a.66.66 0 01.419 1.252c-.809.269-1.618.583-2.4.931a.648.648 0 01-.265.045zm18.061-1.548a.669.669 0 01-.161-.02c-.833-.21-1.682-.382-2.523-.513a.659.659 0 11.2-1.3c.884.135 1.774.316 2.647.537a.659.659 0 01-.161 1.3zm-13.066-.122a.66.66 0 01-.148-1.3c.874-.2 1.767-.366 2.654-.484a.659.659 0 11.176 1.307c-.848.114-1.7.269-2.534.463a.715.715 0 01-.143.003zm7.859-.677h-.036a25.681 25.681 0 00-2.574-.023.66.66 0 01-.051-1.319c.9-.035 1.8-.027 2.7.024a.66.66 0 01-.037 1.319z" class="prefix__cls-5" data-name="Path 8577" transform="translate(-1522.967 -380.861)"/>
            <path id="prefix__Path_8578" d="M1643.609 446.082a2.113 2.113 0 01-2.118-1.807 2 2 0 01.413-1.5 2.161 2.161 0 013.826.988 2 2 0 01-.413 1.494 2.135 2.135 0 01-1.449.806 2.421 2.421 0 01-.259.019zm0-3.258a1.316 1.316 0 00-1.026.489 1.137 1.137 0 00-.238.85 1.251 1.251 0 001.42 1.044 1.273 1.273 0 00.867-.479 1.137 1.137 0 00.238-.85 1.25 1.25 0 00-1.258-1.054z" class="prefix__cls-2" data-name="Path 8578" transform="translate(-1485.747 -366.749)"/>
            <path id="prefix__Path_8579" d="M1626.808 496.554a5.564 5.564 0 01-5.537-4.827 5.409 5.409 0 011.115-4.024 5.608 5.608 0 019.964 2.681 5.4 5.4 0 01-1.114 4.024 5.645 5.645 0 01-4.428 2.146zm.005-9.536a4.317 4.317 0 00-.507.03 4.12 4.12 0 00-2.77 1.554 3.955 3.955 0 00-.818 2.943 4.15 4.15 0 007.367 1.963 3.958 3.958 0 00.817-2.943 4.1 4.1 0 00-4.089-3.547z" data-name="Path 8579" transform="translate(-1492.747 -351.675)" style="opacity:.25;fill:#f7657d;isolation:isolate"/>
            <path id="prefix__Path_8580" d="M1563.753 390.193a2.114 2.114 0 01-2.118-1.807 1.993 1.993 0 01.413-1.494 2.16 2.16 0 013.825.986 1.987 1.987 0 01-.412 1.492 2.135 2.135 0 01-1.449.807 2.368 2.368 0 01-.259.016zm0-3.258a1.321 1.321 0 00-1.028.49 1.133 1.133 0 00-.236.849 1.251 1.251 0 001.42 1.044 1.279 1.279 0 00.868-.479 1.14 1.14 0 00.237-.849 1.248 1.248 0 00-1.258-1.055z" class="prefix__cls-2" data-name="Path 8580" transform="translate(-1513.357 -386.072)"/>
            <path id="prefix__Path_8581" d="M1605.552 405.476a2.112 2.112 0 01-2.118-1.807 2 2 0 01.413-1.5 2.161 2.161 0 013.826.986 2 2 0 01-.414 1.5 2.135 2.135 0 01-1.448.8 2.412 2.412 0 01-.259.021zm0-3.258c-.052 0-.105 0-.159.009a1.28 1.28 0 00-.868.479 1.149 1.149 0 00-.238.852 1.253 1.253 0 001.421 1.043 1.275 1.275 0 00.867-.478 1.139 1.139 0 00.238-.852 1.249 1.249 0 00-1.258-1.053z" class="prefix__cls-2" data-name="Path 8581" transform="translate(-1498.905 -380.788)"/>
            <path id="prefix__Path_8582" d="M1537.506 421.714a2.115 2.115 0 01-2.118-1.806 2 2 0 01.413-1.5 2.162 2.162 0 013.826.988 1.99 1.99 0 01-.413 1.494 2.139 2.139 0 01-1.449.806 2.381 2.381 0 01-.259.018zm0-3.258a1.32 1.32 0 00-1.027.488 1.143 1.143 0 00-.237.852 1.252 1.252 0 001.42 1.043 1.276 1.276 0 00.868-.478 1.144 1.144 0 00.237-.852 1.247 1.247 0 00-1.259-1.053z" class="prefix__cls-2" data-name="Path 8582" transform="translate(-1522.432 -375.174)"/>
            <path id="prefix__Path_8583" d="M1541.395 485.712a2.116 2.116 0 01-2.12-1.807 2.006 2.006 0 01.414-1.5 2.161 2.161 0 013.826.986 2 2 0 01-.414 1.5 2.134 2.134 0 01-1.448.806 2.4 2.4 0 01-.258.015zm0-3.259a1.308 1.308 0 00-.16.011 1.282 1.282 0 00-.867.478 1.148 1.148 0 00-.238.853 1.256 1.256 0 001.421 1.043 1.275 1.275 0 00.867-.479 1.142 1.142 0 00.238-.85 1.25 1.25 0 00-1.256-1.056z" class="prefix__cls-2" data-name="Path 8583" transform="translate(-1521.087 -353.047)"/>
        </g>
        <g id="prefix__Group_10204" data-name="Group 10204" transform="translate(1546.027 405.625)">
            <g id="prefix__Group_10193" data-name="Group 10193" transform="translate(6.784)">
                <g id="prefix__Group_10192" data-name="Group 10192">
                    <g id="prefix__Group_5993" data-name="Group 5993">
                        <g id="prefix__Group_5989" data-name="Group 5989" transform="translate(38.032)">
                            <g id="prefix__Group_10185" data-name="Group 10185">
                                <path id="prefix__Path_3018-2" d="M1607.1 427.737l.109 1.011a3.053 3.053 0 01-2.693 3.372l-26.285 2.945a3.051 3.051 0 01-3.371-2.693l-.109-1.012a8.139 8.139 0 017.174-8.994l3.48-.389a11.083 11.083 0 009.214-1.032l3.48-.392a8.138 8.138 0 019 7.173zm-27.425-16.376a9.156 9.156 0 1110.119 8.08 9.158 9.158 0 01-10.117-8.069z" class="prefix__cls-7" data-name="Path 3018-2" transform="translate(-1573.92 -400.4)"/>
                                <path id="prefix__Path_8584" d="M1577.913 436.064a3.84 3.84 0 01-3.625-3.4l-.111-1.015a8.934 8.934 0 017.866-9.858l3.652-.408.163.054a10.284 10.284 0 008.562-.96l.318-.108 3.479-.39a8.932 8.932 0 019.856 7.774l.018.159.1.955a3.839 3.839 0 01-3.384 4.235l-26.286 2.943a3.708 3.708 0 01-.608.019zm7.617-13.087l-3.313.369a7.367 7.367 0 00-6.483 8.13l.11 1.015a2.256 2.256 0 002.506 2l26.284-2.945a2.265 2.265 0 002-2.506l-.113-1.042a7.358 7.358 0 00-8.13-6.461l-3.313.373a11.875 11.875 0 01-9.548 1.067zm2.976-2.506a9.959 9.959 0 01-9.4-8.811l.778-.1-.778.086a9.944 9.944 0 119.4 8.823zm.876-18.293a8.537 8.537 0 00-1.334.043 8.373 8.373 0 00-7.388 9.253v.135a8.379 8.379 0 108.719-9.431z" class="prefix__cls-5" data-name="Path 8584" transform="translate(-1574.121 -400.602)"/>
                            </g>
                        </g>
                        <g id="prefix__Group_5990" data-name="Group 5990" transform="translate(0 10.823)">
                            <g id="prefix__Group_10186" data-name="Group 10186">
                                <path id="prefix__Path_3019-2" d="M1596.326 445.714l.455 1.53a4.8 4.8 0 01-3.218 5.971l-39.82 11.913a4.8 4.8 0 01-5.969-3.219l-.459-1.53a12.788 12.788 0 018.585-15.917l5.275-1.576a17.4 17.4 0 0013.956-4.188l5.274-1.577a12.789 12.789 0 0115.916 8.587zm-47-17.643a14.387 14.387 0 1117.908 9.658 14.387 14.387 0 01-17.908-9.658z" class="prefix__cls-7" data-name="Path 3019-2" transform="translate(-1545.544 -408.328)"/>
                                <path id="prefix__Path_8585" d="M1552.691 466.877a6.041 6.041 0 01-5.78-4.3l-.46-1.531a14.038 14.038 0 019.411-17.452l5.537-1.655.268.038a16.155 16.155 0 0012.965-3.891l.463-.257 5.276-1.576a14.029 14.029 0 0117.451 9.412l.458 1.539a6.037 6.037 0 01-4.044 7.5l-39.823 11.914a6.008 6.008 0 01-1.722.259zm3.709-20.868a11.572 11.572 0 00-7.587 14.334l.458 1.53a3.578 3.578 0 004.436 2.393l39.822-11.914a3.571 3.571 0 002.39-4.438l-.456-1.531 1.182-.351-1.184.345a11.563 11.563 0 00-14.381-7.76l-5.021 1.5a18.61 18.61 0 01-14.465 4.34l-4.141 1.238v.315zm7.041-6.126a15.658 15.658 0 01-14.975-11.143 15.613 15.613 0 1114.975 11.143zm-12.612-11.849a13.15 13.15 0 101.023-10.016 13.175 13.175 0 00-1.023 10.016z" class="prefix__cls-5" data-name="Path 8585" transform="translate(-1545.861 -408.644)"/>
                            </g>
                        </g>
                        <g id="prefix__Group_5990-2" class="prefix__cls-8" data-name="Group 5990" transform="translate(1.345 10.822)">
                            <g id="prefix__Group_10187" data-name="Group 10187">
                                <path id="prefix__Path_3019-2-2" d="M1595.741 447.241l-.444-1.521-.013-.013a12.771 12.771 0 00-15.907-8.586l-5.277 1.579c-.256.215-.511.431-.767.633a17.407 17.407 0 01-13.188 3.553l-5.275 1.574a12.44 12.44 0 00-2.894 1.278l2.046-.619.269.04a14.556 14.556 0 002.019.148l-.215.067v.323h-1.05a10.919 10.919 0 00-2.543 1.157l-.027.013a11.463 11.463 0 00-2.7 2.315h.31v-.31l4.145-1.238a18.627 18.627 0 0014.467-4.347l5.02-1.494a11.556 11.556 0 0114.372 7.751l1.184-.336-1.184.35.458 1.534a3.563 3.563 0 01-.969 3.607l1.911-.565 1.467-.444 1.575-.471a4.79 4.79 0 003.21-5.978zm-19.877-27.413a14.389 14.389 0 00-17.912-9.662 14.179 14.179 0 00-7.55 5.4 15.152 15.152 0 011.884-.727c.135-.04.256-.081.39-.108a13.183 13.183 0 0115.988 8.936 13.049 13.049 0 01-1.023 10.012 13.226 13.226 0 01-2.207 2.988 12.114 12.114 0 01-1.857 1.574 11.748 11.748 0 002.5-.484.39.39 0 00.121-.027 13.142 13.142 0 002.382-.955 14.369 14.369 0 007.284-16.947z" class="prefix__cls-9" data-name="Path 3019-2" transform="translate(-1545.854 -408.327)"/>
                                <path id="prefix__Path_8586" d="M1549.861 448.258a.013.013 0 00-.013.013 11.146 11.146 0 00-1.763.686 13.28 13.28 0 00-1.224 2.113 10.361 10.361 0 012.073-1.157 11.718 11.718 0 011.467-1.817zm11.466-6.271l-.269-.04-4.683 1.4a6.081 6.081 0 00.7.027 15.623 15.623 0 004.468-.659 16.68 16.68 0 001.628-.579 14.4 14.4 0 01-1.844-.149zm19.056-4.549l-5.275 1.574c-.256.215-.511.431-.767.633a3.149 3.149 0 00-.336.094l-5.275 1.574-.458.269a14.521 14.521 0 01-2.167 1.6 17.443 17.443 0 01-4.952.014l-5.275 1.574a12.442 12.442 0 00-2.894 1.278l2.046-.619.269.04a14.557 14.557 0 002.019.148l3.93-1.171a15.058 15.058 0 002.045.135 16.091 16.091 0 003.23-.215.013.013 0 00.013-.013 18.275 18.275 0 008.33-3.566 10.339 10.339 0 00.848-.673l3.149-.942 1.87-.552a11.566 11.566 0 0114.386 7.751l1.171-.35a12.771 12.771 0 00-15.907-8.583zm16.364 10.12l-.444-1.521-.013-.013-1.171.363.458 1.521a3.572 3.572 0 01-2.4 4.441l-1.009.31-1.279.377-1.346.4a3.488 3.488 0 01-.969 1.575 3.381 3.381 0 01-1.413.821l-36.281 10.86a5.927 5.927 0 001.467.188 5.784 5.784 0 001.709-.256l35.137-10.51 2.14-.632a5.742 5.742 0 00.619-1.48l1.575-.471a4.79 4.79 0 003.22-5.973zm-18.692-27.776a15.645 15.645 0 00-25.637-6.944 16.028 16.028 0 00-3.082 4.01l-.2.4a12.621 12.621 0 012.274-1.373 15.164 15.164 0 011.884-.727c.135-.04.256-.081.391-.108a13.211 13.211 0 011.884-1.588 12.909 12.909 0 012.355-1.292A13.166 13.166 0 011571 434.787a13.259 13.259 0 01-2.261 1.359 15.122 15.122 0 01-1.884.727c-.134.04-.282.081-.417.108a12.108 12.108 0 01-1.857 1.574 12.363 12.363 0 01-2.342 1.292q.424.04.848.04a14.709 14.709 0 001.87-.121 14.862 14.862 0 002.6-.538c.054-.013.121-.04.175-.054a15.634 15.634 0 0010.322-19.392z" class="prefix__cls-9" data-name="Path 8586" transform="translate(-1546.86 -408.643)"/>
                            </g>
                        </g>
                        <g id="prefix__Group_5990-3" class="prefix__cls-8" data-name="Group 5990" transform="translate(1.345 14.307)">
                            <g id="prefix__Group_10188" data-name="Group 10188">
                                <path id="prefix__Path_3019-2-3" d="M1549.861 447.042a.013.013 0 00-.013.013 11.152 11.152 0 00-1.763.686 13.278 13.278 0 00-1.224 2.113 10.358 10.358 0 012.073-1.157 11.716 11.716 0 011.467-1.817zm40.87 2.786l-.458-1.521-1.184.35.458 1.534a3.563 3.563 0 01-.969 3.607 3.382 3.382 0 01-1.413.821l-36.281 10.86a5.926 5.926 0 001.467.188 5.785 5.785 0 001.709-.256l35.14-10.511a4.9 4.9 0 001.292-1.669 4.715 4.715 0 00.4-1.413 4.594 4.594 0 00-.161-1.99zm-15.866-10.255c-.175.04-.336.081-.511.135l-5.275 1.575a16.163 16.163 0 01-2.544 1.857.013.013 0 01-.013.014 17.351 17.351 0 01-11.4 2.315l-1.615.484-.027.013a11.466 11.466 0 00-2.7 2.315h.31v-.31l4.145-1.238a18.627 18.627 0 0014.467-4.347l5.02-1.494a11.556 11.556 0 0114.372 7.751l1.184-.336v-.013a12.79 12.79 0 00-15.413-8.721zm-4.024-17.158a14.355 14.355 0 00-15.274-10.174 12.308 12.308 0 00-2.49.471c-.04.013-.094.027-.135.04a13.576 13.576 0 00-2.368.942 15.835 15.835 0 00-1.238 1.938l-.2.4a12.625 12.625 0 012.274-1.373 15.173 15.173 0 011.884-.727c.135-.04.256-.081.391-.108a13.183 13.183 0 0115.987 8.936 13.049 13.049 0 01-1.023 10.012 13.232 13.232 0 01-2.207 2.987 12.1 12.1 0 01-1.857 1.574 12.36 12.36 0 01-2.342 1.292q.424.04.848.04a14.709 14.709 0 001.87-.121 12.929 12.929 0 002.126-1.7 15.038 15.038 0 001.655-1.924 14.322 14.322 0 002.099-12.505z" class="prefix__cls-9" data-name="Path 3019-2" transform="translate(-1546.86 -410.913)"/>
                                <path id="prefix__Path_8587" d="M1549.861 447.362a.013.013 0 00-.013.014 11.143 11.143 0 00-1.763.686 13.28 13.28 0 00-1.224 2.113 10.361 10.361 0 012.073-1.157 11.719 11.719 0 011.467-1.817zm42.054 2.436l-.457-1.534a14.027 14.027 0 00-12.6-9.986 13.678 13.678 0 00-4.522.471 3.149 3.149 0 00-.336.094l-5.275 1.574-.458.269a14.523 14.523 0 01-2.167 1.6 14.8 14.8 0 01-2.813 1.4 15.837 15.837 0 01-5.975 1.036l-.215.067v.323h-1.05a10.92 10.92 0 00-2.543 1.157l-.027.013a11.466 11.466 0 00-2.7 2.315h.31v-.31l4.145-1.238a18.627 18.627 0 0014.467-4.347l5.02-1.494a11.556 11.556 0 0114.372 7.751l1.184-.336-1.184.35.458 1.534a3.563 3.563 0 01-.969 3.607 3.381 3.381 0 01-1.413.821l-36.281 10.86a5.927 5.927 0 001.467.188 5.784 5.784 0 001.709-.256l35.137-10.51 2.14-.633a5.743 5.743 0 00.619-1.48 6.389 6.389 0 00.215-1.346 6.22 6.22 0 00-.258-1.958zm-30.589-8.707l-.269-.04-4.683 1.4a6.081 6.081 0 00.7.027 15.623 15.623 0 004.468-.659 16.688 16.688 0 001.628-.579 14.4 14.4 0 01-1.843-.149zm10.7-18.706a15.623 15.623 0 00-14.1-11.116 13.153 13.153 0 00-2.718.081 14.75 14.75 0 00-2.611.538c-.054.013-.121.04-.175.054a16.026 16.026 0 00-3.082 4.01l-.2.4a12.621 12.621 0 012.274-1.373 15.164 15.164 0 011.884-.727c.135-.04.256-.081.391-.108a13.183 13.183 0 0115.987 8.936 13.049 13.049 0 01-1.023 10.012 13.232 13.232 0 01-2.207 2.988 12.1 12.1 0 01-1.857 1.574 12.363 12.363 0 01-2.342 1.292q.424.04.848.04a14.709 14.709 0 001.87-.121 14.862 14.862 0 002.6-.538c.054-.013.121-.04.175-.054a16.182 16.182 0 001.857-2.086 16.659 16.659 0 001.225-1.924c.067-.121.134-.256.188-.377a15.449 15.449 0 001.016-11.501z" class="prefix__cls-9" data-name="Path 8587" transform="translate(-1546.86 -411.233)"/>
                            </g>
                        </g>
                        <g id="prefix__Group_5991" data-name="Group 5991" transform="translate(62.091 22.795)">
                            <g id="prefix__Group_10189" data-name="Group 10189">
                                <path id="prefix__Path_3020-2" d="M1630.135 454.529l-.225 1.163a3.55 3.55 0 01-4.158 2.811l-30.2-5.834a3.55 3.55 0 01-2.811-4.156l.225-1.164a9.462 9.462 0 0111.086-7.5l4 .775a12.873 12.873 0 0010.584 2.046l4 .772a9.465 9.465 0 017.499 11.087zm-24.773-27.682a10.648 10.648 0 118.434 12.475 10.648 10.648 0 01-8.434-12.475z" class="prefix__cls-7" data-name="Path 3020-2" transform="translate(-1591.766 -417.306)"/>
                                <path id="prefix__Path_8588" d="M1626.658 459.713a4.432 4.432 0 01-.845-.081l-30.2-5.834a4.466 4.466 0 01-3.534-5.224l.225-1.163a10.39 10.39 0 0112.152-8.218l4.36.93a11.94 11.94 0 009.836 1.9l.194-.047 4.2.81a10.384 10.384 0 018.218 12.149l-.221 1.161a4.472 4.472 0 01-4.385 3.617zm-24.17-18.886a8.569 8.569 0 00-8.395 6.931l-.225 1.163a2.642 2.642 0 002.091 3.089l30.2 5.834a2.648 2.648 0 003.093-2.09l.223-1.161a8.564 8.564 0 00-6.777-10.015l-3.8-.735a13.771 13.771 0 01-10.972-2.121l-3.806-.736a8.494 8.494 0 00-1.631-.159zm13.567-.164a11.567 11.567 0 01-11.355-13.753 11.559 11.559 0 1111.353 13.753zm-.026-21.3a9.741 9.741 0 00-9.538 7.891 9.737 9.737 0 1011.408-7.712 9.889 9.889 0 00-1.869-.179z" class="prefix__cls-5" data-name="Path 8588" transform="translate(-1592 -417.54)"/>
                            </g>
                        </g>
                        <g id="prefix__Group_5991-2" class="prefix__cls-8" data-name="Group 5991" transform="translate(63.074 22.793)">
                            <g id="prefix__Group_10190" data-name="Group 10190">
                                <path id="prefix__Path_3020-2-2" d="M1622.149 443.454l-2.207-.431-1.79-.35a11.786 11.786 0 01-2.261.35 12.491 12.491 0 01-2.839-.148 12.249 12.249 0 01-2.826-.781h-.013a13.123 13.123 0 01-2.651-1.467l-3.351-.646-.646-.121a8.94 8.94 0 00-3.782.054 8.3 8.3 0 00-2.045.673 8.212 8.212 0 011.615.161l.43.081 3.378.659a13.793 13.793 0 009.932 2.315 12.984 12.984 0 002.7.121l2.14.417a8.563 8.563 0 016.782 10.012l-.229 1.171a2.682 2.682 0 01-3.1 2.086l-27.3-5.275a3.749 3.749 0 00.969.336l28.476 5.491 1.251.242.471.094a3.542 3.542 0 004.158-2.813l.229-1.157a9.45 9.45 0 00-7.491-11.074zm-4.8-25.044a8.8 8.8 0 00-1.548-.175 9.579 9.579 0 00-2.49.175h-.013a9.64 9.64 0 00-2.288.727 1.8 1.8 0 01.269-.013 9.908 9.908 0 011.871.188c.04.013.094.013.134.027a9.726 9.726 0 01.027 19.042 8.393 8.393 0 01-2.328.2 10.229 10.229 0 002.328.74h.014a10.8 10.8 0 002.449.188 10.652 10.652 0 001.575-21.1z" class="prefix__cls-9" data-name="Path 3020-2" transform="translate(-1592.26 -417.304)"/>
                                <path id="prefix__Path_8589" d="M1622.794 442.787l-4.2-.807-.188.04a12.267 12.267 0 01-4.858.175 11.342 11.342 0 01-4.75-1.924 2.206 2.206 0 01-.229-.148l-.848-.175-3.512-.754a10.3 10.3 0 00-3.957.013 9.632 9.632 0 00-2.261.727 9.372 9.372 0 00-1.992 1.184 7.92 7.92 0 012.194-.3h.014a8.213 8.213 0 011.615.161l.431.081a8.047 8.047 0 011.978-.242 8.351 8.351 0 011.628.161l.444.081 3.284.646.08.013c.014.013.041.027.054.04a15.065 15.065 0 002.8 1.48h.013a13.951 13.951 0 003.028.794 12.984 12.984 0 002.705.121 11.8 11.8 0 002.369-.323l1.548.3c.013.013.013.013.027.013l2.234.431c.215.04.417.094.619.148a8.556 8.556 0 016.164 9.864l-.228 1.173a2.645 2.645 0 01-3 2.1c-.027 0-.067-.014-.094-.014l-.942-.188-1.144-.215a2.58 2.58 0 01-1.951.4l-27.305-5.275-1.83-.363a4.2 4.2 0 001.575 1.238 4.108 4.108 0 001.063.35l28.745 5.558 1.453.283a4.456 4.456 0 005.221-3.539l.215-1.157a10.369 10.369 0 00-8.212-12.151zm-4.8-25.031a11.521 11.521 0 00-4.239-.04 11.838 11.838 0 00-2.436.74 10.988 10.988 0 00-1.992 1.077c-.108.067-.2.148-.31.229a8.969 8.969 0 012.463-.39 1.8 1.8 0 01.269-.013 9.912 9.912 0 011.871.188c.04.013.094.013.134.027a9.4 9.4 0 012.032-.215 2.185 2.185 0 01.3.013 9.1 9.1 0 011.575.175c.323.067.632.135.942.229a9.725 9.725 0 01-.04 18.652 8.7 8.7 0 01-2.436.39 8.457 8.457 0 01-2.167-.161c-.054-.014-.121-.027-.175-.04a8.391 8.391 0 01-2.328.2 10.088 10.088 0 01-1.534-.161c-.336-.067-.659-.148-.982-.242a11.976 11.976 0 004.67 2.046.788.788 0 00.175.027h.014a11.557 11.557 0 004.2-22.73z" class="prefix__cls-9" data-name="Path 8589" transform="translate(-1592.73 -417.539)"/>
                            </g>
                        </g>
                        <g id="prefix__Group_5991-3" class="prefix__cls-8" data-name="Group 5991" transform="translate(63.074 22.97)">
                            <g id="prefix__Group_10191" data-name="Group 10191">
                                <path id="prefix__Path_3020-2-3" d="M1620.21 443.912c-.014 0-.014 0-.027-.013a10.412 10.412 0 00-1.6-.444l-2.22-.431-1.777-.35a7.063 7.063 0 01-1.063.2 11.742 11.742 0 01-2.988.135h-.013a12.907 12.907 0 01-6.217-2.18c-.108-.054-.2-.135-.309-.2l-3.741-.713-.255-.054a8.472 8.472 0 00-2.005-.161 9.373 9.373 0 00-1.992 1.184 7.921 7.921 0 012.194-.3h.014a8.211 8.211 0 011.615.161l.431.081 3.378.659a13.793 13.793 0 009.931 2.315 12.982 12.982 0 002.705.121l2.14.417a8.563 8.563 0 016.782 10.012l-.229 1.171a2.682 2.682 0 01-3.1 2.086l-27.305-5.275-1.83-.363a4.2 4.2 0 001.575 1.238l27.386 5.289a3.484 3.484 0 002.315-.336 3.206 3.206 0 00.956-.74 3.516 3.516 0 00.888-1.736l.229-1.157a9.463 9.463 0 00-5.868-10.616zm-4.132-24.775a10.928 10.928 0 00-2.3-.727h-.013a10.805 10.805 0 00-2.449-.188 10.988 10.988 0 00-1.992 1.077c-.108.067-.2.148-.31.229a8.968 8.968 0 012.463-.39 1.8 1.8 0 01.269-.013 9.907 9.907 0 011.871.188c.04.013.094.013.134.027a9.726 9.726 0 01.027 19.042 8.389 8.389 0 01-2.328.2 10.08 10.08 0 01-1.534-.161c-.336-.067-.659-.148-.982-.242a11.3 11.3 0 002.328 1.319 9.785 9.785 0 002.516-.175h.014a9.986 9.986 0 002.328-.74 10.647 10.647 0 00-.04-19.446z" class="prefix__cls-9" data-name="Path 3020-2" transform="translate(-1592.73 -417.482)"/>
                                <path id="prefix__Path_8590" d="M1623.063 444.679a9.615 9.615 0 00-2.651-1.467 9.4 9.4 0 00-1.655-.471l-2.368-.458-1.83-.35-.188.04c-.269.067-.552.134-.821.175a11.256 11.256 0 01-2.853.135h-.013a11.64 11.64 0 01-2.961-.565 1.377 1.377 0 00-.135-.054 11.238 11.238 0 01-2.907-1.494.9.9 0 01-.148-.094l-4.28-.915a9.632 9.632 0 00-2.261.727 9.373 9.373 0 00-1.992 1.184 7.92 7.92 0 012.194-.3h.014a8.213 8.213 0 011.615.161l.431.081 3.378.659a13.793 13.793 0 009.931 2.315c.35-.054.687-.121 1.036-.2l1.669.323 2.14.417a8.563 8.563 0 016.782 10.012l-.229 1.171a2.682 2.682 0 01-3.1 2.086l-27.305-5.275-1.83-.363a4.2 4.2 0 001.575 1.238 4.108 4.108 0 001.063.35l28.745 5.558a4.776 4.776 0 001.884-1.494 4.411 4.411 0 00.754-1.763l.215-1.157a10.325 10.325 0 00-3.899-10.212zm-14.494-4.6l-.848-.175a9.9 9.9 0 001.077.323 2.222 2.222 0 01-.229-.15zm10.026-20.348a11.893 11.893 0 00-2.328-1.305 11.011 11.011 0 00-2.315-.713l-.2-.04a11.84 11.84 0 00-2.436.74 10.988 10.988 0 00-1.992 1.077c-.108.067-.2.148-.31.229a8.968 8.968 0 012.463-.39 1.8 1.8 0 01.269-.013 9.907 9.907 0 011.871.188c.04.013.094.013.134.027a9.726 9.726 0 01.027 19.042 8.389 8.389 0 01-2.328.2 10.08 10.08 0 01-1.534-.161c-.336-.067-.659-.148-.982-.242a11.976 11.976 0 004.67 2.046.788.788 0 00.175.027h.014a11.707 11.707 0 002.449-.74 10.946 10.946 0 002.315-1.319 11.458 11.458 0 004.549-7.132 11.583 11.583 0 00-4.511-11.523z" class="prefix__cls-9" data-name="Path 8590" transform="translate(-1592.73 -417.67)"/>
                            </g>
                        </g>
                    </g>
                </g>
            </g>
            <g id="prefix__Group_10203" data-name="Group 10203" transform="translate(0 6.171)">
                <g id="prefix__Group_10196" data-name="Group 10196">
                    <g id="prefix__Group_10194" data-name="Group 10194" transform="translate(0 54.593)">
                        <path id="prefix__Path_8591" d="M1563.03 482.306a.165.165 0 00-.309.019l-1.152 3.873-.018-.011c-1.51-.871-3.029-1.665-4.457-2.671a31.075 31.075 0 01-4.178-3.558 35.494 35.494 0 01-6.269-8.707c-3.952-7.641-5.165-16.464-4.542-25a.463.463 0 00-.922-.092c-.984 8.784-.055 17.876 3.765 25.887a37.317 37.317 0 006.318 9.288 28.59 28.59 0 009.041 6.839l-2.434 2.289a.165.165 0 00.117.285l8.259-.272a.166.166 0 00.148-.23z" class="prefix__cls-5" data-name="Path 8591" transform="translate(-1540.819 -445.755)"/>
                        <path id="prefix__Path_8592" d="M1562.9799999999998 487.994l.118.281-.54.017v-.027a2.284 2.284 0 00.42-.272m-21.35-42.238a.434.434 0 00-.449.4c-.984 8.784-.055 17.876 3.765 25.887a37.317 37.317 0 006.318 9.288 28.59 28.59 0 009.041 6.839l-2.434 2.289a.165.165 0 00.112.285h.005l8.259-.272a.166.166 0 00.148-.23l-3.367-7.939a.159.159 0 00-.149-.1.164.164 0 00-.16.118l-1.152 3.873-.018-.011c-1.51-.871-3.029-1.665-4.457-2.671a31.071 31.071 0 01-4.178-3.558 35.468 35.468 0 01-6.269-8.707c-3.952-7.641-5.165-16.464-4.542-25a.451.451 0 00-.472-.494z" class="prefix__cls-5" data-name="Path 8592" transform="translate(-1540.819 -445.754)"/>
                    </g>
                    <g id="prefix__Group_10195" data-name="Group 10195" transform="translate(81.465)">
                        <path id="prefix__Path_8593" d="M1625.754 421.251a37.341 37.341 0 00-7.878-8 28.647 28.647 0 00-10.127-5.114l1.992-2.682a.164.164 0 00-.166-.26l-8.089 1.735a.167.167 0 00-.1.253l4.73 7.2a.166.166 0 00.3-.075l.445-4.01.019.008c1.643.587 3.281 1.1 4.868 1.832a31.216 31.216 0 014.75 2.755 35.523 35.523 0 017.726 7.442c5.254 6.808 8.018 15.262 8.924 23.763a.465.465 0 00.926-.074c-.597-8.808-3.13-17.578-8.32-24.773z" class="prefix__cls-5" data-name="Path 8593" transform="translate(-1601.354 -405.187)"/>
                        <path id="prefix__Path_8594" d="M1605.51 408.417v.031a2.325 2.325 0 00-.359.339l-.169-.258.525-.112m4.1-3.23a.169.169 0 00-.036 0l-8.089 1.735a.167.167 0 00-.1.253l4.73 7.2a.162.162 0 00.136.074.167.167 0 00.167-.149l.445-4.01.019.008c1.643.587 3.281 1.1 4.868 1.832a31.216 31.216 0 014.75 2.755 35.523 35.523 0 017.726 7.442c5.254 6.808 8.018 15.262 8.924 23.763a.465.465 0 00.926-.074c-.6-8.807-3.128-17.577-8.318-24.771a37.341 37.341 0 00-7.878-8 28.647 28.647 0 00-10.127-5.114l1.992-2.682a.165.165 0 00-.129-.264z" class="prefix__cls-5" data-name="Path 8594" transform="translate(-1601.354 -405.187)"/>
                    </g>
                </g>
                <g id="prefix__Group_10201" data-name="Group 10201" transform="translate(29.761 57.744)">
                    <g id="prefix__Group_10197" data-name="Group 10197" transform="translate(3.154 2.523)">
                        <path id="prefix__Path_8595" d="M1624.044 478.256l-3.156-1.362a1.942 1.942 0 01-.471-3.28l2.644-2.195a.089.089 0 00.023-.1l-4.006-8.77a.082.082 0 00-.09-.048l-3.391.561a1.952 1.952 0 01-1.887-.772 1.918 1.918 0 01-.282-1.732l1.038-3.277a.087.087 0 00-.035-.1l-8.111-5.212a.085.085 0 00-.1.008l-2.55 2.305a1.9 1.9 0 01-1.3.5 1.929 1.929 0 01-1.884-1.437l-.9-3.317a.084.084 0 00-.082-.062h-9.641a.084.084 0 00-.082.062l-.9 3.317a1.927 1.927 0 01-1.883 1.437 1.9 1.9 0 01-1.3-.5l-2.55-2.305a.085.085 0 00-.1-.008l-8.111 5.212a.085.085 0 00-.035.1l1.038 3.277a1.923 1.923 0 01-.282 1.733 1.95 1.95 0 01-1.887.771l-3.391-.561a.085.085 0 00-.091.048l-4.005 8.77a.085.085 0 00.023.1l2.644 2.195a1.943 1.943 0 01-.471 3.28l-3.156 1.362a.086.086 0 00-.051.09l1.373 9.543a.087.087 0 00.074.073l3.411.417a1.944 1.944 0 011.377 3.015l-1.919 2.85a.087.087 0 00.005.1l6.314 7.286a.084.084 0 00.1.022l3.1-1.494a1.927 1.927 0 01.845-.2 1.965 1.965 0 011.394.591 1.928 1.928 0 01.549 1.4l-.073 3.437a.084.084 0 00.061.082l9.25 2.717a.084.084 0 00.1-.038l1.8-2.93a1.944 1.944 0 013.313 0l1.8 2.93a.085.085 0 00.073.04h.024l9.25-2.717a.083.083 0 00.06-.082l-.073-3.437a1.928 1.928 0 01.549-1.4 1.965 1.965 0 011.394-.591 1.928 1.928 0 01.845.2l3.095 1.494a.085.085 0 00.1-.022l6.313-7.286a.085.085 0 00.007-.1l-1.919-2.85a1.944 1.944 0 011.377-3.015l3.412-.417a.087.087 0 00.074-.073l1.371-9.543a.083.083 0 00-.055-.092zm-29.357 14.727a13.9 13.9 0 1113.9-13.9 13.9 13.9 0 01-13.9 13.899z" data-name="Path 8595" transform="translate(-1565.278 -449.971)" style="fill:#ed4e67"/>
                    </g>
                    <g id="prefix__Group_10199" data-name="Group 10199">
                        <g id="prefix__Group_10198" data-name="Group 10198">
                            <path id="prefix__Path_8596" d="M1622.08 476.762l-3.156-1.361a1.944 1.944 0 01-.472-3.281l2.644-2.195a.084.084 0 00.023-.1l-4-8.77a.084.084 0 00-.091-.048l-3.39.561a1.955 1.955 0 01-1.888-.771 1.923 1.923 0 01-.282-1.733l1.038-3.277a.085.085 0 00-.035-.1l-8.111-5.212a.085.085 0 00-.1.008l-2.549 2.305a1.906 1.906 0 01-1.3.5 1.928 1.928 0 01-1.883-1.437l-.9-3.317a.083.083 0 00-.081-.062h-9.647a.087.087 0 00-.082.062l-.9 3.317a1.928 1.928 0 01-1.884 1.437 1.9 1.9 0 01-1.3-.5l-2.549-2.305a.085.085 0 00-.1-.008l-8.112 5.212a.086.086 0 00-.034.1l1.037 3.277a1.925 1.925 0 01-.282 1.733 1.952 1.952 0 01-1.888.771l-3.39-.561a.085.085 0 00-.092.048l-4.005 8.77a.085.085 0 00.023.1l2.644 2.195a1.944 1.944 0 01-.472 3.281l-3.156 1.361a.085.085 0 00-.05.09l1.373 9.543a.084.084 0 00.072.073l3.411.417a1.943 1.943 0 011.377 3.014l-1.919 2.85a.085.085 0 00.007.1l6.314 7.286a.084.084 0 00.1.022l3.1-1.494a1.939 1.939 0 01.844-.2 1.968 1.968 0 011.394.591 1.917 1.917 0 01.549 1.4l-.073 3.437a.085.085 0 00.062.082l9.251 2.717a.082.082 0 00.1-.038l1.8-2.93a1.945 1.945 0 013.315 0l1.8 2.93a.083.083 0 00.071.04h.024l9.251-2.717a.085.085 0 00.062-.082l-.073-3.437a1.921 1.921 0 01.548-1.4 1.973 1.973 0 011.4-.591 1.937 1.937 0 01.844.2l3.1 1.494a.084.084 0 00.1-.022l6.314-7.286a.087.087 0 00.007-.1l-1.919-2.85a1.943 1.943 0 011.377-3.014l3.411-.417a.084.084 0 00.073-.073l1.373-9.543a.085.085 0 00-.068-.092zm-29.359 14.726a13.9 13.9 0 1113.9-13.9 13.9 13.9 0 01-13.9 13.9z" class="prefix__cls-7" data-name="Path 8596" transform="translate(-1562.803 -447.964)"/>
                            <path id="prefix__Path_8597" d="M1596.379 507.342a.687.687 0 01-.507-.283l-1.8-2.934a1.479 1.479 0 00-2.438 0l-1.8 2.93a.677.677 0 01-.674.261l-9.255-2.717a.678.678 0 01-.429-.583l.073-3.438a1.412 1.412 0 00-.4-1.028 1.442 1.442 0 00-1.649-.291l-3.1 1.492a.676.676 0 01-.711-.147l-6.314-7.287a.676.676 0 01-.046-.723l1.921-2.853a1.431 1.431 0 00-1.014-2.219l-3.411-.417a.681.681 0 01-.52-.5l-1.371-9.547a.677.677 0 01.353-.634l3.157-1.361a1.431 1.431 0 00.347-2.416l-2.644-2.195a.682.682 0 01-.164-.7l4.008-8.774a.659.659 0 01.643-.34l3.39.56a1.445 1.445 0 001.389-.569 1.409 1.409 0 00.207-1.274l-1.038-3.276a.683.683 0 01.245-.684l8.112-5.213a.678.678 0 01.727.062l2.548 2.3a1.4 1.4 0 00.951.371 1.421 1.421 0 001.389-1.059l.9-3.317a.677.677 0 01.576-.44h9.642a.675.675 0 01.576.44l.9 3.317a1.423 1.423 0 001.389 1.059 1.4 1.4 0 00.953-.37l2.549-2.307a.683.683 0 01.72-.062l8.116 5.216a.672.672 0 01.244.688l-1.035 3.272a1.408 1.408 0 00.207 1.274 1.433 1.433 0 001.389.569l3.391-.561a.668.668 0 01.642.342l4 8.77a.677.677 0 01-.167.712l-2.64 2.191a1.432 1.432 0 00.349 2.416l3.156 1.361a.681.681 0 01.353.638l-1.371 9.54a.676.676 0 01-.522.507l-3.409.417a1.431 1.431 0 00-1.013 2.219l1.919 2.852a.675.675 0 01-.045.724l-6.314 7.287a.678.678 0 01-.711.147l-3.095-1.492a1.44 1.44 0 00-1.65.292 1.4 1.4 0 00-.4 1.027l.073 3.436a.678.678 0 01-.429.585l-9.252 2.717a.7.7 0 01-.166.02zm-3.526-4.924a2.443 2.443 0 012.1 1.171l1.634 2.667 8.613-2.546-.066-3.109a2.433 2.433 0 01.7-1.767 2.49 2.49 0 012.829-.5l2.8 1.351 5.885-6.792-1.736-2.578a2.456 2.456 0 011.739-3.811l3.087-.377 1.279-8.9-2.865-1.227a2.456 2.456 0 01-.6-4.145l2.394-1.986-3.734-8.174-3.067.507a2.477 2.477 0 01-2.385-.976 2.424 2.424 0 01-.358-2.19l.938-2.965-7.559-4.858-2.305 2.086a2.455 2.455 0 01-4.02-1.18l-.813-3h-8.986l-.813 3a2.438 2.438 0 01-2.379 1.817 2.409 2.409 0 01-1.64-.638l-2.307-2.085-7.559 4.858.939 2.965a2.432 2.432 0 01-.357 2.191 2.476 2.476 0 01-2.386.974l-3.067-.507-3.734 8.174 2.394 1.986a2.456 2.456 0 01-.6 4.145l-2.848 1.235 1.278 8.9 3.087.377a2.458 2.458 0 011.739 3.811l-1.736 2.578 5.885 6.792 2.8-1.351a2.49 2.49 0 012.829.5 2.433 2.433 0 01.7 1.767l-.066 3.107 8.622 2.533 1.624-2.651a2.44 2.44 0 012.091-1.179zm0-10.286a14.414 14.414 0 1114.416-14.414 14.431 14.431 0 01-14.416 14.415zm0-27.8a13.388 13.388 0 1013.389 13.387 13.4 13.4 0 00-13.389-13.388z" data-name="Path 8597" transform="translate(-1562.934 -448.096)" style="fill:#bf263f"/>
                        </g>
                    </g>
                    <g id="prefix__Group_10200" class="prefix__cls-8" data-name="Group 10200" transform="translate(6.873 .513)">
                        <path id="prefix__Path_8598" d="M1572.135 499.878a.09.09 0 01-.062-.093l.073-3.426a1.94 1.94 0 00-.555-1.4 1.98 1.98 0 00-1.4-.585 1.874 1.874 0 00-.841.2l-1.313.637 4.278 4.935a.084.084 0 00.093.031l.267-.135zm18.98-51.4a1.873 1.873 0 001.5.717 1.9 1.9 0 001.3-.513l.226-.2zm19.719 7.212l-6.146-3.95-1.015 3.222a1.9 1.9 0 00.276 1.733 1.956 1.956 0 001.888.77l3.4-.564a.106.106 0 01.091.051l.688 1.518.852-2.687a.082.082 0 00-.034-.094zm9.614 21.074l-3.161-1.365a1.944 1.944 0 01-.471-3.273l2.647-2.2a.081.081 0 00.02-.1l-4-8.772a.11.11 0 00-.093-.053l-3.4.565a2.467 2.467 0 01-.554.02l1.888 4.134a.084.084 0 01-.022.1l-2.647 2.195a1.943 1.943 0 00.472 3.273l3.16 1.365a.1.1 0 01.051.093l-1.374 9.541a.1.1 0 01-.073.071l-3.416.421a1.94 1.94 0 00-1.375 3.006l1.919 2.852a.078.078 0 01-.011.1l-6.309 7.285a.094.094 0 01-.1.031l-3.087-1.5a1.919 1.919 0 00-.852-.2 2 2 0 00-1.4.585 1.963 1.963 0 00-.543 1.4l.071 3.426a.09.09 0 01-.062.093l-9.253 2.709c-.011.009-.011.009-.02.009a.089.089 0 01-.073-.04l-1.8-2.935a1.949 1.949 0 00-3.315 0l-1.8 2.935a.093.093 0 01-.1.031l-3.1-.914-.051 2.216a.091.091 0 00.06.093l9.244 2.708a.094.094 0 00.1-.031l1.8-2.934a1.948 1.948 0 013.313 0l1.8 2.934a.086.086 0 00.073.042c.009 0 .009 0 .02-.011l9.255-2.708a.091.091 0 00.061-.093l-.071-3.426a1.964 1.964 0 01.544-1.406 2 2 0 011.4-.584 1.919 1.919 0 01.852.194l3.088 1.5a.094.094 0 00.1-.031l6.309-7.285a.079.079 0 00.011-.1l-1.919-2.853a1.939 1.939 0 011.375-3.006l3.417-.42a.1.1 0 00.071-.073l1.375-9.541a.1.1 0 00-.043-.074z" class="prefix__cls-9" data-name="Path 8598" transform="translate(-1568.041 -448.477)"/>
                    </g>
                </g>
                <g id="prefix__Group_10202" class="prefix__cls-8" data-name="Group 10202" transform="translate(35.721 48.982)">
                    <path id="prefix__Path_8599" d="M1573.741 507.9a2.5 2.5 0 00-1.756-.736 2.366 2.366 0 00-1.058.245l-3.563 1.717 7.049 2.066.026-1.523a2.43 2.43 0 00-.698-1.769zm33.891-59.739l-10.213-6.559a.1.1 0 00-.129.013l-2.917 2.634h2.221a.1.1 0 01.1.078l1.136 4.169a2.42 2.42 0 002.363 1.821 2.393 2.393 0 001.639-.645l3.2-2.893a.1.1 0 01.129-.012l2.479 1.588.026-.078a.1.1 0 00-.034-.115zm6.714 8.664l-.233.748a2.4 2.4 0 00.348 2.181 2.487 2.487 0 001.678.994z" class="prefix__cls-9" data-name="Path 8599" transform="translate(-1567.363 -441.585)"/>
                </g>
            </g>
        </g>
    </g>
</svg>
