<svg xmlns="http://www.w3.org/2000/svg" width="159.278" height="159.421" viewBox="0 0 159.278 159.421">
    <defs>
        <style>
            .prefix__cls-2{fill:#f7657d;opacity:.429}.prefix__cls-13,.prefix__cls-2{isolation:isolate}.prefix__cls-5{fill:#bf2640}.prefix__cls-7{fill:#fff}.prefix__cls-11{opacity:.2}.prefix__cls-12,.prefix__cls-13{fill:#f1647d}.prefix__cls-13{opacity:.551}
        </style>
    </defs>
    <g id="prefix__Group_10390" data-name="Group 10390" transform="translate(-1763.253 -54.564)">
        <g id="prefix__Group_6942" data-name="Group 6942" transform="translate(1763.253 54.564)">
            <path id="prefix__Rectangle_1795" d="M1859.778 81.366l37.387 39.228a26.545 26.545 0 01-1.268 37.983l-39.922 36.736a27.691 27.691 0 01-38.655-1.246l-37.387-39.228a26.545 26.545 0 011.268-37.983l39.922-36.736a27.691 27.691 0 0138.655 1.246z" data-name="Rectangle 1795" transform="translate(-1762.827 -53.725)" style="fill:#ed4e67;opacity:.15"/>
            <path id="prefix__Path_8846" d="M1891.533 202.648a3.541 3.541 0 01-3.524-3.074 3.44 3.44 0 01.712-2.565 3.565 3.565 0 016.336 1.708 3.447 3.447 0 01-.711 2.567 3.544 3.544 0 01-2.381 1.34 3.762 3.762 0 01-.432.024zm0-5.55a1.808 1.808 0 00-.26.016 2.094 2.094 0 00-1.412.79 2 2 0 00-.414 1.49 2.113 2.113 0 003.75 1 2.006 2.006 0 00.415-1.491 2.082 2.082 0 00-2.076-1.803z" class="prefix__cls-2" data-name="Path 8846" transform="translate(-1757.538 -48.1)"/>
            <path id="prefix__Path_8847" d="M1783.243 207.742l.139-5.985-4.961-3.523 5.863-1.726 1.864-5.709 3.465 4.916 6.114-.009-3.707 4.779 1.9 5.7-5.76-1.979zm-1.539-8.958l3.149 2.235-.09 3.842 3.163-2.27 3.687 1.266-1.217-3.649 2.362-3.044-3.9.006-2.231-3.164-1.2 3.679z" data-name="Path 8847" transform="translate(-1762.558 -48.322)" style="opacity:.418;isolation:isolate;fill:#f7657d"/>
            <path id="prefix__Path_8848" d="M1887.028 76.561l-1.048-4.214-4.157-1.562 3.785-2.295.218-4.337 3.368 2.808 4.278-1.147-1.679 4.038 2.425 3.657-4.422-.324zm-1.893-6.085l2.072.78.533 2.144 1.41-1.72 2.219.162-1.217-1.833.844-2.026-2.156.576-1.709-1.425-.111 2.2z" data-name="Path 8848" transform="translate(-1757.82 -54.124)" style="opacity:.369;isolation:isolate;fill:#f7657d"/>
            <path id="prefix__Path_8849" d="M1780.142 83.47a5.535 5.535 0 01-5.51-4.8 5.379 5.379 0 011.111-4.007 5.583 5.583 0 019.92 2.668 5.386 5.386 0 01-1.112 4.008 5.612 5.612 0 01-4.408 2.135zm.006-9.493a4.131 4.131 0 00-.5.031 4.088 4.088 0 00-2.757 1.547 3.941 3.941 0 00-.813 2.93 4.131 4.131 0 007.331 1.955 3.935 3.935 0 00.814-2.931 4.083 4.083 0 00-4.074-3.531z" class="prefix__cls-2" data-name="Path 8849" transform="translate(-1762.734 -53.741)"/>
            <path id="prefix__Path_8850" d="M1766.8 91.522a3.541 3.541 0 01-3.522-3.075 3.439 3.439 0 01.712-2.565 3.565 3.565 0 016.337 1.709 3.442 3.442 0 01-.711 2.565 3.537 3.537 0 01-2.381 1.34 3.832 3.832 0 01-.435.026zm.005-5.551a1.976 1.976 0 00-.259.016 2.093 2.093 0 00-1.412.791 2 2 0 00-.414 1.49 2.114 2.114 0 003.75.994 2 2 0 00.415-1.489 2.082 2.082 0 00-2.077-1.802z" class="prefix__cls-2" data-name="Path 8850" transform="translate(-1763.253 -53.191)"/>
            <path id="prefix__Path_8851" d="M1890.962 92.366a4.947 4.947 0 01-.579-.033 4.727 4.727 0 01-3.175-1.786 4.578 4.578 0 01-.944-3.409 4.753 4.753 0 018.445-2.272 4.585 4.585 0 01.944 3.411 4.711 4.711 0 01-4.691 4.089zm-.007-8.081a3.473 3.473 0 00-3.465 3 3.352 3.352 0 00.693 2.493 3.516 3.516 0 006.242-1.662 3.361 3.361 0 00-.693-2.5 3.483 3.483 0 00-2.348-1.316 3.3 3.3 0 00-.43-.015z" class="prefix__cls-2" data-name="Path 8851" transform="translate(-1757.619 -53.259)"/>
            <path id="prefix__Path_8852" d="M1904.952 97.927a3.833 3.833 0 01-.434-.026 3.539 3.539 0 01-2.381-1.34 3.44 3.44 0 01-.711-2.565 3.567 3.567 0 016.34-1.708 3.444 3.444 0 01.709 2.564 3.541 3.541 0 01-3.523 3.075zm-2.085-3.751a2 2 0 00.415 1.49 2.114 2.114 0 003.75-.995 2 2 0 00-.413-1.489 2.115 2.115 0 00-3.752.994z" class="prefix__cls-2" data-name="Path 8852" transform="translate(-1756.923 -52.898)"/>
            <path id="prefix__Path_8853" d="M1848.926 201.462a.657.657 0 01-.011-1.314c.853-.015 1.714-.072 2.557-.169a.669.669 0 01.728.578.659.659 0 01-.578.728c-.886.1-1.788.161-2.684.177zm-2.622-.076h-.051c-.888-.069-1.785-.18-2.667-.334a.656.656 0 01-.534-.759.643.643 0 01.759-.533c.841.144 1.7.252 2.542.318a.656.656 0 01-.049 1.31zm7.831-.517a.656.656 0 01-.133-1.3c.831-.176 1.667-.393 2.481-.646a.656.656 0 11.389 1.253c-.852.266-1.727.495-2.6.678a.681.681 0 01-.137.015zm-13-.384a.666.666 0 01-.174-.023c-.861-.237-1.72-.519-2.555-.838a.656.656 0 11.468-1.227c.8.3 1.615.573 2.435.8a.656.656 0 01-.173 1.289zm18-1.181a.657.657 0 01-.254-1.262c.778-.326 1.556-.7 2.311-1.1a.657.657 0 11.623 1.157c-.793.426-1.61.817-2.427 1.159a.66.66 0 01-.247.042zm-22.9-.687a.662.662 0 01-.292-.068q-.708-.351-1.407-.747l-.93-.527a.657.657 0 01.646-1.144l.93.527c.446.253.893.489 1.344.713a.657.657 0 01-.292 1.246zm27.524-1.8a.656.656 0 01-.365-1.2c.706-.473 1.4-.986 2.057-1.527a.657.657 0 11.832 1.015c-.691.568-1.418 1.106-2.16 1.6a.663.663 0 01-.362.11zm-32.113-.752a.649.649 0 01-.324-.086l-2.284-1.3a.656.656 0 11.648-1.141l2.284 1.3a.656.656 0 01-.324 1.227zm36.164-2.576a.657.657 0 01-.464-1.121c.6-.6 1.181-1.241 1.72-1.9a.656.656 0 111.014.831c-.565.691-1.173 1.363-1.806 2a.655.655 0 01-.462.188zm-40.733-.016a.645.645 0 01-.325-.087l-2.284-1.3a.656.656 0 01-.246-.9.65.65 0 01.9-.246l2.284 1.3a.657.657 0 01-.324 1.227zm-4.569-2.592a.642.642 0 01-.324-.087l-2.284-1.3a.656.656 0 01.648-1.141l2.285 1.3a.656.656 0 01-.325 1.227zm48.627-1.451a.657.657 0 01-.546-1.024c.279-.413.544-.84.8-1.275l.547-.932a.657.657 0 111.133.665l-.547.931q-.4.689-.843 1.344a.657.657 0 01-.541.291zm-53.2-1.141a.64.64 0 01-.324-.087l-2.284-1.3a.656.656 0 01-.247-.9.65.65 0 01.9-.246l2.284 1.3a.657.657 0 01-.324 1.228zm-4.568-2.594a.669.669 0 01-.325-.085l-2.284-1.295a.658.658 0 01.649-1.144l2.284 1.3a.657.657 0 01-.324 1.228zm60.462-.772a.649.649 0 01-.332-.09.657.657 0 01-.234-.9l1.33-2.265a.657.657 0 111.133.665l-1.33 2.264a.657.657 0 01-.56.326zM1808.8 183.1a.664.664 0 01-.324-.085l-2.284-1.295a.658.658 0 01.648-1.144l2.284 1.3a.656.656 0 01-.324 1.228zm-4.568-2.592a.662.662 0 01-.324-.085l-2.285-1.3a.657.657 0 01.65-1.143l2.284 1.3a.656.656 0 01-.324 1.228zm72.262-.117a.65.65 0 01-.333-.091.657.657 0 01-.234-.9l1.33-2.263a.657.657 0 011.134.664l-1.331 2.263a.656.656 0 01-.56.331zm-76.83-2.474a.653.653 0 01-.325-.086l-2.284-1.3a.656.656 0 01.649-1.141l2.284 1.3a.656.656 0 01-.324 1.227zm79.49-2.054a.646.646 0 01-.332-.09.658.658 0 01-.234-.9l1.33-2.264a.656.656 0 111.133.664l-1.33 2.265a.658.658 0 01-.563.328zm-84.06-.538a.643.643 0 01-.324-.087l-2.284-1.3a.656.656 0 01.648-1.141l2.284 1.3a.656.656 0 01-.324 1.227zm-4.568-2.592a.639.639 0 01-.324-.087l-2.284-1.3a.656.656 0 11.648-1.141l2.284 1.3a.657.657 0 01-.324 1.228zm91.289-1.4a.65.65 0 01-.333-.09.657.657 0 01-.234-.9l1.33-2.264a.657.657 0 011.134.665l-1.331 2.263a.656.656 0 01-.561.33zM1786 170.07a.656.656 0 01-.368-.113c-.746-.5-1.47-1.045-2.153-1.611a.657.657 0 01.838-1.012c.651.54 1.34 1.054 2.051 1.535a.657.657 0 01-.367 1.2zm98.475-3.264a.658.658 0 01-.567-.989l1.331-2.264a.656.656 0 111.133.664l-1.33 2.265a.66.66 0 01-.562.328zm-102.52-.077a.659.659 0 01-.465-.193c-.635-.639-1.24-1.312-1.8-2a.657.657 0 011.021-.827 25.53 25.53 0 001.713 1.9.657.657 0 01-.466 1.12zm-3.313-4.067a.653.653 0 01-.547-.295 26.736 26.736 0 01-1.374-2.314.657.657 0 011.162-.612c.394.747.834 1.487 1.305 2.2a.656.656 0 01-.184.91.647.647 0 01-.356.114zm108.494-.385a.657.657 0 01-.567-.989l1.33-2.264a.656.656 0 111.133.664l-1.33 2.265a.656.656 0 01-.56.327zm-110.936-4.25a.657.657 0 01-.609-.409 26.7 26.7 0 01-.89-2.539.657.657 0 011.259-.372c.239.811.525 1.622.848 2.417a.657.657 0 01-.609.9zm113.6-.275a.656.656 0 01-.567-.988l1.331-2.265a.657.657 0 111.133.665l-1.33 2.264a.658.658 0 01-.567.324zm2.661-4.528a.649.649 0 01-.332-.091.657.657 0 01-.234-.9l1.33-2.264a.656.656 0 111.133.664l-1.33 2.264a.658.658 0 01-.565.326zM1774.708 153a.656.656 0 01-.643-.534 26.717 26.717 0 01-.372-2.664.657.657 0 01.6-.711.672.672 0 01.711.6c.075.839.193 1.692.354 2.533a.658.658 0 01-.522.769.712.712 0 01-.128.007zm120.417-4.306a.657.657 0 01-.567-.989l1.33-2.263a.657.657 0 111.134.665l-1.331 2.263a.655.655 0 01-.566.324zm-120.881-.916h-.006a.656.656 0 01-.65-.663 26.644 26.644 0 01.165-2.687.657.657 0 111.305.146 25.53 25.53 0 00-.157 2.554.656.656 0 01-.657.65zm123.542-3.612a.655.655 0 01-.566-.988l1.33-2.265c.183-.31.357-.621.524-.935a.657.657 0 011.16.617c-.176.33-.36.657-.551.984l-1.33 2.263a.659.659 0 01-.568.324zm-122.957-1.6a.717.717 0 01-.139-.015.658.658 0 01-.5-.781 26.385 26.385 0 01.7-2.6.656.656 0 011.249.4 25.356 25.356 0 00-.664 2.471.657.657 0 01-.646.527zm125.947-4a.657.657 0 01-.608-.908 25.546 25.546 0 00.859-2.411.657.657 0 111.258.378 26.53 26.53 0 01-.9 2.535.657.657 0 01-.61.409zm-124.332-.991a.67.67 0 01-.264-.055.658.658 0 01-.339-.865c.359-.816.761-1.626 1.2-2.409a.657.657 0 111.146.644c-.418.745-.8 1.514-1.142 2.29a.656.656 0 01-.602.398zm125.842-4.032a.639.639 0 01-.125-.012.656.656 0 01-.52-.769c.162-.839.283-1.692.36-2.534a.673.673 0 01.712-.6.657.657 0 01.6.713 26.859 26.859 0 01-.378 2.665.658.658 0 01-.65.54zm-123.348-.585a.646.646 0 01-.332-.09.657.657 0 01-.234-.9l1.33-2.265a.657.657 0 111.133.665l-1.33 2.264a.659.659 0 01-.567.33zm2.662-4.528a.658.658 0 01-.567-.989l1.33-2.265a.657.657 0 011.134.665l-1.331 2.264a.656.656 0 01-.566.328zm121.158-.108a.656.656 0 01-.657-.651c-.009-.851-.061-1.712-.154-2.555a.657.657 0 011.306-.143c.1.885.152 1.789.161 2.686a.657.657 0 01-.651.663zm-118.5-4.422a.65.65 0 01-.333-.091.657.657 0 01-.234-.9l1.331-2.263a.656.656 0 111.133.664l-1.33 2.264a.661.661 0 01-.565.326zm117.923-.79a.656.656 0 01-.641-.52c-.176-.825-.4-1.658-.656-2.474a.656.656 0 011.251-.4c.273.857.505 1.732.689 2.6a.657.657 0 01-.506.779.772.772 0 01-.135.019zm-115.262-3.739a.649.649 0 01-.333-.09.657.657 0 01-.234-.9l1.33-2.265a.657.657 0 111.133.665l-1.33 2.264a.656.656 0 01-.564.33zm113.67-1.257a.658.658 0 01-.6-.4 25.484 25.484 0 00-1.131-2.3.657.657 0 111.148-.638 26.844 26.844 0 011.188 2.415.656.656 0 01-.6.917zm-111.009-3.272a.649.649 0 01-.333-.09.657.657 0 01-.234-.9l1.331-2.265a.657.657 0 111.133.665l-1.33 2.264a.658.658 0 01-.565.33zm108.464-1.313a.655.655 0 01-.54-.284c-.478-.692-1-1.375-1.558-2.03a.656.656 0 111-.851 26.469 26.469 0 011.64 2.136.658.658 0 01-.541 1.03zm-105.8-3.215a.657.657 0 01-.566-.989l1.33-2.264a.656.656 0 111.133.664l-1.33 2.265a.657.657 0 01-.568.329zm102.405-.785a.653.653 0 01-.456-.184c-.607-.588-1.256-1.156-1.928-1.688a.657.657 0 01.817-1.028c.7.558 1.387 1.156 2.025 1.772a.656.656 0 01-.457 1.128zm-4.11-3.257a.65.65 0 01-.356-.106q-.649-.419-1.33-.806l-.9-.51a.656.656 0 01.649-1.141l.9.51q.712.4 1.393.844a.657.657 0 01-.356 1.209zm-95.634-.487a.649.649 0 01-.333-.09.659.659 0 01-.234-.9l1.33-2.264a.657.657 0 011.134.665l-1.33 2.264a.658.658 0 01-.572.329zm91.089-2.144a.642.642 0 01-.324-.087l-2.284-1.3a.656.656 0 01.648-1.141l2.284 1.3a.657.657 0 01-.324 1.228zm-88.428-2.386a.646.646 0 01-.332-.09.656.656 0 01-.234-.9l1.33-2.263a.657.657 0 011.133.664l-1.33 2.263a.659.659 0 01-.568.331zm83.86-.206a.65.65 0 01-.324-.087l-2.284-1.3a.656.656 0 11.648-1.141l2.284 1.3a.657.657 0 01-.324 1.228zm-4.568-2.594a.669.669 0 01-.325-.085l-2.284-1.295a.658.658 0 01.649-1.144l2.284 1.3a.657.657 0 01-.324 1.228zm-76.63-1.728a.657.657 0 01-.567-.989l1.33-2.264a.657.657 0 011.134.664l-1.331 2.265a.655.655 0 01-.568.329zm72.061-.864a.665.665 0 01-.324-.085l-2.284-1.295a.658.658 0 01.648-1.144l2.285 1.3a.657.657 0 01-.325 1.228zm-4.569-2.592a.668.668 0 01-.325-.085l-2.284-1.3a.657.657 0 11.649-1.143l2.284 1.295a.657.657 0 01-.324 1.229zm-64.833-1.071a.649.649 0 01-.333-.09.658.658 0 01-.234-.9l1.331-2.264a.656.656 0 111.133.664l-1.33 2.265a.659.659 0 01-.567.325zm60.262-1.517a.665.665 0 01-.324-.085l-2.284-1.3a.657.657 0 11.65-1.143l2.284 1.295a.657.657 0 01-.325 1.229zm-4.568-2.592a.665.665 0 01-.324-.085l-2.284-1.3a.657.657 0 11.648-1.143l2.284 1.295a.657.657 0 01-.324 1.229zm-53.017-.41a.656.656 0 01-.554-1.009c.482-.755 1.005-1.493 1.557-2.193a.656.656 0 111.031.812c-.525.667-1.022 1.369-1.481 2.087a.656.656 0 01-.553.306zm48.449-2.182a.651.651 0 01-.324-.087l-2.285-1.3a.656.656 0 01.649-1.141l2.284 1.3a.657.657 0 01-.324 1.228zM1808.8 83.56a.647.647 0 01-.454-.183.656.656 0 01-.02-.928c.62-.647 1.278-1.269 1.956-1.848a.656.656 0 11.853 1c-.645.552-1.272 1.145-1.862 1.759a.653.653 0 01-.473.2zm40.641-.649a.653.653 0 01-.325-.087l-2.284-1.3a.656.656 0 11.649-1.14l2.284 1.3a.657.657 0 01-.324 1.228zm-4.569-2.592a.653.653 0 01-.324-.087l-2.284-1.3a.656.656 0 01.648-1.141l2.284 1.3a.657.657 0 01-.324 1.228zm-32.089-.172a.657.657 0 01-.376-1.194c.735-.515 1.5-1 2.276-1.433a.656.656 0 11.644 1.143c-.738.416-1.466.875-2.167 1.365a.66.66 0 01-.374.12zm27.483-2.35a.652.652 0 01-.28-.063c-.764-.361-1.559-.689-2.367-.98a.656.656 0 01.442-1.235c.847.3 1.683.649 2.484 1.027a.657.657 0 01-.279 1.251zm-22.916-.229a.657.657 0 01-.267-1.257c.815-.361 1.659-.689 2.507-.973a.656.656 0 01.415 1.246c-.808.27-1.613.583-2.389.928a.651.651 0 01-.262.057zm17.98-1.542a.714.714 0 01-.161-.019c-.829-.211-1.674-.383-2.512-.51a.656.656 0 01-.549-.749.664.664 0 01.748-.549c.88.135 1.765.314 2.635.533a.657.657 0 01-.161 1.294zm-13.006-.122a.657.657 0 01-.147-1.3c.866-.2 1.754-.362 2.643-.481a.668.668 0 01.737.563.654.654 0 01-.563.737c-.847.114-1.7.269-2.521.461a.666.666 0 01-.145.016zm7.821-.672h-.038c-.853-.049-1.709-.055-2.561-.023h-.025a.657.657 0 01-.025-1.314c.9-.032 1.794-.027 2.688.025a.657.657 0 01-.039 1.313z" class="prefix__cls-5" data-name="Path 8853" transform="translate(-1762.78 -53.679)"/>
            <path id="prefix__Path_8854" d="M1913.609 130.262a2.1 2.1 0 01-2.107-1.8 2 2 0 01.412-1.489 2.152 2.152 0 013.809.984 1.991 1.991 0 01-.412 1.487 2.13 2.13 0 01-1.442.8 2.16 2.16 0 01-.26.018zm0-3.243a1.143 1.143 0 00-.157.009 1.265 1.265 0 00-.863.476 1.138 1.138 0 00-.237.847 1.29 1.29 0 002.276.563 1.136 1.136 0 00.238-.847 1.245 1.245 0 00-1.254-1.048z" class="prefix__cls-2" data-name="Path 8854" transform="translate(-1756.461 -51.283)"/>
            <path id="prefix__Path_8855" d="M1891.1 192.952a5.536 5.536 0 01-5.51-4.8 5.381 5.381 0 011.111-4.005 5.583 5.583 0 019.92 2.667 5.385 5.385 0 01-1.112 4.008 5.54 5.54 0 01-3.728 2.095 5.773 5.773 0 01-.681.035zm.008-9.493a4.133 4.133 0 00-.505.031 4.083 4.083 0 00-2.757 1.546 3.94 3.94 0 00-.814 2.93 4.13 4.13 0 007.331 1.955 3.939 3.939 0 00.816-2.931 4.084 4.084 0 00-4.069-3.531z" data-name="Path 8855" transform="translate(-1757.65 -48.724)" style="opacity:.25;isolation:isolate;fill:#f7657d"/>
            <path id="prefix__Path_8856" d="M1811.315 58.67a2.1 2.1 0 01-2.108-1.8 2 2 0 01.412-1.489 2.153 2.153 0 013.809.984 2 2 0 01-.412 1.489 2.132 2.132 0 01-1.442.8 2.154 2.154 0 01-.259.016zm.005-3.243a1.354 1.354 0 00-.159.009 1.266 1.266 0 00-.863.476 1.136 1.136 0 00-.239.848 1.249 1.249 0 001.413 1.038 1.269 1.269 0 00.864-.476 1.131 1.131 0 00.238-.848 1.243 1.243 0 00-1.254-1.047z" class="prefix__cls-2" data-name="Path 8856" transform="translate(-1761.148 -54.564)"/>
            <path id="prefix__Path_8857" d="M1864.861 78.246a2.1 2.1 0 01-2.109-1.8 1.98 1.98 0 01.412-1.487 2.149 2.149 0 013.808.982 1.986 1.986 0 01-.411 1.486 2.13 2.13 0 01-1.441.8c-.087.013-.173.019-.259.019zm0-3.243a1.371 1.371 0 00-.157.009 1.269 1.269 0 00-.863.478 1.136 1.136 0 00-.237.847 1.243 1.243 0 001.414 1.038 1.268 1.268 0 00.864-.477 1.138 1.138 0 00.237-.847 1.245 1.245 0 00-1.258-1.051z" class="prefix__cls-2" data-name="Path 8857" transform="translate(-1758.695 -53.667)"/>
            <path id="prefix__Path_8858" d="M1777.7 99.047a2.1 2.1 0 01-2.108-1.8 1.991 1.991 0 01.409-1.486 2.151 2.151 0 013.81.98 1.987 1.987 0 01-.409 1.486 2.137 2.137 0 01-1.443.8 2.387 2.387 0 01-.259.02zm0-3.243a1.175 1.175 0 00-.159.009 1.268 1.268 0 00-.863.477 1.128 1.128 0 00-.235.848 1.246 1.246 0 001.413 1.039 1.271 1.271 0 00.864-.477 1.141 1.141 0 00.237-.848 1.244 1.244 0 00-1.257-1.052z" class="prefix__cls-2" data-name="Path 8858" transform="translate(-1762.689 -52.714)"/>
            <path id="prefix__Path_8859" d="M1782.677 181.025a2.1 2.1 0 01-2.11-1.8 1.992 1.992 0 01.412-1.488 2.152 2.152 0 013.809.983 2 2 0 01-.413 1.489 2.166 2.166 0 01-1.7.815zm0-3.242a1.333 1.333 0 00-.158.009 1.269 1.269 0 00-.864.476 1.131 1.131 0 00-.238.848 1.243 1.243 0 001.414 1.039 1.262 1.262 0 00.862-.476 1.136 1.136 0 00.239-.848 1.242 1.242 0 00-1.253-1.048z" class="prefix__cls-2" data-name="Path 8859" transform="translate(-1762.461 -48.957)"/>
        </g>
        <g id="prefix__Group_7354" data-name="Group 7354" transform="translate(1791.511 85.079)">
            <g id="prefix__Group_7353" data-name="Group 7353">
                <g id="prefix__Group_7346" data-name="Group 7346">
                    <g id="prefix__Group_1081" data-name="Group 1081" transform="translate(.766)">
                        <g id="prefix__Group_10391" data-name="Group 10391">
                            <g id="prefix__Group_10390-2" data-name="Group 10390">
                                <path id="prefix__Rectangle_25-4" d="M1791.646 84.382h92.189a6.227 6.227 0 016.227 6.227v14.551a6.226 6.226 0 01-6.227 6.226h-92.189v-27z" class="prefix__cls-7" data-name="Rectangle 25-4" transform="translate(-1790.976 -83.713)"/>
                                <path id="prefix__Path_8860" d="M1883.864 112.086h-92.859V83.742h92.859a6.9 6.9 0 016.9 6.9v14.548a6.905 6.905 0 01-6.9 6.896zm-91.52-1.34h91.52a5.562 5.562 0 005.557-5.556V90.638a5.562 5.562 0 00-5.557-5.556h-91.52z" class="prefix__cls-5" data-name="Path 8860" transform="translate(-1791.005 -83.742)"/>
                            </g>
                        </g>
                        <g id="prefix__Group_10392" data-name="Group 10392">
                            <path id="prefix__Rectangle_831" d="M0 0H0.766V27.004H0z" data-name="Rectangle 831" transform="translate(.67 .67)" style="fill:#3fb6eb"/>
                            <path id="prefix__Rectangle_2555" d="M0 0H2.105V28.343H0z" class="prefix__cls-5" data-name="Rectangle 2555"/>
                        </g>
                    </g>
                    <g id="prefix__Group_1237" data-name="Group 1237" transform="translate(0 31.876)">
                        <g id="prefix__Group_10394" data-name="Group 10394">
                            <g id="prefix__Group_10393" data-name="Group 10393">
                                <path id="prefix__Rectangle_25-5" d="M1790.913 114.861h62.719a6.226 6.226 0 016.226 6.227v20.343a6.226 6.226 0 01-6.226 6.226h-62.719v-32.8z" class="prefix__cls-7" data-name="Rectangle 25-5" transform="translate(-1790.244 -114.192)"/>
                                <path id="prefix__Path_8861" d="M1853.661 148.357h-63.388v-34.136h63.388a6.905 6.905 0 016.9 6.9v20.339a6.905 6.905 0 01-6.9 6.897zm-62.049-1.34h62.049a5.562 5.562 0 005.556-5.556v-20.344a5.562 5.562 0 00-5.556-5.556h-62.049z" class="prefix__cls-5" data-name="Path 8861" transform="translate(-1790.273 -114.221)"/>
                            </g>
                        </g>
                        <g id="prefix__Group_10395" data-name="Group 10395">
                            <path id="prefix__Rectangle_831-2" d="M0 0H0.766V32.796H0z" data-name="Rectangle 831-2" transform="translate(.669 .669)" style="fill:#e87bd7"/>
                            <path id="prefix__Rectangle_2556" d="M0 0H2.105V34.135H0z" class="prefix__cls-5" data-name="Rectangle 2556"/>
                        </g>
                    </g>
                    <g id="prefix__Group_1244" data-name="Group 1244" transform="translate(0 69.144)">
                        <g id="prefix__Group_10397" data-name="Group 10397">
                            <g id="prefix__Group_10396" data-name="Group 10396">
                                <path id="prefix__Rectangle_25-6" d="M1790.913 150.5h112.295a6.226 6.226 0 016.226 6.227v20.771a6.226 6.226 0 01-6.226 6.227h-112.295V150.5z" class="prefix__cls-7" data-name="Rectangle 25-6" transform="translate(-1790.244 -149.828)"/>
                                <path id="prefix__Path_8862" d="M1903.236 184.421h-112.963v-34.564h112.963a6.9 6.9 0 016.9 6.9v20.771a6.9 6.9 0 01-6.9 6.893zm-111.623-1.34h111.623a5.563 5.563 0 005.556-5.557v-20.771a5.562 5.562 0 00-5.556-5.556h-111.623z" class="prefix__cls-5" data-name="Path 8862" transform="translate(-1790.273 -149.857)"/>
                            </g>
                        </g>
                        <g id="prefix__Group_10398" data-name="Group 10398">
                            <path id="prefix__Rectangle_831-3" d="M0 0H0.766V33.224H0z" data-name="Rectangle 831-3" transform="translate(.669 .67)" style="fill:#911bf7"/>
                            <path id="prefix__Rectangle_2557" d="M0 0H2.105V34.564H0z" class="prefix__cls-5" data-name="Rectangle 2557"/>
                        </g>
                    </g>
                </g>
                <g id="prefix__Group_7346-2" class="prefix__cls-11" data-name="Group 7346" transform="translate(.67 .669)">
                    <g id="prefix__Group_1081-2" data-name="Group 1081" transform="translate(.764)">
                        <g id="prefix__Group_10399" data-name="Group 10399" transform="translate(0 .001)">
                            <path id="prefix__Path_8863" d="M1890.056 90.611v14.548a6.224 6.224 0 01-6.216 6.23h-.884a6.355 6.355 0 00.4-2.211V94.63a6.224 6.224 0 00-6.216-6.23h-85.5v-4.018h92.2a6.223 6.223 0 016.216 6.229z" class="prefix__cls-12" data-name="Path 8863" transform="translate(-1791.644 -84.382)"/>
                        </g>
                        <path id="prefix__Rectangle_2558" d="M0 0H0.764V4.019H0z" class="prefix__cls-12" data-name="Rectangle 2558"/>
                    </g>
                    <g id="prefix__Group_1237-2" data-name="Group 1237" transform="translate(0 31.871)">
                        <g id="prefix__Group_10400" data-name="Group 10400">
                            <path id="prefix__Path_8864" d="M1859.852 121.085v20.35a6.221 6.221 0 01-6.215 6.216h-.9a5.971 5.971 0 00.415-2.2V125.1a6.223 6.223 0 00-6.215-6.229h-56.025v-4.019h62.723a6.223 6.223 0 016.217 6.233z" class="prefix__cls-12" data-name="Path 8864" transform="translate(-1790.914 -114.856)"/>
                        </g>
                        <path id="prefix__Rectangle_2559" d="M0 0H0.764V4.019H0z" class="prefix__cls-12" data-name="Rectangle 2559"/>
                    </g>
                    <g id="prefix__Group_1244-2" data-name="Group 1244" transform="translate(0 69.14)">
                        <g id="prefix__Group_10401" data-name="Group 10401">
                            <path id="prefix__Path_8865" d="M1909.433 156.722V177.5a6.223 6.223 0 01-6.23 6.215h-.87a6.278 6.278 0 00.4-2.2v-20.774a6.226 6.226 0 00-6.229-6.23h-105.59v-4.019H1903.2a6.226 6.226 0 016.233 6.23z" class="prefix__cls-12" data-name="Path 8865" transform="translate(-1790.914 -150.492)"/>
                        </g>
                        <path id="prefix__Rectangle_2560" d="M0 0H0.764V4.019H0z" class="prefix__cls-12" data-name="Rectangle 2560"/>
                    </g>
                </g>
                <g id="prefix__Group_7347" class="prefix__cls-11" data-name="Group 7347" transform="translate(6.064 39.901)">
                    <rect id="prefix__Rectangle_859" width="44.659" height="3.923" class="prefix__cls-13" data-name="Rectangle 859" rx="1.875"/>
                    <rect id="prefix__Rectangle_860" width="51.491" height="3.923" class="prefix__cls-13" data-name="Rectangle 860" rx="1.875" transform="translate(.017 6.866)"/>
                    <rect id="prefix__Rectangle_861" width="27.952" height="3.923" class="prefix__cls-13" data-name="Rectangle 861" rx="1.875" transform="translate(.017 13.73)"/>
                </g>
                <g id="prefix__Group_7347-2" class="prefix__cls-11" data-name="Group 7347" transform="translate(8.743 6.409)">
                    <rect id="prefix__Rectangle_859-2" width="44.659" height="3.923" class="prefix__cls-13" data-name="Rectangle 859" rx="1.875"/>
                    <rect id="prefix__Rectangle_860-2" width="51.491" height="3.923" class="prefix__cls-13" data-name="Rectangle 860" rx="1.875" transform="translate(.017 6.866)"/>
                    <rect id="prefix__Rectangle_861-2" width="27.952" height="3.923" class="prefix__cls-13" data-name="Rectangle 861" rx="1.875" transform="translate(.017 13.73)"/>
                </g>
                <g id="prefix__Group_7348" data-name="Group 7348" transform="translate(6.064 79.359)" style="opacity:.3">
                    <rect id="prefix__Rectangle_859-2-2" width="85.284" height="3.923" class="prefix__cls-13" data-name="Rectangle 859-2" rx="1.875"/>
                    <rect id="prefix__Rectangle_860-2-2" width="92.116" height="3.923" class="prefix__cls-13" data-name="Rectangle 860-2" rx="1.875" transform="translate(.017 6.866)"/>
                    <rect id="prefix__Rectangle_861-2-2" width="67.182" height="3.923" class="prefix__cls-13" data-name="Rectangle 861-2" rx="1.875" transform="translate(.017 13.73)"/>
                </g>
            </g>
        </g>
    </g>
</svg>
