<svg xmlns="http://www.w3.org/2000/svg" width="155.97" height="156.108" viewBox="0 0 155.97 156.108">
    <defs>
        <style>
            .prefix__cls-2{fill:#e94d6a;isolation:isolate;opacity:.429}.prefix__cls-11,.prefix__cls-7{fill:#fff}.prefix__cls-8{fill:#bf2640}.prefix__cls-10,.prefix__cls-9{fill:#f1647d}.prefix__cls-9{opacity:.2}.prefix__cls-11{stroke:#bf2640;stroke-miterlimit:10}
        </style>
    </defs>
    <g id="prefix__Group_11923" data-name="Group 11923" transform="translate(-65.747 -478.492)">
        <g id="prefix__Group_6942" data-name="Group 6942" transform="translate(65.747 478.492)">
            <path id="prefix__Rectangle_1795" fill="#e43554" d="M167.305 515.244l36.611 38.414a25.993 25.993 0 0 1-1.241 37.194l-39.093 35.974a27.115 27.115 0 0 1-37.853-1.22l-36.611-38.414A25.993 25.993 0 0 1 90.359 550l39.094-35.974a27.116 27.116 0 0 1 37.852 1.218z" data-name="Rectangle 1795" opacity="0.15" transform="translate(-72.368 -488.181)"/>
            <path id="prefix__Path_11129" d="M254.2 693.359a3.468 3.468 0 0 1-3.451-3.011 3.372 3.372 0 0 1 .7-2.512 3.494 3.494 0 0 1 6.207 1.673 3.373 3.373 0 0 1-.7 2.512 3.47 3.47 0 0 1-2.332 1.311 3.622 3.622 0 0 1-.424.027zm0-5.436a2.092 2.092 0 0 0-1.637.79 1.956 1.956 0 0 0-.4 1.459 2.07 2.07 0 0 0 3.673.974 1.961 1.961 0 0 0 .406-1.46 2.042 2.042 0 0 0-2.042-1.763z" class="prefix__cls-2" data-name="Path 11129" transform="translate(-122.987 -542.022)"/>
            <path id="prefix__Path_11130" fill="#e94d6a" d="M95.2 696.006l.137-5.861-4.86-3.445 5.742-1.7 1.822-5.59 3.395 4.815 5.989-.01-3.632 4.681 1.862 5.583-5.639-1.936zm-1.507-8.774l3.084 2.19-.088 3.761 3.095-2.222 3.61 1.24-1.192-3.574 2.313-2.981-3.817.006-2.182-3.1-1.176 3.6z" data-name="Path 11130" transform="translate(-74.944 -539.897)" style="isolation:isolate" opacity="0.418"/>
            <path id="prefix__Path_11131" fill="#e94d6a" d="M246.812 506.33l-1.026-4.127-4.071-1.531 3.706-2.247.214-4.247 3.3 2.75 4.189-1.124-1.644 3.955 2.374 3.581-4.329-.319zm-1.854-5.959l2.029.763.522 2.1 1.381-1.685 2.172.16-1.19-1.8.826-1.985-2.111.566-1.673-1.4-.109 2.154z" data-name="Path 11131" transform="translate(-120.287 -484.361)" style="isolation:isolate" opacity="0.369"/>
            <path id="prefix__Path_11132" d="M90.313 517.143a5.424 5.424 0 0 1-5.4-4.705A5.272 5.272 0 0 1 86 508.514a5.468 5.468 0 0 1 9.712 2.614 5.267 5.267 0 0 1-1.088 3.923 5.417 5.417 0 0 1-3.651 2.052 5.6 5.6 0 0 1-.66.04zm0-9.3a4.083 4.083 0 0 0-.494.029 4.008 4.008 0 0 0-2.7 1.514 3.857 3.857 0 0 0-.8 2.871 4.045 4.045 0 0 0 7.18 1.913 3.86 3.86 0 0 0 .8-2.87 4 4 0 0 0-3.981-3.453z" class="prefix__cls-2" data-name="Path 11132" transform="translate(-73.264 -488.033)"/>
            <path id="prefix__Path_11133" d="M71.77 530.823a3.468 3.468 0 0 1-3.451-3.012 3.374 3.374 0 0 1 .695-2.51 3.493 3.493 0 0 1 6.208 1.672 3.371 3.371 0 0 1-.7 2.512 3.512 3.512 0 0 1-2.755 1.337zm0-5.436a2.091 2.091 0 0 0-1.637.791 1.956 1.956 0 0 0-.4 1.458 2.07 2.07 0 0 0 3.672.974 1.961 1.961 0 0 0 .406-1.461 2.042 2.042 0 0 0-2.037-1.763z" class="prefix__cls-2" data-name="Path 11133" transform="translate(-68.293 -493.291)"/>
            <path id="prefix__Path_11134" d="M252.791 530.939a4.558 4.558 0 0 1-.567-.034 4.613 4.613 0 0 1-3.108-1.746 4.488 4.488 0 0 1-.925-3.34 4.655 4.655 0 0 1 8.27-2.224 4.486 4.486 0 0 1 .925 3.339 4.614 4.614 0 0 1-4.595 4.005zm-.006-7.914a3.4 3.4 0 0 0-3.392 2.944 3.288 3.288 0 0 0 .679 2.443 3.443 3.443 0 0 0 6.112-1.629 3.282 3.282 0 0 0-.678-2.442 3.474 3.474 0 0 0-2.72-1.316z" class="prefix__cls-2" data-name="Path 11134" transform="translate(-122.218 -492.647)"/>
            <path id="prefix__Path_11135" d="M273.824 540.19a3.515 3.515 0 0 1-2.755-1.337 3.372 3.372 0 0 1-.7-2.512 3.492 3.492 0 0 1 6.206-1.674 3.372 3.372 0 0 1 .7 2.512 3.468 3.468 0 0 1-3.451 3.011zm0-5.436a2.04 2.04 0 0 0-2.037 1.762 1.959 1.959 0 0 0 .406 1.461 2.07 2.07 0 0 0 3.672-.974 1.957 1.957 0 0 0-.406-1.459 2.049 2.049 0 0 0-1.382-.774 2.082 2.082 0 0 0-.256-.016z" class="prefix__cls-2" data-name="Path 11135" transform="translate(-128.87 -496.099)"/>
            <path id="prefix__Path_11136" fill="#ae1130" d="M157.183 633.336a.643.643 0 0 1-.012-1.286c.829-.015 1.672-.07 2.5-.165a.643.643 0 1 1 .146 1.277c-.874.1-1.757.158-2.628.174zm-2.566-.074h-.05c-.872-.067-1.751-.176-2.612-.327a.643.643 0 0 1 .221-1.267c.821.143 1.659.249 2.489.312a.643.643 0 0 1-.048 1.284zm7.668-.506a.643.643 0 0 1-.132-1.272c.82-.174 1.636-.387 2.428-.634a.643.643 0 0 1 .384 1.227c-.83.259-1.687.482-2.546.664a.625.625 0 0 1-.134.015zm-12.729-.375a.644.644 0 0 1-.17-.023c-.841-.232-1.683-.507-2.5-.819a.643.643 0 0 1 .459-1.2c.781.3 1.584.56 2.384.781a.643.643 0 0 1-.17 1.263zm17.631-1.157a.643.643 0 0 1-.249-1.237c.767-.322 1.53-.685 2.264-1.081a.643.643 0 1 1 .61 1.133c-.771.414-1.571.8-2.376 1.135a.645.645 0 0 1-.248.05zm-22.431-.673a.645.645 0 0 1-.286-.067q-.694-.344-1.379-.732l-.91-.516a.642.642 0 1 1 .633-1.118l.911.516q.653.372 1.316.7a.643.643 0 0 1-.286 1.219zm26.952-1.762a.643.643 0 0 1-.357-1.178c.7-.467 1.373-.97 2.014-1.5a.643.643 0 1 1 .817.993c-.672.553-1.385 1.082-2.116 1.572a.638.638 0 0 1-.357.113zm-31.445-.739a.64.64 0 0 1-.318-.084l-2.237-1.269a.643.643 0 1 1 .636-1.118l2.236 1.269a.643.643 0 0 1-.317 1.2zm35.413-2.522a.636.636 0 0 1-.455-.189.643.643 0 0 1 0-.909 24.967 24.967 0 0 0 1.685-1.859.643.643 0 1 1 .994.814c-.556.679-1.152 1.337-1.769 1.954a.639.639 0 0 1-.454.189zm-39.888-.016a.645.645 0 0 1-.317-.083l-2.237-1.269a.643.643 0 1 1 .636-1.118l2.236 1.269a.643.643 0 0 1-.318 1.2zm-4.473-2.537a.646.646 0 0 1-.317-.084l-2.237-1.269a.643.643 0 1 1 .635-1.118l2.237 1.269a.643.643 0 0 1-.318 1.2zm47.618-1.421a.643.643 0 0 1-.534-1q.409-.611.784-1.251l.536-.912a.643.643 0 0 1 1.11.651l-.536.912q-.4.673-.825 1.314a.645.645 0 0 1-.535.286zm-52.091-1.117a.644.644 0 0 1-.318-.083l-2.236-1.27a.643.643 0 0 1 .635-1.118l2.237 1.269a.643.643 0 0 1-.318 1.2zm-4.474-2.538a.649.649 0 0 1-.318-.084l-2.236-1.269a.643.643 0 1 1 .635-1.118l2.237 1.269a.643.643 0 0 1-.318 1.2zm59.207-.756a.645.645 0 0 1-.555-.97l1.3-2.217a.643.643 0 0 1 1.109.652l-1.3 2.217a.643.643 0 0 1-.553.317zM117.9 615.36a.648.648 0 0 1-.318-.083l-2.236-1.269a.643.643 0 1 1 .635-1.118l2.237 1.269a.643.643 0 0 1-.318 1.2zm-4.474-2.537a.65.65 0 0 1-.318-.084l-2.237-1.269a.643.643 0 0 1 .636-1.119l2.236 1.269a.643.643 0 0 1-.317 1.2zm70.76-.116a.644.644 0 0 1-.555-.968l1.3-2.217a.643.643 0 0 1 1.11.651l-1.3 2.217a.643.643 0 0 1-.559.317zm-75.234-2.423a.646.646 0 0 1-.318-.083l-2.237-1.269a.643.643 0 1 1 .636-1.118l2.236 1.269a.643.643 0 0 1-.317 1.2zm77.839-2.011a.643.643 0 0 1-.555-.968l1.3-2.218a.643.643 0 0 1 1.109.651l-1.3 2.217a.642.642 0 0 1-.558.318zm-82.314-.527a.646.646 0 0 1-.317-.084l-2.237-1.269a.643.643 0 1 1 .636-1.119l2.236 1.269a.643.643 0 0 1-.318 1.2zM100 605.208a.639.639 0 0 1-.317-.084l-2.237-1.269a.643.643 0 1 1 .636-1.118l2.236 1.269a.643.643 0 0 1-.318 1.2zm89.395-1.37a.644.644 0 0 1-.555-.968l1.3-2.217a.643.643 0 0 1 1.11.651l-1.3 2.218a.642.642 0 0 1-.557.315zM95.568 602.6a.641.641 0 0 1-.36-.11c-.73-.494-1.439-1.024-2.108-1.577a.643.643 0 1 1 .82-.99c.635.526 1.311 1.031 2.007 1.5a.643.643 0 0 1-.36 1.176zM192 599.4a.636.636 0 0 1-.325-.089.643.643 0 0 1-.23-.88l1.3-2.217a.643.643 0 0 1 1.109.652l-1.3 2.217a.643.643 0 0 1-.554.317zm-100.391-.074a.64.64 0 0 1-.456-.19c-.618-.621-1.211-1.28-1.763-1.957a.643.643 0 0 1 1-.812c.525.644 1.09 1.272 1.678 1.863a.643.643 0 0 1-.457 1.1zm-3.245-3.982a.641.641 0 0 1-.536-.288 26.241 26.241 0 0 1-1.345-2.267.643.643 0 0 1 1.138-.6c.385.732.816 1.456 1.279 2.156a.643.643 0 0 1-.536 1zm106.242-.379a.644.644 0 0 1-.555-.969l1.3-2.217a.644.644 0 0 1 1.11.652l-1.3 2.217a.644.644 0 0 1-.561.32zM85.965 590.8a.644.644 0 0 1-.6-.4c-.332-.816-.625-1.652-.871-2.487a.642.642 0 1 1 1.232-.363c.235.793.514 1.589.83 2.365a.643.643 0 0 1-.354.838.627.627 0 0 1-.237.047zm111.245-.271a.645.645 0 0 1-.555-.97l1.3-2.217a.643.643 0 0 1 1.109.653l-1.3 2.217a.642.642 0 0 1-.554.322zm2.606-4.435a.643.643 0 0 1-.555-.968l1.3-2.217a.643.643 0 0 1 1.11.65l-1.3 2.218a.643.643 0 0 1-.555.323zM84.5 585.881a.642.642 0 0 1-.63-.522c-.165-.866-.287-1.743-.364-2.61a.644.644 0 0 1 .584-.7.653.653 0 0 1 .7.585c.073.823.189 1.657.346 2.482a.644.644 0 0 1-.511.752.664.664 0 0 1-.125.013zm117.917-4.217a.644.644 0 0 1-.555-.968l1.3-2.217a.643.643 0 0 1 1.109.651l-1.3 2.217a.643.643 0 0 1-.549.318zm-118.371-.9h-.006a.643.643 0 0 1-.636-.65 26.1 26.1 0 0 1 .161-2.631.643.643 0 0 1 1.279.143 24.767 24.767 0 0 0-.153 2.5.644.644 0 0 1-.64.642zm120.977-3.537a.645.645 0 0 1-.555-.969l1.3-2.217q.269-.457.517-.92a.642.642 0 1 1 1.132.607q-.259.484-.539.964l-1.3 2.217a.643.643 0 0 1-.55.321zm-120.401-1.562a.653.653 0 0 1-.136-.015.643.643 0 0 1-.493-.764 25.94 25.94 0 0 1 .685-2.545.642.642 0 1 1 1.222.4 24.574 24.574 0 0 0-.649 2.418.645.645 0 0 1-.629.506zm123.334-3.918a.645.645 0 0 1-.594-.889 24.631 24.631 0 0 0 .841-2.361.643.643 0 0 1 1.232.37c-.253.839-.55 1.674-.884 2.482a.643.643 0 0 1-.595.398zM86.2 570.779a.642.642 0 0 1-.59-.9c.352-.8.747-1.594 1.175-2.357a.643.643 0 1 1 1.122.629c-.409.727-.784 1.482-1.118 2.245a.645.645 0 0 1-.589.383zm123.233-3.95a.669.669 0 0 1-.123-.012.644.644 0 0 1-.51-.753 24.986 24.986 0 0 0 .351-2.481.676.676 0 0 1 .7-.583.644.644 0 0 1 .583.7c-.078.865-.2 1.743-.369 2.609a.644.644 0 0 1-.629.519zm-120.79-.57a.643.643 0 0 1-.555-.968l1.3-2.217a.643.643 0 1 1 1.109.651l-1.3 2.217a.643.643 0 0 1-.551.316zm2.606-4.434a.644.644 0 0 1-.555-.968l1.3-2.218a.643.643 0 0 1 1.11.651l-1.3 2.217a.643.643 0 0 1-.552.317zm118.645-.109a.643.643 0 0 1-.643-.636c-.009-.835-.059-1.676-.15-2.5a.643.643 0 1 1 1.279-.141c.095.867.148 1.753.158 2.63a.643.643 0 0 1-.637.649zM93.858 557.39a.643.643 0 0 1-.555-.968l1.3-2.218a.643.643 0 0 1 1.109.651l-1.3 2.218a.642.642 0 0 1-.554.317zm115.474-.777a.643.643 0 0 1-.627-.509c-.172-.81-.388-1.624-.642-2.424a.643.643 0 1 1 1.225-.389c.268.839.5 1.7.676 2.545a.644.644 0 0 1-.5.763.632.632 0 0 1-.132.014zm-112.868-3.659a.637.637 0 0 1-.326-.089.644.644 0 0 1-.23-.88l1.3-2.217a.644.644 0 0 1 1.11.652l-1.3 2.217a.643.643 0 0 1-.554.317zm111.311-1.234a.644.644 0 0 1-.591-.389 24.66 24.66 0 0 0-1.107-2.248.644.644 0 0 1 1.125-.625c.428.77.819 1.566 1.163 2.365a.643.643 0 0 1-.59.9zm-108.706-3.2a.644.644 0 0 1-.555-.968l1.3-2.218a.643.643 0 0 1 1.109.65l-1.3 2.218a.642.642 0 0 1-.554.318zm106.212-1.29a.642.642 0 0 1-.529-.278 24.791 24.791 0 0 0-1.526-1.988.642.642 0 1 1 .979-.832 26.231 26.231 0 0 1 1.606 2.09.643.643 0 0 1-.529 1.008zm-103.606-3.144a.644.644 0 0 1-.555-.968l1.3-2.218a.643.643 0 0 1 1.11.651l-1.3 2.218a.643.643 0 0 1-.555.316zm100.279-.77a.642.642 0 0 1-.447-.181c-.6-.577-1.232-1.133-1.888-1.653a.643.643 0 1 1 .8-1.007c.688.545 1.355 1.129 1.983 1.735a.643.643 0 0 1-.447 1.106zm-4.026-3.191a.642.642 0 0 1-.349-.1q-.634-.41-1.3-.788l-.882-.5a.642.642 0 1 1 .633-1.118l.883.5c.466.264.919.539 1.363.825a.643.643 0 0 1-.349 1.184zm-93.647-.474a.643.643 0 0 1-.555-.968l1.3-2.218a.643.643 0 0 1 1.109.651l-1.3 2.218a.641.641 0 0 1-.554.317zm89.2-2.1a.64.64 0 0 1-.318-.084l-2.237-1.269a.643.643 0 1 1 .636-1.118l2.236 1.269a.643.643 0 0 1-.317 1.2zm-86.591-2.333a.644.644 0 0 1-.555-.969l1.3-2.217a.644.644 0 0 1 1.11.652l-1.3 2.217a.644.644 0 0 1-.558.314zm82.11-.208a.646.646 0 0 1-.318-.084l-2.237-1.269a.643.643 0 1 1 .636-1.118l2.236 1.269a.643.643 0 0 1-.317 1.2zm-4.474-2.538a.639.639 0 0 1-.317-.084l-2.237-1.269a.643.643 0 1 1 .636-1.118l2.236 1.269a.643.643 0 0 1-.318 1.2zm-75.038-1.691a.643.643 0 0 1-.555-.968l1.3-2.217a.643.643 0 1 1 1.109.65l-1.3 2.218a.642.642 0 0 1-.55.317zm70.564-.847a.65.65 0 0 1-.318-.083l-2.236-1.269a.643.643 0 1 1 .635-1.118l2.237 1.269a.643.643 0 0 1-.318 1.2zm-4.474-2.538a.641.641 0 0 1-.318-.084l-2.236-1.269a.643.643 0 1 1 .635-1.118l2.237 1.269a.643.643 0 0 1-.318 1.2zm-63.486-1.05a.644.644 0 0 1-.555-.969l1.3-2.217a.643.643 0 0 1 1.11.651l-1.3 2.217a.642.642 0 0 1-.547.319zm59.013-1.489a.648.648 0 0 1-.318-.083l-2.236-1.269a.643.643 0 1 1 .635-1.118l2.237 1.269a.643.643 0 0 1-.318 1.2zm-4.475-2.537a.649.649 0 0 1-.318-.084l-2.236-1.269a.643.643 0 1 1 .635-1.119l2.237 1.269a.643.643 0 0 1-.318 1.2zm-51.915-.4a.643.643 0 0 1-.542-.989c.468-.734.98-1.456 1.524-2.149a.643.643 0 1 1 1.012.795c-.517.659-1.005 1.347-1.451 2.046a.644.644 0 0 1-.539.298zm47.442-2.138a.641.641 0 0 1-.318-.084l-2.236-1.269a.643.643 0 1 1 .635-1.118l2.237 1.269a.643.643 0 0 1-.318 1.2zm-44.271-1.9a.643.643 0 0 1-.464-1.088c.607-.633 1.252-1.242 1.916-1.811a.643.643 0 0 1 .835.977c-.632.541-1.245 1.12-1.823 1.723a.639.639 0 0 1-.46.199zm39.8-.637a.647.647 0 0 1-.318-.084l-2.237-1.269a.643.643 0 0 1 .636-1.119l2.236 1.27a.643.643 0 0 1-.317 1.2zm-4.474-2.539a.641.641 0 0 1-.318-.084l-2.237-1.269a.643.643 0 1 1 .636-1.118l2.236 1.269a.643.643 0 0 1-.317 1.2zm-31.422-.167a.643.643 0 0 1-.369-1.169c.716-.5 1.466-.974 2.228-1.4a.643.643 0 0 1 .632 1.12c-.726.41-1.441.86-2.122 1.337a.643.643 0 0 1-.367.113zm26.91-2.3a.646.646 0 0 1-.274-.062c-.755-.356-1.535-.678-2.318-.959a.643.643 0 0 1 .433-1.211c.823.295 1.64.633 2.433 1.005a.643.643 0 0 1-.274 1.225zm-22.44-.224a.643.643 0 0 1-.261-1.23c.8-.356 1.628-.677 2.455-.953a.643.643 0 0 1 .407 1.219c-.788.263-1.575.569-2.339.909a.636.636 0 0 1-.259.054zm17.606-1.509a.647.647 0 0 1-.158-.02c-.812-.205-1.64-.373-2.46-.5a.643.643 0 0 1 .195-1.271c.861.132 1.728.308 2.58.523a.643.643 0 0 1-.158 1.267zm-12.736-.12a.643.643 0 0 1-.145-1.269c.852-.2 1.723-.357 2.588-.473a.643.643 0 0 1 .172 1.274c-.826.111-1.657.262-2.47.451a.645.645 0 0 1-.142.016zm7.661-.659h-.036c-.84-.048-1.672-.056-2.51-.022a.643.643 0 0 1-.048-1.285q1.314-.05 2.63.023a.643.643 0 0 1-.036 1.286z" data-name="Path 11136" transform="translate(-72.825 -488.624)"/>
            <path id="prefix__Path_11137" d="M287.18 588.887a2.063 2.063 0 0 1-2.066-1.762 1.951 1.951 0 0 1 .4-1.457 2.106 2.106 0 0 1 3.729.961 1.946 1.946 0 0 1-.4 1.456 2.087 2.087 0 0 1-1.414.787 2.186 2.186 0 0 1-.249.015zm0-3.176a1.3 1.3 0 0 0-.155.009 1.242 1.242 0 0 0-.844.467 1.112 1.112 0 0 0-.233.83 1.224 1.224 0 0 0 1.385 1.017 1.246 1.246 0 0 0 .847-.468 1.108 1.108 0 0 0 .231-.828 1.218 1.218 0 0 0-1.229-1.027z" class="prefix__cls-2" data-name="Path 11137" transform="translate(-133.294 -511.552)"/>
            <path id="prefix__Path_11138" fill="#e94d6a" d="M252.6 677.271a5.423 5.423 0 0 1-5.4-4.7 5.272 5.272 0 0 1 1.089-3.924 5.467 5.467 0 0 1 9.712 2.614 5.264 5.264 0 0 1-1.087 3.923 5.417 5.417 0 0 1-3.651 2.052 5.63 5.63 0 0 1-.663.035zm.006-9.3a4.25 4.25 0 0 0-.494.029 4.01 4.01 0 0 0-2.7 1.515 3.855 3.855 0 0 0-.8 2.87 4.046 4.046 0 0 0 7.18 1.914 3.861 3.861 0 0 0 .8-2.871 4 4 0 0 0-3.982-3.453z" data-name="Path 11138" transform="translate(-121.921 -536.041)" style="isolation:isolate" opacity="0.25"/>
            <path id="prefix__Path_11139" d="M137.564 484.175a2.06 2.06 0 0 1-2.066-1.762 1.945 1.945 0 0 1 .4-1.455 2.106 2.106 0 0 1 3.731.96 1.944 1.944 0 0 1-.4 1.456 2.077 2.077 0 0 1-1.412.786 2.172 2.172 0 0 1-.253.015zm0-3.175a1.294 1.294 0 0 0-.155.009 1.249 1.249 0 0 0-.847.468 1.111 1.111 0 0 0-.23.828 1.219 1.219 0 0 0 1.385 1.019 1.24 1.24 0 0 0 .844-.468 1.1 1.1 0 0 0 .232-.829 1.217 1.217 0 0 0-1.227-1.027z" class="prefix__cls-2" data-name="Path 11139" transform="translate(-88.437 -480.158)"/>
            <path id="prefix__Path_11140" d="M215.878 512.809a2.061 2.061 0 0 1-2.065-1.762 1.955 1.955 0 0 1 .4-1.458 2.106 2.106 0 0 1 3.729.963 1.952 1.952 0 0 1-.4 1.456 2.082 2.082 0 0 1-1.412.786 2.2 2.2 0 0 1-.252.015zm0-3.175a1.3 1.3 0 0 0-.154.008 1.25 1.25 0 0 0-.845.466 1.12 1.12 0 0 0-.232.831 1.219 1.219 0 0 0 1.385 1.017 1.249 1.249 0 0 0 .845-.467 1.115 1.115 0 0 0 .232-.83 1.219 1.219 0 0 0-1.23-1.026z" class="prefix__cls-2" data-name="Path 11140" transform="translate(-111.917 -488.742)"/>
            <path id="prefix__Path_11141" d="M88.388 543.232a2.061 2.061 0 0 1-2.065-1.762 1.947 1.947 0 0 1 .4-1.457 2.106 2.106 0 0 1 3.729.962 1.953 1.953 0 0 1-.4 1.457 2.083 2.083 0 0 1-1.412.786 2.353 2.353 0 0 1-.252.014zm0-3.177a1.3 1.3 0 0 0-.155.01 1.249 1.249 0 0 0-.845.466 1.115 1.115 0 0 0-.232.83 1.224 1.224 0 0 0 1.384 1.017 1.248 1.248 0 0 0 .846-.466 1.118 1.118 0 0 0 .232-.83 1.217 1.217 0 0 0-1.227-1.027z" class="prefix__cls-2" data-name="Path 11141" transform="translate(-73.694 -497.864)"/>
            <path id="prefix__Path_11142" d="M95.675 663.135a2.061 2.061 0 0 1-2.067-1.762 1.945 1.945 0 0 1 .4-1.457 2.107 2.107 0 0 1 3.729.962 1.952 1.952 0 0 1-.4 1.457 2.08 2.08 0 0 1-1.412.786 2.182 2.182 0 0 1-.25.014zm0-3.175a1.27 1.27 0 0 0-.155.009 1.247 1.247 0 0 0-.846.466 1.117 1.117 0 0 0-.232.83 1.219 1.219 0 0 0 1.385 1.018 1.242 1.242 0 0 0 .844-.467 1.112 1.112 0 0 0 .233-.83 1.219 1.219 0 0 0-1.228-1.027z" class="prefix__cls-2" data-name="Path 11142" transform="translate(-75.878 -533.812)"/>
        </g>
        <g id="prefix__Group_12305" data-name="Group 12305" transform="translate(-505.59 -556.82)">
            <g id="prefix__Group_12281" data-name="Group 12281" transform="translate(594.16 1042.375)">
                <g id="prefix__Group_12280" data-name="Group 12280">
                    <g id="prefix__Group_12275" data-name="Group 12275" transform="translate(14.319 37.916)">
                        <path id="prefix__Path_11656" d="M598.519 1069.8l13.129-2.848 13.252 5.573 4.583 15.977a23.306 23.306 0 0 1-12.51-3.962c-6.44-4.211-5.2-6.442-10.528-6.689a32.8 32.8 0 0 0-8.948 1.015.787.787 0 0 1-.9-1.11c1.09-2.251 2.793-6.297 1.922-7.956z" class="prefix__cls-7" data-name="Path 11656" transform="translate(-595.73 -1066.131)"/>
                        <path id="prefix__Path_11657" d="M629.546 1089.6a24.317 24.317 0 0 1-12.714-4.093 27.788 27.788 0 0 1-5.107-4.232c-1.48-1.508-2.156-2.2-5.028-2.329a32.547 32.547 0 0 0-8.722.991 1.576 1.576 0 0 1-1.8-2.218c2.025-4.2 2.326-6.5 1.932-7.245l-.484-.917 14.385-3.122 13.832 5.818 4.962 17.3-1 .041c-.024 0-.112.006-.256.006zm-23.9-12.254c.374 0 .749.008 1.124.027a7.371 7.371 0 0 1 6.078 2.8 26.034 26.034 0 0 0 4.845 4.014 23.474 23.474 0 0 0 11.023 3.8l-4.181-14.579-12.673-5.33-12.07 2.618c.218 1.644-.517 4.227-2.194 7.706a34.584 34.584 0 0 1 8.05-1.059z" class="prefix__cls-8" data-name="Path 11657" transform="translate(-596.019 -1066.432)"/>
                    </g>
                    <path id="prefix__Path_11658" d="M628.756 1088.606a16.841 16.841 0 0 1-3.187-.288l-4.013-14.012-13.247-5.583-10.286 2.233a2.212 2.212 0 0 0-.238-1.054l13.134-2.847 13.246 5.568z" class="prefix__cls-9" data-name="Path 11658" transform="translate(-580.682 -1028.157)"/>
                    <g id="prefix__Group_12276" data-name="Group 12276" transform="translate(35.124 19.971)">
                        <path id="prefix__Path_11659" d="M623.962 1059.3s17.588-10.155 27.249 2.85a92.91 92.91 0 0 1 13.624 27.744s-3.469-5.7-5.573-1.858c0 0-9.786-18.207-12.881-14.243s-.248.495-.248.495 2.353 5.2.248 5.573-1.116 6.813-3.592 8.175-5.575 2.85-5.575 2.85 5.575-9.414-6.192-16.6-20.188.744-20.188.744 6.07-12.634 12.634-15.606" class="prefix__cls-7" data-name="Path 11659" transform="translate(-608.289 -1054.772)"/>
                        <path id="prefix__Path_11660" d="M667.949 1095.249l-2.857-4.675c-.563-.922-2.06-2.81-3.124-2.81h-.022c-.375.008-.734.317-1.064.919l-.7 1.273-.687-1.28c-2.928-5.449-8.514-14.174-11.031-14.39a.567.567 0 0 0-.536.259l-.006.011c.465 1.1 1.545 3.986.774 5.444a1.7 1.7 0 0 1-1.25.906c-.487.085-.793 1.811-1 2.952-.355 2-.755 4.259-2.353 5.136-2.468 1.357-5.581 2.854-5.612 2.87l-2.323 1.114 1.3-2.225c.21-.358 5.01-8.85-5.926-15.525-11.121-6.79-19.157.567-19.236.645l-3.084 2.9 1.833-3.819c.254-.526 6.273-12.926 13.02-15.982l.649 1.434c-4.38 1.984-8.628 8.646-10.782 12.47 3.537-1.91 10.248-3.988 18.423 1 8.963 5.472 8.319 12.311 7.293 15.649 1.078-.541 2.462-1.247 3.682-1.92.938-.514 1.27-2.381 1.563-4.03.361-2.031.7-3.951 2.273-4.229l.131-.088c.26-.492-.016-1.857-.484-3.19-.739.843-.965.887-1.447.5-.632-.509-.632-.509 1.316-3a2.12 2.12 0 0 1 1.91-.859c3.674.313 9.564 10.3 11.7 14.15a2.411 2.411 0 0 1 1.608-.679 3.6 3.6 0 0 1 1.994.72 92.318 92.318 0 0 0-12.4-24.02c-9.137-12.3-26.051-2.73-26.222-2.637l-.788-1.363c.181-.107 18.311-10.354 28.275 3.061a94.515 94.515 0 0 1 13.751 28.009z" class="prefix__cls-8" data-name="Path 11660" transform="translate(-609.219 -1055.047)"/>
                    </g>
                    <path id="prefix__Path_11661" d="M611.394 1067.787a15.508 15.508 0 0 1 3.526-1.368 14.649 14.649 0 0 0-4.09 2.484s.2-.414.564-1.116z" class="prefix__cls-9" data-name="Path 11661" transform="translate(-573.167 -1028.524)"/>
                    <path id="prefix__Path_11662" d="M636.493 1067.644s2.347 5.206.24 5.583-1.117 6.81-3.589 8.166-5.568 2.848-5.568 2.848a3.6 3.6 0 0 0 .225-.465c.979-.489 2.107-1.078 3.149-1.644 2.471-1.367 1.48-7.8 3.587-8.177s-.238-5.57-.238-5.57-2.861 3.461.238-.5a1.474 1.474 0 0 1 1.92-.377c-2.648 3.399.036.136.036.136z" class="prefix__cls-9" data-name="Path 11662" transform="translate(-563.52 -1028.006)"/>
                    <path id="prefix__Path_11663" d="M641.359 1075.882a1.744 1.744 0 0 1 .6.125 2.591 2.591 0 0 0-.288.452s-.112-.213-.312-.577z" class="prefix__cls-9" data-name="Path 11663" transform="translate(-555.579 -1023.072)"/>
                    <path id="prefix__Path_11664" d="M658.516 1089.987s-1.707-2.785-3.437-3.149a92.336 92.336 0 0 0-12.393-23.857c-5.933-7.989-14.864-7.238-20.872-5.469 5.808-2.158 16.357-4.3 23.068 4.742a92.675 92.675 0 0 1 13.634 27.733z" class="prefix__cls-9" data-name="Path 11664" transform="translate(-566.84 -1034.744)"/>
                    <path id="prefix__Path_11665" d="M635.952 1084.756c-1.366.7-2.421 1.2-2.421 1.2s5.57-9.421-6.2-16.595c-5.557-3.4-10.374-3.412-13.911-2.484 3.587-1.505 9.282-2.421 16.1 1.743 10.221 6.24 7.373 14.155 6.432 16.136z" class="prefix__cls-9" data-name="Path 11665" transform="translate(-571.672 -1028.987)"/>
                    <path id="prefix__Path_11666" d="M644.84 1079.329s-1.493-2.434-3.1-3.048a1.767 1.767 0 0 1 1.857-.84c.853 2.421 1.243 3.888 1.243 3.888z" class="prefix__cls-9" data-name="Path 11666" transform="translate(-555.359 -1023.347)"/>
                    <g id="prefix__Group_12277" data-name="Group 12277" transform="translate(27.96 18.31)">
                        <path id="prefix__Path_11667" d="M622.639 1095.064s-1.609-11.394-3.839-13.624-13.5-15.854-13.624-17.835 8.793-1.362 7.431-7.06 6.689 2.106 6.936 3.715 9.041 13.129 11.89 14.368 10.651 5.078 9.909 12.51-7.68 8.423-11.892 9.537a7.14 7.14 0 0 1-6.811-1.611z" class="prefix__cls-7" data-name="Path 11667" transform="translate(-604.386 -1053.704)"/>
                        <path id="prefix__Path_11668" d="M627.723 1098.023a7.78 7.78 0 0 1-5.365-2.123l-.177-.184-.035-.25c-.632-4.478-2.118-11.681-3.616-13.178-1.439-1.437-13.7-15.824-13.854-18.344-.084-1.332 1.381-1.808 3.075-2.361 2.971-.966 5.023-1.861 4.377-4.564-.2-.837-.383-2.022.34-2.672a1.664 1.664 0 0 1 1.8-.192c2.074.742 6.107 4.73 6.344 6.276.35 1.623 8.862 12.65 11.427 13.764 7.236 3.149 10.922 7.876 10.377 13.312-.73 7.308-7.075 8.878-11.274 9.917-.418.1-.818.2-1.2.3a8.634 8.634 0 0 1-2.219.299zm-4.055-3.054a6.38 6.38 0 0 0 5.869 1.234c.388-.1.8-.2 1.223-.309 4.218-1.043 9.464-2.342 10.086-8.544.634-6.339-5.641-10.057-9.438-11.71-3.01-1.308-12.067-13.088-12.357-14.97-.254-1.08-4.287-4.99-5.513-5.1a3.058 3.058 0 0 0 .123 1.081c1.034 4.328-3.006 5.644-5.42 6.431a6.652 6.652 0 0 0-2.011.853c.266 1.626 10.7 14.527 13.416 17.239 2.219 2.218 3.721 11.752 4.022 13.795z" class="prefix__cls-8" data-name="Path 11668" transform="translate(-604.674 -1053.993)"/>
                    </g>
                    <path id="prefix__Path_11669" d="M638.67 1087.24c-.752 7.425-7.69 8.417-11.892 9.532a7.169 7.169 0 0 1-4.541-.213 7.339 7.339 0 0 0 1.72-.251c4.2-1.116 11.138-2.107 11.89-9.547s-7.061-11.263-9.909-12.5-11.64-12.757-11.892-14.363c-.124-.828-2.307-3.286-4.227-4.7.5-2.522 6.825 3.75 7.05 5.168.251 1.6 9.044 13.132 11.892 14.361s10.649 5.073 9.909 12.513z" class="prefix__cls-9" data-name="Path 11669" transform="translate(-573.75 -1035.333)"/>
                    <g id="prefix__Group_12278" data-name="Group 12278" transform="translate(55.087 9.505)">
                        <path id="prefix__Path_11670" d="M622.385 1050.94s0 17.588 7.556 11.271 0-13.252 0-13.252z" class="prefix__cls-7" data-name="Path 11670" transform="translate(-621.597 -1048.087)"/>
                        <path id="prefix__Path_11671" d="M627.277 1064.692a3.127 3.127 0 0 1-1.335-.3c-3.943-1.844-4.057-11.983-4.057-13.134v-.607l8.56-2.246.317.29c.151.139 3.71 3.458 3.611 7.769-.057 2.456-1.281 4.7-3.639 6.67a5.584 5.584 0 0 1-3.457 1.558zm-3.81-12.826c.084 4 .965 10.083 3.143 11.1.793.375 1.844.024 3.114-1.039a7.446 7.446 0 0 0 3.072-5.5c.069-2.943-2.019-5.441-2.805-6.274z" class="prefix__cls-8" data-name="Path 11671" transform="translate(-621.885 -1048.406)"/>
                    </g>
                    <path id="prefix__Path_11672" d="M622.49 1056.293l1.362-2.973s6.317.744 6.564-.495c0 0 3.345 7.308 3.715 5.573s4.46-2.848 3.344-5.326-3.1-10.032-7.926-7.184c0 0-8.795.991-8.175 5.945s1.116 4.46 1.116 4.46z" class="prefix__cls-10" data-name="Path 11672" transform="translate(-567.111 -1040.716)"/>
                    <path id="prefix__Path_11673" d="M613.773 1063.893l-1.174 2.259a2.1 2.1 0 0 1-2.8.909l-1.619-.809s-8.67 2.973-8.421-2.23 4.21-4.706 2.476-14.615 8.918-8.67 8.67-.5a20.532 20.532 0 0 0 2.772 11.178 3.907 3.907 0 0 1 .096 3.808z" class="prefix__cls-10" data-name="Path 11673" transform="translate(-579.551 -1042.376)"/>
                    <path id="prefix__Path_11674" d="M600.971 1082.421a4.649 4.649 0 0 1-4.839-2.515 67.929 67.929 0 0 0-7.45-11.866c-4.706-5.7 1.144-16.845 5.155-11.4s5.5 14.863 7.479 17.093 3.92 8.011-.247 8.67z" class="prefix__cls-10" data-name="Path 11674" transform="translate(-586.934 -1034.997)"/>
                    <g id="prefix__Group_12279" data-name="Group 12279" transform="translate(84.729 51.698)">
                        <path id="prefix__Path_11675" d="M641.234 1077.205a19.489 19.489 0 0 0 .165 4.128c.329 1.486 1.652.991 1.652-1.155s3.8 4.459 2.147 6.44 3.8-1.486 2.476-6.44-5.119-5.616-6.44-2.973z" class="prefix__cls-7" data-name="Path 11675" transform="translate(-640.404 -1074.888)"/>
                        <path id="prefix__Path_11676" d="M645.225 1088.264a.858.858 0 0 1-.66-.317c-.473-.6.079-1.261.317-1.545a2.01 2.01 0 0 0 .2-1.451 9.822 9.822 0 0 0-1.121-3.207c-.281.968-.86 1.45-1.437 1.513s-1.34-.281-1.6-1.464a19.964 19.964 0 0 1-.181-4.347l.082-.3a3.3 3.3 0 0 1 3.341-1.945c1.6.162 3.634 1.579 4.564 5.067a7.489 7.489 0 0 1-2.995 7.868 1.116 1.116 0 0 1-.51.128zm-1.69-9.012c.689 0 1.2.777 1.436 1.133a11.521 11.521 0 0 1 1.669 4.426 5.474 5.474 0 0 0 .56-4.14c-.722-2.716-2.175-3.8-3.2-3.906a1.719 1.719 0 0 0-1.7.947 18.614 18.614 0 0 0 .135 3.641 2.965 2.965 0 0 0 .115-.886c0-.835.446-1.094.709-1.173a.969.969 0 0 1 .276-.043z" class="prefix__cls-8" data-name="Path 11676" transform="translate(-640.692 -1075.177)"/>
                    </g>
                </g>
            </g>
            <g id="prefix__Group_12304" data-name="Group 12304" transform="translate(574.391 1109.828)">
                <g id="prefix__Group_12303" data-name="Group 12303">
                    <g id="prefix__Group_12283" data-name="Group 12283" transform="translate(106.716 22.23)">
                        <g id="prefix__Group_12282" data-name="Group 12282" transform="translate(3.337 2.949)">
                            <path id="prefix__Path_11677" d="M646.5 1102.318a2.464 2.464 0 0 0-.3-.339 14.683 14.683 0 0 1-1.464-.181l-.022.329a.993.993 0 0 1 .276.17c.1.095.128.191.2.222a1.243 1.243 0 0 1 .392.2c.085.094.191.106.3.18a3.476 3.476 0 0 0 .839.148c.2.022.53.065.53.065s-.636-.624-.751-.794z" class="prefix__cls-7" data-name="Path 11677" transform="translate(-643.93 -1100.773)"/>
                            <path id="prefix__Path_11678" d="M649.795 1104.583l-2.869-.375a2.6 2.6 0 0 1-1.206-.284 1.187 1.187 0 0 1-.432-.3.944.944 0 0 1-.553-.375l-.519-.218.087-1.884.936.268c.146.038.8.109 1.313.153l.273.021.2.186a3.288 3.288 0 0 1 .4.463c.139.181.662.689.662.689z" class="prefix__cls-8" data-name="Path 11678" transform="translate(-644.217 -1101.148)"/>
                        </g>
                        <path id="prefix__Path_11679" d="M658.556 1135.156a3.5 3.5 0 0 1 0-.745 20.1 20.1 0 0 0-.114-2.413l.859-1.149s-.057-.861-.057-1.434a5.478 5.478 0 0 0-1.321-2.3c-.4-.4-1.379-1.551-1.092-2.066a3.606 3.606 0 0 0 .344-2.7c-.284-1.379-2.526-1.092-3.329-.976s-.919-2.413-.919-2.413a28.59 28.59 0 0 1-.663-3.843c-.028-.265-.05-.514-.069-.745l-.1-.676-1.1-6.9a10.963 10.963 0 0 0-.659-2.462 2.633 2.633 0 0 0-.555-.6 3.69 3.69 0 0 0-.943-.634 4.936 4.936 0 0 1-1.538-1.013 4.5 4.5 0 0 0-.924-.79s.659-1.628.131-1.98c-.37-.248-.924.572-1.275 1.538a4.645 4.645 0 0 0-.352 2.024 15.581 15.581 0 0 0 .044 1.934c.131.749.177 1.363.528 1.628s1.5 1.187 1.893 1.538a3.627 3.627 0 0 1 .659.837s.161 2.309.359 4.366c.054.56.11 1.1.167 1.57.263 2.2.528 6.375.925 7.783a9.307 9.307 0 0 1 .482 2.024c0 .307-.528.618-.7 1.012-.139.314-3.986 6.106-6.01 9.564a20.08 20.08 0 0 0-1.114 2.09l-.016.035h16.8a3.846 3.846 0 0 0-.113-1.185 6.419 6.419 0 0 1-.228-.919zM648.23 1104.5a3.457 3.457 0 0 1-.839-.15c-.106-.074-.213-.083-.3-.18a1.264 1.264 0 0 0-.394-.2c-.074-.032-.107-.128-.2-.222a.987.987 0 0 0-.274-.17l.024-.331a13.855 13.855 0 0 0 1.463.181 2.6 2.6 0 0 1 .3.341c.117.17.753.8.753.8s-.333-.047-.533-.069z" class="prefix__cls-11" data-name="Path 11679" transform="translate(-642.1 -1099.277)"/>
                    </g>
                    <g id="prefix__Group_12284" data-name="Group 12284" transform="translate(132.172 6.179)">
                        <path id="prefix__Path_11680" d="M671.852 1133.6c-.128-1.854-1.086-5.05-.831-6.84s.512-2.621.192-4.092-.257-1.983-.7-2.494a2.8 2.8 0 0 0-.7-.64s-.575 1.023-.9.96-.191-6.33-.448-7.992-.318-9.014-.7-9.781a6.128 6.128 0 0 1-.575-3.516c.255-1.215.7-2.43.768-3.006a10.183 10.183 0 0 1 1.343-2.621 15.307 15.307 0 0 0 .831-1.47s-.831-.575-1.343-.063l1.023-2.046s-.255-.767-1.406-.192a3.122 3.122 0 0 0-1.6 2.109c-.32.767-1.663 3.133-1.918 3.581s-.64.383-1.088 1.215a21.4 21.4 0 0 0-.9 1.981s-.766-2.3-1.789-2.046-.768.385-.32 1.151a13.97 13.97 0 0 1 1.214 2.75 6.436 6.436 0 0 0 1.024 2.109c.446.575 1.023.448 1.151 1.6s-.065 7.1-.128 9.271a69.354 69.354 0 0 1-.64 6.97c-.192 1.023-.255 2.557-.448 2.941a8.73 8.73 0 0 0-1.278 2.173c-.257.958-1.47 2.557-1.343 4.732s.32 1.918.32 1.918a4.647 4.647 0 0 0-.64 2.429c.192.958.448.9.32 1.215s-1.023 1.086-1.278 1.726l-.011.024q-.029 1.066-.08 2.137c.292.511.623 1.081.537 1.291-.11.277-.509.027-.613.08-.035.559-.071 1.12-.112 1.68h15.537a63.363 63.363 0 0 1-2.471-9.244z" class="prefix__cls-7" data-name="Path 11680" transform="translate(-657.942 -1088.805)"/>
                        <path id="prefix__Path_11681" d="M675.727 1143.918h-17.476l.06-.843q.061-.837.112-1.672l.027-.448.329-.17-.151-.27-.113-.2-.016-.276q.05-1.064.079-2.12l.057-.273a5.228 5.228 0 0 1 .975-1.392c.08-.091.158-.175.221-.249a3.955 3.955 0 0 1-.268-.878 4.552 4.552 0 0 1 .523-2.578 10.141 10.141 0 0 1-.218-1.876 8.231 8.231 0 0 1 1.005-4.115 5.845 5.845 0 0 0 .363-.867 5.991 5.991 0 0 1 1.078-1.959 3.346 3.346 0 0 0 .255-.361 10.675 10.675 0 0 0 .178-1.242c.055-.506.117-1.047.2-1.494.184-.985.564-4.741.624-6.847l.017-.532c.068-2.279.229-7.616.117-8.628-.046-.412-.1-.453-.352-.624a2.723 2.723 0 0 1-.638-.577 7.184 7.184 0 0 1-1.171-2.422 13.418 13.418 0 0 0-1.125-2.523l-.153-.251a1.357 1.357 0 0 1-.276-1.27 1.613 1.613 0 0 1 1.237-.793 1.85 1.85 0 0 1 1.929.954c.082-.169.169-.339.254-.5a2.97 2.97 0 0 1 .924-1.075c.128-.1.15-.117.173-.158.4-.693 1.6-2.824 1.872-3.493l.126-.318a3.5 3.5 0 0 1 1.849-2.192 2.047 2.047 0 0 1 1.713-.183 1.425 1.425 0 0 1 .794.829l.1.309-.572 1.144a2.468 2.468 0 0 1 .489.258l.563.389-.306.611a16.044 16.044 0 0 1-.9 1.578 10.461 10.461 0 0 0-1.2 2.252 10.221 10.221 0 0 1-.335 1.427c-.145.5-.311 1.078-.432 1.652a5.362 5.362 0 0 0 .509 3c.254.511.355 1.92.526 5.891.073 1.705.15 3.467.251 4.125.125.807.162 2.533.2 4.2.014.6.03 1.292.049 1.912l.67.334a3.445 3.445 0 0 1 .944.824 3.233 3.233 0 0 1 .678 1.79c.051.285.11.629.2 1.055a8.348 8.348 0 0 1-.046 3.485l-.135.887a15.353 15.353 0 0 0 .435 4.051 24.993 24.993 0 0 1 .4 2.624 63.994 63.994 0 0 0 2.433 9.045zm-15.786-1.576h13.608a57.969 57.969 0 0 1-2.173-8.4 23.714 23.714 0 0 0-.38-2.443 15.9 15.9 0 0 1-.444-4.561l.139-.911a6.883 6.883 0 0 0 .065-2.9c-.1-.451-.164-.816-.216-1.119-.11-.643-.153-.824-.287-.991-.583.664-1.017.577-1.185.544-.793-.162-.8-.585-.891-4.646-.033-1.545-.072-3.294-.18-4-.115-.742-.186-2.39-.268-4.3a48.576 48.576 0 0 0-.375-5.286 6.894 6.894 0 0 1-.629-4c.129-.613.306-1.229.46-1.765a9.854 9.854 0 0 0 .295-1.163 8.587 8.587 0 0 1 1.207-2.567l-2.511 2.515 2.772-5.491a2 2 0 0 0-.966 1.283l-.143.366c-.374.9-1.946 3.642-1.962 3.669a2.035 2.035 0 0 1-.591.632 1.459 1.459 0 0 0-.485.564c-.418.777-.849 1.882-.854 1.893l-.717 1.849a5.952 5.952 0 0 0 .733 1.348 1.321 1.321 0 0 0 .3.25 2.126 2.126 0 0 1 1.015 1.742c.11.987.013 4.837-.109 8.852l-.016.529a69.692 69.692 0 0 1-.652 7.093c-.077.411-.132.911-.184 1.378a6.08 6.08 0 0 1-.333 1.773 4.917 4.917 0 0 1-.4.6 4.6 4.6 0 0 0-.816 1.425 7.342 7.342 0 0 1-.459 1.125 6.842 6.842 0 0 0-.86 3.355 7.618 7.618 0 0 0 .177 1.594l-.654.3.7.457a3.754 3.754 0 0 0-.552 1.886 2.32 2.32 0 0 0 .21.651 1.121 1.121 0 0 1 .068 1.013 3.136 3.136 0 0 1-.594.815 5.416 5.416 0 0 0-.643.823c-.016.586-.038 1.176-.066 1.765.4.714.676 1.266.471 1.776a.96.96 0 0 1-.605.574c-.016.033-.017.069-.02.104z" class="prefix__cls-8" data-name="Path 11681" transform="translate(-658.251 -1089.093)"/>
                    </g>
                    <g id="prefix__Group_12285" data-name="Group 12285" transform="translate(77.7 23.035)">
                        <path id="prefix__Path_11682" d="M636.615 1106c-.7-.051-2.2.05-2.2.05a1.2 1.2 0 0 1-.651.232c-.451.05-1.2 1.436-1.7 1.436h-1.4s3.608-4.842 3.657-5.644c0 0-.251-1.393-1.152-.292a6.088 6.088 0 0 1-1.4 1.382s.752-2.865.251-2.766-1.9 3.4-2.2 4a3.364 3.364 0 0 1-1.2 1.375c-.3.1-.853.188-1 .788a7.857 7.857 0 0 0-.251 1.5 25.864 25.864 0 0 1-.3 3.1 12.077 12.077 0 0 1-.55 2.4c-.351.752-.8 1.4-.752 1.7s-.451-.1-.451-.1-.251 2.154-.3 2.555a9.649 9.649 0 0 0-.352 3.206c.2 1.3-.451 2.706-.451 3.858s.7 6.9.653 8.606c-.035 1.168-.257 2.7-.459 4.271h11.1c-.041 0-.082-.495-.12-.514-1.352-.7-1.5-2.574-1.9-3.227s-1.9-5.97-2.1-6.623a15.552 15.552 0 0 1 0-3.061c0-.952-.4-1.731-.351-2.733s.5-4.973.5-4.973-.952-.208-1.352-.358a5.936 5.936 0 0 1 .5-2.057 20.656 20.656 0 0 0 1.954-2.257 17.7 17.7 0 0 0 .651-2.856 2.5 2.5 0 0 1 .15-.7s1.954-.35 2.155-.4c0 0 .451-.853-1.253-.552l-.75-.35s2.5-.151 3.056-.251.669-.699-.032-.745z" class="prefix__cls-7" data-name="Path 11682" transform="translate(-623.403 -1099.44)"/>
                        <path id="prefix__Path_11683" d="M635.642 1137.594l-.334.217c-.106-.057-.206.2-.3.2h-11.235l.115-1.259c.077-.608.158-1.283.23-1.721a14.339 14.339 0 0 0 .222-1.988c.027-.932-.2-3.1-.381-4.81-.145-1.354-.27-2.547-.27-3.075a8.5 8.5 0 0 1 .249-1.73 5.925 5.925 0 0 0 .211-2.025 8.322 8.322 0 0 1 .273-3.081c.035-.154.065-.274.074-.348.05-.4.3-2.548.3-2.548l.164-1.4.626.494c.044-.088.093-.178.145-.274.109-.2.227-.426.336-.66a4.7 4.7 0 0 0 .326-1.319c.049-.3.1-.613.173-.931a17.988 17.988 0 0 0 .243-2.4l.039-.591a8.691 8.691 0 0 1 .27-1.63 1.873 1.873 0 0 1 1.431-1.329 3.038 3.038 0 0 0 .834-1.029c.06-.121.161-.345.29-.63 1.441-3.174 1.858-3.719 2.467-3.841l.429-.087.4.35a.952.952 0 0 1 .277.686 1.238 1.238 0 0 1 2.118.64l.028.117-.006.121c-.038.572-.884 1.85-2.522 3.806l.062-.033a3.088 3.088 0 0 1 1.034-.4 1.31 1.31 0 0 1 1.173.5c.522-.025 1.332-.054 1.827-.022a1.169 1.169 0 0 1 1.2 1.056 1.261 1.261 0 0 1-1.117 1.258c-.084.016-.206.031-.353.047a1.313 1.313 0 0 1-.14.7l-.166.311-.5.085a11.98 11.98 0 0 0-1.869.323v.014a16.307 16.307 0 0 1-.56 3.176 8.473 8.473 0 0 1-1.57 1.989c-.186.2-.3.363-.389.463a4.535 4.535 0 0 0-.21.962c.232.055.484.109.654.143l.712.145-.079.717c0 .039-.449 3.934-.5 4.9a4.541 4.541 0 0 0 .158 1.231 6.283 6.283 0 0 1 .2 1.415c0 .328-.02.7-.044 1.08a6.858 6.858 0 0 0 .009 1.653l.172.569a52.756 52.756 0 0 0 1.852 5.683c.131.213.247.872.37 1.2a4.124 4.124 0 0 1 .758 1.759h.044v-.552c0 .055.244.1.333.15l-.189.449.717.326a.9.9 0 0 1-.49.646zm-10.063-1.163h8.081c-.147-1.576-.254-.957-.347-1.2a7.439 7.439 0 0 0-.238-.744 50.5 50.5 0 0 1-2.019-6.147l-.167-.605a7 7 0 0 1-.077-2.235c.021-.345.043-.7.043-1a5.078 5.078 0 0 0-.158-1.08 5.9 5.9 0 0 1-.192-1.653c.038-.763.293-3.108.426-4.3a7.264 7.264 0 0 1-.768-.222l-.561-.211.054-.6a5.349 5.349 0 0 1 .693-2.5c.095-.109.266-.29.471-.508a15.967 15.967 0 0 0 1.359-1.554 19.066 19.066 0 0 0 .58-2.547 3.12 3.12 0 0 1 .2-.96l.156-.418.118.351-1.316-.241h-2.727l1.16-1.682c.069-.08.14-.345.211-.427l.158-.672a3.768 3.768 0 0 1-1.584 1.609c-.448.137-.47.15-.487.221a6.863 6.863 0 0 0-.23 1.365l-.036.547a18.2 18.2 0 0 1-.282 2.665c-.066.277-.107.547-.148.812a6.191 6.191 0 0 1-.456 1.743c-.121.259-.254.508-.377.736a4.994 4.994 0 0 0-.31.64l.091.539-.5.238a.812.812 0 0 1-.142.066c-.074.65-.17 1.469-.2 1.7-.014.112-.054.287-.106.511a6.94 6.94 0 0 0-.249 2.479 7.105 7.105 0 0 1-.229 2.593 7.2 7.2 0 0 0-.213 1.385c0 .443.126 1.63.26 2.886.2 1.846.419 3.939.391 4.976a20.179 20.179 0 0 1-.244 2.478c-.024.189-.057-.61-.09.966z" class="prefix__cls-8" data-name="Path 11683" transform="translate(-623.69 -1099.788)"/>
                    </g>
                    <g id="prefix__Group_12289" data-name="Group 12289" transform="translate(18.769 19.426)">
                        <g id="prefix__Group_12286" data-name="Group 12286" transform="translate(11.613 6.497)">
                            <path id="prefix__Path_11684" d="M596.1 1102.557a1.687 1.687 0 0 0 .416-.164c.1-.033.273-.121.306-.132s-.022-.1-.175-.131-1.642.033-1.642.033.438.361.58.448.315-.02.515-.054z" class="prefix__cls-7" data-name="Path 11684" transform="translate(-592.896 -1101.332)"/>
                            <path id="prefix__Path_11685" d="M596.478 1103.722a1.008 1.008 0 0 1-.531-.15c-.164-.1-.667-.511-.667-.511l-1.612-1.308 2.077-.088a9 9 0 0 1 1.839-.019.96.96 0 0 1 .809.85l.031.6-.577.2a2.789 2.789 0 0 1-.31.131 1.488 1.488 0 0 1-.537.194l-.09.025a1.549 1.549 0 0 1-.432.076z" class="prefix__cls-8" data-name="Path 11685" transform="translate(-593.668 -1101.62)"/>
                        </g>
                        <g id="prefix__Group_12287" data-name="Group 12287" transform="translate(12.047 5.259)">
                            <path id="prefix__Path_11686" d="M596.726 1101.565a1.606 1.606 0 0 1 .372.219c.033.033.23.066.273.022a3.21 3.21 0 0 1 .263-.274c.033-.011-.077-.12-.263-.153s-1.7-.044-1.7-.044a.786.786 0 0 0 .339.153 5.21 5.21 0 0 1 .716.077z" class="prefix__cls-7" data-name="Path 11686" transform="translate(-592.945 -1100.547)"/>
                            <path id="prefix__Path_11687" d="M598.219 1102.889a.972.972 0 0 1-.681-.26c.014.014-.013 0-.052-.021-.14-.02-.4-.042-.479-.044a1.339 1.339 0 0 1-.719-.252l-2.345-1.475h2.736a14.679 14.679 0 0 1 1.825.057 1.032 1.032 0 0 1 .919.864l.044.612-.438.173a1.126 1.126 0 0 1-.81.346z" class="prefix__cls-8" data-name="Path 11687" transform="translate(-593.943 -1100.835)"/>
                        </g>
                        <g id="prefix__Group_12288" data-name="Group 12288">
                            <path id="prefix__Path_11688" d="M604.1 1102.528a5.4 5.4 0 0 1-1.124-.069c-.035-.01-.079-.021-.129-.03-.465-.1-1.5-.235-1.69-.263a3.354 3.354 0 0 1-.654-.219c-.139-.058-.235-.058-.123-.208s.805.422 1.374.392c.533-.024.982.6 1.71.6.047-1.576.1-1.132.147-1.152a1.632 1.632 0 0 0 1.07-1.307c.027-.306-.043-1.021-.473-.827-.043.019-.085-.1-.125-.085a2.286 2.286 0 0 1-.9.144 6.313 6.313 0 0 0-1.04.161 6.717 6.717 0 0 1-.75.191c-.154.016-.375.1-.528.1a2 2 0 0 0-.528.065.581.581 0 0 1-.389-.03 1.9 1.9 0 0 1 .528-.377c.3-.139.32-.306.4-.333a13.545 13.545 0 0 0 1.442-.224.881.881 0 0 0 .612-.667.511.511 0 0 0-.18-.284s-.723.022-1.1 0a1.994 1.994 0 0 0-1.007.2 10.423 10.423 0 0 1-1.559.525c-.263.046-.482.308-.7.7s-.791 1.907-1.163 2.084-1.029.351-1.206.591a4.7 4.7 0 0 0-.4 1.45c-.087.525-.679 4.1-.987 4.937a11.633 11.633 0 0 1-1.206 2.15c-.353.548-.154.878-.265 1.447l-.11.572a1.758 1.758 0 0 0-.374.679c-.131.438-.724 2.569-.724 2.722s-.263.131-.285.57a7.9 7.9 0 0 1-.854 2.566 3.65 3.65 0 0 0-.441 2.085 3.75 3.75 0 0 1-.569 1.82 14.532 14.532 0 0 0-.987 3.9 10.736 10.736 0 0 1-1.187 3.512 6.011 6.011 0 0 0-.79 3.813s.386 2.968.744 4.544h13.113c-.112 0-.225-.739-.339-.821a28.212 28.212 0 0 0-.566-2.941c-.21-.561-.351-6.052-.634-7.745s-.775-3.521-.775-3.8c0-.114-.114-.637-.244-1.214a11.767 11.767 0 0 1-.389-2.22 7.77 7.77 0 0 0-.282-1.631c0-.21.14-1.978.14-1.978a5 5 0 0 1 .211-1.9c.282-.354-.211-1.272-.211-1.272s-.071-2.4.775-2.75 1.34-1.272 1.833-1.481a6.3 6.3 0 0 0 1.975-2.257 3.258 3.258 0 0 0 .233-.739.756.756 0 0 1 .331-.6c.424-.282.566-.988 1.272-1.27a3.183 3.183 0 0 0 1.48-1.057c.225-.358-.103-1.558-1.403-.769z" class="prefix__cls-7" data-name="Path 11688" transform="translate(-586.013 -1097.15)"/>
                            <path id="prefix__Path_11689" d="M600.873 1138.426h-13.622l-.139-.613c-.362-1.592-.752-3.817-.752-3.817a3.64 3.64 0 0 1 .448-2.715c.113-.207.249-.451.4-.788l.285-.627a8.21 8.21 0 0 0 .843-2.678 16.059 16.059 0 0 1 1.081-4.177 3.118 3.118 0 0 0 .467-1.4 4.406 4.406 0 0 1 .541-2.506 7.238 7.238 0 0 0 .757-2.222 1.311 1.311 0 0 1 .337-.862c.172-.8.7-2.594.7-2.616a2.634 2.634 0 0 1 .391-.793l.071-.377a1.927 1.927 0 0 0 .025-.4 2.231 2.231 0 0 1 .351-1.329l.194-.3a8.86 8.86 0 0 0 .935-1.7 48.135 48.135 0 0 0 .949-4.792 4.492 4.492 0 0 1 .534-1.784 2.477 2.477 0 0 1 1.169-.7c.125-.047.244-.093.342-.139.046-.091.385-.848.531-1.171.114-.251.21-.462.276-.582a1.951 1.951 0 0 1 1.261-1.1 10.257 10.257 0 0 0 1.355-.462 2.833 2.833 0 0 1 1.388-.271c.35.019 1.021 0 1.026 0l.292-.008.229.183a1.279 1.279 0 0 1 .47.818.881.881 0 0 1-.008.249.61.61 0 0 0 .085-.03l.166-.066h.1a1.033 1.033 0 0 1 .911.142 1.49 1.49 0 0 1 .493 1.346 1.844 1.844 0 0 1-1.22 1.436v.2a1.524 1.524 0 0 1 1.649.3 1.561 1.561 0 0 1 .3 1.806 3.888 3.888 0 0 1-1.866 1.385c-.189.076-.3.23-.482.493a2.426 2.426 0 0 1-.645.7 3.212 3.212 0 0 1-.281 1.009 6.9 6.9 0 0 1-2.381 2.656 3.041 3.041 0 0 0-.41.385 4.294 4.294 0 0 1-1.43 1.1 4.469 4.469 0 0 0-.3 1.831 1.925 1.925 0 0 1 .044 1.953 8.584 8.584 0 0 0-.043 1.374c0 .1-.137 1.773-.14 2.011a1.516 1.516 0 0 1 .068.221 3.937 3.937 0 0 1 .208 1.505 18.248 18.248 0 0 0 .377 1.912l.054.233a6.2 6.2 0 0 1 .213 1.11c.013.106.093.433.2.871.17.728.4 1.724.566 2.706.15.894.255 2.635.356 4.32.076 1.258.17 2.821.247 3.113a23.908 23.908 0 0 1 .594 2.67l-.437.077v.9c-.036.009-.077.01-.123.01zm-12.36-1.579h11.2a13.919 13.919 0 0 0-.364-1.546 19.592 19.592 0 0 1-.337-3.545c-.093-1.568-.2-3.344-.336-4.156-.158-.947-.383-1.906-.547-2.605a6.845 6.845 0 0 1-.238-1.232c-.013-.079-.087-.381-.173-.755l-.054-.236a9.012 9.012 0 0 1-.4-2.485 3.768 3.768 0 0 0-.169-.875 2.57 2.57 0 0 1-.123-.632c0-.216.145-2.035.145-2.035a4.339 4.339 0 0 1 .29-2.2 2.165 2.165 0 0 0-.2-.537l-.088-.164-.006-.188c-.025-.882.044-2.995 1.263-3.5a3.021 3.021 0 0 0 .9-.733 3 3 0 0 1 .927-.745 6.1 6.1 0 0 0 1.565-1.855 2.377 2.377 0 0 0 .18-.569 1.509 1.509 0 0 1 .667-1.1 1.71 1.71 0 0 0 .216-.281 2.632 2.632 0 0 1 1.2-1.067 3.593 3.593 0 0 0 .736-.392l-.139.085-.208.008a5.8 5.8 0 0 1-1.354-.094c-.456-.1-1.2-.2-1.554-.251l-.178-.024a3.25 3.25 0 0 1-.747-.236l-.347-.142-.37-.487a.9.9 0 0 1 .169-.813 1.656 1.656 0 0 1 .889-.509c-.033.006-.071.014-.114.025a1.409 1.409 0 0 1-.946-.1l-.69-.369-.028.065c-.474 1.056-.8 1.713-1.3 1.948-.132.063-.29.124-.454.186a3.673 3.673 0 0 0-.511.222c.025 0-.066.249-.2 1.055a48.191 48.191 0 0 1-1.026 5.078 10.054 10.054 0 0 1-1.094 2.016l-.184.285a.69.69 0 0 0-.1.479 3.3 3.3 0 0 1-.055.7l-.15.805-.175.173a1.1 1.1 0 0 0-.175.347c-.15.5-.653 2.331-.7 2.586a.818.818 0 0 1-.284.575 8.742 8.742 0 0 1-.953 2.857 2.853 2.853 0 0 0-.339 1.664 4.465 4.465 0 0 1-.671 2.243 13.615 13.615 0 0 0-.894 3.631 9.6 9.6 0 0 1-.968 3.1l-.277.61c-.172.389-.326.67-.457.908a2.125 2.125 0 0 0-.269 1.731s.295 1.629.599 3.076zm14.517-36.348c-.145.028-.29.06-.383.087l-.238.069c-.142.042-.285.083-.408.114.2-.009.378-.039.569-.066.139-.022.282-.044.435-.06l.026-.143z" class="prefix__cls-8" data-name="Path 11689" transform="translate(-586.3 -1097.498)"/>
                        </g>
                    </g>
                    <g id="prefix__Group_12290" data-name="Group 12290" transform="translate(42.797 24.052)">
                        <path id="prefix__Path_11690" d="M624.1 1130.494a1.294 1.294 0 0 1-.032-1.526c-.232-.173-.388-.326-.388-.407 0-.288-.347-2.711-.462-3.173l-.173-.692s2.711-6.692 3.98-8.826a5.375 5.375 0 0 1 3.346-2.826 4.181 4.181 0 0 0 2.077-1.962c.462-.865.98-1.442.922-1.787a13.935 13.935 0 0 1 .173-2.251c.058-.23-.519-.749-1.327.808s-.749 1.9-.749 1.9-1.212-.173-1.442-.173-.405-.692-.232-1.269a6.494 6.494 0 0 1 .52-2.019 13.959 13.959 0 0 1 1.557-2.251 7.449 7.449 0 0 0 1.269-.98c.058-.173.577-.577-.115-.807s-1.846.865-2.769 1.5a7.652 7.652 0 0 0-1.327 1.1s-.577-.577 1.1-1.616 2.422-1.672 1.557-2.249a7.981 7.981 0 0 0-2.251 1.21 6.546 6.546 0 0 0-1.384.23 12.476 12.476 0 0 0-1.557.809c-.173.115-1.154 2.364-1.442 2.826a1.525 1.525 0 0 0 0 1.327c.115.347.922 1.789.577 2.307s-.692.635-.98 1.269a26.284 26.284 0 0 1-2.539 3.058c-.4.462-2.076 2.134-2.076 2.134s-.058-.634-.288-.75 0-2.019-.75-2.652a8.115 8.115 0 0 0-5.307-1.789c-2.251.232-6.289.232-6.922.232s-2.077-.117-2.077-.117-2.537 4.038-2.422 4.847a7.894 7.894 0 0 1-.115 2.076 22.623 22.623 0 0 0 .23 2.943 33.036 33.036 0 0 1 .288 3.865 25.171 25.171 0 0 0 .462 4.615 5.386 5.386 0 0 0 1.212 2.192c.519.634.807 1.1 1.384 1.9s1.039 1.384.924 1.787a5.031 5.031 0 0 0-.136.966h19.113a6.471 6.471 0 0 0-1.429-5.779z" class="prefix__cls-7" data-name="Path 11690" transform="translate(-601.257 -1100.113)"/>
                        <path id="prefix__Path_11691" d="M626.437 1137.385h-20.57l.052-.835a5.991 5.991 0 0 1 .162-1.135c-.041-.052-.38-.525-.627-.869l-.645-.909c-.3-.43-.539-.775-.887-1.2a6.154 6.154 0 0 1-1.365-2.5 25.708 25.708 0 0 1-.484-4.854 32.171 32.171 0 0 0-.284-3.719 18.635 18.635 0 0 1-.233-3.11c.017-.183.043-.37.069-.559a4.561 4.561 0 0 0 .05-1.332c-.1-.727.75-2.537 2.536-5.379l.255-.4.474.038s1.4.112 2.014.112c1.393 0 4.848-.02 6.842-.225a9 9 0 0 1 5.9 1.97 3.642 3.642 0 0 1 .889 2.511v.011c.448-.454.93-.949 1.121-1.169l.359-.4a23.215 23.215 0 0 0 2.055-2.467 3.22 3.22 0 0 1 .712-.995 2.664 2.664 0 0 0 .331-.385 10.609 10.609 0 0 0-.492-1.2c-.084-.183-.148-.332-.177-.421a2.27 2.27 0 0 1 .079-1.994c.117-.184.35-.684.594-1.2.717-1.507.829-1.7 1.081-1.866a12.955 12.955 0 0 1 1.715-.887 5.773 5.773 0 0 1 1.338-.259 9.523 9.523 0 0 1 2.309-1.188l.374-.134.329.221a1.412 1.412 0 0 1 .711 1.106 1.447 1.447 0 0 1 .544.069 1.123 1.123 0 0 1 .591 1.871c-.1.287-.4.509-1.069.974-.161.11-.32.221-.454.323a8.008 8.008 0 0 0-.909 1.319c-.178.29-.34.559-.474.75a2.5 2.5 0 0 0-.258.987 5.275 5.275 0 0 1-.153.807.984.984 0 0 0-.036.295l.367.046a12.828 12.828 0 0 1 .638-1.39c.843-1.633 1.7-1.6 2.137-1.433a1.015 1.015 0 0 1 .654 1.177 15.452 15.452 0 0 0-.161 1.945 2.225 2.225 0 0 1-.545 1.5c-.142.225-.306.481-.459.769a4.844 4.844 0 0 1-2.63 2.367c-.255.047-1.579.381-2.812 2.454-1.092 1.836-3.338 7.278-3.83 8.482l.11.441c.1.392.381 2.273.463 3.064.027.022.057.047.095.076l.552.416-.339.6c-.2.363-.132.52-.028.659a7.289 7.289 0 0 1 1.567 6.453zm-18.828-1.576h17.561a5.82 5.82 0 0 0-1.4-4.511l-.011-.012a1.99 1.99 0 0 1-.337-1.787.954.954 0 0 1-.238-.616c-.011-.293-.339-2.585-.44-2.982l-.233-.941.095-.238c.113-.276 2.75-6.771 4.035-8.933 1.541-2.593 3.362-3.1 3.883-3.2a3.7 3.7 0 0 0 1.521-1.557l.03-.055-.426-.121s-1.089-.158-1.337-.164a.955.955 0 0 1-.764-.407 2.285 2.285 0 0 1-.216-1.879 3.875 3.875 0 0 0 .1-.566 3.694 3.694 0 0 1 .528-1.677c.118-.17.263-.408.421-.667.129-.214.251-.413.367-.6a6.518 6.518 0 0 0-.935.794l-.556.621-.593-.586a1.223 1.223 0 0 1-.318-.991 2.187 2.187 0 0 1 .908-1.392 3.625 3.625 0 0 0-.738.142 11.594 11.594 0 0 0-1.285.657c-.14.248-.437.869-.64 1.3-.279.583-.55 1.146-.681 1.357-.087.136-.016.378.077.659.022.06.066.155.118.271.465 1.028.843 2.01.367 2.724a4.053 4.053 0 0 1-.517.616 1.674 1.674 0 0 0-.4.544 16.549 16.549 0 0 1-2.325 2.873l-.339.377c-.41.468-2.112 2.17-2.112 2.17l-1.181 1.18-.161-1.663a1.606 1.606 0 0 0-.046-.244 1.666 1.666 0 0 1-.38-1.192c-.032-.372-.106-1.245-.337-1.44a7.417 7.417 0 0 0-4.719-1.606c-2.065.213-5.584.235-7 .235-.416 0-1.166-.047-1.66-.08a20.173 20.173 0 0 0-2.057 3.978 5.674 5.674 0 0 1-.054 1.71c-.024.162-.046.323-.06.484a16.474 16.474 0 0 0 .229 2.771 33.805 33.805 0 0 1 .292 4.013 24.985 24.985 0 0 0 .44 4.375 4.7 4.7 0 0 0 1.056 1.883c.377.46.637.831.961 1.3l.629.891c.591.818 1.059 1.468.878 2.182zm25.259-26.575a3.808 3.808 0 0 0-.322.862l.013.074v-.008a4.309 4.309 0 0 0 .325-.562 1.69 1.69 0 0 1-.017-.366z" class="prefix__cls-8" data-name="Path 11691" transform="translate(-601.544 -1100.433)"/>
                    </g>
                    <g id="prefix__Group_12291" data-name="Group 12291" transform="translate(122.173 22.073)">
                        <path id="prefix__Path_11692" d="M661.3 1133.485a10.486 10.486 0 0 1-1.176-2.492c-.047-.328-.752-6.158-.894-8.557s-.14-7.992.142-8.7a13.174 13.174 0 0 0 1.129-2.3 5.069 5.069 0 0 1 .517-2.257c.517-.846 1.316-1.833 1.693-2.492a6.589 6.589 0 0 0 .612-1.551c.047-.189-.564-.753-1.645.422s-1.223 2.117-2.117 2.21-1.5.282-1.739 0a13.31 13.31 0 0 1-1.223-1.411c0-.14.846-1.928.7-2.3s-.657-.611-.7-.142a2.37 2.37 0 0 1-.47 1.034l-.142.236s-1.034-.894-1.034-1.318.282-2.35-.142-2.867-.657-.329-.657-.329l-.142.939s-.235-2.3-1.456-1.88c-.142.049.235 1.176.235 1.176s-.471.047-.377.329a5.133 5.133 0 0 1 .329 1.551c0 .612.282.988.377 1.835s.61 1.456.7 2.115a11.843 11.843 0 0 0 .329 2.068 10.278 10.278 0 0 1 .8 2.4c-.047.422.282 1.411.329 2.068a5.859 5.859 0 0 1-.047 1.6 14.975 14.975 0 0 0 0 2.068c0 .752-.282 4.749-.377 6.677a39.631 39.631 0 0 1-.517 4.279s-1.081 3.666-1.269 4.607a5.379 5.379 0 0 0 .282 2.961c.082.218.281.793.545 1.573h8.766a25.7 25.7 0 0 0-1.361-3.552z" class="prefix__cls-7" data-name="Path 11692" transform="translate(-651.621 -1098.89)"/>
                        <path id="prefix__Path_11693" d="M664.049 1138.108h-10.427l-.181-.535c-.26-.771-.456-1.335-.536-1.549a6.141 6.141 0 0 1-.318-3.394c.194-.963 1.237-4.51 1.288-4.675s.4-2.266.485-4.1c.039-.821.113-2.018.184-3.179.095-1.5.189-3.05.189-3.458 0-.247-.01-.5-.021-.744a7.023 7.023 0 0 1 .033-1.464 5.014 5.014 0 0 0 .038-1.4 7.016 7.016 0 0 0-.161-.9 4.443 4.443 0 0 1-.165-1.307 11.96 11.96 0 0 0-.635-1.743l-.113-.276a7.051 7.051 0 0 1-.306-1.658c-.024-.208-.046-.411-.071-.593a2.865 2.865 0 0 0-.251-.684 4.753 4.753 0 0 1-.457-1.453 4.408 4.408 0 0 0-.188-.84 3.6 3.6 0 0 1-.194-1.083 4.274 4.274 0 0 0-.268-1.237 1.021 1.021 0 0 1 .08-.906.835.835 0 0 1 .082-.109c-.18-.667-.219-1.321.451-1.549a1.534 1.534 0 0 1 1.348.144 2 2 0 0 1 .646.72 1.506 1.506 0 0 1 1.128.654c.492.6.448 1.707.344 2.98-.013.172-.025.309-.025.385a.323.323 0 0 1 .06.049.435.435 0 0 0 .013-.079 1.02 1.02 0 0 1 .876-.963 1.328 1.328 0 0 1 1.352.9c.173.467.013 1.026-.526 2.371-.013.03-.025.061-.038.088.148.168.347.377.52.561.118.124.225.24.311.333.134 0 .355-.038.539-.063s.4-.057.632-.081c.162-.017.265-.126.64-.686a9.89 9.89 0 0 1 .976-1.274c1.182-1.287 2.1-1.005 2.432-.821a1.027 1.027 0 0 1 .558 1.124 7.064 7.064 0 0 1-.692 1.751c-.2.351-.516.8-.851 1.264-.295.413-.607.845-.851 1.247a2.444 2.444 0 0 0-.329 1.241 7.248 7.248 0 0 1-.085.741 5.126 5.126 0 0 1-.758 1.7 5.31 5.31 0 0 0-.413.76 60.061 60.061 0 0 0-.087 8.358c.136 2.312.827 8.077.886 8.494a11.022 11.022 0 0 0 1.065 2.188 19.138 19.138 0 0 1 1.445 3.712zm-9.3-1.576h7.1a15.379 15.379 0 0 0-.935-2.345 10.835 10.835 0 0 1-1.286-2.793c-.036-.252-.753-6.137-.9-8.623-.107-1.8-.208-8.032.2-9.038a7.17 7.17 0 0 1 .526-.988 3.988 3.988 0 0 0 .556-1.16c.035-.208.049-.4.065-.591a3.911 3.911 0 0 1 .556-1.939c.263-.432.6-.9.914-1.343.222-.311.435-.607.6-.87-.167.221-.307.43-.437.624a2.453 2.453 0 0 1-1.784 1.371c-.208.022-.4.049-.574.074-.72.1-1.4.2-1.855-.355-.068-.079-.208-.229-.366-.4-.84-.9-1.039-1.121-1.039-1.513a.851.851 0 0 1 .038-.257l-.377-.323a4.979 4.979 0 0 1-1.1-1.242l-.145.961.008.013a4.183 4.183 0 0 1 .374 1.111c.028.2.052.418.077.645a6.582 6.582 0 0 0 .2 1.244l.106.259a6.5 6.5 0 0 1 .745 2.519 5.457 5.457 0 0 0 .14.8 9.352 9.352 0 0 1 .192 1.125 6.741 6.741 0 0 1-.058 1.8 6.182 6.182 0 0 0-.011 1.115c.013.266.022.542.022.81 0 .457-.088 1.893-.192 3.556-.071 1.155-.143 2.344-.184 3.158a40.108 40.108 0 0 1-.528 4.38c-.389 1.341-1.129 3.907-1.272 4.623a4.583 4.583 0 0 0 .246 2.527c.072.17.203.546.381 1.065z" class="prefix__cls-8" data-name="Path 11693" transform="translate(-651.907 -1099.177)"/>
                    </g>
                    <g id="prefix__Group_12302" data-name="Group 12302">
                        <g id="prefix__Group_12293" data-name="Group 12293" transform="translate(105.24 18.174)">
                            <g id="prefix__Group_12292" data-name="Group 12292" transform="translate(9.45 3.384)">
                                <path id="prefix__Path_11694" d="M649.4 1100.07a2.681 2.681 0 0 1 .328-.375 16.179 16.179 0 0 0 1.62-.2l.024.364a1.147 1.147 0 0 0-.306.188c-.106.106-.14.211-.222.247a1.4 1.4 0 0 0-.435.222c-.093.105-.211.118-.328.2a3.9 3.9 0 0 1-.928.164c-.222.024-.586.071-.586.071s.706-.693.833-.881z" class="prefix__cls-7" data-name="Path 11694" transform="translate(-646.347 -1098.48)"/>
                                <path id="prefix__Path_11695" d="M647.159 1102.4l1.667-1.637s.594-.577.742-.771a3.526 3.526 0 0 1 .43-.5l.2-.191.276-.02c.58-.049 1.31-.131 1.469-.173l.935-.257.126 1.893-.522.216a1.571 1.571 0 0 1-.514.427 2.359 2.359 0 0 0-.247.1.976.976 0 0 1-.361.238 2.753 2.753 0 0 1-1.258.3z" class="prefix__cls-8" data-name="Path 11695" transform="translate(-647.159 -1098.851)"/>
                            </g>
                            <path id="prefix__Path_11696" d="M660.185 1138.706a20.108 20.108 0 0 0-1.089-2.068c-2.2-3.791-8.07.769-8.226.415-.2-.438.652-12.022.652-12.361a10.324 10.324 0 0 1 .536-2.24 47.734 47.734 0 0 0 .745-5.852c.095-1.028.186-2 .277-2.761.292-2.435.585-6.572.585-6.572a3.941 3.941 0 0 1 .728-.924c.438-.389 1.7-1.412 2.093-1.7s.438-.974.585-1.8a16.909 16.909 0 0 0 .049-2.14 5.118 5.118 0 0 0-.391-2.24c-.389-1.07-1-1.978-1.409-1.7-.585.391.145 2.189.145 2.189a4.959 4.959 0 0 0-1.023.878 5.417 5.417 0 0 1-1.7 1.119 4.794 4.794 0 0 0-1.655 1.363 12.013 12.013 0 0 0-.728 2.724c-.008.05-.017.115-.031.194-.224 1.425-1.182 7.444-1.182 7.444l-.112.749c-.03.376-.069.8-.123 1.256a31.492 31.492 0 0 1-.687 3.819s-.126 2.8-1.018 2.67-3.368-.446-3.685 1.081a3.985 3.985 0 0 0 .381 2.987c.317.572-.764 1.842-1.209 2.288a6.073 6.073 0 0 0-1.463 2.544c0 .635-.064 1.589-.064 1.589l.955 1.271s-.129 1.246-.139 2.148c0 .2 0 .377.011.522a3.813 3.813 0 0 1-.254 1.844 4.257 4.257 0 0 0-.128 1.315H660.2a.256.256 0 0 0-.015-.051z" class="prefix__cls-11" data-name="Path 11696" transform="translate(-641.163 -1096.704)"/>
                        </g>
                        <g id="prefix__Group_12294" data-name="Group 12294">
                            <path id="prefix__Path_11697" d="M577.82 1134.378c.142-2.052 1.2-5.589.92-7.57s-.566-2.9-.213-4.528.284-2.194.779-2.76a3.11 3.11 0 0 1 .779-.708s.637 1.132.99 1.061.213-7 .5-8.843.353-9.977.777-10.826a6.759 6.759 0 0 0 .637-3.891c-.282-1.344-.777-2.689-.848-3.326a11.281 11.281 0 0 0-1.486-2.9 16.915 16.915 0 0 1-.921-1.627s.921-.638 1.486-.071l-1.132-2.265s.282-.85 1.556-.213a3.457 3.457 0 0 1 1.77 2.336c.353.849 1.839 3.467 2.123 3.962s.706.424 1.2 1.344a23.6 23.6 0 0 1 .99 2.194s.85-2.548 1.981-2.265.85.424.355 1.274a15.426 15.426 0 0 0-1.344 3.042 7.089 7.089 0 0 1-1.133 2.336c-.495.637-1.132.495-1.274 1.768s.071 7.854.142 10.26a76.514 76.514 0 0 0 .708 7.712c.213 1.132.284 2.831.495 3.255a9.693 9.693 0 0 1 1.415 2.407c.284 1.061 1.628 2.829 1.486 5.236s-.353 2.123-.353 2.123a5.144 5.144 0 0 1 .706 2.689c-.211 1.061-.495.99-.353 1.343s1.132 1.2 1.415 1.912l.011.025q.031 1.179.088 2.366c-.322.566-.689 1.2-.594 1.43.121.306.563.028.679.088.036.619.079 1.239.123 1.86h-17.2a69.8 69.8 0 0 0 2.74-10.23z" class="prefix__cls-7" data-name="Path 11697" transform="translate(-573.992 -1084.885)"/>
                            <path id="prefix__Path_11698" d="M593.525 1145.682h-19.134l.345-1.037a69.714 69.714 0 0 0 2.7-10.032 28.041 28.041 0 0 1 .446-2.9 16.986 16.986 0 0 0 .479-4.511l-.148-.98a9.129 9.129 0 0 1-.054-3.827c.1-.47.169-.853.224-1.168a3.468 3.468 0 0 1 .733-1.942 3.746 3.746 0 0 1 1.018-.9l.671-.334.106.186c.028-.758.049-1.655.065-2.413.039-1.842.08-3.75.218-4.637.113-.73.2-2.676.279-4.56.189-4.394.3-5.948.574-6.5a6.063 6.063 0 0 0 .572-3.378c-.135-.638-.321-1.278-.481-1.838a10.628 10.628 0 0 1-.381-1.56 11.71 11.71 0 0 0-1.344-2.533 17.264 17.264 0 0 1-.983-1.731l-.306-.611.563-.389a2.58 2.58 0 0 1 .61-.31l-.659-1.316.1-.31a1.5 1.5 0 0 1 .834-.867 2.171 2.171 0 0 1 1.824.2 3.8 3.8 0 0 1 2 2.381l.14.356c.211.508.99 1.956 2.081 3.876.033.058.071.09.213.2a3.218 3.218 0 0 1 1 1.16c.115.216.232.448.34.678a2.048 2.048 0 0 1 2.13-1.135c.459.115 1.084.273 1.311.828a1.428 1.428 0 0 1-.3 1.327l-.169.281a14.958 14.958 0 0 0-1.258 2.818 7.918 7.918 0 0 1-1.278 2.648 2.962 2.962 0 0 1-.69.621c-.284.2-.369.257-.424.752-.124 1.119.054 7 .126 9.513l.02.635c.068 2.331.49 6.495.7 7.592.091.49.159 1.084.221 1.642a10.214 10.214 0 0 0 .211 1.415 3.565 3.565 0 0 0 .285.4 6.6 6.6 0 0 1 1.181 2.142 6.626 6.626 0 0 0 .4.976 9.047 9.047 0 0 1 1.1 4.511 11 11 0 0 1-.246 2.095 5.049 5.049 0 0 1 .585 2.826 4.277 4.277 0 0 1-.312 1c.071.082.172.192.277.312a5.733 5.733 0 0 1 1.056 1.493l.068.3q.031 1.173.088 2.347l.011.229-.114.2c-.076.132-.159.284-.24.429l.4.2.027.449c.039.619.08 1.236.124 1.853zm-16.954-1.576h15.263l-.019-.274a.96.96 0 0 1-.67-.594c-.221-.544.1-1.152.528-1.913-.032-.665-.055-1.327-.074-1.99a5.854 5.854 0 0 0-.733-.95 3.38 3.38 0 0 1-.641-.875 1.156 1.156 0 0 1 .071-1.053 2.622 2.622 0 0 0 .241-.739 4.24 4.24 0 0 0-.621-2.15l.643-.416-.589-.35a8.563 8.563 0 0 0 .2-1.789 7.636 7.636 0 0 0-.96-3.753 7.7 7.7 0 0 1-.5-1.234 5.269 5.269 0 0 0-.919-1.6 5.363 5.363 0 0 1-.44-.651 6.718 6.718 0 0 1-.359-1.934c-.058-.517-.118-1.072-.2-1.529a77.467 77.467 0 0 1-.722-7.833l-.019-.635c-.132-4.416-.238-8.654-.118-9.736a2.274 2.274 0 0 1 1.091-1.869 1.48 1.48 0 0 0 .345-.295 6.349 6.349 0 0 0 .984-2.024 16.1 16.1 0 0 1 1.434-3.269l.028-.046a4.614 4.614 0 0 0-.935 1.683l-.692 2.065-.79-2.027a23.1 23.1 0 0 0-.952-2.107 1.657 1.657 0 0 0-.56-.651 2.123 2.123 0 0 1-.634-.676c-.668-1.177-1.838-3.266-2.165-4.049l-.158-.4a2.257 2.257 0 0 0-1.236-1.53c-.036-.019-.069-.035-.1-.047l2.911 5.825-2.9-2.911c.035.054.066.1.1.144a12.115 12.115 0 0 1 1.627 3.272 10.2 10.2 0 0 0 .329 1.3c.17.591.364 1.27.507 1.948a7.616 7.616 0 0 1-.7 4.408 55.582 55.582 0 0 0-.41 5.86c-.088 2.014-.169 3.917-.295 4.732-.121.783-.164 2.722-.2 4.432-.1 4.44-.107 4.9-.921 5.067-.177.036-.651.129-1.3-.648-.009.013-.022.025-.035.039-.194.222-.238.443-.366 1.174-.058.334-.128.736-.236 1.234a7.631 7.631 0 0 0 .069 3.245l.154 1.006a17.471 17.471 0 0 1-.492 5.021 26.47 26.47 0 0 0-.421 2.714 65.049 65.049 0 0 1-2.443 9.377z" class="prefix__cls-8" data-name="Path 11698" transform="translate(-574.391 -1085.173)"/>
                        </g>
                        <g id="prefix__Group_12296" data-name="Group 12296" transform="translate(64.593 19.812)">
                            <g id="prefix__Group_12295" data-name="Group 12295">
                                <path id="prefix__Path_11699" d="M616.373 1137.3c.353-.14.99-.424.99-.99a6.478 6.478 0 0 1 .424-2.265 12.657 12.657 0 0 0 .637-1.132c.284-.424.92-1.628 1.344-2.265a17.9 17.9 0 0 1 1.77-1.91l.424-.566s1.557-5.165 2.052-8.137a73.66 73.66 0 0 0 .708-7.712c0-.353-.566 0-.495-.566s.424-.637.282-1.132a5.809 5.809 0 0 0-.848-1.91 24.24 24.24 0 0 1-1.415-2.265c-.284-.424-.708-3.042-1.133-3.609s-1.2-.99-1.2-1.2a.944.944 0 0 1 1.415-.211 13 13 0 0 1 1.768 1.769s.708-4.954 1.77-4.954c1.083 0 .353 1.7.071 2.407a8.477 8.477 0 0 0-.284 2.263l.071.426.424-.426s.355-2.123.921-2.123a1.246 1.246 0 0 1 1.344.849s1.061-.142 1.273.566l.213.708s.779 0 1.061.426a2.845 2.845 0 0 1 .355 1.769 25.6 25.6 0 0 0-.142 2.689c-.071.708-.213 2.052-.213 2.052l-.353.708s.708.142.495.708-.637.424-.637.424a9.282 9.282 0 0 0-.213 2.052c.071.708.637 7.146.495 8.42s-.069 5.8-.353 6.793c0 0 4.6 4.457 4.457 5.236a34.526 34.526 0 0 1-.87 3.673h-16.923c.093-.294.2-.52.315-.565z" class="prefix__cls-7" data-name="Path 11699" transform="translate(-614.98 -1097.456)"/>
                                <path id="prefix__Path_11700" d="M633.948 1138.935h-18.574l.328-1.028a1.523 1.523 0 0 1 .772-1.051c.405-.161.487-.263.5-.291-.008 0 .074-2.214.648-2.788.027-.035.1-.2.162-.318a5.4 5.4 0 0 1 .377-.695c.121-.183.311-.515.519-.881.277-.484.583-1.021.824-1.382a17.414 17.414 0 0 1 1.883-2.044l.249-.348c.238-.8 1.552-5.278 1.992-7.912.4-2.419.624-5.931.681-7.163a1.06 1.06 0 0 1-.474-1.086 2.123 2.123 0 0 1 .279-.812 5.008 5.008 0 0 0-.619-1.576 9.824 9.824 0 0 1-1.121-1.721c-.162-.281-.3-.528-.393-.662a6.445 6.445 0 0 1-.556-1.731 11.143 11.143 0 0 0-.555-1.846 3.89 3.89 0 0 0-.63-.6c-.389-.322-.727-.6-.727-1.075a1.189 1.189 0 0 1 .716-1.007 1.86 1.86 0 0 1 1.94.148 6.47 6.47 0 0 1 .807.7c.8-4.022 1.893-4.022 2.279-4.022a1.292 1.292 0 0 1 1.122.555 2.3 2.3 0 0 1 .028 1.992h.052a2.15 2.15 0 0 1 1.849.849 1.648 1.648 0 0 1 1.524 1.129l.065.217a1.792 1.792 0 0 1 1.11.7 3.4 3.4 0 0 1 .4 2.558c0 .08-.014.737-.019 1.172-.006.473-.013.943-.044 1.242l-.326 2.4a1.291 1.291 0 0 1 .15.21 1.241 1.241 0 0 1 .06 1.059 1.436 1.436 0 0 1-.7.824 6.289 6.289 0 0 0-.106 1.3c.008.069.657 7.125.495 8.587-.052.47-.074 1.486-.1 2.559-.04 1.775-.079 3.089-.186 3.876 4.591 4.489 4.449 5.267 4.38 5.647a36.7 36.7 0 0 1-.894 3.772zm-15.61-1.576h14.447c.281-1 .533-2.218.657-2.886a32.6 32.6 0 0 0-4.205-4.668l-.34-.329.131-.454a31.061 31.061 0 0 0 .221-3.961c.027-1.16.047-2.161.107-2.7.12-1.075-.358-6.881-.495-8.254a9.624 9.624 0 0 1 .224-2.293l.068-.325-.292-.058.722-1.519.2-1.906c.025-.268.028-.684.035-1.1a4.757 4.757 0 0 1 .186-1.857 3.928 3.928 0 0 0-.306-.979 1.378 1.378 0 0 0-.407-.074h-.591l-.38-1.27a2.523 2.523 0 0 0-.421-.011l-.706.082-.161-.693c-.027-.121-.18-.18-.32-.206a6.666 6.666 0 0 0-.4 1.44l-.043.249-1.685 1.686-.3-1.808-.019.137-.251 1.754-1.135-1.36c-.072-.087-.18-.213-.31-.359.121.385.241.861.385 1.434a11.725 11.725 0 0 0 .352 1.262c.087.126.249.405.432.723a13.132 13.132 0 0 0 .872 1.395 6.116 6.116 0 0 1 1.048 2.251 1.419 1.419 0 0 1-.136 1.149.946.946 0 0 1 .378.766 74.419 74.419 0 0 1-.719 7.843c-.5 2.985-2.011 8.022-2.076 8.234l-.123.246-.424.566a18.393 18.393 0 0 0-1.745 1.876c-.224.335-.509.837-.766 1.289-.232.405-.443.774-.577.975a3.938 3.938 0 0 0-.266.5 2.562 2.562 0 0 1-.47.755 15.713 15.713 0 0 0-.194 1.707 1.46 1.46 0 0 1-.201.75z" class="prefix__cls-8" data-name="Path 11700" transform="translate(-615.374 -1097.743)"/>
                            </g>
                        </g>
                        <g id="prefix__Group_12297" data-name="Group 12297" transform="translate(133.81 18.083)">
                            <path id="prefix__Path_11701" d="M662.03 1134.564a11.618 11.618 0 0 0 1.3-2.758c.052-.364.832-6.815.988-9.469s.156-8.845-.156-9.627a14.493 14.493 0 0 1-1.25-2.549 5.617 5.617 0 0 0-.572-2.5c-.572-.936-1.456-2.03-1.872-2.758a7.212 7.212 0 0 1-.676-1.716c-.052-.208.624-.832 1.821.468s1.352 2.342 2.342 2.446 1.664.312 1.924 0a15.1 15.1 0 0 0 1.354-1.562c0-.156-.938-2.133-.782-2.55s.73-.676.782-.156a2.609 2.609 0 0 0 .52 1.146l.156.26s1.144-.988 1.144-1.458-.312-2.6.156-3.173.728-.366.728-.366l.156 1.042s.26-2.55 1.614-2.082c.155.054-.26 1.3-.26 1.3s.52.052.416.364a5.7 5.7 0 0 0-.364 1.716c0 .676-.312 1.092-.416 2.03s-.678 1.613-.782 2.341a13.223 13.223 0 0 1-.364 2.29 11.321 11.321 0 0 0-.884 2.654c.052.468-.312 1.56-.364 2.289a6.509 6.509 0 0 0 .052 1.77 16.665 16.665 0 0 1 0 2.289c0 .834.312 5.256.416 7.389a44.15 44.15 0 0 0 .572 4.736s1.2 4.059 1.406 5.1a5.979 5.979 0 0 1-.312 3.278c-.092.24-.312.876-.605 1.74h-9.7a28.522 28.522 0 0 1 1.512-3.924z" class="prefix__cls-7" data-name="Path 11701" transform="translate(-659.003 -1096.357)"/>
                            <path id="prefix__Path_11702" d="M671.073 1139.567h-11.362l.347-1.037a21.307 21.307 0 0 1 1.59-4.091 11.774 11.774 0 0 0 1.192-2.462c.058-.4.831-6.829.98-9.4a65.079 65.079 0 0 0-.1-9.3 6.752 6.752 0 0 0-.457-.835 5.617 5.617 0 0 1-.832-1.857c-.051-.288-.073-.556-.093-.818a2.742 2.742 0 0 0-.375-1.406c-.271-.443-.615-.92-.941-1.376-.37-.52-.722-1.012-.946-1.4a8.006 8.006 0 0 1-.755-1.913 1.048 1.048 0 0 1 .58-1.149c.356-.191 1.321-.482 2.586.89a11.142 11.142 0 0 1 1.072 1.4c.411.61.541.769.772.794.249.025.479.058.689.088a6.224 6.224 0 0 0 .649.073c.1-.107.23-.249.372-.4.166-.175.427-.454.605-.657l-.057-.143c-.563-1.4-.769-2.066-.582-2.563a1.437 1.437 0 0 1 1.4-.947 1.048 1.048 0 0 1 .9.991.862.862 0 0 0 .052.209 1.372 1.372 0 0 0 .214-.3c-.021.035-.032-.12-.046-.312-.114-1.392-.164-2.6.363-3.24a1.588 1.588 0 0 1 1.231-.692 2.166 2.166 0 0 1 .714-.812 1.589 1.589 0 0 1 1.42-.148c.69.241.635.927.432 1.656a1.111 1.111 0 0 1 .112.144 1 1 0 0 1 .1.862 5.1 5.1 0 0 0-.322 1.467 3.837 3.837 0 0 1-.213 1.174 4.935 4.935 0 0 0-.21.941 5.048 5.048 0 0 1-.5 1.584 3.259 3.259 0 0 0-.284.782c-.027.2-.052.424-.077.653a7.566 7.566 0 0 1-.334 1.819l-.115.276a10.605 10.605 0 0 0-.717 2.036 4.8 4.8 0 0 1-.183 1.381 7.576 7.576 0 0 0-.18 1.014 5.652 5.652 0 0 0 .041 1.571 7.679 7.679 0 0 1 .036 1.6c-.011.273-.024.553-.024.828 0 .451.1 2.155.208 3.8.08 1.3.162 2.634.206 3.55a43.626 43.626 0 0 0 .561 4.634c.03.083 1.19 4.021 1.4 5.084a6.727 6.727 0 0 1-.35 3.715c-.088.233-.3.861-.593 1.712zm-9.168-1.576h8.038c.206-.6.359-1.04.43-1.231a5.156 5.156 0 0 0 .277-2.846c-.2-.993-1.376-4.99-1.388-5.029a42.744 42.744 0 0 1-.6-4.919c-.046-.911-.128-2.241-.206-3.529-.115-1.823-.211-3.4-.211-3.9 0-.3.013-.6.025-.894a6.974 6.974 0 0 0-.013-1.253 7.252 7.252 0 0 1-.063-1.969 9.522 9.522 0 0 1 .211-1.233 5.637 5.637 0 0 0 .156-.914 7.264 7.264 0 0 1 .829-2.771l.109-.262a7.448 7.448 0 0 0 .23-1.4c.027-.247.054-.49.084-.706a4.45 4.45 0 0 1 .408-1.207l.014-.03-.2-1.359a4.657 4.657 0 0 1-1.316 1.586l-.457.4a.95.95 0 0 1 .054.309c0 .4-.214.646-1.121 1.614-.178.191-.337.358-.416.452-.478.57-1.2.471-1.98.359-.192-.025-.4-.057-.634-.08a2.658 2.658 0 0 1-1.913-1.483 9.445 9.445 0 0 0-.925-1.212c-.033-.038-.066-.071-.1-.1.065.14.137.285.218.425.2.356.523.8.857 1.267.348.487.716 1 1 1.472a4.254 4.254 0 0 1 .6 2.106 6.664 6.664 0 0 0 .074.667 4.432 4.432 0 0 0 .627 1.316 7.723 7.723 0 0 1 .577 1.076c.422 1.056.334 7.852.21 9.967-.154 2.668-.932 9.105-.995 9.534a11.758 11.758 0 0 1-1.411 3.062 17.359 17.359 0 0 0-1.084 2.715z" class="prefix__cls-8" data-name="Path 11702" transform="translate(-659.291 -1096.646)"/>
                        </g>
                        <g id="prefix__Group_12298" data-name="Group 12298" transform="translate(86.44 43.144)">
                            <path id="prefix__Path_11703" d="M629.659 1116.091a5.351 5.351 0 0 0 .572-.857c.158-.364.339-.624.574-1.171s.129-.755.441-1.248" class="prefix__cls-7" data-name="Path 11703" transform="translate(-628.991 -1112.392)"/>
                            <path id="prefix__Path_11704" d="M630.573 1116.661l-1.338-.832a3.656 3.656 0 0 1 .219-.3 2.277 2.277 0 0 0 .3-.449c.077-.181.162-.345.257-.523s.2-.372.314-.646a2.179 2.179 0 0 0 .129-.424 2.624 2.624 0 0 1 .37-.936l1.333.845a1.09 1.09 0 0 0-.165.433 3.625 3.625 0 0 1-.217.7c-.139.323-.262.555-.37.763-.074.137-.14.263-.2.407a3.747 3.747 0 0 1-.5.8c-.055.057-.105.112-.132.162z" class="prefix__cls-8" data-name="Path 11704" transform="translate(-629.235 -1112.546)"/>
                        </g>
                        <g id="prefix__Group_12299" data-name="Group 12299" transform="translate(79.325 4.012)">
                            <path id="prefix__Path_11706" d="M633.8 1125.241s-.807-6.453-1.015-6.792-2.315-4.6-2.394-4.787 1.535-1.3 1.587-1.483a22.8 22.8 0 0 0-1.092-3.979c-.312-.574-2.082-3.045-2.394-5.49s-.312-3.409-.389-3.538a13.324 13.324 0 0 0-1.2-2.082c-.26-.156-1.248-.7-1.377-.832s-.47-.572-.21-.728a2.82 2.82 0 0 1 1.822.208c.651.285 1.664.649 1.847.78s.468-.156.183-.7-2.525-3.694-2.733-3.98-.572-.755-.077-1.2 1.3.99 1.587 1.146a6.316 6.316 0 0 1 .962 1.065c.208.235 1.535 1.51 1.743 1.77l.418.52a8.652 8.652 0 0 0-.391-2.159 34.3 34.3 0 0 1-1.926-3.929c-.077-.468.027-.753.574-.7s.936.857 1.248 1.352 1.483 2.315 1.768 2.627a1.675 1.675 0 0 1 .572.885 5.028 5.028 0 0 0 .157.781 4.168 4.168 0 0 0 .26-1.2c-.052-.389-.235-1.587-.312-1.9a15.361 15.361 0 0 1-.47-1.612c0-.26-.381-1.263.8-1.034.558.107.589 1.127.966 1.8a13.643 13.643 0 0 1 .618 2.094 2.417 2.417 0 0 1 .268 1.611 14.213 14.213 0 0 0-.482 2.095c-.082.725-.136 2.148-.136 2.766s-.08 2.445.054 4a9.986 9.986 0 0 0 .35 2.766 9.723 9.723 0 0 1 1.127 2.336l.834 2.523a1.331 1.331 0 0 1 .832.941 56.537 56.537 0 0 0 2.443 5.316c.323.591.913 2.095 1.129 2.443a12.8 12.8 0 0 1 .832 1.934 20.723 20.723 0 0 0 2.095 3.061c.484.51 2.229 1.907 2.148 1.88s-.377.618-.43 1.075a6.38 6.38 0 0 1-.027 1.423 6.725 6.725 0 0 0-.214.832 14.133 14.133 0 0 1 .913 4.08c.243 2.579.35 3.464.35 3.787s.027.859.027.859a8.786 8.786 0 0 1 1.289 1.8 29.692 29.692 0 0 1 4.177 3.961l-20.321.083" class="prefix__cls-7" data-name="Path 11706" transform="translate(-624.433 -1087.43)"/>
                            <path id="prefix__Path_11707" d="M632.479 1144.794l-.006-1.576 18.544-.076a31.233 31.233 0 0 0-2.875-2.553l-.148-.113-.082-.169a8.066 8.066 0 0 0-1.157-1.6l-.2-.213-.013-.288s-.028-.563-.028-.9c0-.187-.041-.575-.123-1.409l-.224-2.3a13.67 13.67 0 0 0-.848-3.838l-.093-.213.036-.235a7.336 7.336 0 0 1 .24-.939 1.423 1.423 0 0 0 .01-.553 3.323 3.323 0 0 1-.013-.726 4.138 4.138 0 0 1 .211-.807l-.028-.026c-.717-.6-1.385-1.163-1.693-1.488a18.718 18.718 0 0 1-2.295-3.448 13.358 13.358 0 0 0-.73-1.674c-.118-.191-.337-.684-.569-1.215-.206-.474-.424-.98-.58-1.266a54.392 54.392 0 0 1-2.522-5.523.545.545 0 0 0-.3-.362l-.381-.121-.126-.383s-.429-1.313-.832-2.519a8.884 8.884 0 0 0-1.034-2.148 4.524 4.524 0 0 1-.4-2.1l-.08-1.032c-.109-1.269-.08-2.69-.065-3.54l.008-.53c0-.635.057-2.1.139-2.853a12.577 12.577 0 0 1 .422-1.909l.085-.306a1.617 1.617 0 0 0-.206-1.031 5.408 5.408 0 0 1-.274-.987c-.035-.158-.066-.317-.106-.471.1.528.221 1.36.257 1.633a3.161 3.161 0 0 1-.238 1.362l-.016.046v.627l-.733.06c-.775.038-.875-.649-.99-1.463-.009-.068-.087-.155-.27-.352a18.423 18.423 0 0 1-1.2-1.682c.3.594.575 1.1.681 1.269a7.407 7.407 0 0 1 .509 2.52l.189 2.526-2.008-2.5c-.12-.146-.586-.6-1-1.01-.052-.053-.106-.1-.156-.154.459.668.859 1.267.984 1.5a1.307 1.307 0 0 1-.158 1.65.952.952 0 0 1-1.182.06c-.1-.055-.427-.18-.783-.322l-.028-.011a15.732 15.732 0 0 1 .949 1.713l.12.236a2.381 2.381 0 0 1 .194 1.05c.047.549.123 1.441.295 2.783a13.03 13.03 0 0 0 2.03 4.761c.123.2.219.352.273.452.2.362 1.332 3.972 1.16 4.574-.091.318-.323.5-.936 1-.136.109-.32.259-.474.389.555 1.132 1.975 3.989 2.131 4.249.1.17.3.485 1.124 7.105l-1.564.2c-.363-2.911-.82-6.169-.957-6.585-.181-.273-2.295-4.552-2.393-4.779-.281-.653.224-1.061 1.141-1.8.12-.1.238-.191.336-.27a26.78 26.78 0 0 0-.95-3.324c-.046-.083-.126-.211-.227-.375A14.334 14.334 0 0 1 628 1103.1c-.175-1.376-.254-2.287-.3-2.85-.02-.236-.033-.4-.047-.5-.027-.054-.065-.123-.1-.2a12.408 12.408 0 0 0-.873-1.575l-.216-.1a6.5 6.5 0 0 1-1.2-.76 1.652 1.652 0 0 1-.526-1.243.978.978 0 0 1 .471-.717 3.388 3.388 0 0 1 2.544.162c.1.047.222.1.342.147-.727-1.077-1.765-2.542-2-2.865-.813-1.111-.429-1.833.035-2.248a1.112 1.112 0 0 1 .823-.281c.648.05 1.133.64 1.523 1.114a3.282 3.282 0 0 0 .225.265 3.6 3.6 0 0 1 .889.927 19.106 19.106 0 0 1-1.319-2.892 1.454 1.454 0 0 1 .284-1.253 1.3 1.3 0 0 1 1.138-.367c.865.083 1.352.9 1.707 1.494l.135.224c.244.385.567.887.868 1.341l-.006-.019a4.994 4.994 0 0 1-.339-1.318 1.6 1.6 0 0 1 .317-1.5 1.511 1.511 0 0 1 1.419-.306c.818.158 1.072.953 1.258 1.535a3.683 3.683 0 0 0 .247.651 5.268 5.268 0 0 1 .5 1.548 4.107 4.107 0 0 0 .162.64 3.1 3.1 0 0 1 .3 2.112l-.087.315a10.972 10.972 0 0 0-.374 1.66c-.074.676-.129 2.069-.129 2.678l-.008.56c-.016.819-.043 2.191.06 3.375l.08 1.054a8.169 8.169 0 0 0 .156 1.371 10.42 10.42 0 0 1 1.2 2.494c.282.851.58 1.754.731 2.216a2.111 2.111 0 0 1 .955 1.327c.123.555 1.945 4.342 2.366 5.108.17.315.416.872.641 1.393.194.443.37.86.467 1.02a12.582 12.582 0 0 1 .933 2.188 28.672 28.672 0 0 0 1.893 2.676c.271.284 1.078.96 1.559 1.363.668.558 1.037.865.708 1.445l-.254.446a1.736 1.736 0 0 0-.082.333 2.194 2.194 0 0 0 .016.391 2.8 2.8 0 0 1-.074 1.177c-.068.219-.117.4-.145.523a16.072 16.072 0 0 1 .876 4.081l.222 2.3c.091.925.131 1.355.131 1.563 0 .159.006.374.014.544a9.416 9.416 0 0 1 1.136 1.6 29.961 29.961 0 0 1 4.161 3.972l1.067 1.285z" class="prefix__cls-8" data-name="Path 11707" transform="translate(-624.721 -1087.718)"/>
                        </g>
                        <g id="prefix__Group_12300" data-name="Group 12300" transform="translate(31.859 18.045)">
                            <path id="prefix__Path_11708" d="M609.624 1099.786c.361.11.528.471.575.957a6.537 6.537 0 0 1-.131 1.705 4.908 4.908 0 0 0-.055 2.386c.165.5.5 1.11.61 1.387s.165.72.333.887a15.171 15.171 0 0 0 1.887.832 4.386 4.386 0 0 0 1.22 0s2.552-2.219 3.939-2.219h.041a.84.84 0 0 1 .586 1.428 3.571 3.571 0 0 0-.572.736c-.388.72-1 .775-1.387 1.165a8.057 8.057 0 0 0-1.33 1.5 4.977 4.977 0 0 1-2.219 1.775 3.526 3.526 0 0 0-2 1.887 2.578 2.578 0 0 1-.277.887l.277.389s-.667.888-.944 1.387-.555 2.829-.72 3.217a3.763 3.763 0 0 0-.389 1.387 15.916 15.916 0 0 1-.277 1.609c0 .277-.11 1.552-.055 2.774a28.035 28.035 0 0 1 0 3.107c-.055.388.722.555.277 1.552s-.777 1.109-.72 1.942.942 1.5.665 1.942a7.146 7.146 0 0 0-.887 1.719 3.4 3.4 0 0 0 .11 1.887H595.14a31.593 31.593 0 0 1 .394-3.441c.277-1.332 1.277-5.048 1.887-6.713s4.549-7.656 5.048-9.042 2.441-4.938 2.441-5.271.333-.167.277-.333a3.842 3.842 0 0 0 .72-2.276c-.11-1.442-1.165-4.6-1.165-5.269s.388-.889.445-1.387 0-1.442.055-2.109a3.973 3.973 0 0 1 .555-1.609 19.89 19.89 0 0 0 1.275-3.05.407.407 0 0 1 .172-.293.649.649 0 0 1 .585-.053 1.359 1.359 0 0 1 .686.567" class="prefix__cls-7" data-name="Path 11708" transform="translate(-594.297 -1096.333)"/>
                            <path id="prefix__Path_11709" d="M609.9 1139.116l-1.409-.031H594.6l.057-.842a31.435 31.435 0 0 1 .41-3.55c.288-1.388 1.3-5.154 1.917-6.823a45.062 45.062 0 0 1 2.763-4.979 45.108 45.108 0 0 0 2.285-4.06c.273-.76.924-2.071 1.5-3.228.377-.761.848-1.707.909-1.92a.863.863 0 0 1 .407-.7c.043-.073.087-.137.128-.2a2.163 2.163 0 0 0 .451-1.5 23.048 23.048 0 0 0-.69-3.117 11.547 11.547 0 0 1-.478-2.213 2.4 2.4 0 0 1 .334-1.2.944.944 0 0 0 .115-.273c.025-.227.022-.556.022-.9 0-.4 0-.831.032-1.182a4.374 4.374 0 0 1 .564-1.759 22.414 22.414 0 0 0 1.269-2.93 1.192 1.192 0 0 1 .5-.842 1.434 1.434 0 0 1 1.286-.161 2.158 2.158 0 0 1 1.1.881l-1.311.875a.945.945 0 0 0-.107-.137 27.479 27.479 0 0 1-1.25 2.881l-.073.144a2.9 2.9 0 0 0-.4 1.179c-.027.312-.025.69-.025 1.051 0 .415 0 .805-.031 1.078a2.231 2.231 0 0 1-.29.835.877.877 0 0 0-.15.463 17.855 17.855 0 0 0 .426 1.809 22.963 22.963 0 0 1 .736 3.4 3.691 3.691 0 0 1-.72 2.514.815.815 0 0 1-.095.261l-.273.334c-.123.325-.389.876-.963 2.033-.528 1.064-1.187 2.386-1.428 3.061a40.009 40.009 0 0 1-2.415 4.333 47.733 47.733 0 0 0-2.635 4.714c-.593 1.614-1.576 5.255-1.857 6.6-.118.566-.23 1.555-.312 2.493h11.223a4.1 4.1 0 0 1 .1-1.306 6.823 6.823 0 0 1 .867-1.751c-.039-.074-.093-.166-.134-.233a3.188 3.188 0 0 1-.537-1.417 2.5 2.5 0 0 1 .429-1.63 6.594 6.594 0 0 0 .359-.686.555.555 0 0 0 .068-.246.836.836 0 0 0-.093-.137 1.252 1.252 0 0 1-.314-.961 28.4 28.4 0 0 0-.006-2.96c-.044-.941.008-1.886.036-2.451.009-.169.017-.293.017-.358a4.019 4.019 0 0 1 .145-.832 6.211 6.211 0 0 0 .14-.7c-.025-.09-.1-.487.445-1.771.055-.159.123-.585.208-1.058a8.934 8.934 0 0 1 .547-2.233c.167-.3.443-.7.662-1.009l-.24-.339.249-.437a1.778 1.778 0 0 0 .178-.583 4.144 4.144 0 0 1 2.578-2.561 4.523 4.523 0 0 0 1.707-1.346 6.19 6.19 0 0 1 1.294-1.531l.194-.192a3.027 3.027 0 0 1 .665-.471 1.253 1.253 0 0 0 .588-.51 4.194 4.194 0 0 1 .7-.909c-.853-.092-2.516 1.094-3.483 1.934l-.183.159-.243.029a3.588 3.588 0 0 1-1.6-.051c-1.762-.693-1.992-.846-2.153-1.007a1.939 1.939 0 0 1-.432-.9 2.261 2.261 0 0 0-.074-.249c-.035-.09-.1-.215-.165-.359a9.606 9.606 0 0 1-.462-1.072 5.6 5.6 0 0 1 .027-2.774 5.734 5.734 0 0 0 .125-1.488.758.758 0 0 0-.077-.319l.519-1.47a1.694 1.694 0 0 1 1.127 1.63 7.122 7.122 0 0 1-.14 1.926 4.533 4.533 0 0 0-.083 2 7.916 7.916 0 0 0 .386.884c.088.188.165.347.21.458a4.041 4.041 0 0 1 .131.418c.017.058.036.137.057.2.172.087.567.262 1.471.616a2.464 2.464 0 0 0 .725.019c.739-.618 2.821-2.246 4.262-2.246a1.63 1.63 0 0 1 1.193 2.766 2.674 2.674 0 0 0-.441.556 2.758 2.758 0 0 1-1.2 1.136 1.674 1.674 0 0 0-.328.214l-.2.2a8.078 8.078 0 0 0-.963 1.056 5.563 5.563 0 0 1-2.736 2.219 3.112 3.112 0 0 0-1.426 1.263 2.932 2.932 0 0 1-.153.654l.355.5-.345.46c-.177.235-.679.927-.887 1.3a14.389 14.389 0 0 0-.374 1.74 8.072 8.072 0 0 1-.309 1.4 4.243 4.243 0 0 0-.333 1 3.376 3.376 0 0 1-.167 1.215 4.7 4.7 0 0 0-.1.5c0 .057-.008.211-.019.418-.028.536-.077 1.433-.038 2.3.047 1.021.06 2.415.014 3.052a1.777 1.777 0 0 1 .2 1.962 8.14 8.14 0 0 1-.437.835.98.98 0 0 0-.219.735 1.9 1.9 0 0 0 .317.712 1.569 1.569 0 0 1 .23 1.7l-.085.134a5.9 5.9 0 0 0-.711 1.375 2.941 2.941 0 0 0 .044 1.3z" class="prefix__cls-8" data-name="Path 11709" transform="translate(-594.605 -1096.621)"/>
                        </g>
                        <g id="prefix__Group_12301" data-name="Group 12301" transform="translate(45.204 18.444)">
                            <path id="prefix__Path_11710" d="M603.338 1097.3a5.914 5.914 0 0 1 2.139 3.5" class="prefix__cls-7" data-name="Path 11710" transform="translate(-602.919 -1096.631)"/>
                            <path id="prefix__Path_11711" d="M604.856 1101.192a5.149 5.149 0 0 0-1.784-2.98l.839-1.337a6.688 6.688 0 0 1 2.495 4.021z" class="prefix__cls-8" data-name="Path 11711" transform="translate(-603.072 -1096.875)"/>
                        </g>
                    </g>
                </g>
            </g>
        </g>
    </g>
</svg>
